<?xml version="1.0" encoding="utf-8"?>
<!-- Generator: Adobe Illustrator 27.4.1, SVG Export Plug-In . SVG Version: 6.00 Build 0)  -->
<svg version="1.1" id="Layer_1" xmlns="http://www.w3.org/2000/svg" xmlns:xlink="http://www.w3.org/1999/xlink" x="0px" y="0px"
	 viewBox="0 0 2075 1029" style="enable-background:new 0 0 2075 1029;" xml:space="preserve">
<style type="text/css">
	.st0{fill:#FFFFFF;}
	.st1{fill:none;}
	.st2{fill:none;stroke:#888888;stroke-miterlimit:10;}
	.st3{display:none;fill:none;stroke:#888888;stroke-miterlimit:10;}
	.st4{font-family:'Helvetica';}
	.st5{font-size:20px;}
	.st6{fill:#B80000;}
	.st7{font-family:'Helvetica-Bold';}
	.st8{font-size:12px;}
	.st9{font-size:35px;}
	.st10{display:none;}
	.st11{font-size:23px;}
	.st12{fill:#F7F7F7;}
	.st13{fill:#E6E6E6;}
	.st14{display:none;fill:#E6E6E6;}
	.st15{fill:none;stroke:#000000;stroke-width:4;stroke-miterlimit:10;}
	.st16{fill:none;stroke:#000000;stroke-width:4;stroke-miterlimit:10;stroke-dasharray:15.1954,15.1954;}
	.st17{font-family:'MyriadPro-Regular';}
	.st18{font-size:30px;}
</style>
<rect class="st0" width="2075" height="1029"/>
<g transform="translate(232,59)">
	<g>
		<g transform="translate(0,0)">
			<path class="st1" d="M0,0L0,0L0,0L0,0z"/>
			<g>
				<g>
					<g transform="translate(0,0)">
						<path class="st1" d="M0,0L0,0L0,0L0,0z"/>
						<g>
							<g>
								<g transform="translate(0,0)">
									<path class="st1" d="M0,0h1700v480H0V0z"/>
									<g>
										<g>
											<g transform="translate(0.5,480.5)">
												<path pointer-events="none" class="st1" d="M0,0L0,0L0,0L0,0z"/>
												<g>
													<g pointer-events="none">
														<line class="st2" x1="0" y1="0" x2="1700" y2="0"/>
													</g>
												</g>
												<path pointer-events="none" class="st3" d="M0,0"/>
											</g>
										</g>
										<g>
											<g transform="translate(0.5,0.5)">
												<path pointer-events="none" class="st1" d="M0,0L0,0L0,0L0,0z"/>
												<g>
													<g pointer-events="none">
														<line class="st2" x1="0" y1="480" x2="-5" y2="480"/>
														<line class="st2" x1="0" y1="432" x2="-5" y2="432"/>
														<line class="st2" x1="0" y1="384" x2="-5" y2="384"/>
														<line class="st2" x1="0" y1="336" x2="-5" y2="336"/>
														<line class="st2" x1="0" y1="288" x2="-5" y2="288"/>
														<line class="st2" x1="0" y1="240" x2="-5" y2="240"/>
														<line class="st2" x1="0" y1="192" x2="-5" y2="192"/>
														<line class="st2" x1="0" y1="144" x2="-5" y2="144"/>
														<line class="st2" x1="0" y1="96" x2="-5" y2="96"/>
														<line class="st2" x1="0" y1="48" x2="-5" y2="48"/>
														<line class="st2" x1="0" y1="0" x2="-5" y2="0"/>
													</g>
													<g pointer-events="none">
														<text transform="matrix(1 0 0 1 -18.123 486)" class="st4 st5">0</text>
														<text transform="matrix(1 0 0 1 -95.9746 438)" class="st4 st5">1,000,000</text>
														<text transform="matrix(1 0 0 1 -95.9746 390)" class="st4 st5">2,000,000</text>
														<text transform="matrix(1 0 0 1 -95.9746 342)" class="st4 st5">3,000,000</text>
														<text transform="matrix(1 0 0 1 -95.9746 294)" class="st4 st5">4,000,000</text>
														<text transform="matrix(1 0 0 1 -95.9746 246)" class="st4 st5">5,000,000</text>
														<text transform="matrix(1 0 0 1 -95.9746 198)" class="st4 st5">6,000,000</text>
														<text transform="matrix(1 0 0 1 -95.9746 150)" class="st4 st5">7,000,000</text>
														<text transform="matrix(1 0 0 1 -95.9746 102)" class="st4 st5">8,000,000</text>
														<text transform="matrix(1 0 0 1 -95.9746 54)" class="st4 st5">9,000,000</text>
														<text transform="matrix(1 0 0 1 -107.0977 6)" class="st4 st5">10,000,000</text>
													</g>
													<g pointer-events="none">
														<line class="st2" x1="0" y1="480" x2="0" y2="0"/>
													</g>
												</g>
												<path pointer-events="none" class="st3" d="M0,0"/>
											</g>
										</g>
										<g>
											<path class="st6" d="M7.4,1.6h40V480h-40L7.4,1.6z"/>
											<path class="st6" d="M62.3,201.5h40V480h-40V201.5z"/>
											<path class="st6" d="M117.1,205.3h40V480h-40V205.3z"/>
											<path class="st6" d="M171.9,227.1h40V480h-40V227.1z"/>
											<path class="st6" d="M226.8,227.6h40V480h-40V227.6z"/>
											<path class="st6" d="M281.6,233.4h40V480h-40V233.4z"/>
											<path class="st6" d="M336.5,245.2h40V480h-40V245.2z"/>
											<path class="st6" d="M391.3,249.8h40V480h-40V249.8z"/>
											<path class="st6" d="M446.1,251h40v229h-40V251z"/>
											<path class="st6" d="M501,255.1h40V480h-40L501,255.1z"/>
											<path class="st6" d="M555.8,261.3h40V480h-40V261.3z"/>
											<path class="st6" d="M610.6,270.1h40V480h-40V270.1z"/>
											<path class="st6" d="M665.5,273.4h40V480h-40V273.4z"/>
											<path class="st6" d="M720.3,302.6h40V480h-40V302.6z"/>
											<path class="st6" d="M775.2,304.4h40V480h-40V304.4z"/>
											<path class="st6" d="M830,324h40v156h-40V324z"/>
											<path class="st6" d="M884.8,331.3h40V480h-40V331.3z"/>
											<path class="st6" d="M939.7,333.1h40V480h-40V333.1z"/>
											<path class="st6" d="M994.5,333.6h40V480h-40V333.6z"/>
											<path class="st6" d="M1049.4,333.8h40V480h-40V333.8z"/>
											<path class="st6" d="M1104.2,339.2h40V480h-40V339.2z"/>
											<path class="st6" d="M1159,345.5h40V480h-40V345.5z"/>
											<path class="st6" d="M1213.9,367h40v113h-40V367z"/>
											<path class="st6" d="M1268.7,376.1h40V480h-40V376.1z"/>
											<path class="st6" d="M1323.5,376.4h40V480h-40V376.4z"/>
											<path class="st6" d="M1378.4,377.5h40V480h-40V377.5z"/>
											<path class="st6" d="M1433.2,382.3h40V480h-40V382.3z"/>
											<path class="st6" d="M1488.1,388.1h40V480h-40V388.1z"/>
											<path class="st6" d="M1542.9,390.2h40V480h-40V390.2z"/>
											<path class="st6" d="M1597.7,392.9h40V480h-40V392.9z"/>
											<path class="st6" d="M1652.6,407h40v73h-40V407z"/>
										</g>
										<g>
											<text transform="matrix(1 0 0 1 0.727 -4.3507)" class="st6 st7 st8">9,965,640</text>
											<text transform="matrix(1 0 0 1 55.5657 195.5233)" class="st6 st7 st8">5,801,598</text>
											<text transform="matrix(1 0 0 1 110.4044 199.2817)" class="st6 st7 st8">5,723,298</text>
											<text transform="matrix(1 0 0 1 165.2431 221.0904)" class="st6 st7 st8">5,268,950</text>
											<text transform="matrix(1 0 0 1 220.0818 221.59)" class="st6 st7 st8">5,258,541</text>
											<text transform="matrix(1 0 0 1 274.9205 227.4295)" class="st6 st7 st8">5,136,885</text>
											<text transform="matrix(1 0 0 1 329.7592 239.2327)" class="st6 st7 st8">4,890,986</text>
											<text transform="matrix(1 0 0 1 384.5979 243.7612)" class="st6 st7 st8">4,796,642</text>
											<text transform="matrix(1 0 0 1 439.4366 245.0272)" class="st6 st7 st8">4,770,266</text>
											<text transform="matrix(1 0 0 1 494.2753 249.1233)" class="st6 st7 st8">4,684,931</text>
											<text transform="matrix(1 0 0 1 549.1141 255.2618)" class="st6 st7 st8">4,557,046</text>
											<text transform="matrix(1 0 0 1 603.9528 264.0924)" class="st6 st7 st8">4,373,075</text>
											<text transform="matrix(1 0 0 1 658.7915 267.3966)" class="st6 st7 st8">4,304,237</text>
											<text transform="matrix(1 0 0 1 713.6302 296.6221)" class="st6 st7 st8">3,695,372</text>
											<text transform="matrix(1 0 0 1 768.4689 298.3682)" class="st6 st7 st8">3,658,997</text>
											<text transform="matrix(1 0 0 1 823.3076 318.0291)" class="st6 st7 st8">3,249,394</text>
											<text transform="matrix(1 0 0 1 878.1462 325.322)" class="st6 st7 st8">3,097,457</text>
											<text transform="matrix(1 0 0 1 932.9851 327.137)" class="st6 st7 st8">3,059,647</text>
											<text transform="matrix(1 0 0 1 987.8237 327.6345)" class="st6 st7 st8">3,049,282</text>
											<text transform="matrix(1 0 0 1 1042.6625 327.7593)" class="st6 st7 st8">3,046,682</text>
											<text transform="matrix(1 0 0 1 1097.5012 333.2272)" class="st6 st7 st8">2,932,766</text>
											<text transform="matrix(1 0 0 1 1152.3398 339.4909)" class="st6 st7 st8">2,802,273</text>
											<text transform="matrix(1 0 0 1 1207.1786 361.0465)" class="st6 st7 st8">2,353,197</text>
											<text transform="matrix(1 0 0 1 1262.0173 370.0721)" class="st6 st7 st8">2,165,165</text>
											<text transform="matrix(1 0 0 1 1316.856 370.3698)" class="st6 st7 st8">2,158,963</text>
											<text transform="matrix(1 0 0 1 1371.6947 371.5035)" class="st6 st7 st8">2,135,342</text>
											<text transform="matrix(1 0 0 1 1426.5334 376.3113)" class="st6 st7 st8">2,035,182</text>
											<text transform="matrix(1 0 0 1 1481.3722 382.0693)" class="st6 st7 st8">1,915,222</text>
											<text transform="matrix(1 0 0 1 1536.2108 384.1693)" class="st6 st7 st8">1,871,474</text>
											<text transform="matrix(1 0 0 1 1591.0496 386.8823)" class="st6 st7 st8">1,814,952</text>
											<text transform="matrix(1 0 0 1 1645.8883 400.9902)" class="st6 st7 st8">1,521,037</text>
										</g>
										<g>
											<g transform="translate(850,-53.35072)">
												<path pointer-events="none" class="st1" d="M0,0L0,0L0,0L0,0z"/>
												<g>
													<g pointer-events="none">
														<text transform="matrix(1 0 0 1 -289.7925 28)" class="st7 st9">Hot Springs Genome Sizes (bases)</text>
													</g>
												</g>
												<path pointer-events="none" class="st10" d="M0,0"/>
											</g>
										</g>
									</g>
									<path class="st10" d="M0,0"/>
								</g>
							</g>
						</g>
						<path class="st10" d="M0,0"/>
					</g>
				</g>
				<g>
					<g transform="translate(0,510)">
						<path class="st1" d="M0,0h1700v128H0V0z"/>
						<g>
							<g>
								<g transform="translate(0.5,128.5)">
									<path pointer-events="none" class="st1" d="M0,0L0,0L0,0L0,0z"/>
									<g>
										<g pointer-events="none">
											<text transform="matrix(0.7071 -0.7071 0.7071 0.7071 -214.9097 266.4565)" class="st4 st5">Candidatus Solibacter usitatus Ellin6076</text>
											<text transform="matrix(0.7071 -0.7071 0.7071 0.7071 -38.9721 145.3574)" class="st4 st5">Roseiflexus sp. RS-1</text>
											<text transform="matrix(0.7071 -0.7071 0.7071 0.7071 -81.623 242.8472)" class="st4 st5">Roseiflexus castenholzii DSM 13941</text>
											<text transform="matrix(0.7071 -0.7071 0.7071 0.7071 -4.7978 220.8608)" class="st4 st5">Chloroflexus aurantiacus Y-400-fl</text>
											<text transform="matrix(0.7071 -0.7071 0.7071 0.7071 58.721 212.1807)" class="st4 st5">Chloroflexus aurantiacus J-10-fl</text>
											<text transform="matrix(0.7071 -0.7071 0.7071 0.7071 99.4246 226.3159)" class="st4 st5">Chloroflexus islandicus strain isl-2</text>
											<text transform="matrix(0.7071 -0.7071 0.7071 0.7071 213.1726 167.4062)" class="st4 st5">Chloroflexus sp. Y-396-1</text>
											<text transform="matrix(0.7071 -0.7071 0.7071 0.7071 232.6145 202.8032)" class="st4 st5">Pseudanabaena sp. ABRG5-3</text>
											<text transform="matrix(0.7071 -0.7071 0.7071 0.7071 334.6927 155.5635)" class="st4 st5">Chloroflexus sp. MS-G</text>
											<text transform="matrix(0.7071 -0.7071 0.7071 0.7071 311.6668 233.4282)" class="st4 st5">Chloroflexus aggregans DSM 9485</text>
											<text transform="matrix(0.7071 -0.7071 0.7071 0.7071 391.6272 208.3066)" class="st4 st5">Pseudanabaena sp. PCC 7367</text>
											<text transform="matrix(0.7071 -0.7071 0.7071 0.7071 455.9883 198.7842)" class="st4 st5">Oscillochloris trichoides DG-6</text>
											<text transform="matrix(0.7071 -0.7071 0.7071 0.7071 498.1834 211.4277)" class="st4 st5">Elioraea tepidiphila DSM 17972</text>
											<text transform="matrix(0.7071 -0.7071 0.7071 0.7071 518.4746 245.9751)" class="st4 st5">Chloracidobacterium thermophilum B</text>
											<text transform="matrix(0.7071 -0.7071 0.7071 0.7071 588.4912 230.7974)" class="st4 st5">Ignavibacterium album JCM 16511</text>
											<text transform="matrix(0.7071 -0.7071 0.7071 0.7071 653.3081 220.8193)" class="st4 st5">Meiothermus silvanus DSM 9946</text>
											<text transform="matrix(0.7071 -0.7071 0.7071 0.7071 726.2251 202.7412)" class="st4 st5">Meiothermus ruber DSM 1279</text>
											<text transform="matrix(0.7071 -0.7071 0.7071 0.7071 672.0286 311.7764)" class="st4 st5">Candidatus Thermochlorobacteriaceae GBChlB</text>
											<text transform="matrix(0.7071 -0.7071 0.7071 0.7071 764.3425 274.3013)" class="st4 st5">Gloeomargarita lithophora Alchichica-D10</text>
											<text transform="matrix(0.7071 -0.7071 0.7071 0.7071 855.02 238.4624)" class="st4 st5">Synechococcus sp. JA-2-3B&apos;a(2-13)</text>
											<text transform="matrix(0.7071 -0.7071 0.7071 0.7071 950.2825 198.0386)" class="st4 st5">Synechococcus sp. JA-3-3Ab</text>
											<text transform="matrix(0.7071 -0.7071 0.7071 0.7071 974.489 228.6704)" class="st4 st5">Meiothermus taiwanensis WR-220</text>
											<text transform="matrix(0.7071 -0.7071 0.7071 0.7071 934.186 323.8125)" class="st4 st5">Candidatus Caldatribacterium saccharof. SpSt-82</text>
											<text transform="matrix(0.7071 -0.7071 0.7071 0.7071 1045.3032 267.5337)" class="st4 st5">Pseudothermotoga hypogea DSM 11164</text>
											<text transform="matrix(0.7071 -0.7071 0.7071 0.7071 1167.5312 200.1445)" class="st4 st5">Thermus aquaticus Y51MC23</text>
											<text transform="matrix(0.7071 -0.7071 0.7071 0.7071 1197.2 225.3145)" class="st4 st5">Pseudothermotoga lettingae TMO</text>
											<text transform="matrix(0.7071 -0.7071 0.7071 0.7071 1260.4771 216.8765)" class="st4 st5">Thermus brockianus strain GE-1</text>
											<text transform="matrix(0.7071 -0.7071 0.7071 0.7071 1345.9548 186.2373)" class="st4 st5">Thermodesulfovibrio sp. N1</text>
											<text transform="matrix(0.7071 -0.7071 0.7071 0.7071 1303.3037 283.7271)" class="st4 st5">Thermodesulfovibrio thiophilus DSM 17215</text>
											<text transform="matrix(0.7071 -0.7071 0.7071 0.7071 1372.5884 269.2808)" class="st4 st5">Caldimicrobium thiodismutans strain TF1</text>
											<text transform="matrix(0.7071 -0.7071 0.7071 0.7071 1447.6047 249.1035)" class="st4 st5">Thermocrinis ruber strain DSM 23557</text>
										</g>
										<g pointer-events="none">
											<text transform="matrix(1 0 0 1 806.5269 318)" class="st7 st11">Species</text>
										</g>
									</g>
									<path pointer-events="none" class="st10" d="M0,0"/>
								</g>
							</g>
							<g>
								<g transform="translate(1700.5,0.5)">
									<path pointer-events="none" class="st1" d="M0,0L0,0L0,0L0,0z"/>
									<g>
										<g pointer-events="none">
											<text transform="matrix(1 0 0 1 2 37.5)" class="st7 st5">phyloFlash hit</text>
											<text transform="matrix(1 0 0 1 2 101.5)" class="st7 st5">DeLUCS hit</text>
										</g>
									</g>
									<path pointer-events="none" class="st10" d="M0,0"/>
								</g>
							</g>
							<g>
								<path class="st6" d="M37.4,32c0,5.5-4.5,10-10,10s-10-4.5-10-10s4.5-10,10-10S37.4,26.5,37.4,32"/>
								<path class="st6" d="M37.4,96c0,5.5-4.5,10-10,10s-10-4.5-10-10s4.5-10,10-10S37.4,90.5,37.4,96"/>
								<path class="st6" d="M92.3,32c0,5.5-4.5,10-10,10s-10-4.5-10-10s4.5-10,10-10S92.3,26.5,92.3,32"/>
								<path class="st6" d="M92.3,96c0,5.5-4.5,10-10,10s-10-4.5-10-10s4.5-10,10-10S92.3,90.5,92.3,96"/>
								<path class="st6" d="M147.1,32c0,5.5-4.5,10-10,10s-10-4.5-10-10s4.5-10,10-10S147.1,26.5,147.1,32"/>
								<path class="st6" d="M147.1,96c0,5.5-4.5,10-10,10s-10-4.5-10-10s4.5-10,10-10S147.1,90.5,147.1,96"/>
								<path class="st6" d="M201.9,32c0,5.5-4.5,10-10,10s-10-4.5-10-10s4.5-10,10-10S201.9,26.5,201.9,32"/>
								<path class="st6" d="M201.9,96c0,5.5-4.5,10-10,10s-10-4.5-10-10s4.5-10,10-10S201.9,90.5,201.9,96"/>
								<path class="st6" d="M256.8,32c0,5.5-4.5,10-10,10s-10-4.5-10-10s4.5-10,10-10S256.8,26.5,256.8,32"/>
								<path class="st6" d="M256.8,96c0,5.5-4.5,10-10,10s-10-4.5-10-10s4.5-10,10-10S256.8,90.5,256.8,96"/>
								<path class="st6" d="M311.6,32c0,5.5-4.5,10-10,10s-10-4.5-10-10s4.5-10,10-10S311.6,26.5,311.6,32"/>
								<path class="st6" d="M311.6,96c0,5.5-4.5,10-10,10s-10-4.5-10-10s4.5-10,10-10S311.6,90.5,311.6,96"/>
								<path class="st6" d="M366.5,32c0,5.5-4.5,10-10,10s-10-4.5-10-10s4.5-10,10-10S366.5,26.5,366.5,32"/>
								<path class="st6" d="M366.5,96c0,5.5-4.5,10-10,10s-10-4.5-10-10s4.5-10,10-10S366.5,90.5,366.5,96"/>
								<path class="st6" d="M421.3,32c0,5.5-4.5,10-10,10s-10-4.5-10-10s4.5-10,10-10S421.3,26.5,421.3,32"/>
								<path class="st6" d="M421.3,96c0,5.5-4.5,10-10,10s-10-4.5-10-10s4.5-10,10-10S421.3,90.5,421.3,96"/>
								<path class="st6" d="M476.1,32c0,5.5-4.5,10-10,10s-10-4.5-10-10s4.5-10,10-10S476.1,26.5,476.1,32"/>
								<path class="st6" d="M476.1,96c0,5.5-4.5,10-10,10s-10-4.5-10-10s4.5-10,10-10S476.1,90.5,476.1,96"/>
								<path class="st6" d="M531,32c0,5.5-4.5,10-10,10s-10-4.5-10-10s4.5-10,10-10S531,26.5,531,32"/>
								<path class="st6" d="M531,96c0,5.5-4.5,10-10,10s-10-4.5-10-10s4.5-10,10-10S531,90.5,531,96"/>
								<path class="st6" d="M585.8,32c0,5.5-4.5,10-10,10s-10-4.5-10-10s4.5-10,10-10S585.8,26.5,585.8,32"/>
								<path class="st6" d="M585.8,96c0,5.5-4.5,10-10,10s-10-4.5-10-10s4.5-10,10-10S585.8,90.5,585.8,96"/>
								<path class="st6" d="M640.6,32c0,5.5-4.5,10-10,10s-10-4.5-10-10s4.5-10,10-10S640.6,26.5,640.6,32"/>
								<path class="st6" d="M640.6,96c0,5.5-4.5,10-10,10s-10-4.5-10-10s4.5-10,10-10S640.6,90.5,640.6,96"/>
								<path class="st6" d="M695.5,32c0,5.5-4.5,10-10,10s-10-4.5-10-10s4.5-10,10-10S695.5,26.5,695.5,32"/>
								<path class="st6" d="M695.5,96c0,5.5-4.5,10-10,10s-10-4.5-10-10s4.5-10,10-10S695.5,90.5,695.5,96"/>
								<path class="st6" d="M750.3,32c0,5.5-4.5,10-10,10s-10-4.5-10-10s4.5-10,10-10S750.3,26.5,750.3,32"/>
								<path class="st6" d="M750.3,96c0,5.5-4.5,10-10,10s-10-4.5-10-10s4.5-10,10-10S750.3,90.5,750.3,96"/>
								<path class="st6" d="M805.2,32c0,5.5-4.5,10-10,10s-10-4.5-10-10s4.5-10,10-10S805.2,26.5,805.2,32"/>
								<path class="st6" d="M805.2,96c0,5.5-4.5,10-10,10s-10-4.5-10-10s4.5-10,10-10S805.2,90.5,805.2,96"/>
								<path class="st6" d="M860,32c0,5.5-4.5,10-10,10s-10-4.5-10-10s4.5-10,10-10S860,26.5,860,32"/>
								<path class="st6" d="M860,96c0,5.5-4.5,10-10,10s-10-4.5-10-10s4.5-10,10-10S860,90.5,860,96"/>
								<path class="st6" d="M914.8,32c0,5.5-4.5,10-10,10s-10-4.5-10-10s4.5-10,10-10S914.8,26.5,914.8,32"/>
								<path class="st6" d="M914.8,96c0,5.5-4.5,10-10,10s-10-4.5-10-10s4.5-10,10-10S914.8,90.5,914.8,96"/>
								<path class="st6" d="M969.7,32c0,5.5-4.5,10-10,10s-10-4.5-10-10s4.5-10,10-10S969.7,26.5,969.7,32"/>
								<path class="st6" d="M969.7,96c0,5.5-4.5,10-10,10s-10-4.5-10-10s4.5-10,10-10S969.7,90.5,969.7,96"/>
								<path class="st6" d="M1024.5,32c0,5.5-4.5,10-10,10s-10-4.5-10-10s4.5-10,10-10S1024.5,26.5,1024.5,32"/>
								<path class="st6" d="M1024.5,96c0,5.5-4.5,10-10,10s-10-4.5-10-10s4.5-10,10-10S1024.5,90.5,1024.5,96"/>
								<path class="st6" d="M1079.4,32c0,5.5-4.5,10-10,10s-10-4.5-10-10s4.5-10,10-10S1079.4,26.5,1079.4,32"/>
								<path class="st6" d="M1079.4,96c0,5.5-4.5,10-10,10s-10-4.5-10-10s4.5-10,10-10S1079.4,90.5,1079.4,96"/>
								<path class="st6" d="M1134.2,32c0,5.5-4.5,10-10,10s-10-4.5-10-10s4.5-10,10-10S1134.2,26.5,1134.2,32"/>
								<path class="st6" d="M1134.2,96c0,5.5-4.5,10-10,10s-10-4.5-10-10s4.5-10,10-10S1134.2,90.5,1134.2,96"/>
								<path class="st6" d="M1189,32c0,5.5-4.5,10-10,10s-10-4.5-10-10s4.5-10,10-10S1189,26.5,1189,32"/>
								<path class="st6" d="M1189,96c0,5.5-4.5,10-10,10s-10-4.5-10-10s4.5-10,10-10S1189,90.5,1189,96"/>
								<path class="st6" d="M1243.9,32c0,5.5-4.5,10-10,10s-10-4.5-10-10s4.5-10,10-10S1243.9,26.5,1243.9,32"/>
								<path class="st6" d="M1243.9,96c0,5.5-4.5,10-10,10s-10-4.5-10-10s4.5-10,10-10S1243.9,90.5,1243.9,96"/>
								<path class="st6" d="M1298.7,32c0,5.5-4.5,10-10,10s-10-4.5-10-10s4.5-10,10-10S1298.7,26.5,1298.7,32"/>
								<path class="st6" d="M1298.7,96c0,5.5-4.5,10-10,10s-10-4.5-10-10s4.5-10,10-10S1298.7,90.5,1298.7,96"/>
								<path class="st6" d="M1353.5,32c0,5.5-4.5,10-10,10s-10-4.5-10-10s4.5-10,10-10S1353.5,26.5,1353.5,32"/>
								<path class="st6" d="M1353.5,96c0,5.5-4.5,10-10,10s-10-4.5-10-10s4.5-10,10-10S1353.5,90.5,1353.5,96"/>
								<path class="st6" d="M1408.4,32c0,5.5-4.5,10-10,10s-10-4.5-10-10s4.5-10,10-10S1408.4,26.5,1408.4,32"/>
								<path class="st6" d="M1408.4,96c0,5.5-4.5,10-10,10s-10-4.5-10-10s4.5-10,10-10S1408.4,90.5,1408.4,96"/>
								<path class="st6" d="M1463.2,32c0,5.5-4.5,10-10,10s-10-4.5-10-10s4.5-10,10-10S1463.2,26.5,1463.2,32"/>
								<path class="st6" d="M1463.2,96c0,5.5-4.5,10-10,10s-10-4.5-10-10s4.5-10,10-10S1463.2,90.5,1463.2,96"/>
								<path class="st6" d="M1518.1,32c0,5.5-4.5,10-10,10s-10-4.5-10-10s4.5-10,10-10S1518.1,26.5,1518.1,32"/>
								<path class="st6" d="M1518.1,96c0,5.5-4.5,10-10,10s-10-4.5-10-10s4.5-10,10-10S1518.1,90.5,1518.1,96"/>
								<path class="st6" d="M1572.9,32c0,5.5-4.5,10-10,10s-10-4.5-10-10s4.5-10,10-10S1572.9,26.5,1572.9,32"/>
								<path class="st6" d="M1572.9,96c0,5.5-4.5,10-10,10s-10-4.5-10-10s4.5-10,10-10S1572.9,90.5,1572.9,96"/>
								<path class="st6" d="M1627.7,32c0,5.5-4.5,10-10,10s-10-4.5-10-10s4.5-10,10-10S1627.7,26.5,1627.7,32"/>
								<path class="st6" d="M1627.7,96c0,5.5-4.5,10-10,10s-10-4.5-10-10s4.5-10,10-10S1627.7,90.5,1627.7,96"/>
								<path class="st6" d="M1682.6,32c0,5.5-4.5,10-10,10s-10-4.5-10-10s4.5-10,10-10S1682.6,26.5,1682.6,32"/>
								<path class="st6" d="M1682.6,96c0,5.5-4.5,10-10,10s-10-4.5-10-10s4.5-10,10-10S1682.6,90.5,1682.6,96"/>
							</g>
							<g pointer-events="none">
								<path class="st12" d="M0,64h54.8v64H0V64z"/>
								<path class="st12" d="M54.8,64h54.8v64H54.8V64z"/>
								<path class="st12" d="M109.7,64h54.8v64h-54.8L109.7,64z"/>
								<path class="st12" d="M164.5,64h54.8v64h-54.8V64z"/>
								<path class="st12" d="M219.4,64h54.8v64h-54.8L219.4,64z"/>
								<path class="st12" d="M274.2,64H329v64h-54.8V64z"/>
								<path class="st12" d="M329,64h54.8v64H329V64z"/>
								<path class="st12" d="M383.9,64h54.8v64h-54.8V64z"/>
								<path class="st12" d="M438.7,64h54.8v64h-54.8V64z"/>
								<path class="st12" d="M493.5,64h54.8v64h-54.8L493.5,64z"/>
								<path class="st12" d="M548.4,64h54.8v64h-54.8V64z"/>
								<path class="st12" d="M603.2,64h54.8v64h-54.8V64z"/>
								<path class="st12" d="M658.1,64h54.8v64h-54.8V64z"/>
								<path class="st12" d="M712.9,64h54.8v64h-54.8V64z"/>
								<path class="st12" d="M767.7,64h54.8v64h-54.8V64z"/>
								<path class="st12" d="M822.6,64h54.8v64h-54.8V64z"/>
								<path class="st12" d="M877.4,64h54.8v64h-54.8V64z"/>
								<path class="st12" d="M932.3,64h54.8v64h-54.8V64z"/>
								<path class="st12" d="M987.1,64h54.8v64h-54.8L987.1,64z"/>
								<path class="st12" d="M1041.9,64h54.8v64h-54.8V64z"/>
								<path class="st12" d="M1096.8,64h54.8v64h-54.8V64z"/>
								<path class="st12" d="M1151.6,64h54.8v64h-54.8V64z"/>
								<path class="st12" d="M1206.5,64h54.8v64h-54.8V64z"/>
								<path class="st12" d="M1261.3,64h54.8v64h-54.8V64z"/>
								<path class="st12" d="M1316.1,64h54.8v64h-54.8V64z"/>
								<path class="st12" d="M1371,64h54.8v64H1371V64z"/>
								<path class="st12" d="M1425.8,64h54.8v64h-54.8V64z"/>
								<path class="st12" d="M1480.6,64h54.8v64h-54.8V64z"/>
								<path class="st12" d="M1535.5,64h54.8v64h-54.8V64z"/>
								<path class="st12" d="M1590.3,64h54.8v64h-54.8V64z"/>
								<path class="st12" d="M1645.2,64h54.8v64h-54.8V64z"/>
							</g>
							<g pointer-events="none">
								<path class="st6" d="M37.4,32c0,5.5-4.5,10-10,10s-10-4.5-10-10s4.5-10,10-10S37.4,26.5,37.4,32"/>
								<path class="st6" d="M37.4,96c0,5.5-4.5,10-10,10s-10-4.5-10-10s4.5-10,10-10S37.4,90.5,37.4,96"/>
								<path class="st6" d="M92.3,32c0,5.5-4.5,10-10,10s-10-4.5-10-10s4.5-10,10-10S92.3,26.5,92.3,32"/>
								<path class="st6" d="M92.3,96c0,5.5-4.5,10-10,10s-10-4.5-10-10s4.5-10,10-10S92.3,90.5,92.3,96"/>
								<path class="st6" d="M147.1,32c0,5.5-4.5,10-10,10s-10-4.5-10-10s4.5-10,10-10S147.1,26.5,147.1,32"/>
								<path class="st6" d="M147.1,96c0,5.5-4.5,10-10,10s-10-4.5-10-10s4.5-10,10-10S147.1,90.5,147.1,96"/>
								<path class="st6" d="M201.9,32c0,5.5-4.5,10-10,10s-10-4.5-10-10s4.5-10,10-10S201.9,26.5,201.9,32"/>
								<path class="st6" d="M201.9,96c0,5.5-4.5,10-10,10s-10-4.5-10-10s4.5-10,10-10S201.9,90.5,201.9,96"/>
								<path class="st6" d="M256.8,32c0,5.5-4.5,10-10,10s-10-4.5-10-10s4.5-10,10-10S256.8,26.5,256.8,32"/>
								<path class="st6" d="M256.8,96c0,5.5-4.5,10-10,10s-10-4.5-10-10s4.5-10,10-10S256.8,90.5,256.8,96"/>
								<path class="st6" d="M311.6,32c0,5.5-4.5,10-10,10s-10-4.5-10-10s4.5-10,10-10S311.6,26.5,311.6,32"/>
								<path class="st6" d="M311.6,96c0,5.5-4.5,10-10,10s-10-4.5-10-10s4.5-10,10-10S311.6,90.5,311.6,96"/>
								<path class="st6" d="M366.5,32c0,5.5-4.5,10-10,10s-10-4.5-10-10s4.5-10,10-10S366.5,26.5,366.5,32"/>
								<path class="st6" d="M366.5,96c0,5.5-4.5,10-10,10s-10-4.5-10-10s4.5-10,10-10S366.5,90.5,366.5,96"/>
								<path class="st6" d="M421.3,32c0,5.5-4.5,10-10,10s-10-4.5-10-10s4.5-10,10-10S421.3,26.5,421.3,32"/>
								<path class="st6" d="M421.3,96c0,5.5-4.5,10-10,10s-10-4.5-10-10s4.5-10,10-10S421.3,90.5,421.3,96"/>
								<path class="st6" d="M476.1,32c0,5.5-4.5,10-10,10s-10-4.5-10-10s4.5-10,10-10S476.1,26.5,476.1,32"/>
								<path class="st6" d="M476.1,96c0,5.5-4.5,10-10,10s-10-4.5-10-10s4.5-10,10-10S476.1,90.5,476.1,96"/>
								<path class="st6" d="M531,32c0,5.5-4.5,10-10,10s-10-4.5-10-10s4.5-10,10-10S531,26.5,531,32"/>
								<path class="st6" d="M531,96c0,5.5-4.5,10-10,10s-10-4.5-10-10s4.5-10,10-10S531,90.5,531,96"/>
								<path class="st6" d="M585.8,32c0,5.5-4.5,10-10,10s-10-4.5-10-10s4.5-10,10-10S585.8,26.5,585.8,32"/>
								<path class="st6" d="M585.8,96c0,5.5-4.5,10-10,10s-10-4.5-10-10s4.5-10,10-10S585.8,90.5,585.8,96"/>
								<path class="st6" d="M640.6,32c0,5.5-4.5,10-10,10s-10-4.5-10-10s4.5-10,10-10S640.6,26.5,640.6,32"/>
								<path class="st6" d="M640.6,96c0,5.5-4.5,10-10,10s-10-4.5-10-10s4.5-10,10-10S640.6,90.5,640.6,96"/>
								<path class="st6" d="M695.5,32c0,5.5-4.5,10-10,10s-10-4.5-10-10s4.5-10,10-10S695.5,26.5,695.5,32"/>
								<path class="st6" d="M695.5,96c0,5.5-4.5,10-10,10s-10-4.5-10-10s4.5-10,10-10S695.5,90.5,695.5,96"/>
								<path class="st6" d="M750.3,32c0,5.5-4.5,10-10,10s-10-4.5-10-10s4.5-10,10-10S750.3,26.5,750.3,32"/>
								<path class="st6" d="M750.3,96c0,5.5-4.5,10-10,10s-10-4.5-10-10s4.5-10,10-10S750.3,90.5,750.3,96"/>
								<path class="st6" d="M805.2,32c0,5.5-4.5,10-10,10s-10-4.5-10-10s4.5-10,10-10S805.2,26.5,805.2,32"/>
								<path class="st6" d="M805.2,96c0,5.5-4.5,10-10,10s-10-4.5-10-10s4.5-10,10-10S805.2,90.5,805.2,96"/>
								<path class="st6" d="M860,32c0,5.5-4.5,10-10,10s-10-4.5-10-10s4.5-10,10-10S860,26.5,860,32"/>
								<path class="st6" d="M860,96c0,5.5-4.5,10-10,10s-10-4.5-10-10s4.5-10,10-10S860,90.5,860,96"/>
								<path class="st6" d="M914.8,32c0,5.5-4.5,10-10,10s-10-4.5-10-10s4.5-10,10-10S914.8,26.5,914.8,32"/>
								<path class="st6" d="M914.8,96c0,5.5-4.5,10-10,10s-10-4.5-10-10s4.5-10,10-10S914.8,90.5,914.8,96"/>
								<path class="st6" d="M969.7,32c0,5.5-4.5,10-10,10s-10-4.5-10-10s4.5-10,10-10S969.7,26.5,969.7,32"/>
								<path class="st6" d="M969.7,96c0,5.5-4.5,10-10,10s-10-4.5-10-10s4.5-10,10-10S969.7,90.5,969.7,96"/>
								<path class="st6" d="M1024.5,32c0,5.5-4.5,10-10,10s-10-4.5-10-10s4.5-10,10-10S1024.5,26.5,1024.5,32"/>
								<path class="st6" d="M1024.5,96c0,5.5-4.5,10-10,10s-10-4.5-10-10s4.5-10,10-10S1024.5,90.5,1024.5,96"/>
								<path class="st6" d="M1079.4,32c0,5.5-4.5,10-10,10s-10-4.5-10-10s4.5-10,10-10S1079.4,26.5,1079.4,32"/>
								<path class="st6" d="M1079.4,96c0,5.5-4.5,10-10,10s-10-4.5-10-10s4.5-10,10-10S1079.4,90.5,1079.4,96"/>
								<path class="st6" d="M1134.2,32c0,5.5-4.5,10-10,10s-10-4.5-10-10s4.5-10,10-10S1134.2,26.5,1134.2,32"/>
								<path class="st6" d="M1134.2,96c0,5.5-4.5,10-10,10s-10-4.5-10-10s4.5-10,10-10S1134.2,90.5,1134.2,96"/>
								<path class="st6" d="M1189,32c0,5.5-4.5,10-10,10s-10-4.5-10-10s4.5-10,10-10S1189,26.5,1189,32"/>
								<path class="st6" d="M1189,96c0,5.5-4.5,10-10,10s-10-4.5-10-10s4.5-10,10-10S1189,90.5,1189,96"/>
								<path class="st6" d="M1243.9,32c0,5.5-4.5,10-10,10s-10-4.5-10-10s4.5-10,10-10S1243.9,26.5,1243.9,32"/>
								<path class="st6" d="M1243.9,96c0,5.5-4.5,10-10,10s-10-4.5-10-10s4.5-10,10-10S1243.9,90.5,1243.9,96"/>
								<path class="st6" d="M1298.7,32c0,5.5-4.5,10-10,10s-10-4.5-10-10s4.5-10,10-10S1298.7,26.5,1298.7,32"/>
								<path class="st6" d="M1298.7,96c0,5.5-4.5,10-10,10s-10-4.5-10-10s4.5-10,10-10S1298.7,90.5,1298.7,96"/>
								<path class="st6" d="M1353.5,32c0,5.5-4.5,10-10,10s-10-4.5-10-10s4.5-10,10-10S1353.5,26.5,1353.5,32"/>
								<path class="st6" d="M1353.5,96c0,5.5-4.5,10-10,10s-10-4.5-10-10s4.5-10,10-10S1353.5,90.5,1353.5,96"/>
								<path class="st6" d="M1408.4,32c0,5.5-4.5,10-10,10s-10-4.5-10-10s4.5-10,10-10S1408.4,26.5,1408.4,32"/>
								<path class="st6" d="M1408.4,96c0,5.5-4.5,10-10,10s-10-4.5-10-10s4.5-10,10-10S1408.4,90.5,1408.4,96"/>
								<path class="st6" d="M1463.2,32c0,5.5-4.5,10-10,10s-10-4.5-10-10s4.5-10,10-10S1463.2,26.5,1463.2,32"/>
								<path class="st6" d="M1463.2,96c0,5.5-4.5,10-10,10s-10-4.5-10-10s4.5-10,10-10S1463.2,90.5,1463.2,96"/>
								<path class="st6" d="M1518.1,32c0,5.5-4.5,10-10,10s-10-4.5-10-10s4.5-10,10-10S1518.1,26.5,1518.1,32"/>
								<path class="st6" d="M1518.1,96c0,5.5-4.5,10-10,10s-10-4.5-10-10s4.5-10,10-10S1518.1,90.5,1518.1,96"/>
								<path class="st6" d="M1572.9,32c0,5.5-4.5,10-10,10s-10-4.5-10-10s4.5-10,10-10S1572.9,26.5,1572.9,32"/>
								<path class="st6" d="M1572.9,96c0,5.5-4.5,10-10,10s-10-4.5-10-10s4.5-10,10-10S1572.9,90.5,1572.9,96"/>
								<path class="st6" d="M1627.7,32c0,5.5-4.5,10-10,10s-10-4.5-10-10s4.5-10,10-10S1627.7,26.5,1627.7,32"/>
								<path class="st6" d="M1627.7,96c0,5.5-4.5,10-10,10s-10-4.5-10-10s4.5-10,10-10S1627.7,90.5,1627.7,96"/>
								<path class="st6" d="M1682.6,32c0,5.5-4.5,10-10,10s-10-4.5-10-10s4.5-10,10-10S1682.6,26.5,1682.6,32"/>
								<path class="st6" d="M1682.6,96c0,5.5-4.5,10-10,10s-10-4.5-10-10s4.5-10,10-10S1682.6,90.5,1682.6,96"/>
							</g>
							<g pointer-events="none">
								<path class="st13" d="M37.8,96c0,5.7-4.6,10.4-10.4,10.4S17.1,101.7,17.1,96s4.6-10.4,10.4-10.4S37.8,90.3,37.8,96"/>
								<path class="st13" d="M147.5,32c0,5.7-4.6,10.4-10.4,10.4s-10.4-4.6-10.4-10.4s4.6-10.4,10.4-10.4S147.5,26.3,147.5,32"/>
								<path class="st13" d="M147.5,96c0,5.7-4.6,10.4-10.4,10.4s-10.4-4.6-10.4-10.4s4.6-10.4,10.4-10.4S147.5,90.3,147.5,96"/>
								<path class="st13" d="M202.3,32c0,5.7-4.6,10.4-10.4,10.4s-10.4-4.6-10.4-10.4s4.6-10.4,10.4-10.4S202.3,26.3,202.3,32"/>
								<path class="st13" d="M202.3,96c0,5.7-4.6,10.4-10.4,10.4s-10.4-4.6-10.4-10.4s4.6-10.4,10.4-10.4S202.3,90.3,202.3,96"/>
								<path class="st13" d="M257.1,96c0,5.7-4.6,10.4-10.4,10.4s-10.4-4.6-10.4-10.4s4.6-10.4,10.4-10.4S257.1,90.3,257.1,96"/>
								<path class="st13" d="M312,32c0,5.7-4.6,10.4-10.4,10.4s-10.4-4.6-10.4-10.4s4.6-10.4,10.4-10.4S312,26.3,312,32"/>
								<path class="st13" d="M366.8,32c0,5.7-4.6,10.4-10.4,10.4s-10.4-4.6-10.4-10.4s4.6-10.4,10.4-10.4S366.8,26.3,366.8,32"/>
								<path class="st13" d="M366.8,96c0,5.7-4.6,10.4-10.4,10.4s-10.4-4.6-10.4-10.4s4.6-10.4,10.4-10.4S366.8,90.3,366.8,96"/>
								<path class="st13" d="M421.7,96c0,5.7-4.6,10.4-10.4,10.4s-10.4-4.6-10.4-10.4s4.6-10.4,10.4-10.4S421.7,90.3,421.7,96"/>
								<path class="st13" d="M476.5,32c0,5.7-4.6,10.4-10.4,10.4s-10.4-4.6-10.4-10.4s4.6-10.4,10.4-10.4S476.5,26.3,476.5,32"/>
								<path class="st13" d="M531.3,96c0,5.7-4.6,10.4-10.4,10.4s-10.4-4.6-10.4-10.4s4.6-10.4,10.4-10.4S531.3,90.3,531.3,96"/>
								<path class="st13" d="M586.2,96c0,5.7-4.6,10.4-10.4,10.4s-10.4-4.6-10.4-10.4s4.6-10.4,10.4-10.4S586.2,90.3,586.2,96"/>
								<path class="st13" d="M641,32c0,5.7-4.6,10.4-10.4,10.4s-10.4-4.6-10.4-10.4s4.6-10.4,10.4-10.4S641,26.3,641,32"/>
								<path class="st13" d="M641,96c0,5.7-4.6,10.4-10.4,10.4s-10.4-4.6-10.4-10.4s4.6-10.4,10.4-10.4S641,90.3,641,96"/>
								<path class="st13" d="M805.5,96c0,5.7-4.6,10.4-10.4,10.4s-10.4-4.6-10.4-10.4s4.6-10.4,10.4-10.4S805.5,90.3,805.5,96"/>
								<path class="st13" d="M860.4,96c0,5.7-4.6,10.4-10.4,10.4s-10.4-4.6-10.4-10.4s4.6-10.4,10.4-10.4S860.4,90.3,860.4,96"/>
								<path class="st13" d="M915.2,96c0,5.7-4.6,10.4-10.4,10.4s-10.4-4.6-10.4-10.4s4.6-10.4,10.4-10.4S915.2,90.3,915.2,96"/>
								<path class="st13" d="M970,32c0,5.7-4.6,10.4-10.4,10.4s-10.4-4.6-10.4-10.4s4.6-10.4,10.4-10.4S970,26.3,970,32"/>
								<path class="st13" d="M1079.7,96c0,5.7-4.6,10.4-10.4,10.4S1059,101.7,1059,96s4.6-10.4,10.4-10.4S1079.7,90.3,1079.7,96"/>
								<path class="st13" d="M1134.6,32c0,5.7-4.6,10.4-10.4,10.4s-10.4-4.6-10.4-10.4s4.6-10.4,10.4-10.4S1134.6,26.3,1134.6,32"
									/>
								<path class="st13" d="M1134.6,96c0,5.7-4.6,10.4-10.4,10.4s-10.4-4.6-10.4-10.4s4.6-10.4,10.4-10.4S1134.6,90.3,1134.6,96"
									/>
								<path class="st13" d="M1189.4,32c0,5.7-4.6,10.4-10.4,10.4s-10.4-4.6-10.4-10.4s4.6-10.4,10.4-10.4S1189.4,26.3,1189.4,32"
									/>
								<path class="st13" d="M1244.2,32c0,5.7-4.6,10.4-10.4,10.4s-10.4-4.6-10.4-10.4s4.6-10.4,10.4-10.4S1244.2,26.3,1244.2,32"
									/>
								<path class="st13" d="M1353.9,32c0,5.7-4.6,10.4-10.4,10.4s-10.4-4.6-10.4-10.4s4.6-10.4,10.4-10.4S1353.9,26.3,1353.9,32"
									/>
								<path class="st13" d="M1353.9,96c0,5.7-4.6,10.4-10.4,10.4s-10.4-4.6-10.4-10.4s4.6-10.4,10.4-10.4S1353.9,90.3,1353.9,96"
									/>
								<path class="st13" d="M1408.8,96c0,5.7-4.6,10.4-10.4,10.4S1388,101.7,1388,96s4.6-10.4,10.4-10.4S1408.8,90.3,1408.8,96"/>
								<path class="st13" d="M1463.6,96c0,5.7-4.6,10.4-10.4,10.4s-10.4-4.6-10.4-10.4s4.6-10.4,10.4-10.4S1463.6,90.3,1463.6,96"
									/>
								<path class="st13" d="M1573.3,32c0,5.7-4.6,10.4-10.4,10.4s-10.4-4.6-10.4-10.4s4.6-10.4,10.4-10.4S1573.3,26.3,1573.3,32"
									/>
								<path class="st13" d="M1573.3,96c0,5.7-4.6,10.4-10.4,10.4s-10.4-4.6-10.4-10.4s4.6-10.4,10.4-10.4S1573.3,90.3,1573.3,96"
									/>
								<path class="st13" d="M1682.9,32c0,5.7-4.6,10.4-10.4,10.4s-10.4-4.6-10.4-10.4s4.6-10.4,10.4-10.4S1682.9,26.3,1682.9,32"
									/>
							</g>
						</g>
						<path class="st14" d="M0,0"/>
					</g>
				</g>
			</g>
			<path class="st14" d="M0,0"/>
		</g>
	</g>
</g>
<g>
	<line x1="558" y1="58.6" x2="561.8" y2="696.6"/>
	<g>
		<line class="st15" x1="558" y1="58.6" x2="558.1" y2="66.1"/>
		<line class="st16" x1="558.2" y1="81.3" x2="561.7" y2="681.5"/>
		<line class="st15" x1="561.8" y1="689.1" x2="561.8" y2="696.6"/>
	</g>
</g>
<g>
	<line x1="1326.1" y1="59.2" x2="1329.9" y2="697.2"/>
	<g>
		<line class="st15" x1="1326.1" y1="59.2" x2="1326.2" y2="66.7"/>
		<line class="st16" x1="1326.3" y1="81.9" x2="1329.8" y2="682.1"/>
		<line class="st15" x1="1329.9" y1="689.7" x2="1329.9" y2="697.2"/>
	</g>
</g>
<text transform="matrix(1 0 0 1 478.4481 130.6641)" class="st17 st18">High</text>
<text transform="matrix(1 0 0 1 949.1611 132.3592)" class="st17 st18">Medium</text>
<text transform="matrix(1 0 0 1 1356.5162 132.359)" class="st17 st18">Low</text>
</svg>
