<?xml version="1.0" encoding="utf-8"?>
<!-- Generator: Adobe Illustrator 27.4.1, SVG Export Plug-In . SVG Version: 6.00 Build 0)  -->
<svg version="1.1" id="Layer_1" xmlns="http://www.w3.org/2000/svg" xmlns:xlink="http://www.w3.org/1999/xlink" x="0px" y="0px"
	 viewBox="0 0 2068 1024" style="enable-background:new 0 0 2068 1024;" xml:space="preserve">
<style type="text/css">
	.st0{fill:#FFFFFF;}
	.st1{fill:none;}
	.st2{fill:none;stroke:#888888;stroke-miterlimit:10;}
	.st3{display:none;fill:none;stroke:#888888;stroke-miterlimit:10;}
	.st4{font-family:'Helvetica';}
	.st5{font-size:20px;}
	.st6{fill:#B80000;}
	.st7{font-family:'Helvetica-Bold';}
	.st8{fill:none;stroke:#5EC962;stroke-width:2;stroke-miterlimit:10;}
	.st9{font-size:35px;}
	.st10{display:none;}
	.st11{font-size:12px;}
	.st12{fill:#5EC962;}
	.st13{opacity:0.7;fill:#B80000;enable-background:new    ;}
	.st14{display:none;fill:#B80000;}
	.st15{font-size:23px;}
	.st16{fill:#F7F7F7;}
	.st17{fill:#E6E6E6;}
	.st18{display:none;fill:#E6E6E6;}
	.st19{fill:none;stroke:#000000;stroke-width:4;stroke-miterlimit:10;}
	.st20{fill:none;stroke:#000000;stroke-width:4;stroke-miterlimit:10;stroke-dasharray:15.1954,15.1954;}
	.st21{font-family:'MyriadPro-Regular';}
	.st22{font-size:30px;}
</style>
<rect class="st0" width="2068" height="1024"/>
<g transform="translate(177,54)">
	<g>
		<g transform="translate(0,0)">
			<path class="st1" d="M0,0L0,0L0,0L0,0z"/>
			<g>
				<g>
					<g transform="translate(0,0)">
						<path class="st1" d="M0,0L0,0L0,0L0,0z"/>
						<g>
							<g>
								<g transform="translate(0,0)">
									<path class="st1" d="M0,0h1700v480H0V0z"/>
									<g>
										<g>
											<g transform="translate(0.5,480.5)">
												<path pointer-events="none" class="st1" d="M0,0L0,0L0,0L0,0z"/>
												<g>
													<g pointer-events="none">
														<line class="st2" x1="0" y1="0" x2="1700" y2="0"/>
													</g>
												</g>
												<path pointer-events="none" class="st3" d="M0,0"/>
											</g>
										</g>
										<g>
											<g transform="translate(0.5,0.5)">
												<path pointer-events="none" class="st1" d="M0,0L0,0L0,0L0,0z"/>
												<g>
													<g pointer-events="none">
														<line class="st2" x1="0" y1="480" x2="-5" y2="480"/>
														<line class="st2" x1="0" y1="450" x2="-5" y2="450"/>
														<line class="st2" x1="0" y1="420" x2="-5" y2="420"/>
														<line class="st2" x1="0" y1="390" x2="-5" y2="390"/>
														<line class="st2" x1="0" y1="360" x2="-5" y2="360"/>
														<line class="st2" x1="0" y1="330" x2="-5" y2="330"/>
														<line class="st2" x1="0" y1="300" x2="-5" y2="300"/>
														<line class="st2" x1="0" y1="270" x2="-5" y2="270"/>
														<line class="st2" x1="0" y1="240" x2="-5" y2="240"/>
														<line class="st2" x1="0" y1="210" x2="-5" y2="210"/>
														<line class="st2" x1="0" y1="180" x2="-5" y2="180"/>
														<line class="st2" x1="0" y1="150" x2="-5" y2="150"/>
														<line class="st2" x1="0" y1="120" x2="-5" y2="120"/>
														<line class="st2" x1="0" y1="90" x2="-5" y2="90"/>
														<line class="st2" x1="0" y1="60" x2="-5" y2="60"/>
														<line class="st2" x1="0" y1="30" x2="-5" y2="30"/>
														<line class="st2" x1="0" y1="0" x2="-5" y2="0"/>
													</g>
													<g pointer-events="none">
														<text transform="matrix(1 0 0 1 -18.123 486)" class="st4 st5">0</text>
														<text transform="matrix(1 0 0 1 -18.123 456)" class="st4 st5">5</text>
														<text transform="matrix(1 0 0 1 -29.2461 426)" class="st4 st5">10</text>
														<text transform="matrix(1 0 0 1 -29.2461 396)" class="st4 st5">15</text>
														<text transform="matrix(1 0 0 1 -29.2461 366)" class="st4 st5">20</text>
														<text transform="matrix(1 0 0 1 -29.2461 336)" class="st4 st5">25</text>
														<text transform="matrix(1 0 0 1 -29.2461 306)" class="st4 st5">30</text>
														<text transform="matrix(1 0 0 1 -29.2461 276)" class="st4 st5">35</text>
														<text transform="matrix(1 0 0 1 -29.2461 246)" class="st4 st5">40</text>
														<text transform="matrix(1 0 0 1 -29.2461 216)" class="st4 st5">45</text>
														<text transform="matrix(1 0 0 1 -29.2461 186)" class="st4 st5">50</text>
														<text transform="matrix(1 0 0 1 -29.2461 156)" class="st4 st5">55</text>
														<text transform="matrix(1 0 0 1 -29.2461 126)" class="st4 st5">60</text>
														<text transform="matrix(1 0 0 1 -29.2461 96)" class="st4 st5">65</text>
														<text transform="matrix(1 0 0 1 -29.2461 66)" class="st4 st5">70</text>
														<text transform="matrix(1 0 0 1 -29.2461 36)" class="st4 st5">75</text>
														<text transform="matrix(1 0 0 1 -29.2461 6)" class="st4 st5">80</text>
													</g>
													<g pointer-events="none">
														<line class="st2" x1="0" y1="480" x2="0" y2="0"/>
													</g>
												</g>
												<path pointer-events="none" class="st3" d="M0,0"/>
											</g>
										</g>
										<g>
											<path class="st6" d="M7.4,52.1h40V480h-40L7.4,52.1z"/>
											<path class="st6" d="M62.3,71.4h40V480h-40V71.4z"/>
											<path class="st6" d="M117.1,77.6h40V480h-40V77.6z"/>
											<path class="st6" d="M171.9,99.7h40V480h-40V99.7z"/>
											<path class="st6" d="M226.8,99.8h40V480h-40V99.8z"/>
											<path class="st6" d="M281.6,105.8h40V480h-40V105.8z"/>
											<path class="st6" d="M336.5,108.6h40V480h-40V108.6z"/>
											<path class="st6" d="M391.3,112h40v368h-40V112z"/>
											<path class="st6" d="M446.1,115.9h40V480h-40V115.9z"/>
											<path class="st6" d="M501,116.1h40V480h-40L501,116.1z"/>
											<path class="st6" d="M555.8,117.7h40V480h-40V117.7z"/>
											<path class="st6" d="M610.6,118.6h40V480h-40V118.6z"/>
											<path class="st6" d="M665.5,124.4h40V480h-40V124.4z"/>
											<path class="st6" d="M720.3,129.3h40V480h-40V129.3z"/>
											<path class="st6" d="M775.2,139.8h40V480h-40V139.8z"/>
											<path class="st6" d="M830,139.9h40V480h-40V139.9z"/>
											<path class="st6" d="M884.8,141.4h40V480h-40V141.4z"/>
											<path class="st6" d="M939.7,147.8h40V480h-40V147.8z"/>
											<path class="st6" d="M994.5,154.4h40V480h-40V154.4z"/>
											<path class="st6" d="M1049.4,156.4h40V480h-40V156.4z"/>
											<path class="st6" d="M1104.2,166.6h40V480h-40V166.6z"/>
											<path class="st6" d="M1159,174.7h40V480h-40V174.7z"/>
											<path class="st6" d="M1213.9,183.2h40V480h-40V183.2z"/>
											<path class="st6" d="M1268.7,202.1h40V480h-40V202.1z"/>
											<path class="st6" d="M1323.5,208.9h40V480h-40V208.9z"/>
											<path class="st6" d="M1378.4,226.8h40V480h-40V226.8z"/>
											<path class="st6" d="M1433.2,247.8h40V480h-40V247.8z"/>
											<path class="st6" d="M1488.1,250.2h40V480h-40V250.2z"/>
											<path class="st6" d="M1542.9,273.4h40V480h-40V273.4z"/>
											<path class="st6" d="M1597.7,276.4h40V480h-40V276.4z"/>
											<path class="st6" d="M1652.6,282.1h40V480h-40V282.1z"/>
										</g>
										<g>
											<text transform="matrix(1 0 0 1 16.2963 48.14)" class="st6 st7 st5">71</text>
											<text transform="matrix(1 0 0 1 71.135 67.4)" class="st6 st7 st5">68</text>
											<text transform="matrix(1 0 0 1 125.9737 73.58)" class="st6 st7 st5">67</text>
											<text transform="matrix(1 0 0 1 180.8124 95.72)" class="st6 st7 st5">63</text>
											<text transform="matrix(1 0 0 1 235.6512 95.78)" class="st6 st7 st5">63</text>
											<text transform="matrix(1 0 0 1 290.4899 101.84)" class="st6 st7 st5">62</text>
											<text transform="matrix(1 0 0 1 345.3286 104.6)" class="st6 st7 st5">62</text>
											<text transform="matrix(1 0 0 1 400.1672 107.96)" class="st6 st7 st5">61</text>
											<text transform="matrix(1 0 0 1 455.006 111.86)" class="st6 st7 st5">61</text>
											<text transform="matrix(1 0 0 1 509.8447 112.1)" class="st6 st7 st5">61</text>
											<text transform="matrix(1 0 0 1 564.6834 113.66)" class="st6 st7 st5">60</text>
											<text transform="matrix(1 0 0 1 619.5221 114.56)" class="st6 st7 st5">60</text>
											<text transform="matrix(1 0 0 1 674.3608 120.44)" class="st6 st7 st5">59</text>
											<text transform="matrix(1 0 0 1 729.1995 125.3)" class="st6 st7 st5">58</text>
											<text transform="matrix(1 0 0 1 784.0383 135.8)" class="st6 st7 st5">57</text>
											<text transform="matrix(1 0 0 1 838.877 135.92)" class="st6 st7 st5">57</text>
											<text transform="matrix(1 0 0 1 893.7156 137.42)" class="st6 st7 st5">56</text>
											<text transform="matrix(1 0 0 1 948.5543 143.84)" class="st6 st7 st5">55</text>
											<text transform="matrix(1 0 0 1 1003.3931 150.44)" class="st6 st7 st5">54</text>
											<text transform="matrix(1 0 0 1 1058.2318 152.42)" class="st6 st7 st5">54</text>
											<text transform="matrix(1 0 0 1 1113.0706 162.62)" class="st6 st7 st5">52</text>
											<text transform="matrix(1 0 0 1 1167.9092 170.66)" class="st6 st7 st5">51</text>
											<text transform="matrix(1 0 0 1 1222.7479 179.18)" class="st6 st7 st5">49</text>
											<text transform="matrix(1 0 0 1 1277.5867 198.14)" class="st6 st7 st5">46</text>
											<text transform="matrix(1 0 0 1 1332.4253 204.86)" class="st6 st7 st5">45</text>
											<text transform="matrix(1 0 0 1 1387.264 222.8)" class="st6 st7 st5">42</text>
											<text transform="matrix(1 0 0 1 1442.1028 243.8)" class="st6 st7 st5">39</text>
											<text transform="matrix(1 0 0 1 1496.9415 246.2)" class="st6 st7 st5">38</text>
											<text transform="matrix(1 0 0 1 1551.7802 269.42)" class="st6 st7 st5">34</text>
											<text transform="matrix(1 0 0 1 1606.6189 272.42)" class="st6 st7 st5">34</text>
											<text transform="matrix(1 0 0 1 1661.4576 278.06)" class="st6 st7 st5">33</text>
										</g>
										<g>
											<path class="st8" d="M1672.6,140.1l-54.8,29l-54.8-19l-54.8-14.8l-54.8,7.1l-54.8,28.7l-54.8-61.4l-54.8,56.6l-54.8-44.5
												L1179,164l-54.8-3.4l-54.8-62.3l-54.8,1.7l-54.8,3.2l-54.8-8.1l-54.8,5.5h-54.8l-54.8,29.2l-54.8-16l-54.8,16.9
												l-54.8-35.3L521,98l-54.8-0.5l-54.8,60.7l-54.8-5.1l-54.8-22.9l-54.8,5.5l-54.8,1.6l-54.8-32.3l-54.8-2.4l-54.8,23.7"/>
										</g>
										<g>
											<g transform="translate(850,-49)">
												<path pointer-events="none" class="st1" d="M0,0L0,0L0,0L0,0z"/>
												<g>
													<g pointer-events="none">
														<text transform="matrix(1 0 0 1 -201.2329 28)" class="st7 st9">Hot Springs GC Content</text>
													</g>
												</g>
												<path pointer-events="none" class="st10" d="M0,0"/>
											</g>
										</g>
									</g>
									<path class="st10" d="M0,0"/>
								</g>
							</g>
							<g>
								<g transform="translate(1720,0)">
									<path class="st1" d="M0,0h20v40H0V0z"/>
									<g>
										<g>
											<g transform="translate(20.5,0.5)">
												<path pointer-events="none" class="st1" d="M0,0L0,0L0,0L0,0z"/>
												<g>
													<g pointer-events="none">
														<line class="st2" x1="0" y1="10" x2="5" y2="10"/>
														<line class="st2" x1="0" y1="30" x2="5" y2="30"/>
													</g>
													<g pointer-events="none">
														<text transform="matrix(1 0 0 1 7 16)" class="st4 st5">16S</text>
														<text transform="matrix(1 0 0 1 7 36)" class="st4 st5">Whole Genome</text>
													</g>
													<g pointer-events="none">
														<line class="st2" x1="0" y1="0" x2="0" y2="40"/>
													</g>
													<g pointer-events="none">
														<text transform="matrix(1 0 0 1 70.4346 -5)" class="st7 st11">y, x</text>
													</g>
												</g>
												<path pointer-events="none" class="st10" d="M0,0"/>
											</g>
										</g>
										<g pointer-events="none">
											<path class="st12" d="M2.5,8.5h15v3h-15V8.5z"/>
										</g>
										<g pointer-events="none">
											<path class="st13" d="M2.9,22.9h14.1v14.1H2.9V22.9z"/>
										</g>
									</g>
									<path class="st14" d="M0,0"/>
								</g>
							</g>
						</g>
						<path class="st14" d="M0,0"/>
					</g>
				</g>
				<g>
					<g transform="translate(0,510)">
						<path class="st1" d="M0,0h1700v128H0V0z"/>
						<g>
							<g>
								<g transform="translate(0.5,128.5)">
									<path pointer-events="none" class="st1" d="M0,0L0,0L0,0L0,0z"/>
									<g>
										<g pointer-events="none">
											<text transform="matrix(0.7071 -0.7071 0.7071 0.7071 -159.8813 211.4277)" class="st4 st5">Elioraea tepidiphila DSM 17972</text>
											<text transform="matrix(0.7071 -0.7071 0.7071 0.7071 -93.759 200.1445)" class="st4 st5">Thermus aquaticus Y51MC23</text>
											<text transform="matrix(0.7071 -0.7071 0.7071 0.7071 -55.6521 216.8765)" class="st4 st5">Thermus brockianus strain GE-1</text>
											<text transform="matrix(0.7071 -0.7071 0.7071 0.7071 13.3218 202.7412)" class="st4 st5">Meiothermus ruber DSM 1279</text>
											<text transform="matrix(0.7071 -0.7071 0.7071 0.7071 42.231 228.6704)" class="st4 st5">Meiothermus taiwanensis WR-220</text>
											<text transform="matrix(0.7071 -0.7071 0.7071 0.7071 104.9212 220.8193)" class="st4 st5">Meiothermus silvanus DSM 9946</text>
											<text transform="matrix(0.7071 -0.7071 0.7071 0.7071 114.1223 266.4565)" class="st4 st5">Candidatus Solibacter usitatus Ellin6076</text>
											<text transform="matrix(0.7071 -0.7071 0.7071 0.7071 189.4424 245.9751)" class="st4 st5">Chloracidobacterium thermophilum B</text>
											<text transform="matrix(0.7071 -0.7071 0.7071 0.7071 247.4092 242.8472)" class="st4 st5">Roseiflexus castenholzii DSM 13941</text>
											<text transform="matrix(0.7071 -0.7071 0.7071 0.7071 318.7793 226.3159)" class="st4 st5">Chloroflexus islandicus strain isl-2</text>
											<text transform="matrix(0.7071 -0.7071 0.7071 0.7071 454.5762 145.3574)" class="st4 st5">Roseiflexus sp. RS-1</text>
											<text transform="matrix(0.7071 -0.7071 0.7071 0.7071 456.7342 198.0386)" class="st4 st5">Synechococcus sp. JA-3-3Ab</text>
											<text transform="matrix(0.7071 -0.7071 0.7071 0.7071 510.8272 198.7842)" class="st4 st5">Oscillochloris trichoides DG-6</text>
											<text transform="matrix(0.7071 -0.7071 0.7071 0.7071 525.9875 238.4624)" class="st4 st5">Synechococcus sp. JA-2-3B&apos;a(2-13)</text>
											<text transform="matrix(0.7071 -0.7071 0.7071 0.7071 607.1082 212.1807)" class="st4 st5">Chloroflexus aurantiacus J-10-fl</text>
											<text transform="matrix(0.7071 -0.7071 0.7071 0.7071 653.2668 220.8608)" class="st4 st5">Chloroflexus aurantiacus Y-400-fl</text>
											<text transform="matrix(0.7071 -0.7071 0.7071 0.7071 695.5378 233.4282)" class="st4 st5">Chloroflexus aggregans DSM 9485</text>
											<text transform="matrix(0.7071 -0.7071 0.7071 0.7071 659.9924 323.8125)" class="st4 st5">Candidatus Caldatribacterium saccharof. SpSt-82</text>
											<text transform="matrix(0.7071 -0.7071 0.7071 0.7071 883.0798 155.5635)" class="st4 st5">Chloroflexus sp. MS-G</text>
											<text transform="matrix(0.7071 -0.7071 0.7071 0.7071 926.0759 167.4062)" class="st4 st5">Chloroflexus sp. Y-396-1</text>
											<text transform="matrix(0.7071 -0.7071 0.7071 0.7071 874.02 274.3013)" class="st4 st5">Gloeomargarita lithophora Alchichica-D10</text>
											<text transform="matrix(0.7071 -0.7071 0.7071 0.7071 891.3833 311.7764)" class="st4 st5">Candidatus Thermochlorobacteriaceae GBChlB</text>
											<text transform="matrix(0.7071 -0.7071 0.7071 0.7071 990.4646 267.5337)" class="st4 st5">Pseudothermotoga hypogea DSM 11164</text>
											<text transform="matrix(0.7071 -0.7071 0.7071 0.7071 1104.5305 208.3066)" class="st4 st5">Pseudanabaena sp. PCC 7367</text>
											<text transform="matrix(0.7071 -0.7071 0.7071 0.7071 1118.5723 249.1035)" class="st4 st5">Thermocrinis ruber strain DSM 23557</text>
											<text transform="matrix(0.7071 -0.7071 0.7071 0.7071 1219.7114 202.8032)" class="st4 st5">Pseudanabaena sp. ABRG5-3</text>
											<text transform="matrix(0.7071 -0.7071 0.7071 0.7071 1252.0386 225.3145)" class="st4 st5">Pseudothermotoga lettingae TMO</text>
											<text transform="matrix(0.7071 -0.7071 0.7071 0.7071 1262.9111 269.2808)" class="st4 st5">Caldimicrobium thiodismutans strain TF1</text>
											<text transform="matrix(0.7071 -0.7071 0.7071 0.7071 1303.3037 283.7271)" class="st4 st5">Thermodesulfovibrio thiophilus DSM 17215</text>
											<text transform="matrix(0.7071 -0.7071 0.7071 0.7071 1411.072 230.7974)" class="st4 st5">Ignavibacterium album JCM 16511</text>
											<text transform="matrix(0.7071 -0.7071 0.7071 0.7071 1510.4709 186.2373)" class="st4 st5">Thermodesulfovibrio sp. N1</text>
										</g>
										<g pointer-events="none">
											<text transform="matrix(1 0 0 1 806.5269 318)" class="st7 st15">Species</text>
										</g>
									</g>
									<path pointer-events="none" class="st10" d="M0,0"/>
								</g>
							</g>
							<g>
								<g transform="translate(1700.5,0.5)">
									<path pointer-events="none" class="st1" d="M0,0L0,0L0,0L0,0z"/>
									<g>
										<g pointer-events="none">
											<text transform="matrix(1 0 0 1 2 37.5)" class="st7 st5">phyloFlash hit</text>
											<text transform="matrix(1 0 0 1 2 101.5)" class="st7 st5">DeLUCS hit</text>
										</g>
									</g>
									<path pointer-events="none" class="st10" d="M0,0"/>
								</g>
							</g>
							<g>
								<path class="st6" d="M37.4,32c0,5.5-4.5,10-10,10s-10-4.5-10-10s4.5-10,10-10S37.4,26.5,37.4,32"/>
								<path class="st6" d="M37.4,96c0,5.5-4.5,10-10,10s-10-4.5-10-10s4.5-10,10-10S37.4,90.5,37.4,96"/>
								<path class="st6" d="M92.3,32c0,5.5-4.5,10-10,10s-10-4.5-10-10s4.5-10,10-10S92.3,26.5,92.3,32"/>
								<path class="st6" d="M92.3,96c0,5.5-4.5,10-10,10s-10-4.5-10-10s4.5-10,10-10S92.3,90.5,92.3,96"/>
								<path class="st6" d="M147.1,32c0,5.5-4.5,10-10,10s-10-4.5-10-10s4.5-10,10-10S147.1,26.5,147.1,32"/>
								<path class="st6" d="M147.1,96c0,5.5-4.5,10-10,10s-10-4.5-10-10s4.5-10,10-10S147.1,90.5,147.1,96"/>
								<path class="st6" d="M201.9,32c0,5.5-4.5,10-10,10s-10-4.5-10-10s4.5-10,10-10S201.9,26.5,201.9,32"/>
								<path class="st6" d="M201.9,96c0,5.5-4.5,10-10,10s-10-4.5-10-10s4.5-10,10-10S201.9,90.5,201.9,96"/>
								<path class="st6" d="M256.8,32c0,5.5-4.5,10-10,10s-10-4.5-10-10s4.5-10,10-10S256.8,26.5,256.8,32"/>
								<path class="st6" d="M256.8,96c0,5.5-4.5,10-10,10s-10-4.5-10-10s4.5-10,10-10S256.8,90.5,256.8,96"/>
								<path class="st6" d="M311.6,32c0,5.5-4.5,10-10,10s-10-4.5-10-10s4.5-10,10-10S311.6,26.5,311.6,32"/>
								<path class="st6" d="M311.6,96c0,5.5-4.5,10-10,10s-10-4.5-10-10s4.5-10,10-10S311.6,90.5,311.6,96"/>
								<path class="st6" d="M366.5,32c0,5.5-4.5,10-10,10s-10-4.5-10-10s4.5-10,10-10S366.5,26.5,366.5,32"/>
								<path class="st6" d="M366.5,96c0,5.5-4.5,10-10,10s-10-4.5-10-10s4.5-10,10-10S366.5,90.5,366.5,96"/>
								<path class="st6" d="M421.3,32c0,5.5-4.5,10-10,10s-10-4.5-10-10s4.5-10,10-10S421.3,26.5,421.3,32"/>
								<path class="st6" d="M421.3,96c0,5.5-4.5,10-10,10s-10-4.5-10-10s4.5-10,10-10S421.3,90.5,421.3,96"/>
								<path class="st6" d="M476.1,32c0,5.5-4.5,10-10,10s-10-4.5-10-10s4.5-10,10-10S476.1,26.5,476.1,32"/>
								<path class="st6" d="M476.1,96c0,5.5-4.5,10-10,10s-10-4.5-10-10s4.5-10,10-10S476.1,90.5,476.1,96"/>
								<path class="st6" d="M531,32c0,5.5-4.5,10-10,10s-10-4.5-10-10s4.5-10,10-10S531,26.5,531,32"/>
								<path class="st6" d="M531,96c0,5.5-4.5,10-10,10s-10-4.5-10-10s4.5-10,10-10S531,90.5,531,96"/>
								<path class="st6" d="M585.8,32c0,5.5-4.5,10-10,10s-10-4.5-10-10s4.5-10,10-10S585.8,26.5,585.8,32"/>
								<path class="st6" d="M585.8,96c0,5.5-4.5,10-10,10s-10-4.5-10-10s4.5-10,10-10S585.8,90.5,585.8,96"/>
								<path class="st6" d="M640.6,32c0,5.5-4.5,10-10,10s-10-4.5-10-10s4.5-10,10-10S640.6,26.5,640.6,32"/>
								<path class="st6" d="M640.6,96c0,5.5-4.5,10-10,10s-10-4.5-10-10s4.5-10,10-10S640.6,90.5,640.6,96"/>
								<path class="st6" d="M695.5,32c0,5.5-4.5,10-10,10s-10-4.5-10-10s4.5-10,10-10S695.5,26.5,695.5,32"/>
								<path class="st6" d="M695.5,96c0,5.5-4.5,10-10,10s-10-4.5-10-10s4.5-10,10-10S695.5,90.5,695.5,96"/>
								<path class="st6" d="M750.3,32c0,5.5-4.5,10-10,10s-10-4.5-10-10s4.5-10,10-10S750.3,26.5,750.3,32"/>
								<path class="st6" d="M750.3,96c0,5.5-4.5,10-10,10s-10-4.5-10-10s4.5-10,10-10S750.3,90.5,750.3,96"/>
								<path class="st6" d="M805.2,32c0,5.5-4.5,10-10,10s-10-4.5-10-10s4.5-10,10-10S805.2,26.5,805.2,32"/>
								<path class="st6" d="M805.2,96c0,5.5-4.5,10-10,10s-10-4.5-10-10s4.5-10,10-10S805.2,90.5,805.2,96"/>
								<path class="st6" d="M860,32c0,5.5-4.5,10-10,10s-10-4.5-10-10s4.5-10,10-10S860,26.5,860,32"/>
								<path class="st6" d="M860,96c0,5.5-4.5,10-10,10s-10-4.5-10-10s4.5-10,10-10S860,90.5,860,96"/>
								<path class="st6" d="M914.8,32c0,5.5-4.5,10-10,10s-10-4.5-10-10s4.5-10,10-10S914.8,26.5,914.8,32"/>
								<path class="st6" d="M914.8,96c0,5.5-4.5,10-10,10s-10-4.5-10-10s4.5-10,10-10S914.8,90.5,914.8,96"/>
								<path class="st6" d="M969.7,32c0,5.5-4.5,10-10,10s-10-4.5-10-10s4.5-10,10-10S969.7,26.5,969.7,32"/>
								<path class="st6" d="M969.7,96c0,5.5-4.5,10-10,10s-10-4.5-10-10s4.5-10,10-10S969.7,90.5,969.7,96"/>
								<path class="st6" d="M1024.5,32c0,5.5-4.5,10-10,10s-10-4.5-10-10s4.5-10,10-10S1024.5,26.5,1024.5,32"/>
								<path class="st6" d="M1024.5,96c0,5.5-4.5,10-10,10s-10-4.5-10-10s4.5-10,10-10S1024.5,90.5,1024.5,96"/>
								<path class="st6" d="M1079.4,32c0,5.5-4.5,10-10,10s-10-4.5-10-10s4.5-10,10-10S1079.4,26.5,1079.4,32"/>
								<path class="st6" d="M1079.4,96c0,5.5-4.5,10-10,10s-10-4.5-10-10s4.5-10,10-10S1079.4,90.5,1079.4,96"/>
								<path class="st6" d="M1134.2,32c0,5.5-4.5,10-10,10s-10-4.5-10-10s4.5-10,10-10S1134.2,26.5,1134.2,32"/>
								<path class="st6" d="M1134.2,96c0,5.5-4.5,10-10,10s-10-4.5-10-10s4.5-10,10-10S1134.2,90.5,1134.2,96"/>
								<path class="st6" d="M1189,32c0,5.5-4.5,10-10,10s-10-4.5-10-10s4.5-10,10-10S1189,26.5,1189,32"/>
								<path class="st6" d="M1189,96c0,5.5-4.5,10-10,10s-10-4.5-10-10s4.5-10,10-10S1189,90.5,1189,96"/>
								<path class="st6" d="M1243.9,32c0,5.5-4.5,10-10,10s-10-4.5-10-10s4.5-10,10-10S1243.9,26.5,1243.9,32"/>
								<path class="st6" d="M1243.9,96c0,5.5-4.5,10-10,10s-10-4.5-10-10s4.5-10,10-10S1243.9,90.5,1243.9,96"/>
								<path class="st6" d="M1298.7,32c0,5.5-4.5,10-10,10s-10-4.5-10-10s4.5-10,10-10S1298.7,26.5,1298.7,32"/>
								<path class="st6" d="M1298.7,96c0,5.5-4.5,10-10,10s-10-4.5-10-10s4.5-10,10-10S1298.7,90.5,1298.7,96"/>
								<path class="st6" d="M1353.5,32c0,5.5-4.5,10-10,10s-10-4.5-10-10s4.5-10,10-10S1353.5,26.5,1353.5,32"/>
								<path class="st6" d="M1353.5,96c0,5.5-4.5,10-10,10s-10-4.5-10-10s4.5-10,10-10S1353.5,90.5,1353.5,96"/>
								<path class="st6" d="M1408.4,32c0,5.5-4.5,10-10,10s-10-4.5-10-10s4.5-10,10-10S1408.4,26.5,1408.4,32"/>
								<path class="st6" d="M1408.4,96c0,5.5-4.5,10-10,10s-10-4.5-10-10s4.5-10,10-10S1408.4,90.5,1408.4,96"/>
								<path class="st6" d="M1463.2,32c0,5.5-4.5,10-10,10s-10-4.5-10-10s4.5-10,10-10S1463.2,26.5,1463.2,32"/>
								<path class="st6" d="M1463.2,96c0,5.5-4.5,10-10,10s-10-4.5-10-10s4.5-10,10-10S1463.2,90.5,1463.2,96"/>
								<path class="st6" d="M1518.1,32c0,5.5-4.5,10-10,10s-10-4.5-10-10s4.5-10,10-10S1518.1,26.5,1518.1,32"/>
								<path class="st6" d="M1518.1,96c0,5.5-4.5,10-10,10s-10-4.5-10-10s4.5-10,10-10S1518.1,90.5,1518.1,96"/>
								<path class="st6" d="M1572.9,32c0,5.5-4.5,10-10,10s-10-4.5-10-10s4.5-10,10-10S1572.9,26.5,1572.9,32"/>
								<path class="st6" d="M1572.9,96c0,5.5-4.5,10-10,10s-10-4.5-10-10s4.5-10,10-10S1572.9,90.5,1572.9,96"/>
								<path class="st6" d="M1627.7,32c0,5.5-4.5,10-10,10s-10-4.5-10-10s4.5-10,10-10S1627.7,26.5,1627.7,32"/>
								<path class="st6" d="M1627.7,96c0,5.5-4.5,10-10,10s-10-4.5-10-10s4.5-10,10-10S1627.7,90.5,1627.7,96"/>
								<path class="st6" d="M1682.6,32c0,5.5-4.5,10-10,10s-10-4.5-10-10s4.5-10,10-10S1682.6,26.5,1682.6,32"/>
								<path class="st6" d="M1682.6,96c0,5.5-4.5,10-10,10s-10-4.5-10-10s4.5-10,10-10S1682.6,90.5,1682.6,96"/>
							</g>
							<g pointer-events="none">
								<path class="st16" d="M0,64h54.8v64H0V64z"/>
								<path class="st16" d="M54.8,64h54.8v64H54.8V64z"/>
								<path class="st16" d="M109.7,64h54.8v64h-54.8L109.7,64z"/>
								<path class="st16" d="M164.5,64h54.8v64h-54.8V64z"/>
								<path class="st16" d="M219.4,64h54.8v64h-54.8L219.4,64z"/>
								<path class="st16" d="M274.2,64H329v64h-54.8V64z"/>
								<path class="st16" d="M329,64h54.8v64H329V64z"/>
								<path class="st16" d="M383.9,64h54.8v64h-54.8V64z"/>
								<path class="st16" d="M438.7,64h54.8v64h-54.8V64z"/>
								<path class="st16" d="M493.5,64h54.8v64h-54.8L493.5,64z"/>
								<path class="st16" d="M548.4,64h54.8v64h-54.8V64z"/>
								<path class="st16" d="M603.2,64h54.8v64h-54.8V64z"/>
								<path class="st16" d="M658.1,64h54.8v64h-54.8V64z"/>
								<path class="st16" d="M712.9,64h54.8v64h-54.8V64z"/>
								<path class="st16" d="M767.7,64h54.8v64h-54.8V64z"/>
								<path class="st16" d="M822.6,64h54.8v64h-54.8V64z"/>
								<path class="st16" d="M877.4,64h54.8v64h-54.8V64z"/>
								<path class="st16" d="M932.3,64h54.8v64h-54.8V64z"/>
								<path class="st16" d="M987.1,64h54.8v64h-54.8L987.1,64z"/>
								<path class="st16" d="M1041.9,64h54.8v64h-54.8V64z"/>
								<path class="st16" d="M1096.8,64h54.8v64h-54.8V64z"/>
								<path class="st16" d="M1151.6,64h54.8v64h-54.8V64z"/>
								<path class="st16" d="M1206.5,64h54.8v64h-54.8V64z"/>
								<path class="st16" d="M1261.3,64h54.8v64h-54.8V64z"/>
								<path class="st16" d="M1316.1,64h54.8v64h-54.8V64z"/>
								<path class="st16" d="M1371,64h54.8v64H1371V64z"/>
								<path class="st16" d="M1425.8,64h54.8v64h-54.8V64z"/>
								<path class="st16" d="M1480.6,64h54.8v64h-54.8V64z"/>
								<path class="st16" d="M1535.5,64h54.8v64h-54.8V64z"/>
								<path class="st16" d="M1590.3,64h54.8v64h-54.8V64z"/>
								<path class="st16" d="M1645.2,64h54.8v64h-54.8V64z"/>
							</g>
							<g pointer-events="none">
								<path class="st6" d="M37.4,32c0,5.5-4.5,10-10,10s-10-4.5-10-10s4.5-10,10-10S37.4,26.5,37.4,32"/>
								<path class="st6" d="M37.4,96c0,5.5-4.5,10-10,10s-10-4.5-10-10s4.5-10,10-10S37.4,90.5,37.4,96"/>
								<path class="st6" d="M92.3,32c0,5.5-4.5,10-10,10s-10-4.5-10-10s4.5-10,10-10S92.3,26.5,92.3,32"/>
								<path class="st6" d="M92.3,96c0,5.5-4.5,10-10,10s-10-4.5-10-10s4.5-10,10-10S92.3,90.5,92.3,96"/>
								<path class="st6" d="M147.1,32c0,5.5-4.5,10-10,10s-10-4.5-10-10s4.5-10,10-10S147.1,26.5,147.1,32"/>
								<path class="st6" d="M147.1,96c0,5.5-4.5,10-10,10s-10-4.5-10-10s4.5-10,10-10S147.1,90.5,147.1,96"/>
								<path class="st6" d="M201.9,32c0,5.5-4.5,10-10,10s-10-4.5-10-10s4.5-10,10-10S201.9,26.5,201.9,32"/>
								<path class="st6" d="M201.9,96c0,5.5-4.5,10-10,10s-10-4.5-10-10s4.5-10,10-10S201.9,90.5,201.9,96"/>
								<path class="st6" d="M256.8,32c0,5.5-4.5,10-10,10s-10-4.5-10-10s4.5-10,10-10S256.8,26.5,256.8,32"/>
								<path class="st6" d="M256.8,96c0,5.5-4.5,10-10,10s-10-4.5-10-10s4.5-10,10-10S256.8,90.5,256.8,96"/>
								<path class="st6" d="M311.6,32c0,5.5-4.5,10-10,10s-10-4.5-10-10s4.5-10,10-10S311.6,26.5,311.6,32"/>
								<path class="st6" d="M311.6,96c0,5.5-4.5,10-10,10s-10-4.5-10-10s4.5-10,10-10S311.6,90.5,311.6,96"/>
								<path class="st6" d="M366.5,32c0,5.5-4.5,10-10,10s-10-4.5-10-10s4.5-10,10-10S366.5,26.5,366.5,32"/>
								<path class="st6" d="M366.5,96c0,5.5-4.5,10-10,10s-10-4.5-10-10s4.5-10,10-10S366.5,90.5,366.5,96"/>
								<path class="st6" d="M421.3,32c0,5.5-4.5,10-10,10s-10-4.5-10-10s4.5-10,10-10S421.3,26.5,421.3,32"/>
								<path class="st6" d="M421.3,96c0,5.5-4.5,10-10,10s-10-4.5-10-10s4.5-10,10-10S421.3,90.5,421.3,96"/>
								<path class="st6" d="M476.1,32c0,5.5-4.5,10-10,10s-10-4.5-10-10s4.5-10,10-10S476.1,26.5,476.1,32"/>
								<path class="st6" d="M476.1,96c0,5.5-4.5,10-10,10s-10-4.5-10-10s4.5-10,10-10S476.1,90.5,476.1,96"/>
								<path class="st6" d="M531,32c0,5.5-4.5,10-10,10s-10-4.5-10-10s4.5-10,10-10S531,26.5,531,32"/>
								<path class="st6" d="M531,96c0,5.5-4.5,10-10,10s-10-4.5-10-10s4.5-10,10-10S531,90.5,531,96"/>
								<path class="st6" d="M585.8,32c0,5.5-4.5,10-10,10s-10-4.5-10-10s4.5-10,10-10S585.8,26.5,585.8,32"/>
								<path class="st6" d="M585.8,96c0,5.5-4.5,10-10,10s-10-4.5-10-10s4.5-10,10-10S585.8,90.5,585.8,96"/>
								<path class="st6" d="M640.6,32c0,5.5-4.5,10-10,10s-10-4.5-10-10s4.5-10,10-10S640.6,26.5,640.6,32"/>
								<path class="st6" d="M640.6,96c0,5.5-4.5,10-10,10s-10-4.5-10-10s4.5-10,10-10S640.6,90.5,640.6,96"/>
								<path class="st6" d="M695.5,32c0,5.5-4.5,10-10,10s-10-4.5-10-10s4.5-10,10-10S695.5,26.5,695.5,32"/>
								<path class="st6" d="M695.5,96c0,5.5-4.5,10-10,10s-10-4.5-10-10s4.5-10,10-10S695.5,90.5,695.5,96"/>
								<path class="st6" d="M750.3,32c0,5.5-4.5,10-10,10s-10-4.5-10-10s4.5-10,10-10S750.3,26.5,750.3,32"/>
								<path class="st6" d="M750.3,96c0,5.5-4.5,10-10,10s-10-4.5-10-10s4.5-10,10-10S750.3,90.5,750.3,96"/>
								<path class="st6" d="M805.2,32c0,5.5-4.5,10-10,10s-10-4.5-10-10s4.5-10,10-10S805.2,26.5,805.2,32"/>
								<path class="st6" d="M805.2,96c0,5.5-4.5,10-10,10s-10-4.5-10-10s4.5-10,10-10S805.2,90.5,805.2,96"/>
								<path class="st6" d="M860,32c0,5.5-4.5,10-10,10s-10-4.5-10-10s4.5-10,10-10S860,26.5,860,32"/>
								<path class="st6" d="M860,96c0,5.5-4.5,10-10,10s-10-4.5-10-10s4.5-10,10-10S860,90.5,860,96"/>
								<path class="st6" d="M914.8,32c0,5.5-4.5,10-10,10s-10-4.5-10-10s4.5-10,10-10S914.8,26.5,914.8,32"/>
								<path class="st6" d="M914.8,96c0,5.5-4.5,10-10,10s-10-4.5-10-10s4.5-10,10-10S914.8,90.5,914.8,96"/>
								<path class="st6" d="M969.7,32c0,5.5-4.5,10-10,10s-10-4.5-10-10s4.5-10,10-10S969.7,26.5,969.7,32"/>
								<path class="st6" d="M969.7,96c0,5.5-4.5,10-10,10s-10-4.5-10-10s4.5-10,10-10S969.7,90.5,969.7,96"/>
								<path class="st6" d="M1024.5,32c0,5.5-4.5,10-10,10s-10-4.5-10-10s4.5-10,10-10S1024.5,26.5,1024.5,32"/>
								<path class="st6" d="M1024.5,96c0,5.5-4.5,10-10,10s-10-4.5-10-10s4.5-10,10-10S1024.5,90.5,1024.5,96"/>
								<path class="st6" d="M1079.4,32c0,5.5-4.5,10-10,10s-10-4.5-10-10s4.5-10,10-10S1079.4,26.5,1079.4,32"/>
								<path class="st6" d="M1079.4,96c0,5.5-4.5,10-10,10s-10-4.5-10-10s4.5-10,10-10S1079.4,90.5,1079.4,96"/>
								<path class="st6" d="M1134.2,32c0,5.5-4.5,10-10,10s-10-4.5-10-10s4.5-10,10-10S1134.2,26.5,1134.2,32"/>
								<path class="st6" d="M1134.2,96c0,5.5-4.5,10-10,10s-10-4.5-10-10s4.5-10,10-10S1134.2,90.5,1134.2,96"/>
								<path class="st6" d="M1189,32c0,5.5-4.5,10-10,10s-10-4.5-10-10s4.5-10,10-10S1189,26.5,1189,32"/>
								<path class="st6" d="M1189,96c0,5.5-4.5,10-10,10s-10-4.5-10-10s4.5-10,10-10S1189,90.5,1189,96"/>
								<path class="st6" d="M1243.9,32c0,5.5-4.5,10-10,10s-10-4.5-10-10s4.5-10,10-10S1243.9,26.5,1243.9,32"/>
								<path class="st6" d="M1243.9,96c0,5.5-4.5,10-10,10s-10-4.5-10-10s4.5-10,10-10S1243.9,90.5,1243.9,96"/>
								<path class="st6" d="M1298.7,32c0,5.5-4.5,10-10,10s-10-4.5-10-10s4.5-10,10-10S1298.7,26.5,1298.7,32"/>
								<path class="st6" d="M1298.7,96c0,5.5-4.5,10-10,10s-10-4.5-10-10s4.5-10,10-10S1298.7,90.5,1298.7,96"/>
								<path class="st6" d="M1353.5,32c0,5.5-4.5,10-10,10s-10-4.5-10-10s4.5-10,10-10S1353.5,26.5,1353.5,32"/>
								<path class="st6" d="M1353.5,96c0,5.5-4.5,10-10,10s-10-4.5-10-10s4.5-10,10-10S1353.5,90.5,1353.5,96"/>
								<path class="st6" d="M1408.4,32c0,5.5-4.5,10-10,10s-10-4.5-10-10s4.5-10,10-10S1408.4,26.5,1408.4,32"/>
								<path class="st6" d="M1408.4,96c0,5.5-4.5,10-10,10s-10-4.5-10-10s4.5-10,10-10S1408.4,90.5,1408.4,96"/>
								<path class="st6" d="M1463.2,32c0,5.5-4.5,10-10,10s-10-4.5-10-10s4.5-10,10-10S1463.2,26.5,1463.2,32"/>
								<path class="st6" d="M1463.2,96c0,5.5-4.5,10-10,10s-10-4.5-10-10s4.5-10,10-10S1463.2,90.5,1463.2,96"/>
								<path class="st6" d="M1518.1,32c0,5.5-4.5,10-10,10s-10-4.5-10-10s4.5-10,10-10S1518.1,26.5,1518.1,32"/>
								<path class="st6" d="M1518.1,96c0,5.5-4.5,10-10,10s-10-4.5-10-10s4.5-10,10-10S1518.1,90.5,1518.1,96"/>
								<path class="st6" d="M1572.9,32c0,5.5-4.5,10-10,10s-10-4.5-10-10s4.5-10,10-10S1572.9,26.5,1572.9,32"/>
								<path class="st6" d="M1572.9,96c0,5.5-4.5,10-10,10s-10-4.5-10-10s4.5-10,10-10S1572.9,90.5,1572.9,96"/>
								<path class="st6" d="M1627.7,32c0,5.5-4.5,10-10,10s-10-4.5-10-10s4.5-10,10-10S1627.7,26.5,1627.7,32"/>
								<path class="st6" d="M1627.7,96c0,5.5-4.5,10-10,10s-10-4.5-10-10s4.5-10,10-10S1627.7,90.5,1627.7,96"/>
								<path class="st6" d="M1682.6,32c0,5.5-4.5,10-10,10s-10-4.5-10-10s4.5-10,10-10S1682.6,26.5,1682.6,32"/>
								<path class="st6" d="M1682.6,96c0,5.5-4.5,10-10,10s-10-4.5-10-10s4.5-10,10-10S1682.6,90.5,1682.6,96"/>
							</g>
							<g pointer-events="none">
								<path class="st17" d="M92.6,32c0,5.7-4.6,10.4-10.4,10.4S71.9,37.7,71.9,32s4.6-10.4,10.4-10.4S92.6,26.3,92.6,32"/>
								<path class="st17" d="M92.6,96c0,5.7-4.6,10.4-10.4,10.4S71.9,101.7,71.9,96s4.6-10.4,10.4-10.4S92.6,90.3,92.6,96"/>
								<path class="st17" d="M147.5,96c0,5.7-4.6,10.4-10.4,10.4s-10.4-4.6-10.4-10.4s4.6-10.4,10.4-10.4S147.5,90.3,147.5,96"/>
								<path class="st17" d="M202.3,96c0,5.7-4.6,10.4-10.4,10.4s-10.4-4.6-10.4-10.4s4.6-10.4,10.4-10.4S202.3,90.3,202.3,96"/>
								<path class="st17" d="M257.1,32c0,5.7-4.6,10.4-10.4,10.4s-10.4-4.6-10.4-10.4s4.6-10.4,10.4-10.4S257.1,26.3,257.1,32"/>
								<path class="st17" d="M312,96c0,5.7-4.6,10.4-10.4,10.4s-10.4-4.6-10.4-10.4s4.6-10.4,10.4-10.4S312,90.3,312,96"/>
								<path class="st17" d="M366.8,96c0,5.7-4.6,10.4-10.4,10.4s-10.4-4.6-10.4-10.4s4.6-10.4,10.4-10.4S366.8,90.3,366.8,96"/>
								<path class="st17" d="M476.5,32c0,5.7-4.6,10.4-10.4,10.4s-10.4-4.6-10.4-10.4s4.6-10.4,10.4-10.4S476.5,26.3,476.5,32"/>
								<path class="st17" d="M476.5,96c0,5.7-4.6,10.4-10.4,10.4s-10.4-4.6-10.4-10.4s4.6-10.4,10.4-10.4S476.5,90.3,476.5,96"/>
								<path class="st17" d="M531.3,32c0,5.7-4.6,10.4-10.4,10.4s-10.4-4.6-10.4-10.4s4.6-10.4,10.4-10.4S531.3,26.3,531.3,32"/>
								<path class="st17" d="M641,32c0,5.7-4.6,10.4-10.4,10.4s-10.4-4.6-10.4-10.4s4.6-10.4,10.4-10.4S641,26.3,641,32"/>
								<path class="st17" d="M641,96c0,5.7-4.6,10.4-10.4,10.4s-10.4-4.6-10.4-10.4s4.6-10.4,10.4-10.4S641,90.3,641,96"/>
								<path class="st17" d="M695.9,32c0,5.7-4.6,10.4-10.4,10.4s-10.4-4.6-10.4-10.4s4.6-10.4,10.4-10.4S695.9,26.3,695.9,32"/>
								<path class="st17" d="M695.9,96c0,5.7-4.6,10.4-10.4,10.4s-10.4-4.6-10.4-10.4s4.6-10.4,10.4-10.4S695.9,90.3,695.9,96"/>
								<path class="st17" d="M750.7,96c0,5.7-4.6,10.4-10.4,10.4S730,101.7,730,96s4.6-10.4,10.4-10.4S750.7,90.3,750.7,96"/>
								<path class="st17" d="M805.5,96c0,5.7-4.6,10.4-10.4,10.4s-10.4-4.6-10.4-10.4s4.6-10.4,10.4-10.4S805.5,90.3,805.5,96"/>
								<path class="st17" d="M860.4,32c0,5.7-4.6,10.4-10.4,10.4s-10.4-4.6-10.4-10.4s4.6-10.4,10.4-10.4S860.4,26.3,860.4,32"/>
								<path class="st17" d="M860.4,96c0,5.7-4.6,10.4-10.4,10.4s-10.4-4.6-10.4-10.4s4.6-10.4,10.4-10.4S860.4,90.3,860.4,96"/>
								<path class="st17" d="M915.2,96c0,5.7-4.6,10.4-10.4,10.4s-10.4-4.6-10.4-10.4s4.6-10.4,10.4-10.4S915.2,90.3,915.2,96"/>
								<path class="st17" d="M970,32c0,5.7-4.6,10.4-10.4,10.4s-10.4-4.6-10.4-10.4s4.6-10.4,10.4-10.4S970,26.3,970,32"/>
								<path class="st17" d="M1024.9,32c0,5.7-4.6,10.4-10.4,10.4s-10.4-4.6-10.4-10.4s4.6-10.4,10.4-10.4S1024.9,26.3,1024.9,32"
									/>
								<path class="st17" d="M1079.7,32c0,5.7-4.6,10.4-10.4,10.4S1059,37.7,1059,32s4.6-10.4,10.4-10.4S1079.7,26.3,1079.7,32"/>
								<path class="st17" d="M1079.7,96c0,5.7-4.6,10.4-10.4,10.4S1059,101.7,1059,96s4.6-10.4,10.4-10.4S1079.7,90.3,1079.7,96"/>
								<path class="st17" d="M1189.4,32c0,5.7-4.6,10.4-10.4,10.4s-10.4-4.6-10.4-10.4s4.6-10.4,10.4-10.4S1189.4,26.3,1189.4,32"
									/>
								<path class="st17" d="M1299.1,96c0,5.7-4.6,10.4-10.4,10.4s-10.4-4.6-10.4-10.4s4.6-10.4,10.4-10.4S1299.1,90.3,1299.1,96"
									/>
								<path class="st17" d="M1353.9,32c0,5.7-4.6,10.4-10.4,10.4s-10.4-4.6-10.4-10.4s4.6-10.4,10.4-10.4S1353.9,26.3,1353.9,32"
									/>
								<path class="st17" d="M1408.8,96c0,5.7-4.6,10.4-10.4,10.4S1388,101.7,1388,96s4.6-10.4,10.4-10.4S1408.8,90.3,1408.8,96"/>
								<path class="st17" d="M1463.6,96c0,5.7-4.6,10.4-10.4,10.4s-10.4-4.6-10.4-10.4s4.6-10.4,10.4-10.4S1463.6,90.3,1463.6,96"
									/>
								<path class="st17" d="M1573.3,32c0,5.7-4.6,10.4-10.4,10.4s-10.4-4.6-10.4-10.4s4.6-10.4,10.4-10.4S1573.3,26.3,1573.3,32"
									/>
								<path class="st17" d="M1573.3,96c0,5.7-4.6,10.4-10.4,10.4s-10.4-4.6-10.4-10.4s4.6-10.4,10.4-10.4S1573.3,90.3,1573.3,96"
									/>
								<path class="st17" d="M1628.1,96c0,5.7-4.6,10.4-10.4,10.4s-10.4-4.6-10.4-10.4s4.6-10.4,10.4-10.4S1628.1,90.3,1628.1,96"
									/>
							</g>
						</g>
						<path class="st18" d="M0,0"/>
					</g>
				</g>
			</g>
			<path class="st18" d="M0,0"/>
		</g>
	</g>
</g>
<g>
	<line x1="1162" y1="51.8" x2="1165.8" y2="689.8"/>
	<g>
		<line class="st19" x1="1162" y1="51.8" x2="1162" y2="59.3"/>
		<line class="st20" x1="1162.1" y1="74.5" x2="1165.7" y2="674.7"/>
		<line class="st19" x1="1165.7" y1="682.3" x2="1165.8" y2="689.8"/>
	</g>
</g>
<g>
	<line x1="1656.3" y1="52.3" x2="1660.1" y2="690.3"/>
	<g>
		<line class="st19" x1="1656.3" y1="52.3" x2="1656.3" y2="59.8"/>
		<line class="st20" x1="1656.4" y1="75" x2="1660" y2="675.2"/>
		<line class="st19" x1="1660" y1="682.8" x2="1660.1" y2="690.3"/>
	</g>
</g>
<text transform="matrix(1 0 0 1 1082.3853 123.8548)" class="st21 st22">High</text>
<text transform="matrix(1 0 0 1 1403.3887 123.855)" class="st21 st22">Medium</text>
<text transform="matrix(1 0 0 1 1686.6669 125.4898)" class="st21 st22">Low</text>
</svg>
