<?xml version="1.0" encoding="utf-8"?>
<!-- Generator: Adobe Illustrator 27.4.1, SVG Export Plug-In . SVG Version: 6.00 Build 0)  -->
<svg version="1.1" id="Layer_1" xmlns="http://www.w3.org/2000/svg" xmlns:xlink="http://www.w3.org/1999/xlink" x="0px" y="0px"
	 viewBox="0 0 2051 1024" style="enable-background:new 0 0 2051 1024;" xml:space="preserve">
<style type="text/css">
	.st0{fill:#FFFFFF;}
	.st1{fill:none;}
	.st2{fill:none;stroke:#888888;stroke-miterlimit:10;}
	.st3{display:none;fill:none;stroke:#888888;stroke-miterlimit:10;}
	.st4{font-family:'Helvetica';}
	.st5{font-size:20px;}
	.st6{fill:#B80000;}
	.st7{font-family:'Helvetica-Bold';}
	.st8{font-size:16px;}
	.st9{font-size:35px;}
	.st10{display:none;}
	.st11{font-size:23px;}
	.st12{fill:#F7F7F7;}
	.st13{fill:#E6E6E6;}
	.st14{display:none;fill:#E6E6E6;}
	.st15{fill:none;stroke:#000000;stroke-width:4;stroke-miterlimit:10;}
	.st16{fill:none;stroke:#000000;stroke-width:4;stroke-miterlimit:10;stroke-dasharray:15.1954,15.1954;}
	.st17{font-family:'MyriadPro-Regular';}
	.st18{font-size:30px;}
</style>
<rect class="st0" width="2051" height="1024"/>
<g transform="translate(208,54)">
	<g>
		<g transform="translate(0,0)">
			<path class="st1" d="M0,0L0,0L0,0L0,0z"/>
			<g>
				<g>
					<g transform="translate(0,0)">
						<path class="st1" d="M0,0L0,0L0,0L0,0z"/>
						<g>
							<g>
								<g transform="translate(0,0)">
									<path class="st1" d="M0,0h1700v480H0V0z"/>
									<g>
										<g>
											<g transform="translate(0.5,480.5)">
												<path pointer-events="none" class="st1" d="M0,0L0,0L0,0L0,0z"/>
												<g>
													<g pointer-events="none">
														<line class="st2" x1="0" y1="0" x2="1700" y2="0"/>
													</g>
												</g>
												<path pointer-events="none" class="st3" d="M0,0"/>
											</g>
										</g>
										<g>
											<g transform="translate(0.5,0.5)">
												<path pointer-events="none" class="st1" d="M0,0L0,0L0,0L0,0z"/>
												<g>
													<g pointer-events="none">
														<line class="st2" x1="0" y1="480" x2="-5" y2="480"/>
														<line class="st2" x1="0" y1="407" x2="-5" y2="407"/>
														<line class="st2" x1="0" y1="336" x2="-5" y2="336"/>
														<line class="st2" x1="0" y1="267" x2="-5" y2="267"/>
														<line class="st2" x1="0" y1="198" x2="-5" y2="198"/>
														<line class="st2" x1="0" y1="131" x2="-5" y2="131"/>
														<line class="st2" x1="0" y1="65" x2="-5" y2="65"/>
														<line class="st2" x1="0" y1="0" x2="-5" y2="0"/>
													</g>
													<g pointer-events="none">
														<text transform="matrix(1 0 0 1 -35.9062 486)" class="st4 st5">0%</text>
														<text transform="matrix(1 0 0 1 -35.9062 413.4564)" class="st4 st5">2%</text>
														<text transform="matrix(1 0 0 1 -35.9062 342.3215)" class="st4 st5">4%</text>
														<text transform="matrix(1 0 0 1 -35.9062 272.5416)" class="st4 st5">6%</text>
														<text transform="matrix(1 0 0 1 -35.9062 204.0662)" class="st4 st5">8%</text>
														<text transform="matrix(1 0 0 1 -47.0293 136.8472)" class="st4 st5">10%</text>
														<text transform="matrix(1 0 0 1 -47.0293 70.8394)" class="st4 st5">12%</text>
														<text transform="matrix(1 0 0 1 -47.0293 6)" class="st4 st5">14%</text>
													</g>
													<g pointer-events="none">
														<line class="st2" x1="0" y1="480" x2="0" y2="0"/>
													</g>
												</g>
												<path pointer-events="none" class="st3" d="M0,0"/>
											</g>
										</g>
										<g>
											<path class="st6" d="M7.4,31h40v449h-40L7.4,31z"/>
											<path class="st6" d="M62.3,61.1h40V480h-40V61.1z"/>
											<path class="st6" d="M117.1,116.1h40V480h-40V116.1z"/>
											<path class="st6" d="M171.9,152.2h40V480h-40V152.2z"/>
											<path class="st6" d="M226.8,156.6h40V480h-40V156.6z"/>
											<path class="st6" d="M281.6,198.8h40V480h-40V198.8z"/>
											<path class="st6" d="M336.5,257.1h40V480h-40V257.1z"/>
											<path class="st6" d="M391.3,303.5h40V480h-40V303.5z"/>
											<path class="st6" d="M446.1,364.9h40V480h-40V364.9z"/>
											<path class="st6" d="M501,377.8h40V480h-40L501,377.8z"/>
											<path class="st6" d="M555.8,384.6h40V480h-40V384.6z"/>
											<path class="st6" d="M610.6,388.1h40V480h-40V388.1z"/>
											<path class="st6" d="M665.5,411.5h40V480h-40V411.5z"/>
											<path class="st6" d="M720.3,417.8h40V480h-40V417.8z"/>
											<path class="st6" d="M775.2,418h40v62h-40V418z"/>
											<path class="st6" d="M830,420.1h40V480h-40V420.1z"/>
											<path class="st6" d="M884.8,420.2h40V480h-40V420.2z"/>
											<path class="st6" d="M939.7,421h40v59h-40V421z"/>
											<path class="st6" d="M994.5,427.8h40V480h-40V427.8z"/>
											<path class="st6" d="M1049.4,428.8h40V480h-40V428.8z"/>
											<path class="st6" d="M1104.2,429.7h40V480h-40V429.7z"/>
											<path class="st6" d="M1159,439.7h40V480h-40V439.7z"/>
											<path class="st6" d="M1213.9,440.4h40V480h-40V440.4z"/>
											<path class="st6" d="M1268.7,444.4h40V480h-40V444.4z"/>
											<path class="st6" d="M1323.5,444.7h40V480h-40V444.7z"/>
											<path class="st6" d="M1378.4,445.6h40V480h-40V445.6z"/>
											<path class="st6" d="M1433.2,449.9h40V480h-40V449.9z"/>
											<path class="st6" d="M1488.1,450.3h40V480h-40V450.3z"/>
											<path class="st6" d="M1542.9,460.5h40V480h-40V460.5z"/>
											<path class="st6" d="M1597.7,462.2h40V480h-40V462.2z"/>
											<path class="st6" d="M1652.6,462.5h40V480h-40V462.5z"/>
										</g>
										<g>
											<text transform="matrix(1 0 0 1 0.2865 25.9617)" class="st6 st7 st8">13.04%</text>
											<text transform="matrix(1 0 0 1 55.5627 56.0927)" class="st6 st7 st8">12.11%</text>
											<text transform="matrix(1 0 0 1 109.964 111.0557)" class="st6 st7 st8">10.45%</text>
											<text transform="matrix(1 0 0 1 169.2519 147.186)" class="st6 st7 st8">9.36%</text>
											<text transform="matrix(1 0 0 1 224.0906 151.6107)" class="st6 st7 st8">9.23%</text>
											<text transform="matrix(1 0 0 1 278.9293 193.8275)" class="st6 st7 st8">7.98%</text>
											<text transform="matrix(1 0 0 1 333.768 252.1497)" class="st6 st7 st8">6.27%</text>
											<text transform="matrix(1 0 0 1 388.6067 298.4974)" class="st6 st7 st8">4.94%</text>
											<text transform="matrix(1 0 0 1 443.4454 359.8557)" class="st6 st7 st8">3.19%</text>
											<text transform="matrix(1 0 0 1 498.2841 372.8174)" class="st6 st7 st8">2.83%</text>
											<text transform="matrix(1 0 0 1 553.1229 379.6489)" class="st6 st7 st8">2.64%</text>
											<text transform="matrix(1 0 0 1 607.9615 383.1326)" class="st6 st7 st8">2.54%</text>
											<text transform="matrix(1 0 0 1 662.8003 406.5197)" class="st6 st7 st8">1.89%</text>
											<text transform="matrix(1 0 0 1 717.639 412.8136)" class="st6 st7 st8">1.71%</text>
											<text transform="matrix(1 0 0 1 772.4777 413.0288)" class="st6 st7 st8">1.71%</text>
											<text transform="matrix(1 0 0 1 827.3164 415.0651)" class="st6 st7 st8">1.65%</text>
											<text transform="matrix(1 0 0 1 882.155 415.2169)" class="st6 st7 st8">1.65%</text>
											<text transform="matrix(1 0 0 1 936.9939 416.0208)" class="st6 st7 st8">1.62%</text>
											<text transform="matrix(1 0 0 1 991.8325 422.7547)" class="st6 st7 st8">1.44%</text>
											<text transform="matrix(1 0 0 1 1046.6713 423.7829)" class="st6 st7 st8">1.41%</text>
											<text transform="matrix(1 0 0 1 1101.51 424.6754)" class="st6 st7 st8">1.38%</text>
											<text transform="matrix(1 0 0 1 1156.7861 434.7306)" class="st6 st7 st8">1.11%</text>
											<text transform="matrix(1 0 0 1 1211.1874 435.4441)" class="st6 st7 st8">1.09%</text>
											<text transform="matrix(1 0 0 1 1266.0261 439.3855)" class="st6 st7 st8">0.98%</text>
											<text transform="matrix(1 0 0 1 1320.8647 439.7171)" class="st6 st7 st8">0.97%</text>
											<text transform="matrix(1 0 0 1 1375.7035 440.6243)" class="st6 st7 st8">0.94%</text>
											<text transform="matrix(1 0 0 1 1430.5422 444.8895)" class="st6 st7 st8">0.83%</text>
											<text transform="matrix(1 0 0 1 1485.381 445.3436)" class="st6 st7 st8">0.81%</text>
											<text transform="matrix(1 0 0 1 1540.2196 455.4893)" class="st6 st7 st8">0.53%</text>
											<text transform="matrix(1 0 0 1 1595.0583 457.1587)" class="st6 st7 st8">0.49%</text>
											<text transform="matrix(1 0 0 1 1649.8971 457.4829)" class="st6 st7 st8">0.48%</text>
										</g>
										<g>
											<g transform="translate(850,-49)">
												<path pointer-events="none" class="st1" d="M0,0L0,0L0,0L0,0z"/>
												<g>
													<g pointer-events="none">
														<text transform="matrix(1 0 0 1 -382.1289 28)" class="st7 st9">Hot Spring Repetitiveness (Whole Genome %)</text>
													</g>
												</g>
												<path pointer-events="none" class="st10" d="M0,0"/>
											</g>
										</g>
									</g>
									<path class="st10" d="M0,0"/>
								</g>
							</g>
						</g>
						<path class="st10" d="M0,0"/>
					</g>
				</g>
				<g>
					<g transform="translate(0,510)">
						<path class="st1" d="M0,0h1700v128H0V0z"/>
						<g>
							<g>
								<g transform="translate(0.5,128.5)">
									<path pointer-events="none" class="st1" d="M0,0L0,0L0,0L0,0z"/>
									<g>
										<g pointer-events="none">
											<text transform="matrix(0.7071 -0.7071 0.7071 0.7071 -191.3003 242.8472)" class="st4 st5">Roseiflexus castenholzii DSM 13941</text>
											<text transform="matrix(0.7071 -0.7071 0.7071 0.7071 -38.9721 145.3574)" class="st4 st5">Roseiflexus sp. RS-1</text>
											<text transform="matrix(0.7071 -0.7071 0.7071 0.7071 -65.0915 226.3159)" class="st4 st5">Chloroflexus islandicus strain isl-2</text>
											<text transform="matrix(0.7071 -0.7071 0.7071 0.7071 3.8823 212.1807)" class="st4 st5">Chloroflexus aurantiacus J-10-fl</text>
											<text transform="matrix(0.7071 -0.7071 0.7071 0.7071 50.041 220.8608)" class="st4 st5">Chloroflexus aurantiacus Y-400-fl</text>
											<text transform="matrix(0.7071 -0.7071 0.7071 0.7071 92.312 233.4282)" class="st4 st5">Chloroflexus aggregans DSM 9485</text>
											<text transform="matrix(0.7071 -0.7071 0.7071 0.7071 213.1726 167.4062)" class="st4 st5">Chloroflexus sp. Y-396-1</text>
											<text transform="matrix(0.7071 -0.7071 0.7071 0.7071 236.6336 198.7842)" class="st4 st5">Oscillochloris trichoides DG-6</text>
											<text transform="matrix(0.7071 -0.7071 0.7071 0.7071 281.9497 208.3066)" class="st4 st5">Pseudanabaena sp. PCC 7367</text>
											<text transform="matrix(0.7071 -0.7071 0.7071 0.7071 270.7942 274.3013)" class="st4 st5">Gloeomargarita lithophora Alchichica-D10</text>
											<text transform="matrix(0.7071 -0.7071 0.7071 0.7071 444.3701 155.5635)" class="st4 st5">Chloroflexus sp. MS-G</text>
											<text transform="matrix(0.7071 -0.7071 0.7071 0.7071 451.9695 202.8032)" class="st4 st5">Pseudanabaena sp. ABRG5-3</text>
											<text transform="matrix(0.7071 -0.7071 0.7071 0.7071 463.636 245.9751)" class="st4 st5">Chloracidobacterium thermophilum B</text>
											<text transform="matrix(0.7071 -0.7071 0.7071 0.7071 533.6526 230.7974)" class="st4 st5">Ignavibacterium album JCM 16511</text>
											<text transform="matrix(0.7071 -0.7071 0.7071 0.7071 619.144 200.1445)" class="st4 st5">Thermus aquaticus Y51MC23</text>
											<text transform="matrix(0.7071 -0.7071 0.7071 0.7071 635.665 238.4624)" class="st4 st5">Synechococcus sp. JA-2-3B&apos;a(2-13)</text>
											<text transform="matrix(0.7071 -0.7071 0.7071 0.7071 708.147 220.8193)" class="st4 st5">Meiothermus silvanus DSM 9946</text>
											<text transform="matrix(0.7071 -0.7071 0.7071 0.7071 714.5239 269.2808)" class="st4 st5">Caldimicrobium thiodismutans strain TF1</text>
											<text transform="matrix(0.7071 -0.7071 0.7071 0.7071 852.4062 186.2373)" class="st4 st5">Thermodesulfovibrio sp. N1</text>
											<text transform="matrix(0.7071 -0.7071 0.7071 0.7071 844.3789 249.1035)" class="st4 st5">Thermocrinis ruber strain DSM 23557</text>
											<text transform="matrix(0.7071 -0.7071 0.7071 0.7071 936.8931 211.4277)" class="st4 st5">Elioraea tepidiphila DSM 17972</text>
											<text transform="matrix(0.7071 -0.7071 0.7071 0.7071 935.6257 267.5337)" class="st4 st5">Pseudothermotoga hypogea DSM 11164</text>
											<text transform="matrix(0.7071 -0.7071 0.7071 0.7071 1059.96 198.0386)" class="st4 st5">Synechococcus sp. JA-3-3Ab</text>
											<text transform="matrix(0.7071 -0.7071 0.7071 0.7071 1110.0962 202.7412)" class="st4 st5">Meiothermus ruber DSM 1279</text>
											<text transform="matrix(0.7071 -0.7071 0.7071 0.7071 1043.8635 323.8125)" class="st4 st5">Candidatus Caldatribacterium saccharof. SpSt-82</text>
											<text transform="matrix(0.7071 -0.7071 0.7071 0.7071 1110.7383 311.7764)" class="st4 st5">Candidatus Thermochlorobacteriaceae GBChlB</text>
											<text transform="matrix(0.7071 -0.7071 0.7071 0.7071 1248.6826 228.6704)" class="st4 st5">Meiothermus taiwanensis WR-220</text>
											<text transform="matrix(0.7071 -0.7071 0.7071 0.7071 1265.7354 266.4565)" class="st4 st5">Candidatus Solibacter usitatus Ellin6076</text>
											<text transform="matrix(0.7071 -0.7071 0.7071 0.7071 1303.3037 283.7271)" class="st4 st5">Thermodesulfovibrio thiophilus DSM 17215</text>
											<text transform="matrix(0.7071 -0.7071 0.7071 0.7071 1416.5547 225.3145)" class="st4 st5">Pseudothermotoga lettingae TMO</text>
											<text transform="matrix(0.7071 -0.7071 0.7071 0.7071 1479.8318 216.8765)" class="st4 st5">Thermus brockianus strain GE-1</text>
										</g>
										<g pointer-events="none">
											<text transform="matrix(1 0 0 1 806.5269 318)" class="st7 st11">Species</text>
										</g>
									</g>
									<path pointer-events="none" class="st10" d="M0,0"/>
								</g>
							</g>
							<g>
								<g transform="translate(1700.5,0.5)">
									<path pointer-events="none" class="st1" d="M0,0L0,0L0,0L0,0z"/>
									<g>
										<g pointer-events="none">
											<text transform="matrix(1 0 0 1 2 37.5)" class="st7 st5">phyloFlash hit</text>
											<text transform="matrix(1 0 0 1 2 101.5)" class="st7 st5">DeLUCS hit</text>
										</g>
									</g>
									<path pointer-events="none" class="st10" d="M0,0"/>
								</g>
							</g>
							<g>
								<path class="st6" d="M37.4,32c0,5.5-4.5,10-10,10s-10-4.5-10-10s4.5-10,10-10S37.4,26.5,37.4,32"/>
								<path class="st6" d="M37.4,96c0,5.5-4.5,10-10,10s-10-4.5-10-10s4.5-10,10-10S37.4,90.5,37.4,96"/>
								<path class="st6" d="M92.3,32c0,5.5-4.5,10-10,10s-10-4.5-10-10s4.5-10,10-10S92.3,26.5,92.3,32"/>
								<path class="st6" d="M92.3,96c0,5.5-4.5,10-10,10s-10-4.5-10-10s4.5-10,10-10S92.3,90.5,92.3,96"/>
								<path class="st6" d="M147.1,32c0,5.5-4.5,10-10,10s-10-4.5-10-10s4.5-10,10-10S147.1,26.5,147.1,32"/>
								<path class="st6" d="M147.1,96c0,5.5-4.5,10-10,10s-10-4.5-10-10s4.5-10,10-10S147.1,90.5,147.1,96"/>
								<path class="st6" d="M201.9,32c0,5.5-4.5,10-10,10s-10-4.5-10-10s4.5-10,10-10S201.9,26.5,201.9,32"/>
								<path class="st6" d="M201.9,96c0,5.5-4.5,10-10,10s-10-4.5-10-10s4.5-10,10-10S201.9,90.5,201.9,96"/>
								<path class="st6" d="M256.8,32c0,5.5-4.5,10-10,10s-10-4.5-10-10s4.5-10,10-10S256.8,26.5,256.8,32"/>
								<path class="st6" d="M256.8,96c0,5.5-4.5,10-10,10s-10-4.5-10-10s4.5-10,10-10S256.8,90.5,256.8,96"/>
								<path class="st6" d="M311.6,32c0,5.5-4.5,10-10,10s-10-4.5-10-10s4.5-10,10-10S311.6,26.5,311.6,32"/>
								<path class="st6" d="M311.6,96c0,5.5-4.5,10-10,10s-10-4.5-10-10s4.5-10,10-10S311.6,90.5,311.6,96"/>
								<path class="st6" d="M366.5,32c0,5.5-4.5,10-10,10s-10-4.5-10-10s4.5-10,10-10S366.5,26.5,366.5,32"/>
								<path class="st6" d="M366.5,96c0,5.5-4.5,10-10,10s-10-4.5-10-10s4.5-10,10-10S366.5,90.5,366.5,96"/>
								<path class="st6" d="M421.3,32c0,5.5-4.5,10-10,10s-10-4.5-10-10s4.5-10,10-10S421.3,26.5,421.3,32"/>
								<path class="st6" d="M421.3,96c0,5.5-4.5,10-10,10s-10-4.5-10-10s4.5-10,10-10S421.3,90.5,421.3,96"/>
								<path class="st6" d="M476.1,32c0,5.5-4.5,10-10,10s-10-4.5-10-10s4.5-10,10-10S476.1,26.5,476.1,32"/>
								<path class="st6" d="M476.1,96c0,5.5-4.5,10-10,10s-10-4.5-10-10s4.5-10,10-10S476.1,90.5,476.1,96"/>
								<path class="st6" d="M531,32c0,5.5-4.5,10-10,10s-10-4.5-10-10s4.5-10,10-10S531,26.5,531,32"/>
								<path class="st6" d="M531,96c0,5.5-4.5,10-10,10s-10-4.5-10-10s4.5-10,10-10S531,90.5,531,96"/>
								<path class="st6" d="M585.8,32c0,5.5-4.5,10-10,10s-10-4.5-10-10s4.5-10,10-10S585.8,26.5,585.8,32"/>
								<path class="st6" d="M585.8,96c0,5.5-4.5,10-10,10s-10-4.5-10-10s4.5-10,10-10S585.8,90.5,585.8,96"/>
								<path class="st6" d="M640.6,32c0,5.5-4.5,10-10,10s-10-4.5-10-10s4.5-10,10-10S640.6,26.5,640.6,32"/>
								<path class="st6" d="M640.6,96c0,5.5-4.5,10-10,10s-10-4.5-10-10s4.5-10,10-10S640.6,90.5,640.6,96"/>
								<path class="st6" d="M695.5,32c0,5.5-4.5,10-10,10s-10-4.5-10-10s4.5-10,10-10S695.5,26.5,695.5,32"/>
								<path class="st6" d="M695.5,96c0,5.5-4.5,10-10,10s-10-4.5-10-10s4.5-10,10-10S695.5,90.5,695.5,96"/>
								<path class="st6" d="M750.3,32c0,5.5-4.5,10-10,10s-10-4.5-10-10s4.5-10,10-10S750.3,26.5,750.3,32"/>
								<path class="st6" d="M750.3,96c0,5.5-4.5,10-10,10s-10-4.5-10-10s4.5-10,10-10S750.3,90.5,750.3,96"/>
								<path class="st6" d="M805.2,32c0,5.5-4.5,10-10,10s-10-4.5-10-10s4.5-10,10-10S805.2,26.5,805.2,32"/>
								<path class="st6" d="M805.2,96c0,5.5-4.5,10-10,10s-10-4.5-10-10s4.5-10,10-10S805.2,90.5,805.2,96"/>
								<path class="st6" d="M860,32c0,5.5-4.5,10-10,10s-10-4.5-10-10s4.5-10,10-10S860,26.5,860,32"/>
								<path class="st6" d="M860,96c0,5.5-4.5,10-10,10s-10-4.5-10-10s4.5-10,10-10S860,90.5,860,96"/>
								<path class="st6" d="M914.8,32c0,5.5-4.5,10-10,10s-10-4.5-10-10s4.5-10,10-10S914.8,26.5,914.8,32"/>
								<path class="st6" d="M914.8,96c0,5.5-4.5,10-10,10s-10-4.5-10-10s4.5-10,10-10S914.8,90.5,914.8,96"/>
								<path class="st6" d="M969.7,32c0,5.5-4.5,10-10,10s-10-4.5-10-10s4.5-10,10-10S969.7,26.5,969.7,32"/>
								<path class="st6" d="M969.7,96c0,5.5-4.5,10-10,10s-10-4.5-10-10s4.5-10,10-10S969.7,90.5,969.7,96"/>
								<path class="st6" d="M1024.5,32c0,5.5-4.5,10-10,10s-10-4.5-10-10s4.5-10,10-10S1024.5,26.5,1024.5,32"/>
								<path class="st6" d="M1024.5,96c0,5.5-4.5,10-10,10s-10-4.5-10-10s4.5-10,10-10S1024.5,90.5,1024.5,96"/>
								<path class="st6" d="M1079.4,32c0,5.5-4.5,10-10,10s-10-4.5-10-10s4.5-10,10-10S1079.4,26.5,1079.4,32"/>
								<path class="st6" d="M1079.4,96c0,5.5-4.5,10-10,10s-10-4.5-10-10s4.5-10,10-10S1079.4,90.5,1079.4,96"/>
								<path class="st6" d="M1134.2,32c0,5.5-4.5,10-10,10s-10-4.5-10-10s4.5-10,10-10S1134.2,26.5,1134.2,32"/>
								<path class="st6" d="M1134.2,96c0,5.5-4.5,10-10,10s-10-4.5-10-10s4.5-10,10-10S1134.2,90.5,1134.2,96"/>
								<path class="st6" d="M1189,32c0,5.5-4.5,10-10,10s-10-4.5-10-10s4.5-10,10-10S1189,26.5,1189,32"/>
								<path class="st6" d="M1189,96c0,5.5-4.5,10-10,10s-10-4.5-10-10s4.5-10,10-10S1189,90.5,1189,96"/>
								<path class="st6" d="M1243.9,32c0,5.5-4.5,10-10,10s-10-4.5-10-10s4.5-10,10-10S1243.9,26.5,1243.9,32"/>
								<path class="st6" d="M1243.9,96c0,5.5-4.5,10-10,10s-10-4.5-10-10s4.5-10,10-10S1243.9,90.5,1243.9,96"/>
								<path class="st6" d="M1298.7,32c0,5.5-4.5,10-10,10s-10-4.5-10-10s4.5-10,10-10S1298.7,26.5,1298.7,32"/>
								<path class="st6" d="M1298.7,96c0,5.5-4.5,10-10,10s-10-4.5-10-10s4.5-10,10-10S1298.7,90.5,1298.7,96"/>
								<path class="st6" d="M1353.5,32c0,5.5-4.5,10-10,10s-10-4.5-10-10s4.5-10,10-10S1353.5,26.5,1353.5,32"/>
								<path class="st6" d="M1353.5,96c0,5.5-4.5,10-10,10s-10-4.5-10-10s4.5-10,10-10S1353.5,90.5,1353.5,96"/>
								<path class="st6" d="M1408.4,32c0,5.5-4.5,10-10,10s-10-4.5-10-10s4.5-10,10-10S1408.4,26.5,1408.4,32"/>
								<path class="st6" d="M1408.4,96c0,5.5-4.5,10-10,10s-10-4.5-10-10s4.5-10,10-10S1408.4,90.5,1408.4,96"/>
								<path class="st6" d="M1463.2,32c0,5.5-4.5,10-10,10s-10-4.5-10-10s4.5-10,10-10S1463.2,26.5,1463.2,32"/>
								<path class="st6" d="M1463.2,96c0,5.5-4.5,10-10,10s-10-4.5-10-10s4.5-10,10-10S1463.2,90.5,1463.2,96"/>
								<path class="st6" d="M1518.1,32c0,5.5-4.5,10-10,10s-10-4.5-10-10s4.5-10,10-10S1518.1,26.5,1518.1,32"/>
								<path class="st6" d="M1518.1,96c0,5.5-4.5,10-10,10s-10-4.5-10-10s4.5-10,10-10S1518.1,90.5,1518.1,96"/>
								<path class="st6" d="M1572.9,32c0,5.5-4.5,10-10,10s-10-4.5-10-10s4.5-10,10-10S1572.9,26.5,1572.9,32"/>
								<path class="st6" d="M1572.9,96c0,5.5-4.5,10-10,10s-10-4.5-10-10s4.5-10,10-10S1572.9,90.5,1572.9,96"/>
								<path class="st6" d="M1627.7,32c0,5.5-4.5,10-10,10s-10-4.5-10-10s4.5-10,10-10S1627.7,26.5,1627.7,32"/>
								<path class="st6" d="M1627.7,96c0,5.5-4.5,10-10,10s-10-4.5-10-10s4.5-10,10-10S1627.7,90.5,1627.7,96"/>
								<path class="st6" d="M1682.6,32c0,5.5-4.5,10-10,10s-10-4.5-10-10s4.5-10,10-10S1682.6,26.5,1682.6,32"/>
								<path class="st6" d="M1682.6,96c0,5.5-4.5,10-10,10s-10-4.5-10-10s4.5-10,10-10S1682.6,90.5,1682.6,96"/>
							</g>
							<g pointer-events="none">
								<path class="st12" d="M0,64h54.8v64H0V64z"/>
								<path class="st12" d="M54.8,64h54.8v64H54.8V64z"/>
								<path class="st12" d="M109.7,64h54.8v64h-54.8L109.7,64z"/>
								<path class="st12" d="M164.5,64h54.8v64h-54.8V64z"/>
								<path class="st12" d="M219.4,64h54.8v64h-54.8L219.4,64z"/>
								<path class="st12" d="M274.2,64H329v64h-54.8V64z"/>
								<path class="st12" d="M329,64h54.8v64H329V64z"/>
								<path class="st12" d="M383.9,64h54.8v64h-54.8V64z"/>
								<path class="st12" d="M438.7,64h54.8v64h-54.8V64z"/>
								<path class="st12" d="M493.5,64h54.8v64h-54.8L493.5,64z"/>
								<path class="st12" d="M548.4,64h54.8v64h-54.8V64z"/>
								<path class="st12" d="M603.2,64h54.8v64h-54.8V64z"/>
								<path class="st12" d="M658.1,64h54.8v64h-54.8V64z"/>
								<path class="st12" d="M712.9,64h54.8v64h-54.8V64z"/>
								<path class="st12" d="M767.7,64h54.8v64h-54.8V64z"/>
								<path class="st12" d="M822.6,64h54.8v64h-54.8V64z"/>
								<path class="st12" d="M877.4,64h54.8v64h-54.8V64z"/>
								<path class="st12" d="M932.3,64h54.8v64h-54.8V64z"/>
								<path class="st12" d="M987.1,64h54.8v64h-54.8L987.1,64z"/>
								<path class="st12" d="M1041.9,64h54.8v64h-54.8V64z"/>
								<path class="st12" d="M1096.8,64h54.8v64h-54.8V64z"/>
								<path class="st12" d="M1151.6,64h54.8v64h-54.8V64z"/>
								<path class="st12" d="M1206.5,64h54.8v64h-54.8V64z"/>
								<path class="st12" d="M1261.3,64h54.8v64h-54.8V64z"/>
								<path class="st12" d="M1316.1,64h54.8v64h-54.8V64z"/>
								<path class="st12" d="M1371,64h54.8v64H1371V64z"/>
								<path class="st12" d="M1425.8,64h54.8v64h-54.8V64z"/>
								<path class="st12" d="M1480.6,64h54.8v64h-54.8V64z"/>
								<path class="st12" d="M1535.5,64h54.8v64h-54.8V64z"/>
								<path class="st12" d="M1590.3,64h54.8v64h-54.8V64z"/>
								<path class="st12" d="M1645.2,64h54.8v64h-54.8V64z"/>
							</g>
							<g pointer-events="none">
								<path class="st6" d="M37.4,32c0,5.5-4.5,10-10,10s-10-4.5-10-10s4.5-10,10-10S37.4,26.5,37.4,32"/>
								<path class="st6" d="M37.4,96c0,5.5-4.5,10-10,10s-10-4.5-10-10s4.5-10,10-10S37.4,90.5,37.4,96"/>
								<path class="st6" d="M92.3,32c0,5.5-4.5,10-10,10s-10-4.5-10-10s4.5-10,10-10S92.3,26.5,92.3,32"/>
								<path class="st6" d="M92.3,96c0,5.5-4.5,10-10,10s-10-4.5-10-10s4.5-10,10-10S92.3,90.5,92.3,96"/>
								<path class="st6" d="M147.1,32c0,5.5-4.5,10-10,10s-10-4.5-10-10s4.5-10,10-10S147.1,26.5,147.1,32"/>
								<path class="st6" d="M147.1,96c0,5.5-4.5,10-10,10s-10-4.5-10-10s4.5-10,10-10S147.1,90.5,147.1,96"/>
								<path class="st6" d="M201.9,32c0,5.5-4.5,10-10,10s-10-4.5-10-10s4.5-10,10-10S201.9,26.5,201.9,32"/>
								<path class="st6" d="M201.9,96c0,5.5-4.5,10-10,10s-10-4.5-10-10s4.5-10,10-10S201.9,90.5,201.9,96"/>
								<path class="st6" d="M256.8,32c0,5.5-4.5,10-10,10s-10-4.5-10-10s4.5-10,10-10S256.8,26.5,256.8,32"/>
								<path class="st6" d="M256.8,96c0,5.5-4.5,10-10,10s-10-4.5-10-10s4.5-10,10-10S256.8,90.5,256.8,96"/>
								<path class="st6" d="M311.6,32c0,5.5-4.5,10-10,10s-10-4.5-10-10s4.5-10,10-10S311.6,26.5,311.6,32"/>
								<path class="st6" d="M311.6,96c0,5.5-4.5,10-10,10s-10-4.5-10-10s4.5-10,10-10S311.6,90.5,311.6,96"/>
								<path class="st6" d="M366.5,32c0,5.5-4.5,10-10,10s-10-4.5-10-10s4.5-10,10-10S366.5,26.5,366.5,32"/>
								<path class="st6" d="M366.5,96c0,5.5-4.5,10-10,10s-10-4.5-10-10s4.5-10,10-10S366.5,90.5,366.5,96"/>
								<path class="st6" d="M421.3,32c0,5.5-4.5,10-10,10s-10-4.5-10-10s4.5-10,10-10S421.3,26.5,421.3,32"/>
								<path class="st6" d="M421.3,96c0,5.5-4.5,10-10,10s-10-4.5-10-10s4.5-10,10-10S421.3,90.5,421.3,96"/>
								<path class="st6" d="M476.1,32c0,5.5-4.5,10-10,10s-10-4.5-10-10s4.5-10,10-10S476.1,26.5,476.1,32"/>
								<path class="st6" d="M476.1,96c0,5.5-4.5,10-10,10s-10-4.5-10-10s4.5-10,10-10S476.1,90.5,476.1,96"/>
								<path class="st6" d="M531,32c0,5.5-4.5,10-10,10s-10-4.5-10-10s4.5-10,10-10S531,26.5,531,32"/>
								<path class="st6" d="M531,96c0,5.5-4.5,10-10,10s-10-4.5-10-10s4.5-10,10-10S531,90.5,531,96"/>
								<path class="st6" d="M585.8,32c0,5.5-4.5,10-10,10s-10-4.5-10-10s4.5-10,10-10S585.8,26.5,585.8,32"/>
								<path class="st6" d="M585.8,96c0,5.5-4.5,10-10,10s-10-4.5-10-10s4.5-10,10-10S585.8,90.5,585.8,96"/>
								<path class="st6" d="M640.6,32c0,5.5-4.5,10-10,10s-10-4.5-10-10s4.5-10,10-10S640.6,26.5,640.6,32"/>
								<path class="st6" d="M640.6,96c0,5.5-4.5,10-10,10s-10-4.5-10-10s4.5-10,10-10S640.6,90.5,640.6,96"/>
								<path class="st6" d="M695.5,32c0,5.5-4.5,10-10,10s-10-4.5-10-10s4.5-10,10-10S695.5,26.5,695.5,32"/>
								<path class="st6" d="M695.5,96c0,5.5-4.5,10-10,10s-10-4.5-10-10s4.5-10,10-10S695.5,90.5,695.5,96"/>
								<path class="st6" d="M750.3,32c0,5.5-4.5,10-10,10s-10-4.5-10-10s4.5-10,10-10S750.3,26.5,750.3,32"/>
								<path class="st6" d="M750.3,96c0,5.5-4.5,10-10,10s-10-4.5-10-10s4.5-10,10-10S750.3,90.5,750.3,96"/>
								<path class="st6" d="M805.2,32c0,5.5-4.5,10-10,10s-10-4.5-10-10s4.5-10,10-10S805.2,26.5,805.2,32"/>
								<path class="st6" d="M805.2,96c0,5.5-4.5,10-10,10s-10-4.5-10-10s4.5-10,10-10S805.2,90.5,805.2,96"/>
								<path class="st6" d="M860,32c0,5.5-4.5,10-10,10s-10-4.5-10-10s4.5-10,10-10S860,26.5,860,32"/>
								<path class="st6" d="M860,96c0,5.5-4.5,10-10,10s-10-4.5-10-10s4.5-10,10-10S860,90.5,860,96"/>
								<path class="st6" d="M914.8,32c0,5.5-4.5,10-10,10s-10-4.5-10-10s4.5-10,10-10S914.8,26.5,914.8,32"/>
								<path class="st6" d="M914.8,96c0,5.5-4.5,10-10,10s-10-4.5-10-10s4.5-10,10-10S914.8,90.5,914.8,96"/>
								<path class="st6" d="M969.7,32c0,5.5-4.5,10-10,10s-10-4.5-10-10s4.5-10,10-10S969.7,26.5,969.7,32"/>
								<path class="st6" d="M969.7,96c0,5.5-4.5,10-10,10s-10-4.5-10-10s4.5-10,10-10S969.7,90.5,969.7,96"/>
								<path class="st6" d="M1024.5,32c0,5.5-4.5,10-10,10s-10-4.5-10-10s4.5-10,10-10S1024.5,26.5,1024.5,32"/>
								<path class="st6" d="M1024.5,96c0,5.5-4.5,10-10,10s-10-4.5-10-10s4.5-10,10-10S1024.5,90.5,1024.5,96"/>
								<path class="st6" d="M1079.4,32c0,5.5-4.5,10-10,10s-10-4.5-10-10s4.5-10,10-10S1079.4,26.5,1079.4,32"/>
								<path class="st6" d="M1079.4,96c0,5.5-4.5,10-10,10s-10-4.5-10-10s4.5-10,10-10S1079.4,90.5,1079.4,96"/>
								<path class="st6" d="M1134.2,32c0,5.5-4.5,10-10,10s-10-4.5-10-10s4.5-10,10-10S1134.2,26.5,1134.2,32"/>
								<path class="st6" d="M1134.2,96c0,5.5-4.5,10-10,10s-10-4.5-10-10s4.5-10,10-10S1134.2,90.5,1134.2,96"/>
								<path class="st6" d="M1189,32c0,5.5-4.5,10-10,10s-10-4.5-10-10s4.5-10,10-10S1189,26.5,1189,32"/>
								<path class="st6" d="M1189,96c0,5.5-4.5,10-10,10s-10-4.5-10-10s4.5-10,10-10S1189,90.5,1189,96"/>
								<path class="st6" d="M1243.9,32c0,5.5-4.5,10-10,10s-10-4.5-10-10s4.5-10,10-10S1243.9,26.5,1243.9,32"/>
								<path class="st6" d="M1243.9,96c0,5.5-4.5,10-10,10s-10-4.5-10-10s4.5-10,10-10S1243.9,90.5,1243.9,96"/>
								<path class="st6" d="M1298.7,32c0,5.5-4.5,10-10,10s-10-4.5-10-10s4.5-10,10-10S1298.7,26.5,1298.7,32"/>
								<path class="st6" d="M1298.7,96c0,5.5-4.5,10-10,10s-10-4.5-10-10s4.5-10,10-10S1298.7,90.5,1298.7,96"/>
								<path class="st6" d="M1353.5,32c0,5.5-4.5,10-10,10s-10-4.5-10-10s4.5-10,10-10S1353.5,26.5,1353.5,32"/>
								<path class="st6" d="M1353.5,96c0,5.5-4.5,10-10,10s-10-4.5-10-10s4.5-10,10-10S1353.5,90.5,1353.5,96"/>
								<path class="st6" d="M1408.4,32c0,5.5-4.5,10-10,10s-10-4.5-10-10s4.5-10,10-10S1408.4,26.5,1408.4,32"/>
								<path class="st6" d="M1408.4,96c0,5.5-4.5,10-10,10s-10-4.5-10-10s4.5-10,10-10S1408.4,90.5,1408.4,96"/>
								<path class="st6" d="M1463.2,32c0,5.5-4.5,10-10,10s-10-4.5-10-10s4.5-10,10-10S1463.2,26.5,1463.2,32"/>
								<path class="st6" d="M1463.2,96c0,5.5-4.5,10-10,10s-10-4.5-10-10s4.5-10,10-10S1463.2,90.5,1463.2,96"/>
								<path class="st6" d="M1518.1,32c0,5.5-4.5,10-10,10s-10-4.5-10-10s4.5-10,10-10S1518.1,26.5,1518.1,32"/>
								<path class="st6" d="M1518.1,96c0,5.5-4.5,10-10,10s-10-4.5-10-10s4.5-10,10-10S1518.1,90.5,1518.1,96"/>
								<path class="st6" d="M1572.9,32c0,5.5-4.5,10-10,10s-10-4.5-10-10s4.5-10,10-10S1572.9,26.5,1572.9,32"/>
								<path class="st6" d="M1572.9,96c0,5.5-4.5,10-10,10s-10-4.5-10-10s4.5-10,10-10S1572.9,90.5,1572.9,96"/>
								<path class="st6" d="M1627.7,32c0,5.5-4.5,10-10,10s-10-4.5-10-10s4.5-10,10-10S1627.7,26.5,1627.7,32"/>
								<path class="st6" d="M1627.7,96c0,5.5-4.5,10-10,10s-10-4.5-10-10s4.5-10,10-10S1627.7,90.5,1627.7,96"/>
								<path class="st6" d="M1682.6,32c0,5.5-4.5,10-10,10s-10-4.5-10-10s4.5-10,10-10S1682.6,26.5,1682.6,32"/>
								<path class="st6" d="M1682.6,96c0,5.5-4.5,10-10,10s-10-4.5-10-10s4.5-10,10-10S1682.6,90.5,1682.6,96"/>
							</g>
							<g pointer-events="none">
								<path class="st13" d="M37.8,32c0,5.7-4.6,10.4-10.4,10.4S17.1,37.7,17.1,32s4.6-10.4,10.4-10.4S37.8,26.3,37.8,32"/>
								<path class="st13" d="M37.8,96c0,5.7-4.6,10.4-10.4,10.4S17.1,101.7,17.1,96s4.6-10.4,10.4-10.4S37.8,90.3,37.8,96"/>
								<path class="st13" d="M147.5,32c0,5.7-4.6,10.4-10.4,10.4s-10.4-4.6-10.4-10.4s4.6-10.4,10.4-10.4S147.5,26.3,147.5,32"/>
								<path class="st13" d="M202.3,96c0,5.7-4.6,10.4-10.4,10.4s-10.4-4.6-10.4-10.4s4.6-10.4,10.4-10.4S202.3,90.3,202.3,96"/>
								<path class="st13" d="M257.1,32c0,5.7-4.6,10.4-10.4,10.4s-10.4-4.6-10.4-10.4s4.6-10.4,10.4-10.4S257.1,26.3,257.1,32"/>
								<path class="st13" d="M257.1,96c0,5.7-4.6,10.4-10.4,10.4s-10.4-4.6-10.4-10.4s4.6-10.4,10.4-10.4S257.1,90.3,257.1,96"/>
								<path class="st13" d="M312,96c0,5.7-4.6,10.4-10.4,10.4s-10.4-4.6-10.4-10.4s4.6-10.4,10.4-10.4S312,90.3,312,96"/>
								<path class="st13" d="M366.8,32c0,5.7-4.6,10.4-10.4,10.4s-10.4-4.6-10.4-10.4s4.6-10.4,10.4-10.4S366.8,26.3,366.8,32"/>
								<path class="st13" d="M366.8,96c0,5.7-4.6,10.4-10.4,10.4s-10.4-4.6-10.4-10.4s4.6-10.4,10.4-10.4S366.8,90.3,366.8,96"/>
								<path class="st13" d="M421.7,32c0,5.7-4.6,10.4-10.4,10.4s-10.4-4.6-10.4-10.4s4.6-10.4,10.4-10.4S421.7,26.3,421.7,32"/>
								<path class="st13" d="M421.7,96c0,5.7-4.6,10.4-10.4,10.4s-10.4-4.6-10.4-10.4s4.6-10.4,10.4-10.4S421.7,90.3,421.7,96"/>
								<path class="st13" d="M476.5,96c0,5.7-4.6,10.4-10.4,10.4s-10.4-4.6-10.4-10.4s4.6-10.4,10.4-10.4S476.5,90.3,476.5,96"/>
								<path class="st13" d="M586.2,32c0,5.7-4.6,10.4-10.4,10.4s-10.4-4.6-10.4-10.4s4.6-10.4,10.4-10.4S586.2,26.3,586.2,32"/>
								<path class="st13" d="M641,96c0,5.7-4.6,10.4-10.4,10.4s-10.4-4.6-10.4-10.4s4.6-10.4,10.4-10.4S641,90.3,641,96"/>
								<path class="st13" d="M750.7,96c0,5.7-4.6,10.4-10.4,10.4S730,101.7,730,96s4.6-10.4,10.4-10.4S750.7,90.3,750.7,96"/>
								<path class="st13" d="M805.5,32c0,5.7-4.6,10.4-10.4,10.4s-10.4-4.6-10.4-10.4s4.6-10.4,10.4-10.4S805.5,26.3,805.5,32"/>
								<path class="st13" d="M805.5,96c0,5.7-4.6,10.4-10.4,10.4s-10.4-4.6-10.4-10.4s4.6-10.4,10.4-10.4S805.5,90.3,805.5,96"/>
								<path class="st13" d="M860.4,96c0,5.7-4.6,10.4-10.4,10.4s-10.4-4.6-10.4-10.4s4.6-10.4,10.4-10.4S860.4,90.3,860.4,96"/>
								<path class="st13" d="M915.2,96c0,5.7-4.6,10.4-10.4,10.4s-10.4-4.6-10.4-10.4s4.6-10.4,10.4-10.4S915.2,90.3,915.2,96"/>
								<path class="st13" d="M1079.7,32c0,5.7-4.6,10.4-10.4,10.4S1059,37.7,1059,32s4.6-10.4,10.4-10.4S1079.7,26.3,1079.7,32"/>
								<path class="st13" d="M1244.2,32c0,5.7-4.6,10.4-10.4,10.4s-10.4-4.6-10.4-10.4s4.6-10.4,10.4-10.4S1244.2,26.3,1244.2,32"
									/>
								<path class="st13" d="M1244.2,96c0,5.7-4.6,10.4-10.4,10.4s-10.4-4.6-10.4-10.4s4.6-10.4,10.4-10.4S1244.2,90.3,1244.2,96"
									/>
								<path class="st13" d="M1299.1,96c0,5.7-4.6,10.4-10.4,10.4s-10.4-4.6-10.4-10.4s4.6-10.4,10.4-10.4S1299.1,90.3,1299.1,96"
									/>
								<path class="st13" d="M1353.9,32c0,5.7-4.6,10.4-10.4,10.4s-10.4-4.6-10.4-10.4s4.6-10.4,10.4-10.4S1353.9,26.3,1353.9,32"
									/>
								<path class="st13" d="M1408.8,32c0,5.7-4.6,10.4-10.4,10.4S1388,37.7,1388,32s4.6-10.4,10.4-10.4S1408.8,26.3,1408.8,32"/>
								<path class="st13" d="M1463.6,32c0,5.7-4.6,10.4-10.4,10.4s-10.4-4.6-10.4-10.4s4.6-10.4,10.4-10.4S1463.6,26.3,1463.6,32"
									/>
								<path class="st13" d="M1518.4,96c0,5.7-4.6,10.4-10.4,10.4s-10.4-4.6-10.4-10.4s4.6-10.4,10.4-10.4S1518.4,90.3,1518.4,96"
									/>
								<path class="st13" d="M1573.3,32c0,5.7-4.6,10.4-10.4,10.4s-10.4-4.6-10.4-10.4s4.6-10.4,10.4-10.4S1573.3,26.3,1573.3,32"
									/>
								<path class="st13" d="M1573.3,96c0,5.7-4.6,10.4-10.4,10.4s-10.4-4.6-10.4-10.4s4.6-10.4,10.4-10.4S1573.3,90.3,1573.3,96"
									/>
								<path class="st13" d="M1628.1,96c0,5.7-4.6,10.4-10.4,10.4s-10.4-4.6-10.4-10.4s4.6-10.4,10.4-10.4S1628.1,90.3,1628.1,96"
									/>
								<path class="st13" d="M1682.9,96c0,5.7-4.6,10.4-10.4,10.4s-10.4-4.6-10.4-10.4s4.6-10.4,10.4-10.4S1682.9,90.3,1682.9,96"
									/>
							</g>
						</g>
						<path class="st14" d="M0,0"/>
					</g>
				</g>
			</g>
			<path class="st14" d="M0,0"/>
		</g>
	</g>
</g>
<g>
	<line x1="699" y1="53.9" x2="702.8" y2="691.9"/>
	<g>
		<line class="st15" x1="699" y1="53.9" x2="699" y2="61.4"/>
		<line class="st16" x1="699.1" y1="76.5" x2="702.7" y2="676.8"/>
		<line class="st15" x1="702.7" y1="684.4" x2="702.8" y2="691.9"/>
	</g>
</g>
<g>
	<line x1="1465.6" y1="51.1" x2="1469.4" y2="689.1"/>
	<g>
		<line class="st15" x1="1465.6" y1="51.1" x2="1465.7" y2="58.6"/>
		<line class="st16" x1="1465.8" y1="73.8" x2="1469.3" y2="674"/>
		<line class="st15" x1="1469.4" y1="681.6" x2="1469.4" y2="689.1"/>
	</g>
</g>
<text transform="matrix(1 0 0 1 619.3925 125.9401)" class="st17 st18">High</text>
<text transform="matrix(1 0 0 1 1088.6774 124.273)" class="st17 st18">Medium</text>
<text transform="matrix(1 0 0 1 1496.0325 124.2728)" class="st17 st18">Low</text>
</svg>
