<?xml version="1.0" encoding="utf-8"?>
<!-- Generator: Adobe Illustrator 27.4.1, SVG Export Plug-In . SVG Version: 6.00 Build 0)  -->
<svg version="1.1" id="Layer_1" xmlns="http://www.w3.org/2000/svg" xmlns:xlink="http://www.w3.org/1999/xlink" x="0px" y="0px"
	 viewBox="0 0 3064 1060" style="enable-background:new 0 0 3064 1060;" xml:space="preserve">
<style type="text/css">
	.st0{fill:#FFFFFF;}
	.st1{fill:none;}
	.st2{fill:none;stroke:#888888;stroke-miterlimit:10;}
	.st3{display:none;fill:none;stroke:#888888;stroke-miterlimit:10;}
	.st4{font-family:'Helvetica';}
	.st5{font-size:20px;}
	.st6{opacity:0;enable-background:new    ;}
	.st7{fill:#3B528B;}
	.st8{fill:#B80000;}
	.st9{font-family:'Helvetica-Bold';}
	.st10{fill:none;stroke:#5EC962;stroke-width:2;stroke-miterlimit:10;}
	.st11{font-size:35px;}
	.st12{display:none;}
	.st13{font-size:26px;}
	.st14{opacity:0.7;fill:#3B528B;enable-background:new    ;}
	.st15{opacity:0.7;fill:#B80000;enable-background:new    ;}
	.st16{display:none;fill:#B80000;}
	.st17{font-size:23px;}
	.st18{fill:#F7F7F7;}
	.st19{fill:#E6E6E6;}
	.st20{display:none;fill:#E6E6E6;}
	.st21{fill:none;stroke:#000000;stroke-width:4;stroke-miterlimit:10;}
	.st22{fill:none;stroke:#000000;stroke-width:4;stroke-miterlimit:10;stroke-dasharray:15.1954,15.1954;}
	.st23{font-family:'MyriadPro-Regular';}
	.st24{font-size:30px;}
</style>
<rect class="st0" width="3064" height="1060"/>
<g transform="translate(176,45)">
	<g>
		<g transform="translate(0,0)">
			<path class="st1" d="M0,0L0,0L0,0L0,0z"/>
			<g>
				<g>
					<g transform="translate(0,0)">
						<path class="st1" d="M0,0L0,0L0,0L0,0z"/>
						<g>
							<g>
								<g transform="translate(0,0)">
									<path class="st1" d="M0,0h2700v480H0V0z"/>
									<g>
										<g>
											<g transform="translate(0.5,480.5)">
												<path pointer-events="none" class="st1" d="M0,0L0,0L0,0L0,0z"/>
												<g>
													<g pointer-events="none">
														<line class="st2" x1="0" y1="0" x2="2700" y2="0"/>
													</g>
												</g>
												<path pointer-events="none" class="st3" d="M0,0"/>
											</g>
										</g>
										<g>
											<g transform="translate(0.5,0.5)">
												<path pointer-events="none" class="st1" d="M0,0L0,0L0,0L0,0z"/>
												<g>
													<g pointer-events="none">
														<line class="st2" x1="0" y1="480" x2="-5" y2="480"/>
														<line class="st2" x1="0" y1="124" x2="-5" y2="124"/>
														<line class="st2" x1="0" y1="88" x2="-5" y2="88"/>
														<line class="st2" x1="0" y1="67" x2="-5" y2="67"/>
														<line class="st2" x1="0" y1="52" x2="-5" y2="52"/>
														<line class="st2" x1="0" y1="41" x2="-5" y2="41"/>
														<line class="st2" x1="0" y1="31" x2="-5" y2="31"/>
														<line class="st2" x1="0" y1="23" x2="-5" y2="23"/>
														<line class="st2" x1="0" y1="16" x2="-5" y2="16"/>
														<line class="st2" x1="0" y1="10" x2="-5" y2="10"/>
														<line class="st2" x1="0" y1="5" x2="-5" y2="5"/>
														<line class="st2" x1="0" y1="0" x2="-5" y2="0"/>
													</g>
													<g pointer-events="none">
														<text transform="matrix(1 0 0 1 -18.123 486)" class="st4 st5">0</text>
														<text transform="matrix(1 0 0 1 -57.0488 129.6391)" class="st4 st5">1,000</text>
														<text transform="matrix(1 0 0 1 -57.0488 93.9116)" class="st4 st5">2,000</text>
														<text transform="matrix(1 0 0 1 -57.0488 73.0059)" class="st4 st5">3,000</text>
														<text transform="matrix(1 0 0 1 -57.0488 58.1713)" class="st6 st4 st5">4,000</text>
														<text transform="matrix(1 0 0 1 -57.0488 46.6638)" class="st4 st5">5,000</text>
														<text transform="matrix(1 0 0 1 -57.0488 37.2612)" class="st6 st4 st5">6,000</text>
														<text transform="matrix(1 0 0 1 -57.0488 29.3112)" class="st6 st4 st5">7,000</text>
														<text transform="matrix(1 0 0 1 -57.0488 22.4244)" class="st4 st5">8,000</text>
														<text transform="matrix(1 0 0 1 -57.0488 16.3498)" class="st6 st4 st5">9,000</text>
														<text transform="matrix(1 0 0 1 -68.1719 10.9157)" class="st6 st4 st5">10,000</text>
														<text transform="matrix(1 0 0 1 -66.6973 6)" class="st6 st4 st5">11,000</text>
													</g>
													<g pointer-events="none">
														<line class="st2" x1="0" y1="480" x2="0" y2="0"/>
													</g>
												</g>
												<path pointer-events="none" class="st3" d="M0,0"/>
											</g>
										</g>
										<g>
											<path class="st7" d="M3.7,108.1h40V480h-40L3.7,108.1z"/>
											<path class="st7" d="M51.1,134.8h40V480h-40L51.1,134.8z"/>
											<path class="st7" d="M98.4,148h40v332h-40V148z"/>
											<path class="st7" d="M145.8,148.5h40V480h-40V148.5z"/>
											<path class="st7" d="M193.2,151.1h40V480h-40V151.1z"/>
											<path class="st7" d="M240.5,156.7h40V480h-40L240.5,156.7z"/>
											<path class="st7" d="M287.9,174.1h40V480h-40V174.1z"/>
											<path class="st7" d="M335.3,187.6h40V480h-40V187.6z"/>
											<path class="st7" d="M382.6,188.1h40V480h-40V188.1z"/>
											<path class="st7" d="M430,191.2h40V480h-40V191.2z"/>
											<path class="st8" d="M477.4,197.8h40V480h-40V197.8z"/>
											<path class="st7" d="M524.7,198.1h40V480h-40V198.1z"/>
											<path class="st7" d="M572.1,198.8h40V480h-40V198.8z"/>
											<path class="st8" d="M619.5,200.6h40V480h-40V200.6z"/>
											<path class="st7" d="M666.8,205.3h40V480h-40V205.3z"/>
											<path class="st8" d="M714.2,215h40v265h-40V215z"/>
											<path class="st7" d="M761.6,215.8h40V480h-40V215.8z"/>
											<path class="st8" d="M808.9,225.6h40V480h-40V225.6z"/>
											<path class="st8" d="M856.3,226h40v254h-40V226z"/>
											<path class="st7" d="M903.7,231.7h40V480h-40V231.7z"/>
											<path class="st7" d="M951.1,232.8h40V480h-40V232.8z"/>
											<path class="st8" d="M998.4,237.6h40V480h-40L998.4,237.6z"/>
											<path class="st8" d="M1045.8,243.6h40V480h-40V243.6z"/>
											<path class="st7" d="M1093.2,243.6h40V480h-40V243.6z"/>
											<path class="st8" d="M1140.5,245.6h40V480h-40V245.6z"/>
											<path class="st8" d="M1187.9,245.7h40V480h-40V245.7z"/>
											<path class="st8" d="M1235.3,247.7h40V480h-40V247.7z"/>
											<path class="st8" d="M1282.6,253h40v227h-40V253z"/>
											<path class="st7" d="M1330,255.4h40V480h-40V255.4z"/>
											<path class="st8" d="M1377.4,256.6h40V480h-40V256.6z"/>
											<path class="st8" d="M1424.7,267h40v213h-40V267z"/>
											<path class="st8" d="M1472.1,267h40v213h-40V267z"/>
											<path class="st8" d="M1519.5,269.7h40V480h-40V269.7z"/>
											<path class="st8" d="M1566.8,275.3h40V480h-40V275.3z"/>
											<path class="st8" d="M1614.2,277.2h40V480h-40V277.2z"/>
											<path class="st8" d="M1661.6,278.5h40V480h-40V278.5z"/>
											<path class="st8" d="M1708.9,281.5h40V480h-40V281.5z"/>
											<path class="st7" d="M1756.3,284.1h40V480h-40V284.1z"/>
											<path class="st7" d="M1803.7,285.9h40V480h-40V285.9z"/>
											<path class="st8" d="M1851.1,287.3h40V480h-40V287.3z"/>
											<path class="st7" d="M1898.4,289.4h40V480h-40V289.4z"/>
											<path class="st7" d="M1945.8,293.4h40V480h-40V293.4z"/>
											<path class="st8" d="M1993.2,298.6h40V480h-40V298.6z"/>
											<path class="st7" d="M2040.5,302.3h40V480h-40V302.3z"/>
											<path class="st7" d="M2087.9,302.6h40V480h-40V302.6z"/>
											<path class="st8" d="M2135.3,304.9h40V480h-40V304.9z"/>
											<path class="st8" d="M2182.6,308h40v172h-40V308z"/>
											<path class="st8" d="M2230,309.8h40V480h-40V309.8z"/>
											<path class="st8" d="M2277.4,310.3h40V480h-40V310.3z"/>
											<path class="st8" d="M2324.7,311h40v169h-40V311z"/>
											<path class="st7" d="M2372.1,313.3h40V480h-40V313.3z"/>
											<path class="st8" d="M2419.5,325.8h40V480h-40V325.8z"/>
											<path class="st8" d="M2466.8,329.3h40V480h-40V329.3z"/>
											<path class="st8" d="M2514.2,348.2h40V480h-40V348.2z"/>
											<path class="st8" d="M2561.6,373.2h40V480h-40V373.2z"/>
											<path class="st8" d="M2608.9,383.6h40V480h-40V383.6z"/>
											<path class="st7" d="M2656.3,394.9h40V480h-40V394.9z"/>
										</g>
										<g>
											<text transform="matrix(1 0 0 1 -1.3402 104.0785)" class="st7 st9 st5">1,352</text>
											<text transform="matrix(1 0 0 1 54.368 130.7917)" class="st7 st9 st5">805</text>
											<text transform="matrix(1 0 0 1 101.7365 143.9681)" class="st7 st9 st5">624</text>
											<text transform="matrix(1 0 0 1 149.1049 144.5188)" class="st7 st9 st5">617</text>
											<text transform="matrix(1 0 0 1 196.4733 147.0757)" class="st7 st9 st5">587</text>
											<text transform="matrix(1 0 0 1 243.8417 152.7395)" class="st7 st9 st5">526</text>
											<text transform="matrix(1 0 0 1 291.2102 170.1471)" class="st7 st9 st5">375</text>
											<text transform="matrix(1 0 0 1 338.5786 183.6466)" class="st7 st9 st5">288</text>
											<text transform="matrix(1 0 0 1 385.947 184.0791)" class="st7 st9 st5">286</text>
											<text transform="matrix(1 0 0 1 433.3154 187.239)" class="st7 st9 st5">269</text>
											<text transform="matrix(1 0 0 1 480.6838 193.8325)" class="st8 st9 st5">237</text>
											<text transform="matrix(1 0 0 1 528.0522 194.0979)" class="st7 st9 st5">235</text>
											<text transform="matrix(1 0 0 1 575.4207 194.8066)" class="st7 st9 st5">232</text>
											<text transform="matrix(1 0 0 1 622.7891 196.5953)" class="st8 st9 st5">224</text>
											<text transform="matrix(1 0 0 1 670.1575 201.2652)" class="st7 st9 st5">205</text>
											<text transform="matrix(1 0 0 1 717.5259 210.9943)" class="st8 st9 st5">169</text>
											<text transform="matrix(1 0 0 1 764.8943 211.825)" class="st7 st9 st5">167</text>
											<text transform="matrix(1 0 0 1 812.2628 221.6452)" class="st8 st9 st5">138</text>
											<text transform="matrix(1 0 0 1 859.6312 222.0125)" class="st8 st9 st5">137</text>
											<text transform="matrix(1 0 0 1 906.9996 227.7217)" class="st7 st9 st5">122</text>
											<text transform="matrix(1 0 0 1 954.368 228.7924)" class="st7 st9 st5">120</text>
											<text transform="matrix(1 0 0 1 1001.7365 233.6104)" class="st8 st9 st5">109</text>
											<text transform="matrix(1 0 0 1 1054.6664 239.5905)" class="st8 st9 st5">97</text>
											<text transform="matrix(1 0 0 1 1102.0348 239.6205)" class="st7 st9 st5">97</text>
											<text transform="matrix(1 0 0 1 1149.4033 241.5945)" class="st8 st9 st5">93</text>
											<text transform="matrix(1 0 0 1 1196.7717 241.6927)" class="st8 st9 st5">93</text>
											<text transform="matrix(1 0 0 1 1244.1401 243.6931)" class="st8 st9 st5">89</text>
											<text transform="matrix(1 0 0 1 1291.5085 248.9926)" class="st8 st9 st5">81</text>
											<text transform="matrix(1 0 0 1 1338.877 251.4055)" class="st7 st9 st5">77</text>
											<text transform="matrix(1 0 0 1 1386.2454 252.5884)" class="st8 st9 st5">75</text>
											<text transform="matrix(1 0 0 1 1433.6138 262.9992)" class="st8 st9 st5">61</text>
											<text transform="matrix(1 0 0 1 1480.9822 263.0241)" class="st8 st9 st5">61</text>
											<text transform="matrix(1 0 0 1 1528.3506 265.7218)" class="st8 st9 st5">58</text>
											<text transform="matrix(1 0 0 1 1575.7191 271.2968)" class="st8 st9 st5">52</text>
											<text transform="matrix(1 0 0 1 1623.0875 273.1609)" class="st8 st9 st5">50</text>
											<text transform="matrix(1 0 0 1 1670.4559 274.4733)" class="st8 st9 st5">49</text>
											<text transform="matrix(1 0 0 1 1717.8243 277.5328)" class="st8 st9 st5">46</text>
											<text transform="matrix(1 0 0 1 1765.1927 280.0724)" class="st7 st9 st5">44</text>
											<text transform="matrix(1 0 0 1 1812.5612 281.8884)" class="st7 st9 st5">42</text>
											<text transform="matrix(1 0 0 1 1859.9296 283.3312)" class="st8 st9 st5">41</text>
											<text transform="matrix(1 0 0 1 1907.2979 285.4215)" class="st7 st9 st5">39</text>
											<text transform="matrix(1 0 0 1 1954.6663 289.4379)" class="st7 st9 st5">36</text>
											<text transform="matrix(1 0 0 1 2002.0347 294.5867)" class="st8 st9 st5">33</text>
											<text transform="matrix(1 0 0 1 2049.4033 298.2848)" class="st7 st9 st5">30</text>
											<text transform="matrix(1 0 0 1 2096.7717 298.5768)" class="st7 st9 st5">30</text>
											<text transform="matrix(1 0 0 1 2144.1401 300.9319)" class="st8 st9 st5">29</text>
											<text transform="matrix(1 0 0 1 2191.5085 303.9503)" class="st8 st9 st5">27</text>
											<text transform="matrix(1 0 0 1 2238.877 305.7571)" class="st8 st9 st5">26</text>
											<text transform="matrix(1 0 0 1 2286.2454 306.2711)" class="st8 st9 st5">26</text>
											<text transform="matrix(1 0 0 1 2333.6138 307.0491)" class="st8 st9 st5">25</text>
											<text transform="matrix(1 0 0 1 2380.9822 309.26)" class="st7 st9 st5">24</text>
											<text transform="matrix(1 0 0 1 2428.3506 321.7719)" class="st8 st9 st5">19</text>
											<text transform="matrix(1 0 0 1 2475.719 325.2841)" class="st8 st9 st5">18</text>
											<text transform="matrix(1 0 0 1 2523.0874 344.2437)" class="st8 st9 st5">12</text>
											<text transform="matrix(1 0 0 1 2576.0173 369.2001)" class="st8 st9 st5">7</text>
											<text transform="matrix(1 0 0 1 2623.3857 379.6254)" class="st8 st9 st5">5</text>
											<text transform="matrix(1 0 0 1 2670.7542 390.9456)" class="st7 st9 st5">4</text>
										</g>
										<g>
											<path class="st10" d="M2676.3,34.1l-47.4,129.8l-47.4,41.6l-47.4,27.8l-47.4-70.2l-47.4,86.5l-47.4-132l-47.4,82
												l-47.4-22.9l-47.4,49.4l-47.4-0.3l-47.4-23l-47.4-178.2l-47.4,20.3l-47.4,138.7l-47.4-142.9l-47.4-36.9l-47.4,206.5
												l-47.4-151.5l-47.4-44.9L1728.9,236l-47.4-31.9l-47.4,6.2l-47.4-4.5l-47.4-21.8l-47.4,38.3l-47.4-15.7l-47.4,153.3
												L1350,8l-47.4,180.6l-47.4-16.6l-47.4,27.9l-47.4,20l-47.4-205.9l-47.4,206.6l-47.4-19L971.1,23.4l-47.4,0.8l-47.4,176.9
												l-47.4,0.8L781.6,89.6L734.2,220L686.8,90.3l-47.4,92.6L592.1,59.7l-47.4,31.8l-47.4,111.3L450,11l-47.4,20.5l-47.4-16.6
												l-47.4,10.6l-47.4-6.1l-47.4,11.3l-47.4-0.8l-47.4,1L71.1,1.4L23.7,58"/>
										</g>
										<g>
											<g transform="translate(1350,-40)">
												<path pointer-events="none" class="st1" d="M0,0L0,0L0,0L0,0z"/>
												<g>
													<g pointer-events="none">
														<text transform="matrix(1 0 0 1 -79.7583 28)" class="st9 st11">Coverage</text>
													</g>
												</g>
												<path pointer-events="none" class="st12" d="M0,0"/>
											</g>
										</g>
									</g>
									<path class="st12" d="M0,0"/>
								</g>
							</g>
							<g>
								<g transform="translate(2720,0)">
									<path class="st1" d="M0,0h20v60H0V0z"/>
									<g>
										<g>
											<g transform="translate(20.5,0.5)">
												<path pointer-events="none" class="st1" d="M0,0L0,0L0,0L0,0z"/>
												<g>
													<g pointer-events="none">
														<line class="st2" x1="0" y1="15" x2="5" y2="15"/>
														<line class="st2" x1="0" y1="45" x2="5" y2="45"/>
													</g>
													<g pointer-events="none">
														<text transform="matrix(1 0 0 1 7 23)" class="st4 st13">Hot Springs</text>
														<text transform="matrix(1 0 0 1 7 53)" class="st4 st13">MBARC</text>
													</g>
													<g pointer-events="none">
														<line class="st2" x1="0" y1="0" x2="0" y2="60"/>
													</g>
												</g>
												<path pointer-events="none" class="st12" d="M0,0"/>
											</g>
										</g>
										<g pointer-events="none">
											<path class="st14" d="M0,35h20v20H0V35z"/>
										</g>
										<g pointer-events="none">
											<path class="st15" d="M0,5h20v20H0V5z"/>
										</g>
									</g>
									<path class="st16" d="M0,0"/>
								</g>
							</g>
						</g>
						<path class="st16" d="M0,0"/>
					</g>
				</g>
				<g>
					<g transform="translate(0,510)">
						<path class="st1" d="M0,0h2700v128H0V0z"/>
						<g>
							<g>
								<g transform="translate(0.5,128.5)">
									<path pointer-events="none" class="st1" d="M0,0L0,0L0,0L0,0z"/>
									<g>
										<g pointer-events="none">
											<text transform="matrix(0.7071 -0.7071 0.7071 0.7071 -159.6665 207.478)" class="st4 st5">Fervidobacterium_pennivorans</text>
											<text transform="matrix(0.7071 -0.7071 0.7071 0.7071 -108.3755 203.5557)" class="st4 st5">Desulfosporosinus_acidiphilus</text>
											<text transform="matrix(0.7071 -0.7071 0.7071 0.7071 -35.8647 178.4136)" class="st4 st5">Spirochaeta_smaragdinae</text>
											<text transform="matrix(0.7071 -0.7071 0.7071 0.7071 35.9068 154.0103)" class="st4 st5">Meiothermus_silvanus</text>
											<text transform="matrix(0.7071 -0.7071 0.7071 0.7071 124.148 113.1372)" class="st4 st5">Hirschia_baltica</text>
											<text transform="matrix(0.7071 -0.7071 0.7071 0.7071 110.9981 173.6558)" class="st4 st5">Thermobacillus_composti</text>
											<text transform="matrix(0.7071 -0.7071 0.7071 0.7071 133.1826 198.8394)" class="st4 st5">Desulfotomaculum_gibsoniae</text>
											<text transform="matrix(0.7071 -0.7071 0.7071 0.7071 250.5161 128.8745)" class="st4 st5">Frateuria_aurantia</text>
											<text transform="matrix(0.7071 -0.7071 0.7071 0.7071 332.4732 94.2856)" class="st4 st5">Olsenella_uli</text>
											<text transform="matrix(0.7071 -0.7071 0.7071 0.7071 287.0962 187.0312)" class="st4 st5">Desulfosporosinus_meridiei</text>
											<text transform="matrix(0.7071 -0.7071 0.7071 0.7071 321.3511 200.1445)" class="st4 st5">Thermus aquaticus Y51MC23</text>
											<text transform="matrix(0.7071 -0.7071 0.7071 0.7071 401.4785 167.3857)" class="st4 st5">Natronococcus_occultus</text>
											<text transform="matrix(0.7071 -0.7071 0.7071 0.7071 416.6407 199.5923)" class="st4 st5">Coraliomargarita_akajimensis</text>
											<text transform="matrix(0.7071 -0.7071 0.7071 0.7071 438.2867 225.3145)" class="st4 st5">Pseudothermotoga lettingae TMO</text>
											<text transform="matrix(0.7071 -0.7071 0.7071 0.7071 526.293 184.6768)" class="st4 st5">Natronobacterium_gregoryi</text>
											<text transform="matrix(0.7071 -0.7071 0.7071 0.7071 537.4773 220.8608)" class="st4 st5">Chloroflexus aurantiacus Y-400-fl</text>
											<text transform="matrix(0.7071 -0.7071 0.7071 0.7071 690.2073 115.499)" class="st4 st5">Halovivax_ruber</text>
											<text transform="matrix(0.7071 -0.7071 0.7071 0.7071 636.1985 216.8765)" class="st4 st5">Thermus brockianus strain GE-1</text>
											<text transform="matrix(0.7071 -0.7071 0.7071 0.7071 714.2061 186.2373)" class="st4 st5">Thermodesulfovibrio sp. N1</text>
											<text transform="matrix(0.7071 -0.7071 0.7071 0.7071 815.0149 132.7969)" class="st4 st5">Terriglobus_roseus</text>
											<text transform="matrix(0.7071 -0.7071 0.7071 0.7071 841.1355 154.0444)" class="st4 st5">Segniliparus_rotundus</text>
											<text transform="matrix(0.7071 -0.7071 0.7071 0.7071 831.1206 211.4277)" class="st4 st5">Elioraea tepidiphila DSM 17972</text>
											<text transform="matrix(0.7071 -0.7071 0.7071 0.7071 922.5105 167.4062)" class="st4 st5">Chloroflexus sp. Y-396-1</text>
											<text transform="matrix(0.7071 -0.7071 0.7071 0.7071 980.1125 157.1729)" class="st4 st5">Pseudomonas_stutzeri</text>
											<text transform="matrix(0.7071 -0.7071 0.7071 0.7071 972.4731 212.1807)" class="st4 st5">Chloroflexus aurantiacus J-10-fl</text>
											<text transform="matrix(0.7071 -0.7071 0.7071 0.7071 1029.2812 202.7412)" class="st4 st5">Meiothermus ruber DSM 1279</text>
											<text transform="matrix(0.7071 -0.7071 0.7071 0.7071 1053.0747 226.3159)" class="st4 st5">Chloroflexus islandicus strain isl-2</text>
											<text transform="matrix(0.7071 -0.7071 0.7071 0.7071 1128.7205 198.0386)" class="st4 st5">Synechococcus sp. JA-3-3Ab</text>
											<text transform="matrix(0.7071 -0.7071 0.7071 0.7071 1202.0046 172.1226)" class="st4 st5">Streptococcus_pyogenes</text>
											<text transform="matrix(0.7071 -0.7071 0.7071 0.7071 1052.8748 368.6211)" class="st4 st5">Candidatus Caldatribacterium saccharof. isolate SpSt-82</text>
											<text transform="matrix(0.7071 -0.7071 0.7071 0.7071 1185.1375 283.7271)" class="st4 st5">Thermodesulfovibrio thiophilus DSM 17215</text>
											<text transform="matrix(0.7071 -0.7071 0.7071 0.7071 1282.8042 233.4282)" class="st4 st5">Chloroflexus aggregans DSM 9485</text>
											<text transform="matrix(0.7071 -0.7071 0.7071 0.7071 1325.1387 238.4624)" class="st4 st5">Synechococcus sp. JA-2-3B&apos;a(2-13)</text>
											<text transform="matrix(0.7071 -0.7071 0.7071 0.7071 1368.1223 242.8472)" class="st4 st5">Roseiflexus castenholzii DSM 13941</text>
											<text transform="matrix(0.7071 -0.7071 0.7071 0.7071 1437.5188 220.8193)" class="st4 st5">Meiothermus silvanus DSM 9946</text>
											<text transform="matrix(0.7071 -0.7071 0.7071 0.7071 1502.9033 202.8032)" class="st4 st5">Pseudanabaena sp. ABRG5-3</text>
											<text transform="matrix(0.7071 -0.7071 0.7071 0.7071 1486.6182 266.4565)" class="st4 st5">Candidatus Solibacter usitatus Ellin6076</text>
											<text transform="matrix(0.7071 -0.7071 0.7071 0.7071 1637.7876 162.6553)" class="st4 st5">Clostridium_perfringens</text>
											<text transform="matrix(0.7071 -0.7071 0.7071 0.7071 1539.6882 308.1235)" class="st4 st5">Salmonella_enterica_subsp._arizonae_serovar</text>
											<text transform="matrix(0.7071 -0.7071 0.7071 0.7071 1625.8992 269.2808)" class="st4 st5">Caldimicrobium thiodismutans strain TF1</text>
											<text transform="matrix(0.7071 -0.7071 0.7071 0.7071 1765.7646 176.7837)" class="st4 st5">Clostridium_thermocellum</text>
											<text transform="matrix(0.7071 -0.7071 0.7071 0.7071 1851.5957 138.3213)" class="st4 st5">Salmonella_bongori</text>
											<text transform="matrix(0.7071 -0.7071 0.7071 0.7071 1769.7515 267.5337)" class="st4 st5">Pseudothermotoga hypogea DSM 11164</text>
											<text transform="matrix(0.7071 -0.7071 0.7071 0.7071 1916.481 168.1729)" class="st4 st5">Echinicola_vietnamensis</text>
											<text transform="matrix(0.7071 -0.7071 0.7071 0.7071 1930.8555 201.1665)" class="st4 st5">Corynebacterium_glutamicum</text>
											<text transform="matrix(0.7071 -0.7071 0.7071 0.7071 1971.084 208.3066)" class="st4 st5">Pseudanabaena sp. PCC 7367</text>
											<text transform="matrix(0.7071 -0.7071 0.7071 0.7071 1995.9614 230.7974)" class="st4 st5">Ignavibacterium album JCM 16511</text>
											<text transform="matrix(0.7071 -0.7071 0.7071 0.7071 2028.1521 245.9751)" class="st4 st5">Chloracidobacterium thermophilum B</text>
											<text transform="matrix(0.7071 -0.7071 0.7071 0.7071 2122.7114 198.7842)" class="st4 st5">Oscillochloris trichoides DG-6</text>
											<text transform="matrix(0.7071 -0.7071 0.7071 0.7071 2140.1938 228.6704)" class="st4 st5">Meiothermus taiwanensis WR-220</text>
											<text transform="matrix(0.7071 -0.7071 0.7071 0.7071 2368.3369 47.8955)" class="st4 st5">E.coli</text>
											<text transform="matrix(0.7071 -0.7071 0.7071 0.7071 2214.4976 249.1035)" class="st4 st5">Thermocrinis ruber strain DSM 23557</text>
											<text transform="matrix(0.7071 -0.7071 0.7071 0.7071 2236.6685 274.3013)" class="st4 st5">Gloeomargarita lithophora Alchichica-D10</text>
											<text transform="matrix(0.7071 -0.7071 0.7071 0.7071 2246.5615 311.7764)" class="st4 st5">Candidatus Thermochlorobacteriaceae GBChlB</text>
											<text transform="matrix(0.7071 -0.7071 0.7071 0.7071 2460.3486 145.3574)" class="st4 st5">Roseiflexus sp. RS-1</text>
											<text transform="matrix(0.7071 -0.7071 0.7071 0.7071 2497.511 155.5635)" class="st4 st5">Chloroflexus sp. MS-G</text>
											<text transform="matrix(0.7071 -0.7071 0.7071 0.7071 2524.4121 176.0312)" class="st4 st5">Nocardiopsis_dassonvillei</text>
										</g>
										<g pointer-events="none">
											<text transform="matrix(1 0 0 1 1306.5269 318)" class="st9 st17">Species</text>
										</g>
									</g>
									<path pointer-events="none" class="st12" d="M0,0"/>
								</g>
							</g>
							<g>
								<g transform="translate(2700.5,0.5)">
									<path pointer-events="none" class="st1" d="M0,0L0,0L0,0L0,0z"/>
									<g>
										<g pointer-events="none">
											<text transform="matrix(1 0 0 1 2 37.5)" class="st9 st5">phyloFlash hit</text>
											<text transform="matrix(1 0 0 1 2 101.5)" class="st9 st5">DeLUCS hit</text>
										</g>
									</g>
									<path pointer-events="none" class="st12" d="M0,0"/>
								</g>
							</g>
							<g>
								<path class="st7" d="M33.7,32c0,5.5-4.5,10-10,10s-10-4.5-10-10s4.5-10,10-10S33.7,26.5,33.7,32"/>
								<path class="st7" d="M33.7,96c0,5.5-4.5,10-10,10s-10-4.5-10-10s4.5-10,10-10S33.7,90.5,33.7,96"/>
								<path class="st7" d="M81.1,32c0,5.5-4.5,10-10,10s-10-4.5-10-10s4.5-10,10-10S81.1,26.5,81.1,32"/>
								<path class="st7" d="M81.1,96c0,5.5-4.5,10-10,10s-10-4.5-10-10s4.5-10,10-10S81.1,90.5,81.1,96"/>
								<path class="st7" d="M128.4,32c0,5.5-4.5,10-10,10s-10-4.5-10-10s4.5-10,10-10S128.4,26.5,128.4,32"/>
								<path class="st7" d="M128.4,96c0,5.5-4.5,10-10,10s-10-4.5-10-10s4.5-10,10-10S128.4,90.5,128.4,96"/>
								<path class="st7" d="M175.8,32c0,5.5-4.5,10-10,10s-10-4.5-10-10s4.5-10,10-10S175.8,26.5,175.8,32"/>
								<path class="st7" d="M175.8,96c0,5.5-4.5,10-10,10s-10-4.5-10-10s4.5-10,10-10S175.8,90.5,175.8,96"/>
								<path class="st7" d="M223.2,32c0,5.5-4.5,10-10,10s-10-4.5-10-10s4.5-10,10-10S223.2,26.5,223.2,32"/>
								<path class="st7" d="M223.2,96c0,5.5-4.5,10-10,10s-10-4.5-10-10s4.5-10,10-10S223.2,90.5,223.2,96"/>
								<path class="st7" d="M270.5,32c0,5.5-4.5,10-10,10c-5.5,0-10-4.5-10-10s4.5-10,10-10C266,22,270.5,26.5,270.5,32"/>
								<path class="st7" d="M270.5,96c0,5.5-4.5,10-10,10c-5.5,0-10-4.5-10-10s4.5-10,10-10C266,86,270.5,90.5,270.5,96"/>
								<path class="st7" d="M317.9,32c0,5.5-4.5,10-10,10s-10-4.5-10-10s4.5-10,10-10S317.9,26.5,317.9,32"/>
								<path class="st7" d="M317.9,96c0,5.5-4.5,10-10,10s-10-4.5-10-10s4.5-10,10-10S317.9,90.5,317.9,96"/>
								<path class="st7" d="M365.3,32c0,5.5-4.5,10-10,10s-10-4.5-10-10s4.5-10,10-10S365.3,26.5,365.3,32"/>
								<path class="st7" d="M365.3,96c0,5.5-4.5,10-10,10s-10-4.5-10-10s4.5-10,10-10S365.3,90.5,365.3,96"/>
								<path class="st7" d="M412.6,32c0,5.5-4.5,10-10,10s-10-4.5-10-10s4.5-10,10-10S412.6,26.5,412.6,32"/>
								<path class="st7" d="M412.6,96c0,5.5-4.5,10-10,10s-10-4.5-10-10s4.5-10,10-10S412.6,90.5,412.6,96"/>
								<path class="st7" d="M460,32c0,5.5-4.5,10-10,10s-10-4.5-10-10s4.5-10,10-10S460,26.5,460,32"/>
								<path class="st7" d="M460,96c0,5.5-4.5,10-10,10s-10-4.5-10-10s4.5-10,10-10S460,90.5,460,96"/>
								<path class="st7" d="M507.4,32c0,5.5-4.5,10-10,10s-10-4.5-10-10s4.5-10,10-10S507.4,26.5,507.4,32"/>
								<path class="st7" d="M507.4,96c0,5.5-4.5,10-10,10s-10-4.5-10-10s4.5-10,10-10S507.4,90.5,507.4,96"/>
								<path class="st7" d="M554.7,32c0,5.5-4.5,10-10,10s-10-4.5-10-10s4.5-10,10-10S554.7,26.5,554.7,32"/>
								<path class="st7" d="M554.7,96c0,5.5-4.5,10-10,10s-10-4.5-10-10s4.5-10,10-10S554.7,90.5,554.7,96"/>
								<path class="st7" d="M602.1,32c0,5.5-4.5,10-10,10s-10-4.5-10-10s4.5-10,10-10S602.1,26.5,602.1,32"/>
								<path class="st7" d="M602.1,96c0,5.5-4.5,10-10,10s-10-4.5-10-10s4.5-10,10-10S602.1,90.5,602.1,96"/>
								<path class="st7" d="M649.5,32c0,5.5-4.5,10-10,10s-10-4.5-10-10s4.5-10,10-10S649.5,26.5,649.5,32"/>
								<path class="st7" d="M649.5,96c0,5.5-4.5,10-10,10s-10-4.5-10-10s4.5-10,10-10S649.5,90.5,649.5,96"/>
								<path class="st7" d="M696.8,32c0,5.5-4.5,10-10,10s-10-4.5-10-10s4.5-10,10-10S696.8,26.5,696.8,32"/>
								<path class="st7" d="M696.8,96c0,5.5-4.5,10-10,10s-10-4.5-10-10s4.5-10,10-10S696.8,90.5,696.8,96"/>
								<path class="st7" d="M744.2,32c0,5.5-4.5,10-10,10s-10-4.5-10-10s4.5-10,10-10S744.2,26.5,744.2,32"/>
								<path class="st7" d="M744.2,96c0,5.5-4.5,10-10,10s-10-4.5-10-10s4.5-10,10-10S744.2,90.5,744.2,96"/>
								<path class="st7" d="M791.6,32c0,5.5-4.5,10-10,10s-10-4.5-10-10s4.5-10,10-10S791.6,26.5,791.6,32"/>
								<path class="st7" d="M791.6,96c0,5.5-4.5,10-10,10s-10-4.5-10-10s4.5-10,10-10S791.6,90.5,791.6,96"/>
								<path class="st7" d="M838.9,32c0,5.5-4.5,10-10,10s-10-4.5-10-10s4.5-10,10-10S838.9,26.5,838.9,32"/>
								<path class="st7" d="M838.9,96c0,5.5-4.5,10-10,10s-10-4.5-10-10s4.5-10,10-10S838.9,90.5,838.9,96"/>
								<path class="st7" d="M886.3,32c0,5.5-4.5,10-10,10s-10-4.5-10-10s4.5-10,10-10S886.3,26.5,886.3,32"/>
								<path class="st7" d="M886.3,96c0,5.5-4.5,10-10,10s-10-4.5-10-10s4.5-10,10-10S886.3,90.5,886.3,96"/>
								<path class="st7" d="M933.7,32c0,5.5-4.5,10-10,10s-10-4.5-10-10s4.5-10,10-10S933.7,26.5,933.7,32"/>
								<path class="st7" d="M933.7,96c0,5.5-4.5,10-10,10s-10-4.5-10-10s4.5-10,10-10S933.7,90.5,933.7,96"/>
								<path class="st7" d="M981.1,32c0,5.5-4.5,10-10,10s-10-4.5-10-10s4.5-10,10-10S981.1,26.5,981.1,32"/>
								<path class="st7" d="M981.1,96c0,5.5-4.5,10-10,10s-10-4.5-10-10s4.5-10,10-10S981.1,90.5,981.1,96"/>
								<path class="st7" d="M1028.4,32c0,5.5-4.5,10-10,10s-10-4.5-10-10s4.5-10,10-10S1028.4,26.5,1028.4,32"/>
								<path class="st7" d="M1028.4,96c0,5.5-4.5,10-10,10s-10-4.5-10-10s4.5-10,10-10S1028.4,90.5,1028.4,96"/>
								<path class="st7" d="M1075.8,32c0,5.5-4.5,10-10,10s-10-4.5-10-10s4.5-10,10-10S1075.8,26.5,1075.8,32"/>
								<path class="st7" d="M1075.8,96c0,5.5-4.5,10-10,10s-10-4.5-10-10s4.5-10,10-10S1075.8,90.5,1075.8,96"/>
								<path class="st7" d="M1123.2,32c0,5.5-4.5,10-10,10s-10-4.5-10-10s4.5-10,10-10S1123.2,26.5,1123.2,32"/>
								<path class="st7" d="M1123.2,96c0,5.5-4.5,10-10,10s-10-4.5-10-10s4.5-10,10-10S1123.2,90.5,1123.2,96"/>
								<path class="st7" d="M1170.5,32c0,5.5-4.5,10-10,10s-10-4.5-10-10s4.5-10,10-10S1170.5,26.5,1170.5,32"/>
								<path class="st7" d="M1170.5,96c0,5.5-4.5,10-10,10s-10-4.5-10-10s4.5-10,10-10S1170.5,90.5,1170.5,96"/>
								<path class="st7" d="M1217.9,32c0,5.5-4.5,10-10,10s-10-4.5-10-10s4.5-10,10-10S1217.9,26.5,1217.9,32"/>
								<path class="st7" d="M1217.9,96c0,5.5-4.5,10-10,10s-10-4.5-10-10s4.5-10,10-10S1217.9,90.5,1217.9,96"/>
								<path class="st7" d="M1265.3,32c0,5.5-4.5,10-10,10s-10-4.5-10-10s4.5-10,10-10S1265.3,26.5,1265.3,32"/>
								<path class="st7" d="M1265.3,96c0,5.5-4.5,10-10,10s-10-4.5-10-10s4.5-10,10-10S1265.3,90.5,1265.3,96"/>
								<path class="st7" d="M1312.6,32c0,5.5-4.5,10-10,10s-10-4.5-10-10s4.5-10,10-10S1312.6,26.5,1312.6,32"/>
								<path class="st7" d="M1312.6,96c0,5.5-4.5,10-10,10s-10-4.5-10-10s4.5-10,10-10S1312.6,90.5,1312.6,96"/>
								<path class="st7" d="M1360,32c0,5.5-4.5,10-10,10s-10-4.5-10-10s4.5-10,10-10S1360,26.5,1360,32"/>
								<path class="st7" d="M1360,96c0,5.5-4.5,10-10,10s-10-4.5-10-10s4.5-10,10-10S1360,90.5,1360,96"/>
								<path class="st7" d="M1407.4,32c0,5.5-4.5,10-10,10s-10-4.5-10-10s4.5-10,10-10S1407.4,26.5,1407.4,32"/>
								<path class="st7" d="M1407.4,96c0,5.5-4.5,10-10,10s-10-4.5-10-10s4.5-10,10-10S1407.4,90.5,1407.4,96"/>
								<path class="st7" d="M1454.7,32c0,5.5-4.5,10-10,10s-10-4.5-10-10s4.5-10,10-10S1454.7,26.5,1454.7,32"/>
								<path class="st7" d="M1454.7,96c0,5.5-4.5,10-10,10s-10-4.5-10-10s4.5-10,10-10S1454.7,90.5,1454.7,96"/>
								<path class="st7" d="M1502.1,32c0,5.5-4.5,10-10,10s-10-4.5-10-10s4.5-10,10-10S1502.1,26.5,1502.1,32"/>
								<path class="st7" d="M1502.1,96c0,5.5-4.5,10-10,10s-10-4.5-10-10s4.5-10,10-10S1502.1,90.5,1502.1,96"/>
								<path class="st7" d="M1549.5,32c0,5.5-4.5,10-10,10s-10-4.5-10-10s4.5-10,10-10S1549.5,26.5,1549.5,32"/>
								<path class="st7" d="M1549.5,96c0,5.5-4.5,10-10,10s-10-4.5-10-10s4.5-10,10-10S1549.5,90.5,1549.5,96"/>
								<path class="st7" d="M1596.8,32c0,5.5-4.5,10-10,10s-10-4.5-10-10s4.5-10,10-10S1596.8,26.5,1596.8,32"/>
								<path class="st7" d="M1596.8,96c0,5.5-4.5,10-10,10s-10-4.5-10-10s4.5-10,10-10S1596.8,90.5,1596.8,96"/>
								<path class="st7" d="M1644.2,32c0,5.5-4.5,10-10,10s-10-4.5-10-10s4.5-10,10-10S1644.2,26.5,1644.2,32"/>
								<path class="st7" d="M1644.2,96c0,5.5-4.5,10-10,10s-10-4.5-10-10s4.5-10,10-10S1644.2,90.5,1644.2,96"/>
								<path class="st7" d="M1691.6,32c0,5.5-4.5,10-10,10s-10-4.5-10-10s4.5-10,10-10S1691.6,26.5,1691.6,32"/>
								<path class="st7" d="M1691.6,96c0,5.5-4.5,10-10,10s-10-4.5-10-10s4.5-10,10-10S1691.6,90.5,1691.6,96"/>
								<path class="st7" d="M1738.9,32c0,5.5-4.5,10-10,10s-10-4.5-10-10s4.5-10,10-10S1738.9,26.5,1738.9,32"/>
								<path class="st7" d="M1738.9,96c0,5.5-4.5,10-10,10s-10-4.5-10-10s4.5-10,10-10S1738.9,90.5,1738.9,96"/>
								<path class="st7" d="M1786.3,32c0,5.5-4.5,10-10,10s-10-4.5-10-10s4.5-10,10-10S1786.3,26.5,1786.3,32"/>
								<path class="st7" d="M1786.3,96c0,5.5-4.5,10-10,10s-10-4.5-10-10s4.5-10,10-10S1786.3,90.5,1786.3,96"/>
								<path class="st7" d="M1833.7,32c0,5.5-4.5,10-10,10s-10-4.5-10-10s4.5-10,10-10S1833.7,26.5,1833.7,32"/>
								<path class="st7" d="M1833.7,96c0,5.5-4.5,10-10,10s-10-4.5-10-10s4.5-10,10-10S1833.7,90.5,1833.7,96"/>
								<path class="st7" d="M1881.1,32c0,5.5-4.5,10-10,10s-10-4.5-10-10s4.5-10,10-10S1881.1,26.5,1881.1,32"/>
								<path class="st7" d="M1881.1,96c0,5.5-4.5,10-10,10s-10-4.5-10-10s4.5-10,10-10S1881.1,90.5,1881.1,96"/>
								<path class="st7" d="M1928.4,32c0,5.5-4.5,10-10,10s-10-4.5-10-10s4.5-10,10-10S1928.4,26.5,1928.4,32"/>
								<path class="st7" d="M1928.4,96c0,5.5-4.5,10-10,10s-10-4.5-10-10s4.5-10,10-10S1928.4,90.5,1928.4,96"/>
								<path class="st7" d="M1975.8,32c0,5.5-4.5,10-10,10s-10-4.5-10-10s4.5-10,10-10S1975.8,26.5,1975.8,32"/>
								<path class="st7" d="M1975.8,96c0,5.5-4.5,10-10,10s-10-4.5-10-10s4.5-10,10-10S1975.8,90.5,1975.8,96"/>
								<path class="st7" d="M2023.2,32c0,5.5-4.5,10-10,10s-10-4.5-10-10s4.5-10,10-10S2023.2,26.5,2023.2,32"/>
								<path class="st7" d="M2023.2,96c0,5.5-4.5,10-10,10s-10-4.5-10-10s4.5-10,10-10S2023.2,90.5,2023.2,96"/>
								<path class="st7" d="M2070.5,32c0,5.5-4.5,10-10,10s-10-4.5-10-10s4.5-10,10-10S2070.5,26.5,2070.5,32"/>
								<path class="st7" d="M2070.5,96c0,5.5-4.5,10-10,10s-10-4.5-10-10s4.5-10,10-10S2070.5,90.5,2070.5,96"/>
								<path class="st7" d="M2117.9,32c0,5.5-4.5,10-10,10s-10-4.5-10-10s4.5-10,10-10S2117.9,26.5,2117.9,32"/>
								<path class="st7" d="M2117.9,96c0,5.5-4.5,10-10,10s-10-4.5-10-10s4.5-10,10-10S2117.9,90.5,2117.9,96"/>
								<path class="st7" d="M2165.3,32c0,5.5-4.5,10-10,10s-10-4.5-10-10s4.5-10,10-10S2165.3,26.5,2165.3,32"/>
								<path class="st7" d="M2165.3,96c0,5.5-4.5,10-10,10s-10-4.5-10-10s4.5-10,10-10S2165.3,90.5,2165.3,96"/>
								<path class="st7" d="M2212.6,32c0,5.5-4.5,10-10,10s-10-4.5-10-10s4.5-10,10-10S2212.6,26.5,2212.6,32"/>
								<path class="st7" d="M2212.6,96c0,5.5-4.5,10-10,10s-10-4.5-10-10s4.5-10,10-10S2212.6,90.5,2212.6,96"/>
								<path class="st7" d="M2260,32c0,5.5-4.5,10-10,10s-10-4.5-10-10s4.5-10,10-10S2260,26.5,2260,32"/>
								<path class="st7" d="M2260,96c0,5.5-4.5,10-10,10s-10-4.5-10-10s4.5-10,10-10S2260,90.5,2260,96"/>
								<path class="st7" d="M2307.4,32c0,5.5-4.5,10-10,10s-10-4.5-10-10s4.5-10,10-10S2307.4,26.5,2307.4,32"/>
								<path class="st7" d="M2307.4,96c0,5.5-4.5,10-10,10s-10-4.5-10-10s4.5-10,10-10S2307.4,90.5,2307.4,96"/>
								<path class="st7" d="M2354.7,32c0,5.5-4.5,10-10,10s-10-4.5-10-10s4.5-10,10-10S2354.7,26.5,2354.7,32"/>
								<path class="st7" d="M2354.7,96c0,5.5-4.5,10-10,10s-10-4.5-10-10s4.5-10,10-10S2354.7,90.5,2354.7,96"/>
								<path class="st7" d="M2402.1,32c0,5.5-4.5,10-10,10s-10-4.5-10-10s4.5-10,10-10S2402.1,26.5,2402.1,32"/>
								<path class="st7" d="M2402.1,96c0,5.5-4.5,10-10,10s-10-4.5-10-10s4.5-10,10-10S2402.1,90.5,2402.1,96"/>
								<path class="st7" d="M2449.5,32c0,5.5-4.5,10-10,10s-10-4.5-10-10s4.5-10,10-10S2449.5,26.5,2449.5,32"/>
								<path class="st7" d="M2449.5,96c0,5.5-4.5,10-10,10s-10-4.5-10-10s4.5-10,10-10S2449.5,90.5,2449.5,96"/>
								<path class="st7" d="M2496.8,32c0,5.5-4.5,10-10,10s-10-4.5-10-10s4.5-10,10-10S2496.8,26.5,2496.8,32"/>
								<path class="st7" d="M2496.8,96c0,5.5-4.5,10-10,10s-10-4.5-10-10s4.5-10,10-10S2496.8,90.5,2496.8,96"/>
								<path class="st7" d="M2544.2,32c0,5.5-4.5,10-10,10s-10-4.5-10-10s4.5-10,10-10S2544.2,26.5,2544.2,32"/>
								<path class="st7" d="M2544.2,96c0,5.5-4.5,10-10,10s-10-4.5-10-10s4.5-10,10-10S2544.2,90.5,2544.2,96"/>
								<path class="st7" d="M2591.6,32c0,5.5-4.5,10-10,10s-10-4.5-10-10s4.5-10,10-10S2591.6,26.5,2591.6,32"/>
								<path class="st7" d="M2591.6,96c0,5.5-4.5,10-10,10s-10-4.5-10-10s4.5-10,10-10S2591.6,90.5,2591.6,96"/>
								<path class="st7" d="M2638.9,32c0,5.5-4.5,10-10,10s-10-4.5-10-10s4.5-10,10-10S2638.9,26.5,2638.9,32"/>
								<path class="st7" d="M2638.9,96c0,5.5-4.5,10-10,10s-10-4.5-10-10s4.5-10,10-10S2638.9,90.5,2638.9,96"/>
								<path class="st7" d="M2686.3,32c0,5.5-4.5,10-10,10s-10-4.5-10-10s4.5-10,10-10S2686.3,26.5,2686.3,32"/>
								<path class="st7" d="M2686.3,96c0,5.5-4.5,10-10,10s-10-4.5-10-10s4.5-10,10-10S2686.3,90.5,2686.3,96"/>
							</g>
							<g pointer-events="none">
								<path class="st18" d="M0,64h47.4v64H0V64z"/>
								<path class="st18" d="M47.4,64h47.4v64H47.4V64z"/>
								<path class="st18" d="M94.7,64h47.4v64H94.7L94.7,64z"/>
								<path class="st18" d="M142.1,64h47.4v64h-47.4V64z"/>
								<path class="st18" d="M189.5,64h47.4v64h-47.4V64z"/>
								<path class="st18" d="M236.8,64h47.4v64h-47.4L236.8,64z"/>
								<path class="st18" d="M284.2,64h47.4v64h-47.4V64z"/>
								<path class="st18" d="M331.6,64h47.4v64h-47.4V64z"/>
								<path class="st18" d="M378.9,64h47.4v64h-47.4V64z"/>
								<path class="st18" d="M426.3,64h47.4v64h-47.4V64z"/>
								<path class="st18" d="M473.7,64h47.4v64h-47.4V64z"/>
								<path class="st18" d="M521.1,64h47.4v64h-47.4V64z"/>
								<path class="st18" d="M568.4,64h47.4v64h-47.4V64z"/>
								<path class="st18" d="M615.8,64h47.4v64h-47.4V64z"/>
								<path class="st18" d="M663.2,64h47.4v64h-47.4V64z"/>
								<path class="st18" d="M710.5,64h47.4v64h-47.4V64z"/>
								<path class="st18" d="M757.9,64h47.4v64h-47.4V64z"/>
								<path class="st18" d="M805.3,64h47.4v64h-47.4V64z"/>
								<path class="st18" d="M852.6,64H900v64h-47.4V64z"/>
								<path class="st18" d="M900,64h47.4v64H900V64z"/>
								<path class="st18" d="M947.4,64h47.4v64h-47.4V64z"/>
								<path class="st18" d="M994.7,64h47.4v64h-47.4V64z"/>
								<path class="st18" d="M1042.1,64h47.4v64h-47.4V64z"/>
								<path class="st18" d="M1089.5,64h47.4v64h-47.4V64z"/>
								<path class="st18" d="M1136.8,64h47.4v64h-47.4V64z"/>
								<path class="st18" d="M1184.2,64h47.4v64h-47.4V64z"/>
								<path class="st18" d="M1231.6,64h47.4v64h-47.4V64z"/>
								<path class="st18" d="M1278.9,64h47.4v64h-47.4V64z"/>
								<path class="st18" d="M1326.3,64h47.4v64h-47.4V64z"/>
								<path class="st18" d="M1373.7,64h47.4v64h-47.4V64z"/>
								<path class="st18" d="M1421.1,64h47.4v64h-47.4V64z"/>
								<path class="st18" d="M1468.4,64h47.4v64h-47.4V64z"/>
								<path class="st18" d="M1515.8,64h47.4v64h-47.4V64z"/>
								<path class="st18" d="M1563.2,64h47.4v64h-47.4V64z"/>
								<path class="st18" d="M1610.5,64h47.4v64h-47.4V64z"/>
								<path class="st18" d="M1657.9,64h47.4v64h-47.4V64z"/>
								<path class="st18" d="M1705.3,64h47.4v64h-47.4V64z"/>
								<path class="st18" d="M1752.6,64h47.4v64h-47.4V64z"/>
								<path class="st18" d="M1800,64h47.4v64H1800V64z"/>
								<path class="st18" d="M1847.4,64h47.4v64h-47.4V64z"/>
								<path class="st18" d="M1894.7,64h47.4v64h-47.4V64z"/>
								<path class="st18" d="M1942.1,64h47.4v64h-47.4V64z"/>
								<path class="st18" d="M1989.5,64h47.4v64h-47.4V64z"/>
								<path class="st18" d="M2036.8,64h47.4v64h-47.4L2036.8,64z"/>
								<path class="st18" d="M2084.2,64h47.4v64h-47.4V64z"/>
								<path class="st18" d="M2131.6,64h47.4v64h-47.4V64z"/>
								<path class="st18" d="M2178.9,64h47.4v64h-47.4V64z"/>
								<path class="st18" d="M2226.3,64h47.4v64h-47.4V64z"/>
								<path class="st18" d="M2273.7,64h47.4v64h-47.4V64z"/>
								<path class="st18" d="M2321.1,64h47.4v64h-47.4V64z"/>
								<path class="st18" d="M2368.4,64h47.4v64h-47.4V64z"/>
								<path class="st18" d="M2415.8,64h47.4v64h-47.4V64z"/>
								<path class="st18" d="M2463.2,64h47.4v64h-47.4V64z"/>
								<path class="st18" d="M2510.5,64h47.4v64h-47.4V64z"/>
								<path class="st18" d="M2557.9,64h47.4v64h-47.4V64z"/>
								<path class="st18" d="M2605.3,64h47.4v64h-47.4V64z"/>
								<path class="st18" d="M2652.6,64h47.4v64h-47.4V64z"/>
							</g>
							<g pointer-events="none">
								<path class="st7" d="M33.7,32c0,5.5-4.5,10-10,10s-10-4.5-10-10s4.5-10,10-10S33.7,26.5,33.7,32"/>
								<path class="st7" d="M33.7,96c0,5.5-4.5,10-10,10s-10-4.5-10-10s4.5-10,10-10S33.7,90.5,33.7,96"/>
								<path class="st7" d="M81.1,32c0,5.5-4.5,10-10,10s-10-4.5-10-10s4.5-10,10-10S81.1,26.5,81.1,32"/>
								<path class="st7" d="M81.1,96c0,5.5-4.5,10-10,10s-10-4.5-10-10s4.5-10,10-10S81.1,90.5,81.1,96"/>
								<path class="st7" d="M128.4,32c0,5.5-4.5,10-10,10s-10-4.5-10-10s4.5-10,10-10S128.4,26.5,128.4,32"/>
								<path class="st7" d="M128.4,96c0,5.5-4.5,10-10,10s-10-4.5-10-10s4.5-10,10-10S128.4,90.5,128.4,96"/>
								<path class="st7" d="M175.8,32c0,5.5-4.5,10-10,10s-10-4.5-10-10s4.5-10,10-10S175.8,26.5,175.8,32"/>
								<path class="st7" d="M175.8,96c0,5.5-4.5,10-10,10s-10-4.5-10-10s4.5-10,10-10S175.8,90.5,175.8,96"/>
								<path class="st7" d="M223.2,32c0,5.5-4.5,10-10,10s-10-4.5-10-10s4.5-10,10-10S223.2,26.5,223.2,32"/>
								<path class="st7" d="M223.2,96c0,5.5-4.5,10-10,10s-10-4.5-10-10s4.5-10,10-10S223.2,90.5,223.2,96"/>
								<path class="st7" d="M270.5,32c0,5.5-4.5,10-10,10c-5.5,0-10-4.5-10-10s4.5-10,10-10C266,22,270.5,26.5,270.5,32"/>
								<path class="st7" d="M270.5,96c0,5.5-4.5,10-10,10c-5.5,0-10-4.5-10-10s4.5-10,10-10C266,86,270.5,90.5,270.5,96"/>
								<path class="st7" d="M317.9,32c0,5.5-4.5,10-10,10s-10-4.5-10-10s4.5-10,10-10S317.9,26.5,317.9,32"/>
								<path class="st7" d="M317.9,96c0,5.5-4.5,10-10,10s-10-4.5-10-10s4.5-10,10-10S317.9,90.5,317.9,96"/>
								<path class="st7" d="M365.3,32c0,5.5-4.5,10-10,10s-10-4.5-10-10s4.5-10,10-10S365.3,26.5,365.3,32"/>
								<path class="st7" d="M365.3,96c0,5.5-4.5,10-10,10s-10-4.5-10-10s4.5-10,10-10S365.3,90.5,365.3,96"/>
								<path class="st7" d="M412.6,32c0,5.5-4.5,10-10,10s-10-4.5-10-10s4.5-10,10-10S412.6,26.5,412.6,32"/>
								<path class="st7" d="M412.6,96c0,5.5-4.5,10-10,10s-10-4.5-10-10s4.5-10,10-10S412.6,90.5,412.6,96"/>
								<path class="st7" d="M460,32c0,5.5-4.5,10-10,10s-10-4.5-10-10s4.5-10,10-10S460,26.5,460,32"/>
								<path class="st7" d="M460,96c0,5.5-4.5,10-10,10s-10-4.5-10-10s4.5-10,10-10S460,90.5,460,96"/>
								<path class="st7" d="M507.4,32c0,5.5-4.5,10-10,10s-10-4.5-10-10s4.5-10,10-10S507.4,26.5,507.4,32"/>
								<path class="st7" d="M507.4,96c0,5.5-4.5,10-10,10s-10-4.5-10-10s4.5-10,10-10S507.4,90.5,507.4,96"/>
								<path class="st7" d="M554.7,32c0,5.5-4.5,10-10,10s-10-4.5-10-10s4.5-10,10-10S554.7,26.5,554.7,32"/>
								<path class="st7" d="M554.7,96c0,5.5-4.5,10-10,10s-10-4.5-10-10s4.5-10,10-10S554.7,90.5,554.7,96"/>
								<path class="st7" d="M602.1,32c0,5.5-4.5,10-10,10s-10-4.5-10-10s4.5-10,10-10S602.1,26.5,602.1,32"/>
								<path class="st7" d="M602.1,96c0,5.5-4.5,10-10,10s-10-4.5-10-10s4.5-10,10-10S602.1,90.5,602.1,96"/>
								<path class="st8" d="M649.5,32c0,5.5-4.5,10-10,10s-10-4.5-10-10s4.5-10,10-10S649.5,26.5,649.5,32"/>
								<path class="st7" d="M649.5,96c0,5.5-4.5,10-10,10s-10-4.5-10-10s4.5-10,10-10S649.5,90.5,649.5,96"/>
								<path class="st7" d="M696.8,32c0,5.5-4.5,10-10,10s-10-4.5-10-10s4.5-10,10-10S696.8,26.5,696.8,32"/>
								<path class="st7" d="M696.8,96c0,5.5-4.5,10-10,10s-10-4.5-10-10s4.5-10,10-10S696.8,90.5,696.8,96"/>
								<path class="st7" d="M744.2,32c0,5.5-4.5,10-10,10s-10-4.5-10-10s4.5-10,10-10S744.2,26.5,744.2,32"/>
								<path class="st7" d="M744.2,96c0,5.5-4.5,10-10,10s-10-4.5-10-10s4.5-10,10-10S744.2,90.5,744.2,96"/>
								<path class="st7" d="M791.6,32c0,5.5-4.5,10-10,10s-10-4.5-10-10s4.5-10,10-10S791.6,26.5,791.6,32"/>
								<path class="st7" d="M791.6,96c0,5.5-4.5,10-10,10s-10-4.5-10-10s4.5-10,10-10S791.6,90.5,791.6,96"/>
								<path class="st8" d="M838.9,32c0,5.5-4.5,10-10,10s-10-4.5-10-10s4.5-10,10-10S838.9,26.5,838.9,32"/>
								<path class="st7" d="M838.9,96c0,5.5-4.5,10-10,10s-10-4.5-10-10s4.5-10,10-10S838.9,90.5,838.9,96"/>
								<path class="st8" d="M886.3,32c0,5.5-4.5,10-10,10s-10-4.5-10-10s4.5-10,10-10S886.3,26.5,886.3,32"/>
								<path class="st8" d="M886.3,96c0,5.5-4.5,10-10,10s-10-4.5-10-10s4.5-10,10-10S886.3,90.5,886.3,96"/>
								<path class="st7" d="M933.7,32c0,5.5-4.5,10-10,10s-10-4.5-10-10s4.5-10,10-10S933.7,26.5,933.7,32"/>
								<path class="st7" d="M933.7,96c0,5.5-4.5,10-10,10s-10-4.5-10-10s4.5-10,10-10S933.7,90.5,933.7,96"/>
								<path class="st7" d="M981.1,32c0,5.5-4.5,10-10,10s-10-4.5-10-10s4.5-10,10-10S981.1,26.5,981.1,32"/>
								<path class="st7" d="M981.1,96c0,5.5-4.5,10-10,10s-10-4.5-10-10s4.5-10,10-10S981.1,90.5,981.1,96"/>
								<path class="st8" d="M1028.4,32c0,5.5-4.5,10-10,10s-10-4.5-10-10s4.5-10,10-10S1028.4,26.5,1028.4,32"/>
								<path class="st8" d="M1028.4,96c0,5.5-4.5,10-10,10s-10-4.5-10-10s4.5-10,10-10S1028.4,90.5,1028.4,96"/>
								<path class="st7" d="M1075.8,32c0,5.5-4.5,10-10,10s-10-4.5-10-10s4.5-10,10-10S1075.8,26.5,1075.8,32"/>
								<path class="st7" d="M1075.8,96c0,5.5-4.5,10-10,10s-10-4.5-10-10s4.5-10,10-10S1075.8,90.5,1075.8,96"/>
								<path class="st7" d="M1123.2,32c0,5.5-4.5,10-10,10s-10-4.5-10-10s4.5-10,10-10S1123.2,26.5,1123.2,32"/>
								<path class="st7" d="M1123.2,96c0,5.5-4.5,10-10,10s-10-4.5-10-10s4.5-10,10-10S1123.2,90.5,1123.2,96"/>
								<path class="st8" d="M1170.5,32c0,5.5-4.5,10-10,10s-10-4.5-10-10s4.5-10,10-10S1170.5,26.5,1170.5,32"/>
								<path class="st7" d="M1170.5,96c0,5.5-4.5,10-10,10s-10-4.5-10-10s4.5-10,10-10S1170.5,90.5,1170.5,96"/>
								<path class="st8" d="M1217.9,32c0,5.5-4.5,10-10,10s-10-4.5-10-10s4.5-10,10-10S1217.9,26.5,1217.9,32"/>
								<path class="st7" d="M1217.9,96c0,5.5-4.5,10-10,10s-10-4.5-10-10s4.5-10,10-10S1217.9,90.5,1217.9,96"/>
								<path class="st7" d="M1265.3,32c0,5.5-4.5,10-10,10s-10-4.5-10-10s4.5-10,10-10S1265.3,26.5,1265.3,32"/>
								<path class="st8" d="M1265.3,96c0,5.5-4.5,10-10,10s-10-4.5-10-10s4.5-10,10-10S1265.3,90.5,1265.3,96"/>
								<path class="st7" d="M1312.6,32c0,5.5-4.5,10-10,10s-10-4.5-10-10s4.5-10,10-10S1312.6,26.5,1312.6,32"/>
								<path class="st7" d="M1312.6,96c0,5.5-4.5,10-10,10s-10-4.5-10-10s4.5-10,10-10S1312.6,90.5,1312.6,96"/>
								<path class="st7" d="M1360,32c0,5.5-4.5,10-10,10s-10-4.5-10-10s4.5-10,10-10S1360,26.5,1360,32"/>
								<path class="st7" d="M1360,96c0,5.5-4.5,10-10,10s-10-4.5-10-10s4.5-10,10-10S1360,90.5,1360,96"/>
								<path class="st7" d="M1407.4,32c0,5.5-4.5,10-10,10s-10-4.5-10-10s4.5-10,10-10S1407.4,26.5,1407.4,32"/>
								<path class="st8" d="M1407.4,96c0,5.5-4.5,10-10,10s-10-4.5-10-10s4.5-10,10-10S1407.4,90.5,1407.4,96"/>
								<path class="st7" d="M1454.7,32c0,5.5-4.5,10-10,10s-10-4.5-10-10s4.5-10,10-10S1454.7,26.5,1454.7,32"/>
								<path class="st7" d="M1454.7,96c0,5.5-4.5,10-10,10s-10-4.5-10-10s4.5-10,10-10S1454.7,90.5,1454.7,96"/>
								<path class="st8" d="M1502.1,32c0,5.5-4.5,10-10,10s-10-4.5-10-10s4.5-10,10-10S1502.1,26.5,1502.1,32"/>
								<path class="st7" d="M1502.1,96c0,5.5-4.5,10-10,10s-10-4.5-10-10s4.5-10,10-10S1502.1,90.5,1502.1,96"/>
								<path class="st8" d="M1549.5,32c0,5.5-4.5,10-10,10s-10-4.5-10-10s4.5-10,10-10S1549.5,26.5,1549.5,32"/>
								<path class="st7" d="M1549.5,96c0,5.5-4.5,10-10,10s-10-4.5-10-10s4.5-10,10-10S1549.5,90.5,1549.5,96"/>
								<path class="st7" d="M1596.8,32c0,5.5-4.5,10-10,10s-10-4.5-10-10s4.5-10,10-10S1596.8,26.5,1596.8,32"/>
								<path class="st7" d="M1596.8,96c0,5.5-4.5,10-10,10s-10-4.5-10-10s4.5-10,10-10S1596.8,90.5,1596.8,96"/>
								<path class="st8" d="M1644.2,32c0,5.5-4.5,10-10,10s-10-4.5-10-10s4.5-10,10-10S1644.2,26.5,1644.2,32"/>
								<path class="st7" d="M1644.2,96c0,5.5-4.5,10-10,10s-10-4.5-10-10s4.5-10,10-10S1644.2,90.5,1644.2,96"/>
								<path class="st8" d="M1691.6,32c0,5.5-4.5,10-10,10s-10-4.5-10-10s4.5-10,10-10S1691.6,26.5,1691.6,32"/>
								<path class="st7" d="M1691.6,96c0,5.5-4.5,10-10,10s-10-4.5-10-10s4.5-10,10-10S1691.6,90.5,1691.6,96"/>
								<path class="st8" d="M1738.9,32c0,5.5-4.5,10-10,10s-10-4.5-10-10s4.5-10,10-10S1738.9,26.5,1738.9,32"/>
								<path class="st7" d="M1738.9,96c0,5.5-4.5,10-10,10s-10-4.5-10-10s4.5-10,10-10S1738.9,90.5,1738.9,96"/>
								<path class="st7" d="M1786.3,32c0,5.5-4.5,10-10,10s-10-4.5-10-10s4.5-10,10-10S1786.3,26.5,1786.3,32"/>
								<path class="st7" d="M1786.3,96c0,5.5-4.5,10-10,10s-10-4.5-10-10s4.5-10,10-10S1786.3,90.5,1786.3,96"/>
								<path class="st7" d="M1833.7,32c0,5.5-4.5,10-10,10s-10-4.5-10-10s4.5-10,10-10S1833.7,26.5,1833.7,32"/>
								<path class="st7" d="M1833.7,96c0,5.5-4.5,10-10,10s-10-4.5-10-10s4.5-10,10-10S1833.7,90.5,1833.7,96"/>
								<path class="st8" d="M1881.1,32c0,5.5-4.5,10-10,10s-10-4.5-10-10s4.5-10,10-10S1881.1,26.5,1881.1,32"/>
								<path class="st8" d="M1881.1,96c0,5.5-4.5,10-10,10s-10-4.5-10-10s4.5-10,10-10S1881.1,90.5,1881.1,96"/>
								<path class="st7" d="M1928.4,32c0,5.5-4.5,10-10,10s-10-4.5-10-10s4.5-10,10-10S1928.4,26.5,1928.4,32"/>
								<path class="st7" d="M1928.4,96c0,5.5-4.5,10-10,10s-10-4.5-10-10s4.5-10,10-10S1928.4,90.5,1928.4,96"/>
								<path class="st7" d="M1975.8,32c0,5.5-4.5,10-10,10s-10-4.5-10-10s4.5-10,10-10S1975.8,26.5,1975.8,32"/>
								<path class="st7" d="M1975.8,96c0,5.5-4.5,10-10,10s-10-4.5-10-10s4.5-10,10-10S1975.8,90.5,1975.8,96"/>
								<path class="st8" d="M2023.2,32c0,5.5-4.5,10-10,10s-10-4.5-10-10s4.5-10,10-10S2023.2,26.5,2023.2,32"/>
								<path class="st8" d="M2023.2,96c0,5.5-4.5,10-10,10s-10-4.5-10-10s4.5-10,10-10S2023.2,90.5,2023.2,96"/>
								<path class="st7" d="M2070.5,32c0,5.5-4.5,10-10,10s-10-4.5-10-10s4.5-10,10-10S2070.5,26.5,2070.5,32"/>
								<path class="st7" d="M2070.5,96c0,5.5-4.5,10-10,10s-10-4.5-10-10s4.5-10,10-10S2070.5,90.5,2070.5,96"/>
								<path class="st7" d="M2117.9,32c0,5.5-4.5,10-10,10s-10-4.5-10-10s4.5-10,10-10S2117.9,26.5,2117.9,32"/>
								<path class="st7" d="M2117.9,96c0,5.5-4.5,10-10,10s-10-4.5-10-10s4.5-10,10-10S2117.9,90.5,2117.9,96"/>
								<path class="st8" d="M2165.3,32c0,5.5-4.5,10-10,10s-10-4.5-10-10s4.5-10,10-10S2165.3,26.5,2165.3,32"/>
								<path class="st7" d="M2165.3,96c0,5.5-4.5,10-10,10s-10-4.5-10-10s4.5-10,10-10S2165.3,90.5,2165.3,96"/>
								<path class="st8" d="M2212.6,32c0,5.5-4.5,10-10,10s-10-4.5-10-10s4.5-10,10-10S2212.6,26.5,2212.6,32"/>
								<path class="st7" d="M2212.6,96c0,5.5-4.5,10-10,10s-10-4.5-10-10s4.5-10,10-10S2212.6,90.5,2212.6,96"/>
								<path class="st8" d="M2260,32c0,5.5-4.5,10-10,10s-10-4.5-10-10s4.5-10,10-10S2260,26.5,2260,32"/>
								<path class="st8" d="M2260,96c0,5.5-4.5,10-10,10s-10-4.5-10-10s4.5-10,10-10S2260,90.5,2260,96"/>
								<path class="st7" d="M2307.4,32c0,5.5-4.5,10-10,10s-10-4.5-10-10s4.5-10,10-10S2307.4,26.5,2307.4,32"/>
								<path class="st7" d="M2307.4,96c0,5.5-4.5,10-10,10s-10-4.5-10-10s4.5-10,10-10S2307.4,90.5,2307.4,96"/>
								<path class="st7" d="M2354.7,32c0,5.5-4.5,10-10,10s-10-4.5-10-10s4.5-10,10-10S2354.7,26.5,2354.7,32"/>
								<path class="st8" d="M2354.7,96c0,5.5-4.5,10-10,10s-10-4.5-10-10s4.5-10,10-10S2354.7,90.5,2354.7,96"/>
								<path class="st7" d="M2402.1,32c0,5.5-4.5,10-10,10s-10-4.5-10-10s4.5-10,10-10S2402.1,26.5,2402.1,32"/>
								<path class="st7" d="M2402.1,96c0,5.5-4.5,10-10,10s-10-4.5-10-10s4.5-10,10-10S2402.1,90.5,2402.1,96"/>
								<path class="st7" d="M2449.5,32c0,5.5-4.5,10-10,10s-10-4.5-10-10s4.5-10,10-10S2449.5,26.5,2449.5,32"/>
								<path class="st8" d="M2449.5,96c0,5.5-4.5,10-10,10s-10-4.5-10-10s4.5-10,10-10S2449.5,90.5,2449.5,96"/>
								<path class="st8" d="M2496.8,32c0,5.5-4.5,10-10,10s-10-4.5-10-10s4.5-10,10-10S2496.8,26.5,2496.8,32"/>
								<path class="st8" d="M2496.8,96c0,5.5-4.5,10-10,10s-10-4.5-10-10s4.5-10,10-10S2496.8,90.5,2496.8,96"/>
								<path class="st7" d="M2544.2,32c0,5.5-4.5,10-10,10s-10-4.5-10-10s4.5-10,10-10S2544.2,26.5,2544.2,32"/>
								<path class="st8" d="M2544.2,96c0,5.5-4.5,10-10,10s-10-4.5-10-10s4.5-10,10-10S2544.2,90.5,2544.2,96"/>
								<path class="st8" d="M2591.6,32c0,5.5-4.5,10-10,10s-10-4.5-10-10s4.5-10,10-10S2591.6,26.5,2591.6,32"/>
								<path class="st8" d="M2591.6,96c0,5.5-4.5,10-10,10s-10-4.5-10-10s4.5-10,10-10S2591.6,90.5,2591.6,96"/>
								<path class="st7" d="M2638.9,32c0,5.5-4.5,10-10,10s-10-4.5-10-10s4.5-10,10-10S2638.9,26.5,2638.9,32"/>
								<path class="st8" d="M2638.9,96c0,5.5-4.5,10-10,10s-10-4.5-10-10s4.5-10,10-10S2638.9,90.5,2638.9,96"/>
								<path class="st7" d="M2686.3,32c0,5.5-4.5,10-10,10s-10-4.5-10-10s4.5-10,10-10S2686.3,26.5,2686.3,32"/>
								<path class="st7" d="M2686.3,96c0,5.5-4.5,10-10,10s-10-4.5-10-10s4.5-10,10-10S2686.3,90.5,2686.3,96"/>
							</g>
							<g pointer-events="none">
								<path class="st19" d="M34.1,32c0,5.7-4.6,10.4-10.4,10.4S13.3,37.7,13.3,32S18,21.6,23.7,21.6S34.1,26.3,34.1,32"/>
								<path class="st19" d="M413,96c0,5.7-4.6,10.4-10.4,10.4s-10.4-4.6-10.4-10.4s4.6-10.4,10.4-10.4S413,90.3,413,96"/>
								<path class="st19" d="M507.7,32c0,5.7-4.6,10.4-10.4,10.4S487,37.7,487,32s4.6-10.4,10.4-10.4S507.7,26.3,507.7,32"/>
								<path class="st19" d="M507.7,96c0,5.7-4.6,10.4-10.4,10.4S487,101.7,487,96s4.6-10.4,10.4-10.4S507.7,90.3,507.7,96"/>
								<path class="st19" d="M649.8,96c0,5.7-4.6,10.4-10.4,10.4s-10.4-4.6-10.4-10.4s4.6-10.4,10.4-10.4S649.8,90.3,649.8,96"/>
								<path class="st19" d="M744.6,32c0,5.7-4.6,10.4-10.4,10.4s-10.4-4.6-10.4-10.4s4.6-10.4,10.4-10.4S744.6,26.3,744.6,32"/>
								<path class="st19" d="M744.6,96c0,5.7-4.6,10.4-10.4,10.4s-10.4-4.6-10.4-10.4s4.6-10.4,10.4-10.4S744.6,90.3,744.6,96"/>
								<path class="st19" d="M839.3,96c0,5.7-4.6,10.4-10.4,10.4s-10.4-4.6-10.4-10.4s4.6-10.4,10.4-10.4S839.3,90.3,839.3,96"/>
								<path class="st19" d="M981.4,96c0,5.7-4.6,10.4-10.4,10.4s-10.4-4.6-10.4-10.4s4.6-10.4,10.4-10.4S981.4,90.3,981.4,96"/>
								<path class="st19" d="M1076.2,32c0,5.7-4.6,10.4-10.4,10.4s-10.4-4.6-10.4-10.4s4.6-10.4,10.4-10.4S1076.2,26.3,1076.2,32"
									/>
								<path class="st19" d="M1076.2,96c0,5.7-4.6,10.4-10.4,10.4s-10.4-4.6-10.4-10.4s4.6-10.4,10.4-10.4S1076.2,90.3,1076.2,96"
									/>
								<path class="st19" d="M1170.9,96c0,5.7-4.6,10.4-10.4,10.4s-10.4-4.6-10.4-10.4s4.6-10.4,10.4-10.4S1170.9,90.3,1170.9,96"
									/>
								<path class="st19" d="M1218.3,96c0,5.7-4.6,10.4-10.4,10.4s-10.4-4.6-10.4-10.4s4.6-10.4,10.4-10.4S1218.3,90.3,1218.3,96"
									/>
								<path class="st19" d="M1265.6,32c0,5.7-4.6,10.4-10.4,10.4s-10.4-4.6-10.4-10.4s4.6-10.4,10.4-10.4S1265.6,26.3,1265.6,32"
									/>
								<path class="st19" d="M1313,32c0,5.7-4.6,10.4-10.4,10.4s-10.4-4.6-10.4-10.4s4.6-10.4,10.4-10.4S1313,26.3,1313,32"/>
								<path class="st19" d="M1313,96c0,5.7-4.6,10.4-10.4,10.4s-10.4-4.6-10.4-10.4s4.6-10.4,10.4-10.4S1313,90.3,1313,96"/>
								<path class="st19" d="M1360.4,96c0,5.7-4.6,10.4-10.4,10.4s-10.4-4.6-10.4-10.4s4.6-10.4,10.4-10.4S1360.4,90.3,1360.4,96"
									/>
								<path class="st19" d="M1407.7,32c0,5.7-4.6,10.4-10.4,10.4S1387,37.7,1387,32s4.6-10.4,10.4-10.4S1407.7,26.3,1407.7,32"/>
								<path class="st19" d="M1455.1,32c0,5.7-4.6,10.4-10.4,10.4s-10.4-4.6-10.4-10.4s4.6-10.4,10.4-10.4S1455.1,26.3,1455.1,32"
									/>
								<path class="st19" d="M1455.1,96c0,5.7-4.6,10.4-10.4,10.4s-10.4-4.6-10.4-10.4s4.6-10.4,10.4-10.4S1455.1,90.3,1455.1,96"
									/>
								<path class="st19" d="M1502.5,96c0,5.7-4.6,10.4-10.4,10.4s-10.4-4.6-10.4-10.4s4.6-10.4,10.4-10.4S1502.5,90.3,1502.5,96"
									/>
								<path class="st19" d="M1549.8,96c0,5.7-4.6,10.4-10.4,10.4s-10.4-4.6-10.4-10.4s4.6-10.4,10.4-10.4S1549.8,90.3,1549.8,96"
									/>
								<path class="st19" d="M1597.2,32c0,5.7-4.6,10.4-10.4,10.4s-10.4-4.6-10.4-10.4s4.6-10.4,10.4-10.4S1597.2,26.3,1597.2,32"
									/>
								<path class="st19" d="M1597.2,96c0,5.7-4.6,10.4-10.4,10.4s-10.4-4.6-10.4-10.4s4.6-10.4,10.4-10.4S1597.2,90.3,1597.2,96"
									/>
								<path class="st19" d="M1644.6,96c0,5.7-4.6,10.4-10.4,10.4s-10.4-4.6-10.4-10.4s4.6-10.4,10.4-10.4S1644.6,90.3,1644.6,96"
									/>
								<path class="st19" d="M1691.9,96c0,5.7-4.6,10.4-10.4,10.4s-10.4-4.6-10.4-10.4s4.6-10.4,10.4-10.4S1691.9,90.3,1691.9,96"
									/>
								<path class="st19" d="M1739.3,96c0,5.7-4.6,10.4-10.4,10.4s-10.4-4.6-10.4-10.4s4.6-10.4,10.4-10.4S1739.3,90.3,1739.3,96"
									/>
								<path class="st19" d="M1976.2,32c0,5.7-4.6,10.4-10.4,10.4s-10.4-4.6-10.4-10.4s4.6-10.4,10.4-10.4S1976.2,26.3,1976.2,32"
									/>
								<path class="st19" d="M1976.2,96c0,5.7-4.6,10.4-10.4,10.4s-10.4-4.6-10.4-10.4s4.6-10.4,10.4-10.4S1976.2,90.3,1976.2,96"
									/>
								<path class="st19" d="M2165.6,96c0,5.7-4.6,10.4-10.4,10.4s-10.4-4.6-10.4-10.4s4.6-10.4,10.4-10.4S2165.6,90.3,2165.6,96"
									/>
								<path class="st19" d="M2213,96c0,5.7-4.6,10.4-10.4,10.4s-10.4-4.6-10.4-10.4s4.6-10.4,10.4-10.4S2213,90.3,2213,96"/>
								<path class="st19" d="M2307.7,32c0,5.7-4.6,10.4-10.4,10.4S2287,37.7,2287,32s4.6-10.4,10.4-10.4S2307.7,26.3,2307.7,32"/>
								<path class="st19" d="M2307.7,96c0,5.7-4.6,10.4-10.4,10.4S2287,101.7,2287,96s4.6-10.4,10.4-10.4S2307.7,90.3,2307.7,96"/>
								<path class="st19" d="M2355.1,32c0,5.7-4.6,10.4-10.4,10.4s-10.4-4.6-10.4-10.4s4.6-10.4,10.4-10.4S2355.1,26.3,2355.1,32"
									/>
								<path class="st19" d="M2402.5,32c0,5.7-4.6,10.4-10.4,10.4s-10.4-4.6-10.4-10.4s4.6-10.4,10.4-10.4S2402.5,26.3,2402.5,32"
									/>
								<path class="st19" d="M2449.8,32c0,5.7-4.6,10.4-10.4,10.4s-10.4-4.6-10.4-10.4s4.6-10.4,10.4-10.4S2449.8,26.3,2449.8,32"
									/>
								<path class="st19" d="M2544.6,32c0,5.7-4.6,10.4-10.4,10.4s-10.4-4.6-10.4-10.4s4.6-10.4,10.4-10.4S2544.6,26.3,2544.6,32"
									/>
								<path class="st19" d="M2639.3,32c0,5.7-4.6,10.4-10.4,10.4s-10.4-4.6-10.4-10.4s4.6-10.4,10.4-10.4S2639.3,26.3,2639.3,32"
									/>
								<path class="st19" d="M2686.7,32c0,5.7-4.6,10.4-10.4,10.4s-10.4-4.6-10.4-10.4s4.6-10.4,10.4-10.4S2686.7,26.3,2686.7,32"
									/>
							</g>
						</g>
						<path class="st20" d="M0,0"/>
					</g>
				</g>
			</g>
			<path class="st20" d="M0,0"/>
		</g>
	</g>
</g>
<g>
	<line x1="979.2" y1="44.4" x2="983" y2="682.4"/>
	<g>
		<line class="st21" x1="979.2" y1="44.4" x2="979.2" y2="51.9"/>
		<line class="st22" x1="979.3" y1="67.1" x2="982.9" y2="667.3"/>
		<line class="st21" x1="982.9" y1="674.9" x2="983" y2="682.4"/>
	</g>
</g>
<g>
	<line x1="2068.4" y1="43.2" x2="2072.2" y2="681.2"/>
	<g>
		<line class="st21" x1="2068.4" y1="43.2" x2="2068.5" y2="50.7"/>
		<line class="st22" x1="2068.5" y1="65.9" x2="2072.1" y2="666.1"/>
		<line class="st21" x1="2072.2" y1="673.7" x2="2072.2" y2="681.2"/>
	</g>
</g>
<text transform="matrix(1 0 0 1 899.5895 116.4595)" class="st23 st24">High</text>
<text transform="matrix(1 0 0 1 1620.7371 116.4069)" class="st23 st24">Medium</text>
<text transform="matrix(1 0 0 1 2097.8101 116.4067)" class="st23 st24">Low</text>
</svg>
