<?xml version="1.0" encoding="utf-8"?>
<!-- Generator: Adobe Illustrator 27.4.1, SVG Export Plug-In . SVG Version: 6.00 Build 0)  -->
<svg version="1.1" id="Layer_1" xmlns="http://www.w3.org/2000/svg" xmlns:xlink="http://www.w3.org/1999/xlink" x="0px" y="0px"
	 viewBox="0 0 3100 1069" style="enable-background:new 0 0 3100 1069;" xml:space="preserve">
<style type="text/css">
	.st0{fill:#FFFFFF;}
	.st1{fill:none;}
	.st2{fill:none;stroke:#888888;stroke-miterlimit:10;}
	.st3{display:none;fill:none;stroke:#888888;stroke-miterlimit:10;}
	.st4{font-family:'Helvetica';}
	.st5{font-size:20px;}
	.st6{fill:#B80000;}
	.st7{fill:#3B528B;}
	.st8{font-family:'Helvetica-Bold';}
	.st9{font-size:15px;}
	.st10{font-size:35px;}
	.st11{display:none;}
	.st12{font-size:26px;}
	.st13{opacity:0.7;fill:#3B528B;enable-background:new    ;}
	.st14{opacity:0.7;fill:#B80000;enable-background:new    ;}
	.st15{display:none;fill:#B80000;}
	.st16{font-size:23px;}
	.st17{fill:#F7F7F7;}
	.st18{fill:#E6E6E6;}
	.st19{display:none;fill:#E6E6E6;}
	.st20{fill:none;stroke:#000000;stroke-width:4;stroke-miterlimit:10;}
	.st21{fill:none;stroke:#000000;stroke-width:4;stroke-miterlimit:10;stroke-dasharray:15.1954,15.1954;}
	.st22{font-family:'MyriadPro-Regular';}
	.st23{font-size:30px;}
</style>
<rect class="st0" width="3100" height="1069"/>
<g transform="translate(212,54)">
	<g>
		<g transform="translate(0,0)">
			<path class="st1" d="M0,0L0,0L0,0L0,0z"/>
			<g>
				<g>
					<g transform="translate(0,0)">
						<path class="st1" d="M0,0L0,0L0,0L0,0z"/>
						<g>
							<g>
								<g transform="translate(0,0)">
									<path class="st1" d="M0,0h2700v480H0V0z"/>
									<g>
										<g>
											<g transform="translate(0.5,480.5)">
												<path pointer-events="none" class="st1" d="M0,0L0,0L0,0L0,0z"/>
												<g>
													<g pointer-events="none">
														<line class="st2" x1="0" y1="0" x2="2700" y2="0"/>
													</g>
												</g>
												<path pointer-events="none" class="st3" d="M0,0"/>
											</g>
										</g>
										<g>
											<g transform="translate(0.5,0.5)">
												<path pointer-events="none" class="st1" d="M0,0L0,0L0,0L0,0z"/>
												<g>
													<g pointer-events="none">
														<line class="st2" x1="0" y1="480" x2="-5" y2="480"/>
														<line class="st2" x1="0" y1="407" x2="-5" y2="407"/>
														<line class="st2" x1="0" y1="336" x2="-5" y2="336"/>
														<line class="st2" x1="0" y1="267" x2="-5" y2="267"/>
														<line class="st2" x1="0" y1="198" x2="-5" y2="198"/>
														<line class="st2" x1="0" y1="131" x2="-5" y2="131"/>
														<line class="st2" x1="0" y1="65" x2="-5" y2="65"/>
														<line class="st2" x1="0" y1="0" x2="-5" y2="0"/>
													</g>
													<g pointer-events="none">
														<text transform="matrix(1 0 0 1 -35.9062 486)" class="st4 st5">0%</text>
														<text transform="matrix(1 0 0 1 -35.9062 413.4564)" class="st4 st5">2%</text>
														<text transform="matrix(1 0 0 1 -35.9062 342.3215)" class="st4 st5">4%</text>
														<text transform="matrix(1 0 0 1 -35.9062 272.5416)" class="st4 st5">6%</text>
														<text transform="matrix(1 0 0 1 -35.9062 204.0662)" class="st4 st5">8%</text>
														<text transform="matrix(1 0 0 1 -47.0293 136.8472)" class="st4 st5">10%</text>
														<text transform="matrix(1 0 0 1 -47.0293 70.8394)" class="st4 st5">12%</text>
														<text transform="matrix(1 0 0 1 -47.0293 6)" class="st4 st5">14%</text>
													</g>
													<g pointer-events="none">
														<line class="st2" x1="0" y1="480" x2="0" y2="0"/>
													</g>
												</g>
												<path pointer-events="none" class="st3" d="M0,0"/>
											</g>
										</g>
										<g>
											<path class="st6" d="M3.7,31h40v449h-40L3.7,31z"/>
											<path class="st6" d="M51.1,61.1h40V480h-40L51.1,61.1z"/>
											<path class="st6" d="M98.4,116.1h40V480h-40V116.1z"/>
											<path class="st6" d="M145.8,152.2h40V480h-40V152.2z"/>
											<path class="st6" d="M193.2,156.6h40V480h-40V156.6z"/>
											<path class="st6" d="M240.5,198.8h40V480h-40L240.5,198.8z"/>
											<path class="st6" d="M287.9,257.1h40V480h-40V257.1z"/>
											<path class="st6" d="M335.3,303.5h40V480h-40V303.5z"/>
											<path class="st6" d="M382.6,364.9h40V480h-40V364.9z"/>
											<path class="st7" d="M430,367h40v113h-40V367z"/>
											<path class="st6" d="M477.4,377.8h40V480h-40V377.8z"/>
											<path class="st7" d="M524.7,383.4h40V480h-40V383.4z"/>
											<path class="st6" d="M572.1,384.6h40V480h-40V384.6z"/>
											<path class="st6" d="M619.5,388.1h40V480h-40V388.1z"/>
											<path class="st7" d="M666.8,399.5h40V480h-40V399.5z"/>
											<path class="st7" d="M714.2,409h40v71h-40V409z"/>
											<path class="st6" d="M761.6,411.5h40V480h-40V411.5z"/>
											<path class="st7" d="M808.9,413.4h40V480h-40V413.4z"/>
											<path class="st7" d="M856.3,417.2h40V480h-40V417.2z"/>
											<path class="st6" d="M903.7,417.8h40V480h-40V417.8z"/>
											<path class="st6" d="M951.1,418h40v62h-40V418z"/>
											<path class="st7" d="M998.4,418.6h40V480h-40L998.4,418.6z"/>
											<path class="st7" d="M1045.8,418.6h40V480h-40V418.6z"/>
											<path class="st6" d="M1093.2,420.1h40V480h-40V420.1z"/>
											<path class="st6" d="M1140.5,420.2h40V480h-40V420.2z"/>
											<path class="st6" d="M1187.9,421h40v59h-40V421z"/>
											<path class="st7" d="M1235.3,421.7h40V480h-40V421.7z"/>
											<path class="st7" d="M1282.6,422.1h40V480h-40V422.1z"/>
											<path class="st6" d="M1330,427.8h40V480h-40V427.8z"/>
											<path class="st7" d="M1377.4,428.1h40V480h-40V428.1z"/>
											<path class="st6" d="M1424.7,428.8h40V480h-40V428.8z"/>
											<path class="st7" d="M1472.1,429h40v51h-40V429z"/>
											<path class="st6" d="M1519.5,429.7h40V480h-40V429.7z"/>
											<path class="st7" d="M1566.8,430.9h40V480h-40V430.9z"/>
											<path class="st7" d="M1614.2,431h40v49h-40V431z"/>
											<path class="st7" d="M1661.6,434.5h40V480h-40V434.5z"/>
											<path class="st7" d="M1708.9,436h40v44h-40V436z"/>
											<path class="st7" d="M1756.3,437.9h40V480h-40V437.9z"/>
											<path class="st7" d="M1803.7,439h40v41h-40V439z"/>
											<path class="st6" d="M1851.1,439.7h40V480h-40V439.7z"/>
											<path class="st6" d="M1898.4,440.4h40V480h-40V440.4z"/>
											<path class="st6" d="M1945.8,444.4h40V480h-40V444.4z"/>
											<path class="st6" d="M1993.2,444.7h40V480h-40V444.7z"/>
											<path class="st7" d="M2040.5,445.6h40V480h-40V445.6z"/>
											<path class="st6" d="M2087.9,445.6h40V480h-40V445.6z"/>
											<path class="st7" d="M2135.3,447.3h40V480h-40V447.3z"/>
											<path class="st7" d="M2182.6,449.6h40V480h-40V449.6z"/>
											<path class="st6" d="M2230,449.9h40V480h-40V449.9z"/>
											<path class="st7" d="M2277.4,450.1h40V480h-40V450.1z"/>
											<path class="st6" d="M2324.7,450.3h40V480h-40V450.3z"/>
											<path class="st7" d="M2372.1,451.3h40V480h-40V451.3z"/>
											<path class="st6" d="M2419.5,460.5h40V480h-40V460.5z"/>
											<path class="st6" d="M2466.8,462.2h40V480h-40V462.2z"/>
											<path class="st6" d="M2514.2,462.5h40V480h-40V462.5z"/>
											<path class="st7" d="M2561.6,465.7h40V480h-40V465.7z"/>
											<path class="st7" d="M2608.9,466.2h40V480h-40V466.2z"/>
											<path class="st7" d="M2656.3,467.6h40V480h-40V467.6z"/>
										</g>
										<g>
											<text transform="matrix(1 0 0 1 -1.7528 25.9617)" class="st6 st8 st9">13.04%</text>
											<text transform="matrix(1 0 0 1 46.0258 56.0927)" class="st6 st8 st9">12.11%</text>
											<text transform="matrix(1 0 0 1 92.984 111.0557)" class="st6 st8 st9">10.45%</text>
											<text transform="matrix(1 0 0 1 144.5236 147.186)" class="st6 st8 st9">9.36%</text>
											<text transform="matrix(1 0 0 1 191.892 151.6107)" class="st6 st8 st9">9.23%</text>
											<text transform="matrix(1 0 0 1 239.2604 193.8275)" class="st6 st8 st9">7.98%</text>
											<text transform="matrix(1 0 0 1 286.6289 252.1497)" class="st6 st8 st9">6.27%</text>
											<text transform="matrix(1 0 0 1 333.9973 298.4974)" class="st6 st8 st9">4.94%</text>
											<text transform="matrix(1 0 0 1 381.3657 359.8557)" class="st6 st8 st9">3.19%</text>
											<text transform="matrix(1 0 0 1 428.7341 361.9924)" class="st7 st8 st9">3.13%</text>
											<text transform="matrix(1 0 0 1 476.1025 372.8174)" class="st6 st8 st9">2.83%</text>
											<text transform="matrix(1 0 0 1 523.4709 378.3946)" class="st7 st8 st9">2.67%</text>
											<text transform="matrix(1 0 0 1 570.8394 379.6489)" class="st6 st8 st9">2.64%</text>
											<text transform="matrix(1 0 0 1 618.2078 383.1326)" class="st6 st8 st9">2.54%</text>
											<text transform="matrix(1 0 0 1 665.5762 394.5395)" class="st7 st8 st9">2.22%</text>
											<text transform="matrix(1 0 0 1 712.9446 404.0272)" class="st7 st8 st9">1.96%</text>
											<text transform="matrix(1 0 0 1 760.313 406.5197)" class="st6 st8 st9">1.89%</text>
											<text transform="matrix(1 0 0 1 807.6815 408.4045)" class="st7 st8 st9">1.83%</text>
											<text transform="matrix(1 0 0 1 855.0499 412.209)" class="st7 st8 st9">1.73%</text>
											<text transform="matrix(1 0 0 1 902.4183 412.8136)" class="st6 st8 st9">1.71%</text>
											<text transform="matrix(1 0 0 1 949.7867 413.0288)" class="st6 st8 st9">1.71%</text>
											<text transform="matrix(1 0 0 1 997.1553 413.5856)" class="st7 st8 st9">1.69%</text>
											<text transform="matrix(1 0 0 1 1044.5236 413.6012)" class="st7 st8 st9">1.69%</text>
											<text transform="matrix(1 0 0 1 1091.892 415.0651)" class="st6 st8 st9">1.65%</text>
											<text transform="matrix(1 0 0 1 1139.2605 415.2169)" class="st6 st8 st9">1.65%</text>
											<text transform="matrix(1 0 0 1 1186.6289 416.0208)" class="st6 st8 st9">1.62%</text>
											<text transform="matrix(1 0 0 1 1233.9973 416.7075)" class="st7 st8 st9">1.60%</text>
											<text transform="matrix(1 0 0 1 1281.3657 417.0855)" class="st7 st8 st9">1.59%</text>
											<text transform="matrix(1 0 0 1 1328.7341 422.7547)" class="st6 st8 st9">1.44%</text>
											<text transform="matrix(1 0 0 1 1376.1025 423.0635)" class="st7 st8 st9">1.43%</text>
											<text transform="matrix(1 0 0 1 1423.4709 423.7829)" class="st6 st8 st9">1.41%</text>
											<text transform="matrix(1 0 0 1 1470.8394 424.0009)" class="st7 st8 st9">1.40%</text>
											<text transform="matrix(1 0 0 1 1518.2078 424.6754)" class="st6 st8 st9">1.38%</text>
											<text transform="matrix(1 0 0 1 1565.5763 425.9006)" class="st7 st8 st9">1.35%</text>
											<text transform="matrix(1 0 0 1 1612.9447 425.9548)" class="st7 st8 st9">1.35%</text>
											<text transform="matrix(1 0 0 1 1660.3131 429.5107)" class="st7 st8 st9">1.25%</text>
											<text transform="matrix(1 0 0 1 1707.6815 431.0437)" class="st7 st8 st9">1.21%</text>
											<text transform="matrix(1 0 0 1 1755.0499 432.9343)" class="st7 st8 st9">1.15%</text>
											<text transform="matrix(1 0 0 1 1802.4183 433.957)" class="st7 st8 st9">1.13%</text>
											<text transform="matrix(1 0 0 1 1850.1968 434.7306)" class="st6 st8 st9">1.11%</text>
											<text transform="matrix(1 0 0 1 1897.1553 435.4441)" class="st6 st8 st9">1.09%</text>
											<text transform="matrix(1 0 0 1 1944.5234 439.3855)" class="st6 st8 st9">0.98%</text>
											<text transform="matrix(1 0 0 1 1991.8921 439.7171)" class="st6 st8 st9">0.97%</text>
											<text transform="matrix(1 0 0 1 2039.2605 440.5764)" class="st7 st8 st9">0.94%</text>
											<text transform="matrix(1 0 0 1 2086.6289 440.6243)" class="st6 st8 st9">0.94%</text>
											<text transform="matrix(1 0 0 1 2133.9973 442.3293)" class="st7 st8 st9">0.90%</text>
											<text transform="matrix(1 0 0 1 2181.3657 444.6274)" class="st7 st8 st9">0.83%</text>
											<text transform="matrix(1 0 0 1 2228.7341 444.8895)" class="st6 st8 st9">0.83%</text>
											<text transform="matrix(1 0 0 1 2276.1025 445.1154)" class="st7 st8 st9">0.82%</text>
											<text transform="matrix(1 0 0 1 2323.4709 445.3436)" class="st6 st8 st9">0.81%</text>
											<text transform="matrix(1 0 0 1 2370.8394 446.2865)" class="st7 st8 st9">0.79%</text>
											<text transform="matrix(1 0 0 1 2418.2078 455.4893)" class="st6 st8 st9">0.53%</text>
											<text transform="matrix(1 0 0 1 2465.5762 457.1587)" class="st6 st8 st9">0.49%</text>
											<text transform="matrix(1 0 0 1 2512.9446 457.4829)" class="st6 st8 st9">0.48%</text>
											<text transform="matrix(1 0 0 1 2560.313 460.6777)" class="st7 st8 st9">0.39%</text>
											<text transform="matrix(1 0 0 1 2607.6814 461.2227)" class="st7 st8 st9">0.38%</text>
											<text transform="matrix(1 0 0 1 2655.0498 462.5691)" class="st7 st8 st9">0.34%</text>
										</g>
										<g>
											<g transform="translate(1350,-49)">
												<path pointer-events="none" class="st1" d="M0,0L0,0L0,0L0,0z"/>
												<g>
													<g pointer-events="none">
														<text transform="matrix(1 0 0 1 -287.8357 28)" class="st8 st10">Repetitiveness (Whole Genome %)</text>
													</g>
												</g>
												<path pointer-events="none" class="st11" d="M0,0"/>
											</g>
										</g>
									</g>
									<path class="st11" d="M0,0"/>
								</g>
							</g>
							<g>
								<g transform="translate(2720,0)">
									<path class="st1" d="M0,0h20v60H0V0z"/>
									<g>
										<g>
											<g transform="translate(20.5,0.5)">
												<path pointer-events="none" class="st1" d="M0,0L0,0L0,0L0,0z"/>
												<g>
													<g pointer-events="none">
														<line class="st2" x1="0" y1="15" x2="5" y2="15"/>
														<line class="st2" x1="0" y1="45" x2="5" y2="45"/>
													</g>
													<g pointer-events="none">
														<text transform="matrix(1 0 0 1 7 23)" class="st4 st12">Hot Springs</text>
														<text transform="matrix(1 0 0 1 7 53)" class="st4 st12">MBARC</text>
													</g>
													<g pointer-events="none">
														<line class="st2" x1="0" y1="0" x2="0" y2="60"/>
													</g>
												</g>
												<path pointer-events="none" class="st11" d="M0,0"/>
											</g>
										</g>
										<g pointer-events="none">
											<path class="st13" d="M0,35h20v20H0V35z"/>
										</g>
										<g pointer-events="none">
											<path class="st14" d="M0,5h20v20H0V5z"/>
										</g>
									</g>
									<path class="st15" d="M0,0"/>
								</g>
							</g>
						</g>
						<path class="st15" d="M0,0"/>
					</g>
				</g>
				<g>
					<g transform="translate(0,510)">
						<path class="st1" d="M0,0h2700v128H0V0z"/>
						<g>
							<g>
								<g transform="translate(0.5,128.5)">
									<path pointer-events="none" class="st1" d="M0,0L0,0L0,0L0,0z"/>
									<g>
										<g pointer-events="none">
											<text transform="matrix(0.7071 -0.7071 0.7071 0.7071 -195.0356 242.8472)" class="st4 st5">Roseiflexus castenholzii DSM 13941</text>
											<text transform="matrix(0.7071 -0.7071 0.7071 0.7071 -50.1772 145.3574)" class="st4 st5">Roseiflexus sp. RS-1</text>
											<text transform="matrix(0.7071 -0.7071 0.7071 0.7071 -83.7671 226.3159)" class="st4 st5">Chloroflexus islandicus strain isl-2</text>
											<text transform="matrix(0.7071 -0.7071 0.7071 0.7071 -22.2637 212.1807)" class="st4 st5">Chloroflexus aurantiacus J-10-fl</text>
											<text transform="matrix(0.7071 -0.7071 0.7071 0.7071 16.4243 220.8608)" class="st4 st5">Chloroflexus aurantiacus Y-400-fl</text>
											<text transform="matrix(0.7071 -0.7071 0.7071 0.7071 51.2251 233.4282)" class="st4 st5">Chloroflexus aggregans DSM 9485</text>
											<text transform="matrix(0.7071 -0.7071 0.7071 0.7071 164.6157 167.4062)" class="st4 st5">Chloroflexus sp. Y-396-1</text>
											<text transform="matrix(0.7071 -0.7071 0.7071 0.7071 180.606 198.7842)" class="st4 st5">Oscillochloris trichoides DG-6</text>
											<text transform="matrix(0.7071 -0.7071 0.7071 0.7071 218.4527 208.3066)" class="st4 st5">Pseudanabaena sp. PCC 7367</text>
											<text transform="matrix(0.7071 -0.7071 0.7071 0.7071 358.6284 115.499)" class="st4 st5">Halovivax_ruber</text>
											<text transform="matrix(0.7071 -0.7071 0.7071 0.7071 247.1948 274.3013)" class="st4 st5">Gloeomargarita lithophora Alchichica-D10</text>
											<text transform="matrix(0.7071 -0.7071 0.7071 0.7071 369.272 199.5923)" class="st4 st5">Coraliomargarita_akajimensis</text>
											<text transform="matrix(0.7071 -0.7071 0.7071 0.7071 460.669 155.5635)" class="st4 st5">Chloroflexus sp. MS-G</text>
											<text transform="matrix(0.7071 -0.7071 0.7071 0.7071 460.7979 202.8032)" class="st4 st5">Pseudanabaena sp. ABRG5-3</text>
											<text transform="matrix(0.7071 -0.7071 0.7071 0.7071 526.293 184.6768)" class="st4 st5">Natronobacterium_gregoryi</text>
											<text transform="matrix(0.7071 -0.7071 0.7071 0.7071 604.3279 154.0103)" class="st4 st5">Meiothermus_silvanus</text>
											<text transform="matrix(0.7071 -0.7071 0.7071 0.7071 559.731 245.9751)" class="st4 st5">Chloracidobacterium thermophilum B</text>
											<text transform="matrix(0.7071 -0.7071 0.7071 0.7071 676.291 176.7837)" class="st4 st5">Clostridium_thermocellum</text>
											<text transform="matrix(0.7071 -0.7071 0.7071 0.7071 726.7876 173.6558)" class="st4 st5">Thermobacillus_composti</text>
											<text transform="matrix(0.7071 -0.7071 0.7071 0.7071 717.0142 230.7974)" class="st4 st5">Ignavibacterium album JCM 16511</text>
											<text transform="matrix(0.7071 -0.7071 0.7071 0.7071 795.0354 200.1445)" class="st4 st5">Thermus aquaticus Y51MC23</text>
											<text transform="matrix(0.7071 -0.7071 0.7071 0.7071 866.5173 176.0312)" class="st4 st5">Nocardiopsis_dassonvillei</text>
											<text transform="matrix(0.7071 -0.7071 0.7071 0.7071 948.4607 141.4561)" class="st4 st5">Salmonella_enterica</text>
											<text transform="matrix(0.7071 -0.7071 0.7071 0.7071 898.823 238.4624)" class="st4 st5">Synechococcus sp. JA-2-3B&apos;a(2-13)</text>
											<text transform="matrix(0.7071 -0.7071 0.7071 0.7071 963.8345 220.8193)" class="st4 st5">Meiothermus silvanus DSM 9946</text>
											<text transform="matrix(0.7071 -0.7071 0.7071 0.7071 962.7412 269.2808)" class="st4 st5">Caldimicrobium thiodismutans strain TF1</text>
											<text transform="matrix(0.7071 -0.7071 0.7071 0.7071 1231.4949 47.8955)" class="st4 st5">E.coli</text>
											<text transform="matrix(0.7071 -0.7071 0.7071 0.7071 1119.281 207.478)" class="st4 st5">Fervidobacterium_pennivorans</text>
											<text transform="matrix(0.7071 -0.7071 0.7071 0.7071 1187.8901 186.2373)" class="st4 st5">Thermodesulfovibrio sp. N1</text>
											<text transform="matrix(0.7071 -0.7071 0.7071 0.7071 1217.9399 203.5557)" class="st4 st5">Desulfosporosinus_acidiphilus</text>
											<text transform="matrix(0.7071 -0.7071 0.7071 0.7071 1219.7607 249.1035)" class="st4 st5">Thermocrinis ruber strain DSM 23557</text>
											<text transform="matrix(0.7071 -0.7071 0.7071 0.7071 1348.8469 167.3857)" class="st4 st5">Natronococcus_occultus</text>
											<text transform="matrix(0.7071 -0.7071 0.7071 0.7071 1352.1731 211.4277)" class="st4 st5">Elioraea tepidiphila DSM 17972</text>
											<text transform="matrix(0.7071 -0.7071 0.7071 0.7071 1456.925 154.0444)" class="st4 st5">Segniliparus_rotundus</text>
											<text transform="matrix(0.7071 -0.7071 0.7071 0.7071 1529.4634 128.8745)" class="st4 st5">Frateuria_aurantia</text>
											<text transform="matrix(0.7071 -0.7071 0.7071 0.7071 1533.5837 172.1226)" class="st4 st5">Streptococcus_pyogenes</text>
											<text transform="matrix(0.7071 -0.7071 0.7071 0.7071 1658.7891 94.2856)" class="st4 st5">Olsenella_uli</text>
											<text transform="matrix(0.7071 -0.7071 0.7071 0.7071 1667.6465 132.7969)" class="st4 st5">Terriglobus_roseus</text>
											<text transform="matrix(0.7071 -0.7071 0.7071 0.7071 1648.9722 198.8394)" class="st4 st5">Desulfotomaculum_gibsoniae</text>
											<text transform="matrix(0.7071 -0.7071 0.7071 0.7071 1627.6462 267.5337)" class="st4 st5">Pseudothermotoga hypogea DSM 11164</text>
											<text transform="matrix(0.7071 -0.7071 0.7071 0.7071 1744.51 198.0386)" class="st4 st5">Synechococcus sp. JA-3-3Ab</text>
											<text transform="matrix(0.7071 -0.7071 0.7071 0.7071 1787.1758 202.7412)" class="st4 st5">Meiothermus ruber DSM 1279</text>
											<text transform="matrix(0.7071 -0.7071 0.7071 0.7071 1668.6641 368.6211)" class="st4 st5">Candidatus Caldatribacterium saccharof. isolate SpSt-82</text>
											<text transform="matrix(0.7071 -0.7071 0.7071 0.7071 1916.481 168.1729)" class="st4 st5">Echinicola_vietnamensis</text>
											<text transform="matrix(0.7071 -0.7071 0.7071 0.7071 1820.2458 311.7764)" class="st4 st5">Candidatus Thermochlorobacteriaceae GBChlB</text>
											<text transform="matrix(0.7071 -0.7071 0.7071 0.7071 2016.7351 162.6553)" class="st4 st5">Clostridium_perfringens</text>
											<text transform="matrix(0.7071 -0.7071 0.7071 0.7071 2069.5864 157.1729)" class="st4 st5">Pseudomonas_stutzeri</text>
											<text transform="matrix(0.7071 -0.7071 0.7071 0.7071 2045.457 228.6704)" class="st4 st5">Meiothermus taiwanensis WR-220</text>
											<text transform="matrix(0.7071 -0.7071 0.7071 0.7071 2134.4644 187.0312)" class="st4 st5">Desulfosporosinus_meridiei</text>
											<text transform="matrix(0.7071 -0.7071 0.7071 0.7071 2102.4077 266.4565)" class="st4 st5">Candidatus Solibacter usitatus Ellin6076</text>
											<text transform="matrix(0.7071 -0.7071 0.7071 0.7071 2277.9116 138.3213)" class="st4 st5">Salmonella_bongori</text>
											<text transform="matrix(0.7071 -0.7071 0.7071 0.7071 2179.8743 283.7271)" class="st4 st5">Thermodesulfovibrio thiophilus DSM 17215</text>
											<text transform="matrix(0.7071 -0.7071 0.7071 0.7071 2285.6548 225.3145)" class="st4 st5">Pseudothermotoga lettingae TMO</text>
											<text transform="matrix(0.7071 -0.7071 0.7071 0.7071 2341.4617 216.8765)" class="st4 st5">Thermus brockianus strain GE-1</text>
											<text transform="matrix(0.7071 -0.7071 0.7071 0.7071 2427.2927 178.4136)" class="st4 st5">Spirochaeta_smaragdinae</text>
											<text transform="matrix(0.7071 -0.7071 0.7071 0.7071 2539.9375 113.1372)" class="st4 st5">Hirschia_baltica</text>
											<text transform="matrix(0.7071 -0.7071 0.7071 0.7071 2499.2766 201.1665)" class="st4 st5">Corynebacterium_glutamicum</text>
										</g>
										<g pointer-events="none">
											<text transform="matrix(1 0 0 1 1306.5269 318)" class="st8 st16">Species</text>
										</g>
									</g>
									<path pointer-events="none" class="st11" d="M0,0"/>
								</g>
							</g>
							<g>
								<g transform="translate(2700.5,0.5)">
									<path pointer-events="none" class="st1" d="M0,0L0,0L0,0L0,0z"/>
									<g>
										<g pointer-events="none">
											<text transform="matrix(1 0 0 1 2 37.5)" class="st8 st5">phyloFlash hit</text>
											<text transform="matrix(1 0 0 1 2 101.5)" class="st8 st5">DeLUCS hit</text>
										</g>
									</g>
									<path pointer-events="none" class="st11" d="M0,0"/>
								</g>
							</g>
							<g>
								<path class="st7" d="M33.7,32c0,5.5-4.5,10-10,10s-10-4.5-10-10s4.5-10,10-10S33.7,26.5,33.7,32"/>
								<path class="st7" d="M33.7,96c0,5.5-4.5,10-10,10s-10-4.5-10-10s4.5-10,10-10S33.7,90.5,33.7,96"/>
								<path class="st7" d="M81.1,32c0,5.5-4.5,10-10,10s-10-4.5-10-10s4.5-10,10-10S81.1,26.5,81.1,32"/>
								<path class="st7" d="M81.1,96c0,5.5-4.5,10-10,10s-10-4.5-10-10s4.5-10,10-10S81.1,90.5,81.1,96"/>
								<path class="st7" d="M128.4,32c0,5.5-4.5,10-10,10s-10-4.5-10-10s4.5-10,10-10S128.4,26.5,128.4,32"/>
								<path class="st7" d="M128.4,96c0,5.5-4.5,10-10,10s-10-4.5-10-10s4.5-10,10-10S128.4,90.5,128.4,96"/>
								<path class="st7" d="M175.8,32c0,5.5-4.5,10-10,10s-10-4.5-10-10s4.5-10,10-10S175.8,26.5,175.8,32"/>
								<path class="st7" d="M175.8,96c0,5.5-4.5,10-10,10s-10-4.5-10-10s4.5-10,10-10S175.8,90.5,175.8,96"/>
								<path class="st7" d="M223.2,32c0,5.5-4.5,10-10,10s-10-4.5-10-10s4.5-10,10-10S223.2,26.5,223.2,32"/>
								<path class="st7" d="M223.2,96c0,5.5-4.5,10-10,10s-10-4.5-10-10s4.5-10,10-10S223.2,90.5,223.2,96"/>
								<path class="st7" d="M270.5,32c0,5.5-4.5,10-10,10c-5.5,0-10-4.5-10-10s4.5-10,10-10C266,22,270.5,26.5,270.5,32"/>
								<path class="st7" d="M270.5,96c0,5.5-4.5,10-10,10c-5.5,0-10-4.5-10-10s4.5-10,10-10C266,86,270.5,90.5,270.5,96"/>
								<path class="st7" d="M317.9,32c0,5.5-4.5,10-10,10s-10-4.5-10-10s4.5-10,10-10S317.9,26.5,317.9,32"/>
								<path class="st7" d="M317.9,96c0,5.5-4.5,10-10,10s-10-4.5-10-10s4.5-10,10-10S317.9,90.5,317.9,96"/>
								<path class="st7" d="M365.3,32c0,5.5-4.5,10-10,10s-10-4.5-10-10s4.5-10,10-10S365.3,26.5,365.3,32"/>
								<path class="st7" d="M365.3,96c0,5.5-4.5,10-10,10s-10-4.5-10-10s4.5-10,10-10S365.3,90.5,365.3,96"/>
								<path class="st7" d="M412.6,32c0,5.5-4.5,10-10,10s-10-4.5-10-10s4.5-10,10-10S412.6,26.5,412.6,32"/>
								<path class="st7" d="M412.6,96c0,5.5-4.5,10-10,10s-10-4.5-10-10s4.5-10,10-10S412.6,90.5,412.6,96"/>
								<path class="st7" d="M460,32c0,5.5-4.5,10-10,10s-10-4.5-10-10s4.5-10,10-10S460,26.5,460,32"/>
								<path class="st7" d="M460,96c0,5.5-4.5,10-10,10s-10-4.5-10-10s4.5-10,10-10S460,90.5,460,96"/>
								<path class="st7" d="M507.4,32c0,5.5-4.5,10-10,10s-10-4.5-10-10s4.5-10,10-10S507.4,26.5,507.4,32"/>
								<path class="st7" d="M507.4,96c0,5.5-4.5,10-10,10s-10-4.5-10-10s4.5-10,10-10S507.4,90.5,507.4,96"/>
								<path class="st7" d="M554.7,32c0,5.5-4.5,10-10,10s-10-4.5-10-10s4.5-10,10-10S554.7,26.5,554.7,32"/>
								<path class="st7" d="M554.7,96c0,5.5-4.5,10-10,10s-10-4.5-10-10s4.5-10,10-10S554.7,90.5,554.7,96"/>
								<path class="st7" d="M602.1,32c0,5.5-4.5,10-10,10s-10-4.5-10-10s4.5-10,10-10S602.1,26.5,602.1,32"/>
								<path class="st7" d="M602.1,96c0,5.5-4.5,10-10,10s-10-4.5-10-10s4.5-10,10-10S602.1,90.5,602.1,96"/>
								<path class="st7" d="M649.5,32c0,5.5-4.5,10-10,10s-10-4.5-10-10s4.5-10,10-10S649.5,26.5,649.5,32"/>
								<path class="st7" d="M649.5,96c0,5.5-4.5,10-10,10s-10-4.5-10-10s4.5-10,10-10S649.5,90.5,649.5,96"/>
								<path class="st7" d="M696.8,32c0,5.5-4.5,10-10,10s-10-4.5-10-10s4.5-10,10-10S696.8,26.5,696.8,32"/>
								<path class="st7" d="M696.8,96c0,5.5-4.5,10-10,10s-10-4.5-10-10s4.5-10,10-10S696.8,90.5,696.8,96"/>
								<path class="st7" d="M744.2,32c0,5.5-4.5,10-10,10s-10-4.5-10-10s4.5-10,10-10S744.2,26.5,744.2,32"/>
								<path class="st7" d="M744.2,96c0,5.5-4.5,10-10,10s-10-4.5-10-10s4.5-10,10-10S744.2,90.5,744.2,96"/>
								<path class="st7" d="M791.6,32c0,5.5-4.5,10-10,10s-10-4.5-10-10s4.5-10,10-10S791.6,26.5,791.6,32"/>
								<path class="st7" d="M791.6,96c0,5.5-4.5,10-10,10s-10-4.5-10-10s4.5-10,10-10S791.6,90.5,791.6,96"/>
								<path class="st7" d="M838.9,32c0,5.5-4.5,10-10,10s-10-4.5-10-10s4.5-10,10-10S838.9,26.5,838.9,32"/>
								<path class="st7" d="M838.9,96c0,5.5-4.5,10-10,10s-10-4.5-10-10s4.5-10,10-10S838.9,90.5,838.9,96"/>
								<path class="st7" d="M886.3,32c0,5.5-4.5,10-10,10s-10-4.5-10-10s4.5-10,10-10S886.3,26.5,886.3,32"/>
								<path class="st7" d="M886.3,96c0,5.5-4.5,10-10,10s-10-4.5-10-10s4.5-10,10-10S886.3,90.5,886.3,96"/>
								<path class="st7" d="M933.7,32c0,5.5-4.5,10-10,10s-10-4.5-10-10s4.5-10,10-10S933.7,26.5,933.7,32"/>
								<path class="st7" d="M933.7,96c0,5.5-4.5,10-10,10s-10-4.5-10-10s4.5-10,10-10S933.7,90.5,933.7,96"/>
								<path class="st7" d="M981.1,32c0,5.5-4.5,10-10,10s-10-4.5-10-10s4.5-10,10-10S981.1,26.5,981.1,32"/>
								<path class="st7" d="M981.1,96c0,5.5-4.5,10-10,10s-10-4.5-10-10s4.5-10,10-10S981.1,90.5,981.1,96"/>
								<path class="st7" d="M1028.4,32c0,5.5-4.5,10-10,10s-10-4.5-10-10s4.5-10,10-10S1028.4,26.5,1028.4,32"/>
								<path class="st7" d="M1028.4,96c0,5.5-4.5,10-10,10s-10-4.5-10-10s4.5-10,10-10S1028.4,90.5,1028.4,96"/>
								<path class="st7" d="M1075.8,32c0,5.5-4.5,10-10,10s-10-4.5-10-10s4.5-10,10-10S1075.8,26.5,1075.8,32"/>
								<path class="st7" d="M1075.8,96c0,5.5-4.5,10-10,10s-10-4.5-10-10s4.5-10,10-10S1075.8,90.5,1075.8,96"/>
								<path class="st7" d="M1123.2,32c0,5.5-4.5,10-10,10s-10-4.5-10-10s4.5-10,10-10S1123.2,26.5,1123.2,32"/>
								<path class="st7" d="M1123.2,96c0,5.5-4.5,10-10,10s-10-4.5-10-10s4.5-10,10-10S1123.2,90.5,1123.2,96"/>
								<path class="st7" d="M1170.5,32c0,5.5-4.5,10-10,10s-10-4.5-10-10s4.5-10,10-10S1170.5,26.5,1170.5,32"/>
								<path class="st7" d="M1170.5,96c0,5.5-4.5,10-10,10s-10-4.5-10-10s4.5-10,10-10S1170.5,90.5,1170.5,96"/>
								<path class="st7" d="M1217.9,32c0,5.5-4.5,10-10,10s-10-4.5-10-10s4.5-10,10-10S1217.9,26.5,1217.9,32"/>
								<path class="st7" d="M1217.9,96c0,5.5-4.5,10-10,10s-10-4.5-10-10s4.5-10,10-10S1217.9,90.5,1217.9,96"/>
								<path class="st7" d="M1265.3,32c0,5.5-4.5,10-10,10s-10-4.5-10-10s4.5-10,10-10S1265.3,26.5,1265.3,32"/>
								<path class="st7" d="M1265.3,96c0,5.5-4.5,10-10,10s-10-4.5-10-10s4.5-10,10-10S1265.3,90.5,1265.3,96"/>
								<path class="st7" d="M1312.6,32c0,5.5-4.5,10-10,10s-10-4.5-10-10s4.5-10,10-10S1312.6,26.5,1312.6,32"/>
								<path class="st7" d="M1312.6,96c0,5.5-4.5,10-10,10s-10-4.5-10-10s4.5-10,10-10S1312.6,90.5,1312.6,96"/>
								<path class="st7" d="M1360,32c0,5.5-4.5,10-10,10s-10-4.5-10-10s4.5-10,10-10S1360,26.5,1360,32"/>
								<path class="st7" d="M1360,96c0,5.5-4.5,10-10,10s-10-4.5-10-10s4.5-10,10-10S1360,90.5,1360,96"/>
								<path class="st7" d="M1407.4,32c0,5.5-4.5,10-10,10s-10-4.5-10-10s4.5-10,10-10S1407.4,26.5,1407.4,32"/>
								<path class="st7" d="M1407.4,96c0,5.5-4.5,10-10,10s-10-4.5-10-10s4.5-10,10-10S1407.4,90.5,1407.4,96"/>
								<path class="st7" d="M1454.7,32c0,5.5-4.5,10-10,10s-10-4.5-10-10s4.5-10,10-10S1454.7,26.5,1454.7,32"/>
								<path class="st7" d="M1454.7,96c0,5.5-4.5,10-10,10s-10-4.5-10-10s4.5-10,10-10S1454.7,90.5,1454.7,96"/>
								<path class="st7" d="M1502.1,32c0,5.5-4.5,10-10,10s-10-4.5-10-10s4.5-10,10-10S1502.1,26.5,1502.1,32"/>
								<path class="st7" d="M1502.1,96c0,5.5-4.5,10-10,10s-10-4.5-10-10s4.5-10,10-10S1502.1,90.5,1502.1,96"/>
								<path class="st7" d="M1549.5,32c0,5.5-4.5,10-10,10s-10-4.5-10-10s4.5-10,10-10S1549.5,26.5,1549.5,32"/>
								<path class="st7" d="M1549.5,96c0,5.5-4.5,10-10,10s-10-4.5-10-10s4.5-10,10-10S1549.5,90.5,1549.5,96"/>
								<path class="st7" d="M1596.8,32c0,5.5-4.5,10-10,10s-10-4.5-10-10s4.5-10,10-10S1596.8,26.5,1596.8,32"/>
								<path class="st7" d="M1596.8,96c0,5.5-4.5,10-10,10s-10-4.5-10-10s4.5-10,10-10S1596.8,90.5,1596.8,96"/>
								<path class="st7" d="M1644.2,32c0,5.5-4.5,10-10,10s-10-4.5-10-10s4.5-10,10-10S1644.2,26.5,1644.2,32"/>
								<path class="st7" d="M1644.2,96c0,5.5-4.5,10-10,10s-10-4.5-10-10s4.5-10,10-10S1644.2,90.5,1644.2,96"/>
								<path class="st7" d="M1691.6,32c0,5.5-4.5,10-10,10s-10-4.5-10-10s4.5-10,10-10S1691.6,26.5,1691.6,32"/>
								<path class="st7" d="M1691.6,96c0,5.5-4.5,10-10,10s-10-4.5-10-10s4.5-10,10-10S1691.6,90.5,1691.6,96"/>
								<path class="st7" d="M1738.9,32c0,5.5-4.5,10-10,10s-10-4.5-10-10s4.5-10,10-10S1738.9,26.5,1738.9,32"/>
								<path class="st7" d="M1738.9,96c0,5.5-4.5,10-10,10s-10-4.5-10-10s4.5-10,10-10S1738.9,90.5,1738.9,96"/>
								<path class="st7" d="M1786.3,32c0,5.5-4.5,10-10,10s-10-4.5-10-10s4.5-10,10-10S1786.3,26.5,1786.3,32"/>
								<path class="st7" d="M1786.3,96c0,5.5-4.5,10-10,10s-10-4.5-10-10s4.5-10,10-10S1786.3,90.5,1786.3,96"/>
								<path class="st7" d="M1833.7,32c0,5.5-4.5,10-10,10s-10-4.5-10-10s4.5-10,10-10S1833.7,26.5,1833.7,32"/>
								<path class="st7" d="M1833.7,96c0,5.5-4.5,10-10,10s-10-4.5-10-10s4.5-10,10-10S1833.7,90.5,1833.7,96"/>
								<path class="st7" d="M1881.1,32c0,5.5-4.5,10-10,10s-10-4.5-10-10s4.5-10,10-10S1881.1,26.5,1881.1,32"/>
								<path class="st7" d="M1881.1,96c0,5.5-4.5,10-10,10s-10-4.5-10-10s4.5-10,10-10S1881.1,90.5,1881.1,96"/>
								<path class="st7" d="M1928.4,32c0,5.5-4.5,10-10,10s-10-4.5-10-10s4.5-10,10-10S1928.4,26.5,1928.4,32"/>
								<path class="st7" d="M1928.4,96c0,5.5-4.5,10-10,10s-10-4.5-10-10s4.5-10,10-10S1928.4,90.5,1928.4,96"/>
								<path class="st7" d="M1975.8,32c0,5.5-4.5,10-10,10s-10-4.5-10-10s4.5-10,10-10S1975.8,26.5,1975.8,32"/>
								<path class="st7" d="M1975.8,96c0,5.5-4.5,10-10,10s-10-4.5-10-10s4.5-10,10-10S1975.8,90.5,1975.8,96"/>
								<path class="st7" d="M2023.2,32c0,5.5-4.5,10-10,10s-10-4.5-10-10s4.5-10,10-10S2023.2,26.5,2023.2,32"/>
								<path class="st7" d="M2023.2,96c0,5.5-4.5,10-10,10s-10-4.5-10-10s4.5-10,10-10S2023.2,90.5,2023.2,96"/>
								<path class="st7" d="M2070.5,32c0,5.5-4.5,10-10,10s-10-4.5-10-10s4.5-10,10-10S2070.5,26.5,2070.5,32"/>
								<path class="st7" d="M2070.5,96c0,5.5-4.5,10-10,10s-10-4.5-10-10s4.5-10,10-10S2070.5,90.5,2070.5,96"/>
								<path class="st7" d="M2117.9,32c0,5.5-4.5,10-10,10s-10-4.5-10-10s4.5-10,10-10S2117.9,26.5,2117.9,32"/>
								<path class="st7" d="M2117.9,96c0,5.5-4.5,10-10,10s-10-4.5-10-10s4.5-10,10-10S2117.9,90.5,2117.9,96"/>
								<path class="st7" d="M2165.3,32c0,5.5-4.5,10-10,10s-10-4.5-10-10s4.5-10,10-10S2165.3,26.5,2165.3,32"/>
								<path class="st7" d="M2165.3,96c0,5.5-4.5,10-10,10s-10-4.5-10-10s4.5-10,10-10S2165.3,90.5,2165.3,96"/>
								<path class="st7" d="M2212.6,32c0,5.5-4.5,10-10,10s-10-4.5-10-10s4.5-10,10-10S2212.6,26.5,2212.6,32"/>
								<path class="st7" d="M2212.6,96c0,5.5-4.5,10-10,10s-10-4.5-10-10s4.5-10,10-10S2212.6,90.5,2212.6,96"/>
								<path class="st7" d="M2260,32c0,5.5-4.5,10-10,10s-10-4.5-10-10s4.5-10,10-10S2260,26.5,2260,32"/>
								<path class="st7" d="M2260,96c0,5.5-4.5,10-10,10s-10-4.5-10-10s4.5-10,10-10S2260,90.5,2260,96"/>
								<path class="st7" d="M2307.4,32c0,5.5-4.5,10-10,10s-10-4.5-10-10s4.5-10,10-10S2307.4,26.5,2307.4,32"/>
								<path class="st7" d="M2307.4,96c0,5.5-4.5,10-10,10s-10-4.5-10-10s4.5-10,10-10S2307.4,90.5,2307.4,96"/>
								<path class="st7" d="M2354.7,32c0,5.5-4.5,10-10,10s-10-4.5-10-10s4.5-10,10-10S2354.7,26.5,2354.7,32"/>
								<path class="st7" d="M2354.7,96c0,5.5-4.5,10-10,10s-10-4.5-10-10s4.5-10,10-10S2354.7,90.5,2354.7,96"/>
								<path class="st7" d="M2402.1,32c0,5.5-4.5,10-10,10s-10-4.5-10-10s4.5-10,10-10S2402.1,26.5,2402.1,32"/>
								<path class="st7" d="M2402.1,96c0,5.5-4.5,10-10,10s-10-4.5-10-10s4.5-10,10-10S2402.1,90.5,2402.1,96"/>
								<path class="st7" d="M2449.5,32c0,5.5-4.5,10-10,10s-10-4.5-10-10s4.5-10,10-10S2449.5,26.5,2449.5,32"/>
								<path class="st7" d="M2449.5,96c0,5.5-4.5,10-10,10s-10-4.5-10-10s4.5-10,10-10S2449.5,90.5,2449.5,96"/>
								<path class="st7" d="M2496.8,32c0,5.5-4.5,10-10,10s-10-4.5-10-10s4.5-10,10-10S2496.8,26.5,2496.8,32"/>
								<path class="st7" d="M2496.8,96c0,5.5-4.5,10-10,10s-10-4.5-10-10s4.5-10,10-10S2496.8,90.5,2496.8,96"/>
								<path class="st7" d="M2544.2,32c0,5.5-4.5,10-10,10s-10-4.5-10-10s4.5-10,10-10S2544.2,26.5,2544.2,32"/>
								<path class="st7" d="M2544.2,96c0,5.5-4.5,10-10,10s-10-4.5-10-10s4.5-10,10-10S2544.2,90.5,2544.2,96"/>
								<path class="st7" d="M2591.6,32c0,5.5-4.5,10-10,10s-10-4.5-10-10s4.5-10,10-10S2591.6,26.5,2591.6,32"/>
								<path class="st7" d="M2591.6,96c0,5.5-4.5,10-10,10s-10-4.5-10-10s4.5-10,10-10S2591.6,90.5,2591.6,96"/>
								<path class="st7" d="M2638.9,32c0,5.5-4.5,10-10,10s-10-4.5-10-10s4.5-10,10-10S2638.9,26.5,2638.9,32"/>
								<path class="st7" d="M2638.9,96c0,5.5-4.5,10-10,10s-10-4.5-10-10s4.5-10,10-10S2638.9,90.5,2638.9,96"/>
								<path class="st7" d="M2686.3,32c0,5.5-4.5,10-10,10s-10-4.5-10-10s4.5-10,10-10S2686.3,26.5,2686.3,32"/>
								<path class="st7" d="M2686.3,96c0,5.5-4.5,10-10,10s-10-4.5-10-10s4.5-10,10-10S2686.3,90.5,2686.3,96"/>
							</g>
							<g pointer-events="none">
								<path class="st17" d="M0,64h47.4v64H0V64z"/>
								<path class="st17" d="M47.4,64h47.4v64H47.4V64z"/>
								<path class="st17" d="M94.7,64h47.4v64H94.7L94.7,64z"/>
								<path class="st17" d="M142.1,64h47.4v64h-47.4V64z"/>
								<path class="st17" d="M189.5,64h47.4v64h-47.4V64z"/>
								<path class="st17" d="M236.8,64h47.4v64h-47.4L236.8,64z"/>
								<path class="st17" d="M284.2,64h47.4v64h-47.4V64z"/>
								<path class="st17" d="M331.6,64h47.4v64h-47.4V64z"/>
								<path class="st17" d="M378.9,64h47.4v64h-47.4V64z"/>
								<path class="st17" d="M426.3,64h47.4v64h-47.4V64z"/>
								<path class="st17" d="M473.7,64h47.4v64h-47.4V64z"/>
								<path class="st17" d="M521.1,64h47.4v64h-47.4V64z"/>
								<path class="st17" d="M568.4,64h47.4v64h-47.4V64z"/>
								<path class="st17" d="M615.8,64h47.4v64h-47.4V64z"/>
								<path class="st17" d="M663.2,64h47.4v64h-47.4V64z"/>
								<path class="st17" d="M710.5,64h47.4v64h-47.4V64z"/>
								<path class="st17" d="M757.9,64h47.4v64h-47.4V64z"/>
								<path class="st17" d="M805.3,64h47.4v64h-47.4V64z"/>
								<path class="st17" d="M852.6,64H900v64h-47.4V64z"/>
								<path class="st17" d="M900,64h47.4v64H900V64z"/>
								<path class="st17" d="M947.4,64h47.4v64h-47.4V64z"/>
								<path class="st17" d="M994.7,64h47.4v64h-47.4V64z"/>
								<path class="st17" d="M1042.1,64h47.4v64h-47.4V64z"/>
								<path class="st17" d="M1089.5,64h47.4v64h-47.4V64z"/>
								<path class="st17" d="M1136.8,64h47.4v64h-47.4V64z"/>
								<path class="st17" d="M1184.2,64h47.4v64h-47.4V64z"/>
								<path class="st17" d="M1231.6,64h47.4v64h-47.4V64z"/>
								<path class="st17" d="M1278.9,64h47.4v64h-47.4V64z"/>
								<path class="st17" d="M1326.3,64h47.4v64h-47.4V64z"/>
								<path class="st17" d="M1373.7,64h47.4v64h-47.4V64z"/>
								<path class="st17" d="M1421.1,64h47.4v64h-47.4V64z"/>
								<path class="st17" d="M1468.4,64h47.4v64h-47.4V64z"/>
								<path class="st17" d="M1515.8,64h47.4v64h-47.4V64z"/>
								<path class="st17" d="M1563.2,64h47.4v64h-47.4V64z"/>
								<path class="st17" d="M1610.5,64h47.4v64h-47.4V64z"/>
								<path class="st17" d="M1657.9,64h47.4v64h-47.4V64z"/>
								<path class="st17" d="M1705.3,64h47.4v64h-47.4V64z"/>
								<path class="st17" d="M1752.6,64h47.4v64h-47.4V64z"/>
								<path class="st17" d="M1800,64h47.4v64H1800V64z"/>
								<path class="st17" d="M1847.4,64h47.4v64h-47.4V64z"/>
								<path class="st17" d="M1894.7,64h47.4v64h-47.4V64z"/>
								<path class="st17" d="M1942.1,64h47.4v64h-47.4V64z"/>
								<path class="st17" d="M1989.5,64h47.4v64h-47.4V64z"/>
								<path class="st17" d="M2036.8,64h47.4v64h-47.4L2036.8,64z"/>
								<path class="st17" d="M2084.2,64h47.4v64h-47.4V64z"/>
								<path class="st17" d="M2131.6,64h47.4v64h-47.4V64z"/>
								<path class="st17" d="M2178.9,64h47.4v64h-47.4V64z"/>
								<path class="st17" d="M2226.3,64h47.4v64h-47.4V64z"/>
								<path class="st17" d="M2273.7,64h47.4v64h-47.4V64z"/>
								<path class="st17" d="M2321.1,64h47.4v64h-47.4V64z"/>
								<path class="st17" d="M2368.4,64h47.4v64h-47.4V64z"/>
								<path class="st17" d="M2415.8,64h47.4v64h-47.4V64z"/>
								<path class="st17" d="M2463.2,64h47.4v64h-47.4V64z"/>
								<path class="st17" d="M2510.5,64h47.4v64h-47.4V64z"/>
								<path class="st17" d="M2557.9,64h47.4v64h-47.4V64z"/>
								<path class="st17" d="M2605.3,64h47.4v64h-47.4V64z"/>
								<path class="st17" d="M2652.6,64h47.4v64h-47.4V64z"/>
							</g>
							<g pointer-events="none">
								<path class="st7" d="M33.7,32c0,5.5-4.5,10-10,10s-10-4.5-10-10s4.5-10,10-10S33.7,26.5,33.7,32"/>
								<path class="st7" d="M33.7,96c0,5.5-4.5,10-10,10s-10-4.5-10-10s4.5-10,10-10S33.7,90.5,33.7,96"/>
								<path class="st6" d="M81.1,32c0,5.5-4.5,10-10,10s-10-4.5-10-10s4.5-10,10-10S81.1,26.5,81.1,32"/>
								<path class="st6" d="M81.1,96c0,5.5-4.5,10-10,10s-10-4.5-10-10s4.5-10,10-10S81.1,90.5,81.1,96"/>
								<path class="st7" d="M128.4,32c0,5.5-4.5,10-10,10s-10-4.5-10-10s4.5-10,10-10S128.4,26.5,128.4,32"/>
								<path class="st6" d="M128.4,96c0,5.5-4.5,10-10,10s-10-4.5-10-10s4.5-10,10-10S128.4,90.5,128.4,96"/>
								<path class="st6" d="M175.8,32c0,5.5-4.5,10-10,10s-10-4.5-10-10s4.5-10,10-10S175.8,26.5,175.8,32"/>
								<path class="st7" d="M175.8,96c0,5.5-4.5,10-10,10s-10-4.5-10-10s4.5-10,10-10S175.8,90.5,175.8,96"/>
								<path class="st7" d="M223.2,32c0,5.5-4.5,10-10,10s-10-4.5-10-10s4.5-10,10-10S223.2,26.5,223.2,32"/>
								<path class="st7" d="M223.2,96c0,5.5-4.5,10-10,10s-10-4.5-10-10s4.5-10,10-10S223.2,90.5,223.2,96"/>
								<path class="st6" d="M270.5,32c0,5.5-4.5,10-10,10c-5.5,0-10-4.5-10-10s4.5-10,10-10C266,22,270.5,26.5,270.5,32"/>
								<path class="st7" d="M270.5,96c0,5.5-4.5,10-10,10c-5.5,0-10-4.5-10-10s4.5-10,10-10C266,86,270.5,90.5,270.5,96"/>
								<path class="st7" d="M317.9,32c0,5.5-4.5,10-10,10s-10-4.5-10-10s4.5-10,10-10S317.9,26.5,317.9,32"/>
								<path class="st7" d="M317.9,96c0,5.5-4.5,10-10,10s-10-4.5-10-10s4.5-10,10-10S317.9,90.5,317.9,96"/>
								<path class="st7" d="M365.3,32c0,5.5-4.5,10-10,10s-10-4.5-10-10s4.5-10,10-10S365.3,26.5,365.3,32"/>
								<path class="st7" d="M365.3,96c0,5.5-4.5,10-10,10s-10-4.5-10-10s4.5-10,10-10S365.3,90.5,365.3,96"/>
								<path class="st6" d="M412.6,32c0,5.5-4.5,10-10,10s-10-4.5-10-10s4.5-10,10-10S412.6,26.5,412.6,32"/>
								<path class="st7" d="M412.6,96c0,5.5-4.5,10-10,10s-10-4.5-10-10s4.5-10,10-10S412.6,90.5,412.6,96"/>
								<path class="st7" d="M460,32c0,5.5-4.5,10-10,10s-10-4.5-10-10s4.5-10,10-10S460,26.5,460,32"/>
								<path class="st7" d="M460,96c0,5.5-4.5,10-10,10s-10-4.5-10-10s4.5-10,10-10S460,90.5,460,96"/>
								<path class="st6" d="M507.4,32c0,5.5-4.5,10-10,10s-10-4.5-10-10s4.5-10,10-10S507.4,26.5,507.4,32"/>
								<path class="st6" d="M507.4,96c0,5.5-4.5,10-10,10s-10-4.5-10-10s4.5-10,10-10S507.4,90.5,507.4,96"/>
								<path class="st7" d="M554.7,32c0,5.5-4.5,10-10,10s-10-4.5-10-10s4.5-10,10-10S554.7,26.5,554.7,32"/>
								<path class="st7" d="M554.7,96c0,5.5-4.5,10-10,10s-10-4.5-10-10s4.5-10,10-10S554.7,90.5,554.7,96"/>
								<path class="st7" d="M602.1,32c0,5.5-4.5,10-10,10s-10-4.5-10-10s4.5-10,10-10S602.1,26.5,602.1,32"/>
								<path class="st6" d="M602.1,96c0,5.5-4.5,10-10,10s-10-4.5-10-10s4.5-10,10-10S602.1,90.5,602.1,96"/>
								<path class="st6" d="M649.5,32c0,5.5-4.5,10-10,10s-10-4.5-10-10s4.5-10,10-10S649.5,26.5,649.5,32"/>
								<path class="st7" d="M649.5,96c0,5.5-4.5,10-10,10s-10-4.5-10-10s4.5-10,10-10S649.5,90.5,649.5,96"/>
								<path class="st7" d="M696.8,32c0,5.5-4.5,10-10,10s-10-4.5-10-10s4.5-10,10-10S696.8,26.5,696.8,32"/>
								<path class="st7" d="M696.8,96c0,5.5-4.5,10-10,10s-10-4.5-10-10s4.5-10,10-10S696.8,90.5,696.8,96"/>
								<path class="st7" d="M744.2,32c0,5.5-4.5,10-10,10s-10-4.5-10-10s4.5-10,10-10S744.2,26.5,744.2,32"/>
								<path class="st7" d="M744.2,96c0,5.5-4.5,10-10,10s-10-4.5-10-10s4.5-10,10-10S744.2,90.5,744.2,96"/>
								<path class="st6" d="M791.6,32c0,5.5-4.5,10-10,10s-10-4.5-10-10s4.5-10,10-10S791.6,26.5,791.6,32"/>
								<path class="st6" d="M791.6,96c0,5.5-4.5,10-10,10s-10-4.5-10-10s4.5-10,10-10S791.6,90.5,791.6,96"/>
								<path class="st7" d="M838.9,32c0,5.5-4.5,10-10,10s-10-4.5-10-10s4.5-10,10-10S838.9,26.5,838.9,32"/>
								<path class="st7" d="M838.9,96c0,5.5-4.5,10-10,10s-10-4.5-10-10s4.5-10,10-10S838.9,90.5,838.9,96"/>
								<path class="st7" d="M886.3,32c0,5.5-4.5,10-10,10s-10-4.5-10-10s4.5-10,10-10S886.3,26.5,886.3,32"/>
								<path class="st7" d="M886.3,96c0,5.5-4.5,10-10,10s-10-4.5-10-10s4.5-10,10-10S886.3,90.5,886.3,96"/>
								<path class="st6" d="M933.7,32c0,5.5-4.5,10-10,10s-10-4.5-10-10s4.5-10,10-10S933.7,26.5,933.7,32"/>
								<path class="st7" d="M933.7,96c0,5.5-4.5,10-10,10s-10-4.5-10-10s4.5-10,10-10S933.7,90.5,933.7,96"/>
								<path class="st7" d="M981.1,32c0,5.5-4.5,10-10,10s-10-4.5-10-10s4.5-10,10-10S981.1,26.5,981.1,32"/>
								<path class="st7" d="M981.1,96c0,5.5-4.5,10-10,10s-10-4.5-10-10s4.5-10,10-10S981.1,90.5,981.1,96"/>
								<path class="st7" d="M1028.4,32c0,5.5-4.5,10-10,10s-10-4.5-10-10s4.5-10,10-10S1028.4,26.5,1028.4,32"/>
								<path class="st7" d="M1028.4,96c0,5.5-4.5,10-10,10s-10-4.5-10-10s4.5-10,10-10S1028.4,90.5,1028.4,96"/>
								<path class="st7" d="M1075.8,32c0,5.5-4.5,10-10,10s-10-4.5-10-10s4.5-10,10-10S1075.8,26.5,1075.8,32"/>
								<path class="st7" d="M1075.8,96c0,5.5-4.5,10-10,10s-10-4.5-10-10s4.5-10,10-10S1075.8,90.5,1075.8,96"/>
								<path class="st6" d="M1123.2,32c0,5.5-4.5,10-10,10s-10-4.5-10-10s4.5-10,10-10S1123.2,26.5,1123.2,32"/>
								<path class="st7" d="M1123.2,96c0,5.5-4.5,10-10,10s-10-4.5-10-10s4.5-10,10-10S1123.2,90.5,1123.2,96"/>
								<path class="st6" d="M1170.5,32c0,5.5-4.5,10-10,10s-10-4.5-10-10s4.5-10,10-10S1170.5,26.5,1170.5,32"/>
								<path class="st7" d="M1170.5,96c0,5.5-4.5,10-10,10s-10-4.5-10-10s4.5-10,10-10S1170.5,90.5,1170.5,96"/>
								<path class="st6" d="M1217.9,32c0,5.5-4.5,10-10,10s-10-4.5-10-10s4.5-10,10-10S1217.9,26.5,1217.9,32"/>
								<path class="st6" d="M1217.9,96c0,5.5-4.5,10-10,10s-10-4.5-10-10s4.5-10,10-10S1217.9,90.5,1217.9,96"/>
								<path class="st7" d="M1265.3,32c0,5.5-4.5,10-10,10s-10-4.5-10-10s4.5-10,10-10S1265.3,26.5,1265.3,32"/>
								<path class="st7" d="M1265.3,96c0,5.5-4.5,10-10,10s-10-4.5-10-10s4.5-10,10-10S1265.3,90.5,1265.3,96"/>
								<path class="st7" d="M1312.6,32c0,5.5-4.5,10-10,10s-10-4.5-10-10s4.5-10,10-10S1312.6,26.5,1312.6,32"/>
								<path class="st7" d="M1312.6,96c0,5.5-4.5,10-10,10s-10-4.5-10-10s4.5-10,10-10S1312.6,90.5,1312.6,96"/>
								<path class="st6" d="M1360,32c0,5.5-4.5,10-10,10s-10-4.5-10-10s4.5-10,10-10S1360,26.5,1360,32"/>
								<path class="st6" d="M1360,96c0,5.5-4.5,10-10,10s-10-4.5-10-10s4.5-10,10-10S1360,90.5,1360,96"/>
								<path class="st7" d="M1407.4,32c0,5.5-4.5,10-10,10s-10-4.5-10-10s4.5-10,10-10S1407.4,26.5,1407.4,32"/>
								<path class="st7" d="M1407.4,96c0,5.5-4.5,10-10,10s-10-4.5-10-10s4.5-10,10-10S1407.4,90.5,1407.4,96"/>
								<path class="st7" d="M1454.7,32c0,5.5-4.5,10-10,10s-10-4.5-10-10s4.5-10,10-10S1454.7,26.5,1454.7,32"/>
								<path class="st6" d="M1454.7,96c0,5.5-4.5,10-10,10s-10-4.5-10-10s4.5-10,10-10S1454.7,90.5,1454.7,96"/>
								<path class="st7" d="M1502.1,32c0,5.5-4.5,10-10,10s-10-4.5-10-10s4.5-10,10-10S1502.1,26.5,1502.1,32"/>
								<path class="st7" d="M1502.1,96c0,5.5-4.5,10-10,10s-10-4.5-10-10s4.5-10,10-10S1502.1,90.5,1502.1,96"/>
								<path class="st6" d="M1549.5,32c0,5.5-4.5,10-10,10s-10-4.5-10-10s4.5-10,10-10S1549.5,26.5,1549.5,32"/>
								<path class="st6" d="M1549.5,96c0,5.5-4.5,10-10,10s-10-4.5-10-10s4.5-10,10-10S1549.5,90.5,1549.5,96"/>
								<path class="st7" d="M1596.8,32c0,5.5-4.5,10-10,10s-10-4.5-10-10s4.5-10,10-10S1596.8,26.5,1596.8,32"/>
								<path class="st7" d="M1596.8,96c0,5.5-4.5,10-10,10s-10-4.5-10-10s4.5-10,10-10S1596.8,90.5,1596.8,96"/>
								<path class="st7" d="M1644.2,32c0,5.5-4.5,10-10,10s-10-4.5-10-10s4.5-10,10-10S1644.2,26.5,1644.2,32"/>
								<path class="st7" d="M1644.2,96c0,5.5-4.5,10-10,10s-10-4.5-10-10s4.5-10,10-10S1644.2,90.5,1644.2,96"/>
								<path class="st7" d="M1691.6,32c0,5.5-4.5,10-10,10s-10-4.5-10-10s4.5-10,10-10S1691.6,26.5,1691.6,32"/>
								<path class="st7" d="M1691.6,96c0,5.5-4.5,10-10,10s-10-4.5-10-10s4.5-10,10-10S1691.6,90.5,1691.6,96"/>
								<path class="st7" d="M1738.9,32c0,5.5-4.5,10-10,10s-10-4.5-10-10s4.5-10,10-10S1738.9,26.5,1738.9,32"/>
								<path class="st7" d="M1738.9,96c0,5.5-4.5,10-10,10s-10-4.5-10-10s4.5-10,10-10S1738.9,90.5,1738.9,96"/>
								<path class="st7" d="M1786.3,32c0,5.5-4.5,10-10,10s-10-4.5-10-10s4.5-10,10-10S1786.3,26.5,1786.3,32"/>
								<path class="st7" d="M1786.3,96c0,5.5-4.5,10-10,10s-10-4.5-10-10s4.5-10,10-10S1786.3,90.5,1786.3,96"/>
								<path class="st7" d="M1833.7,32c0,5.5-4.5,10-10,10s-10-4.5-10-10s4.5-10,10-10S1833.7,26.5,1833.7,32"/>
								<path class="st7" d="M1833.7,96c0,5.5-4.5,10-10,10s-10-4.5-10-10s4.5-10,10-10S1833.7,90.5,1833.7,96"/>
								<path class="st6" d="M1881.1,32c0,5.5-4.5,10-10,10s-10-4.5-10-10s4.5-10,10-10S1881.1,26.5,1881.1,32"/>
								<path class="st6" d="M1881.1,96c0,5.5-4.5,10-10,10s-10-4.5-10-10s4.5-10,10-10S1881.1,90.5,1881.1,96"/>
								<path class="st7" d="M1928.4,32c0,5.5-4.5,10-10,10s-10-4.5-10-10s4.5-10,10-10S1928.4,26.5,1928.4,32"/>
								<path class="st7" d="M1928.4,96c0,5.5-4.5,10-10,10s-10-4.5-10-10s4.5-10,10-10S1928.4,90.5,1928.4,96"/>
								<path class="st6" d="M1975.8,32c0,5.5-4.5,10-10,10s-10-4.5-10-10s4.5-10,10-10S1975.8,26.5,1975.8,32"/>
								<path class="st7" d="M1975.8,96c0,5.5-4.5,10-10,10s-10-4.5-10-10s4.5-10,10-10S1975.8,90.5,1975.8,96"/>
								<path class="st7" d="M2023.2,32c0,5.5-4.5,10-10,10s-10-4.5-10-10s4.5-10,10-10S2023.2,26.5,2023.2,32"/>
								<path class="st6" d="M2023.2,96c0,5.5-4.5,10-10,10s-10-4.5-10-10s4.5-10,10-10S2023.2,90.5,2023.2,96"/>
								<path class="st7" d="M2070.5,32c0,5.5-4.5,10-10,10s-10-4.5-10-10s4.5-10,10-10S2070.5,26.5,2070.5,32"/>
								<path class="st7" d="M2070.5,96c0,5.5-4.5,10-10,10s-10-4.5-10-10s4.5-10,10-10S2070.5,90.5,2070.5,96"/>
								<path class="st7" d="M2117.9,32c0,5.5-4.5,10-10,10s-10-4.5-10-10s4.5-10,10-10S2117.9,26.5,2117.9,32"/>
								<path class="st6" d="M2117.9,96c0,5.5-4.5,10-10,10s-10-4.5-10-10s4.5-10,10-10S2117.9,90.5,2117.9,96"/>
								<path class="st7" d="M2165.3,32c0,5.5-4.5,10-10,10s-10-4.5-10-10s4.5-10,10-10S2165.3,26.5,2165.3,32"/>
								<path class="st7" d="M2165.3,96c0,5.5-4.5,10-10,10s-10-4.5-10-10s4.5-10,10-10S2165.3,90.5,2165.3,96"/>
								<path class="st7" d="M2212.6,32c0,5.5-4.5,10-10,10s-10-4.5-10-10s4.5-10,10-10S2212.6,26.5,2212.6,32"/>
								<path class="st7" d="M2212.6,96c0,5.5-4.5,10-10,10s-10-4.5-10-10s4.5-10,10-10S2212.6,90.5,2212.6,96"/>
								<path class="st7" d="M2260,32c0,5.5-4.5,10-10,10s-10-4.5-10-10s4.5-10,10-10S2260,26.5,2260,32"/>
								<path class="st6" d="M2260,96c0,5.5-4.5,10-10,10s-10-4.5-10-10s4.5-10,10-10S2260,90.5,2260,96"/>
								<path class="st7" d="M2307.4,32c0,5.5-4.5,10-10,10s-10-4.5-10-10s4.5-10,10-10S2307.4,26.5,2307.4,32"/>
								<path class="st7" d="M2307.4,96c0,5.5-4.5,10-10,10s-10-4.5-10-10s4.5-10,10-10S2307.4,90.5,2307.4,96"/>
								<path class="st6" d="M2354.7,32c0,5.5-4.5,10-10,10s-10-4.5-10-10s4.5-10,10-10S2354.7,26.5,2354.7,32"/>
								<path class="st7" d="M2354.7,96c0,5.5-4.5,10-10,10s-10-4.5-10-10s4.5-10,10-10S2354.7,90.5,2354.7,96"/>
								<path class="st7" d="M2402.1,32c0,5.5-4.5,10-10,10s-10-4.5-10-10s4.5-10,10-10S2402.1,26.5,2402.1,32"/>
								<path class="st7" d="M2402.1,96c0,5.5-4.5,10-10,10s-10-4.5-10-10s4.5-10,10-10S2402.1,90.5,2402.1,96"/>
								<path class="st7" d="M2449.5,32c0,5.5-4.5,10-10,10s-10-4.5-10-10s4.5-10,10-10S2449.5,26.5,2449.5,32"/>
								<path class="st7" d="M2449.5,96c0,5.5-4.5,10-10,10s-10-4.5-10-10s4.5-10,10-10S2449.5,90.5,2449.5,96"/>
								<path class="st6" d="M2496.8,32c0,5.5-4.5,10-10,10s-10-4.5-10-10s4.5-10,10-10S2496.8,26.5,2496.8,32"/>
								<path class="st7" d="M2496.8,96c0,5.5-4.5,10-10,10s-10-4.5-10-10s4.5-10,10-10S2496.8,90.5,2496.8,96"/>
								<path class="st6" d="M2544.2,32c0,5.5-4.5,10-10,10s-10-4.5-10-10s4.5-10,10-10S2544.2,26.5,2544.2,32"/>
								<path class="st7" d="M2544.2,96c0,5.5-4.5,10-10,10s-10-4.5-10-10s4.5-10,10-10S2544.2,90.5,2544.2,96"/>
								<path class="st7" d="M2591.6,32c0,5.5-4.5,10-10,10s-10-4.5-10-10s4.5-10,10-10S2591.6,26.5,2591.6,32"/>
								<path class="st7" d="M2591.6,96c0,5.5-4.5,10-10,10s-10-4.5-10-10s4.5-10,10-10S2591.6,90.5,2591.6,96"/>
								<path class="st7" d="M2638.9,32c0,5.5-4.5,10-10,10s-10-4.5-10-10s4.5-10,10-10S2638.9,26.5,2638.9,32"/>
								<path class="st7" d="M2638.9,96c0,5.5-4.5,10-10,10s-10-4.5-10-10s4.5-10,10-10S2638.9,90.5,2638.9,96"/>
								<path class="st7" d="M2686.3,32c0,5.5-4.5,10-10,10s-10-4.5-10-10s4.5-10,10-10S2686.3,26.5,2686.3,32"/>
								<path class="st7" d="M2686.3,96c0,5.5-4.5,10-10,10s-10-4.5-10-10s4.5-10,10-10S2686.3,90.5,2686.3,96"/>
							</g>
							<g pointer-events="none">
								<path class="st18" d="M34.1,32c0,5.7-4.6,10.4-10.4,10.4S13.3,37.7,13.3,32S18,21.6,23.7,21.6S34.1,26.3,34.1,32"/>
								<path class="st18" d="M34.1,96c0,5.7-4.6,10.4-10.4,10.4S13.3,101.7,13.3,96S18,85.6,23.7,85.6S34.1,90.3,34.1,96"/>
								<path class="st18" d="M128.8,32c0,5.7-4.6,10.4-10.4,10.4s-10.4-4.6-10.4-10.4s4.6-10.4,10.4-10.4S128.8,26.3,128.8,32"/>
								<path class="st18" d="M176.2,96c0,5.7-4.6,10.4-10.4,10.4s-10.4-4.6-10.4-10.4s4.6-10.4,10.4-10.4S176.2,90.3,176.2,96"/>
								<path class="st18" d="M223.5,32c0,5.7-4.6,10.4-10.4,10.4s-10.4-4.6-10.4-10.4s4.6-10.4,10.4-10.4S223.5,26.3,223.5,32"/>
								<path class="st18" d="M223.5,96c0,5.7-4.6,10.4-10.4,10.4s-10.4-4.6-10.4-10.4s4.6-10.4,10.4-10.4S223.5,90.3,223.5,96"/>
								<path class="st18" d="M270.9,96c0,5.7-4.6,10.4-10.4,10.4c-5.7,0-10.4-4.6-10.4-10.4s4.6-10.4,10.4-10.4
									C266.3,85.6,270.9,90.3,270.9,96"/>
								<path class="st18" d="M318.3,32c0,5.7-4.6,10.4-10.4,10.4s-10.4-4.6-10.4-10.4s4.6-10.4,10.4-10.4S318.3,26.3,318.3,32"/>
								<path class="st18" d="M318.3,96c0,5.7-4.6,10.4-10.4,10.4s-10.4-4.6-10.4-10.4s4.6-10.4,10.4-10.4S318.3,90.3,318.3,96"/>
								<path class="st18" d="M365.6,32c0,5.7-4.6,10.4-10.4,10.4s-10.4-4.6-10.4-10.4s4.6-10.4,10.4-10.4S365.6,26.3,365.6,32"/>
								<path class="st18" d="M365.6,96c0,5.7-4.6,10.4-10.4,10.4s-10.4-4.6-10.4-10.4s4.6-10.4,10.4-10.4S365.6,90.3,365.6,96"/>
								<path class="st18" d="M413,96c0,5.7-4.6,10.4-10.4,10.4s-10.4-4.6-10.4-10.4s4.6-10.4,10.4-10.4S413,90.3,413,96"/>
								<path class="st18" d="M602.5,32c0,5.7-4.6,10.4-10.4,10.4s-10.4-4.6-10.4-10.4s4.6-10.4,10.4-10.4S602.5,26.3,602.5,32"/>
								<path class="st18" d="M649.8,96c0,5.7-4.6,10.4-10.4,10.4s-10.4-4.6-10.4-10.4s4.6-10.4,10.4-10.4S649.8,90.3,649.8,96"/>
								<path class="st18" d="M934.1,96c0,5.7-4.6,10.4-10.4,10.4s-10.4-4.6-10.4-10.4s4.6-10.4,10.4-10.4S934.1,90.3,934.1,96"/>
								<path class="st18" d="M981.4,32c0,5.7-4.6,10.4-10.4,10.4s-10.4-4.6-10.4-10.4s4.6-10.4,10.4-10.4S981.4,26.3,981.4,32"/>
								<path class="st18" d="M981.4,96c0,5.7-4.6,10.4-10.4,10.4s-10.4-4.6-10.4-10.4s4.6-10.4,10.4-10.4S981.4,90.3,981.4,96"/>
								<path class="st18" d="M1028.8,32c0,5.7-4.6,10.4-10.4,10.4c-5.7,0-10.4-4.6-10.4-10.4s4.6-10.4,10.4-10.4
									C1024.1,21.6,1028.8,26.3,1028.8,32"/>
								<path class="st18" d="M1123.5,96c0,5.7-4.6,10.4-10.4,10.4s-10.4-4.6-10.4-10.4s4.6-10.4,10.4-10.4S1123.5,90.3,1123.5,96"
									/>
								<path class="st18" d="M1170.9,96c0,5.7-4.6,10.4-10.4,10.4s-10.4-4.6-10.4-10.4s4.6-10.4,10.4-10.4S1170.9,90.3,1170.9,96"
									/>
								<path class="st18" d="M1265.6,32c0,5.7-4.6,10.4-10.4,10.4s-10.4-4.6-10.4-10.4s4.6-10.4,10.4-10.4S1265.6,26.3,1265.6,32"
									/>
								<path class="st18" d="M1313,32c0,5.7-4.6,10.4-10.4,10.4s-10.4-4.6-10.4-10.4s4.6-10.4,10.4-10.4S1313,26.3,1313,32"/>
								<path class="st18" d="M1455.1,32c0,5.7-4.6,10.4-10.4,10.4s-10.4-4.6-10.4-10.4s4.6-10.4,10.4-10.4S1455.1,26.3,1455.1,32"
									/>
								<path class="st18" d="M1597.2,96c0,5.7-4.6,10.4-10.4,10.4s-10.4-4.6-10.4-10.4s4.6-10.4,10.4-10.4S1597.2,90.3,1597.2,96"
									/>
								<path class="st18" d="M1691.9,96c0,5.7-4.6,10.4-10.4,10.4s-10.4-4.6-10.4-10.4s4.6-10.4,10.4-10.4S1691.9,90.3,1691.9,96"
									/>
								<path class="st18" d="M1739.3,96c0,5.7-4.6,10.4-10.4,10.4s-10.4-4.6-10.4-10.4s4.6-10.4,10.4-10.4S1739.3,90.3,1739.3,96"
									/>
								<path class="st18" d="M1928.8,32c0,5.7-4.6,10.4-10.4,10.4s-10.4-4.6-10.4-10.4s4.6-10.4,10.4-10.4S1928.8,26.3,1928.8,32"
									/>
								<path class="st18" d="M1928.8,96c0,5.7-4.6,10.4-10.4,10.4s-10.4-4.6-10.4-10.4s4.6-10.4,10.4-10.4S1928.8,90.3,1928.8,96"
									/>
								<path class="st18" d="M1976.2,96c0,5.7-4.6,10.4-10.4,10.4s-10.4-4.6-10.4-10.4s4.6-10.4,10.4-10.4S1976.2,90.3,1976.2,96"
									/>
								<path class="st18" d="M2023.5,32c0,5.7-4.6,10.4-10.4,10.4s-10.4-4.6-10.4-10.4s4.6-10.4,10.4-10.4S2023.5,26.3,2023.5,32"
									/>
								<path class="st18" d="M2118.3,32c0,5.7-4.6,10.4-10.4,10.4s-10.4-4.6-10.4-10.4s4.6-10.4,10.4-10.4S2118.3,26.3,2118.3,32"
									/>
								<path class="st18" d="M2260.4,32c0,5.7-4.6,10.4-10.4,10.4s-10.4-4.6-10.4-10.4s4.6-10.4,10.4-10.4S2260.4,26.3,2260.4,32"
									/>
								<path class="st18" d="M2355.1,96c0,5.7-4.6,10.4-10.4,10.4s-10.4-4.6-10.4-10.4s4.6-10.4,10.4-10.4S2355.1,90.3,2355.1,96"
									/>
								<path class="st18" d="M2402.5,32c0,5.7-4.6,10.4-10.4,10.4s-10.4-4.6-10.4-10.4s4.6-10.4,10.4-10.4S2402.5,26.3,2402.5,32"
									/>
								<path class="st18" d="M2402.5,96c0,5.7-4.6,10.4-10.4,10.4s-10.4-4.6-10.4-10.4s4.6-10.4,10.4-10.4S2402.5,90.3,2402.5,96"
									/>
								<path class="st18" d="M2449.8,32c0,5.7-4.6,10.4-10.4,10.4s-10.4-4.6-10.4-10.4s4.6-10.4,10.4-10.4S2449.8,26.3,2449.8,32"
									/>
								<path class="st18" d="M2449.8,96c0,5.7-4.6,10.4-10.4,10.4s-10.4-4.6-10.4-10.4s4.6-10.4,10.4-10.4S2449.8,90.3,2449.8,96"
									/>
								<path class="st18" d="M2497.2,96c0,5.7-4.6,10.4-10.4,10.4s-10.4-4.6-10.4-10.4s4.6-10.4,10.4-10.4S2497.2,90.3,2497.2,96"
									/>
								<path class="st18" d="M2544.6,96c0,5.7-4.6,10.4-10.4,10.4s-10.4-4.6-10.4-10.4s4.6-10.4,10.4-10.4S2544.6,90.3,2544.6,96"
									/>
							</g>
						</g>
						<path class="st19" d="M0,0"/>
					</g>
				</g>
			</g>
			<path class="st19" d="M0,0"/>
		</g>
	</g>
</g>
<g>
	<line x1="682.9" y1="53.3" x2="686.7" y2="691.3"/>
	<g>
		<line class="st20" x1="682.9" y1="53.3" x2="682.9" y2="60.8"/>
		<line class="st21" x1="683" y1="76" x2="686.6" y2="676.2"/>
		<line class="st20" x1="686.6" y1="683.8" x2="686.7" y2="691.3"/>
	</g>
</g>
<g>
	<line x1="2151.3" y1="52.3" x2="2155.1" y2="690.3"/>
	<g>
		<line class="st20" x1="2151.3" y1="52.3" x2="2151.3" y2="59.8"/>
		<line class="st21" x1="2151.4" y1="75" x2="2155" y2="675.2"/>
		<line class="st20" x1="2155" y1="682.8" x2="2155.1" y2="690.3"/>
	</g>
</g>
<text transform="matrix(1 0 0 1 604.6317 154.3605)" class="st22 st23">High</text>
<text transform="matrix(1 0 0 1 1401.4109 142.7581)" class="st22 st23">Medium</text>
<text transform="matrix(1 0 0 1 2167.4211 143.0877)" class="st22 st23">Low</text>
</svg>
