<?xml version="1.0" encoding="UTF-8"?>
<svg id="Layer_1" data-name="Layer 1" xmlns="http://www.w3.org/2000/svg" viewBox="0 0 3033 1069">
  <defs>
    <style>
      .cls-1, .cls-2, .cls-3, .cls-4, .cls-5 {
        fill: none;
      }

      .cls-6 {
        letter-spacing: -.09em;
      }

      .cls-7 {
        letter-spacing: 0em;
      }

      .cls-8 {
        letter-spacing: -.02em;
      }

      .cls-9 {
        fill: #f7f7f7;
      }

      .cls-10 {
        fill: #e6e6e6;
      }

      .cls-11 {
        fill: #fff;
      }

      .cls-12, .cls-13, .cls-14 {
        fill: #b80000;
      }

      .cls-15, .cls-16, .cls-17 {
        fill: #3b528b;
      }

      .cls-18 {
        letter-spacing: .01em;
      }

      .cls-19, .cls-20, .cls-13, .cls-16, .cls-21, .cls-14, .cls-22, .cls-17, .cls-23 {
        isolation: isolate;
      }

      .cls-19, .cls-21 {
        font-family: Helvetica, Helvetica;
      }

      .cls-19, .cls-14, .cls-17, .cls-23 {
        font-size: 20px;
      }

      .cls-2 {
        stroke-dasharray: 0 0 15.2 15.2;
      }

      .cls-2, .cls-3, .cls-4, .cls-5 {
        stroke-miterlimit: 10;
      }

      .cls-2, .cls-4 {
        stroke: #000;
        stroke-width: 4px;
      }

      .cls-20 {
        font-size: 23px;
      }

      .cls-20, .cls-14, .cls-22, .cls-17, .cls-23 {
        font-family: Helvetica-Bold, Helvetica;
        font-weight: 700;
      }

      .cls-24 {
        letter-spacing: 0em;
      }

      .cls-13, .cls-16 {
        opacity: .7;
      }

      .cls-25 {
        letter-spacing: -.07em;
      }

      .cls-26 {
        letter-spacing: -.05em;
      }

      .cls-3 {
        stroke: #5ec962;
        stroke-width: 2px;
      }

      .cls-27 {
        letter-spacing: -.01em;
      }

      .cls-21 {
        font-size: 26px;
      }

      .cls-28 {
        letter-spacing: 0em;
      }

      .cls-29 {
        font-family: MyriadPro-Regular, 'Myriad Pro';
        font-size: 30px;
      }

      .cls-30 {
        letter-spacing: -.11em;
      }

      .cls-5 {
        stroke: #888;
      }

      .cls-22 {
        font-size: 35px;
      }
    </style>
  </defs>
  <rect class="cls-11" width="3033" height="1069"/>
  <g>
    <g>
      <g>
        <path class="cls-1" d="m145,54h2700v480H145V54Z"/>
        <g>
          <g pointer-events="none">
            <line class="cls-5" x1="145.5" y1="534.5" x2="2845.5" y2="534.5"/>
          </g>
          <g>
            <g pointer-events="none">
              <line class="cls-5" x1="145.5" y1="534.5" x2="140.5" y2="534.5"/>
              <line class="cls-5" x1="145.5" y1="504.5" x2="140.5" y2="504.5"/>
              <line class="cls-5" x1="145.5" y1="474.5" x2="140.5" y2="474.5"/>
              <line class="cls-5" x1="145.5" y1="444.5" x2="140.5" y2="444.5"/>
              <line class="cls-5" x1="145.5" y1="414.5" x2="140.5" y2="414.5"/>
              <line class="cls-5" x1="145.5" y1="384.5" x2="140.5" y2="384.5"/>
              <line class="cls-5" x1="145.5" y1="354.5" x2="140.5" y2="354.5"/>
              <line class="cls-5" x1="145.5" y1="324.5" x2="140.5" y2="324.5"/>
              <line class="cls-5" x1="145.5" y1="294.5" x2="140.5" y2="294.5"/>
              <line class="cls-5" x1="145.5" y1="264.5" x2="140.5" y2="264.5"/>
              <line class="cls-5" x1="145.5" y1="234.5" x2="140.5" y2="234.5"/>
              <line class="cls-5" x1="145.5" y1="204.5" x2="140.5" y2="204.5"/>
              <line class="cls-5" x1="145.5" y1="174.5" x2="140.5" y2="174.5"/>
              <line class="cls-5" x1="145.5" y1="144.5" x2="140.5" y2="144.5"/>
              <line class="cls-5" x1="145.5" y1="114.5" x2="140.5" y2="114.5"/>
              <line class="cls-5" x1="145.5" y1="84.5" x2="140.5" y2="84.5"/>
              <line class="cls-5" x1="145.5" y1="54.5" x2="140.5" y2="54.5"/>
            </g>
            <g pointer-events="none">
              <text class="cls-19" transform="translate(127.38 540.5)"><tspan x="0" y="0">0</tspan></text>
              <text class="cls-19" transform="translate(127.38 510.5)"><tspan x="0" y="0">5</tspan></text>
              <text class="cls-19" transform="translate(116.25 480.5)"><tspan x="0" y="0">10</tspan></text>
              <text class="cls-19" transform="translate(116.25 450.5)"><tspan x="0" y="0">15</tspan></text>
              <text class="cls-19" transform="translate(116.25 420.5)"><tspan x="0" y="0">20</tspan></text>
              <text class="cls-19" transform="translate(116.25 390.5)"><tspan x="0" y="0">25</tspan></text>
              <text class="cls-19" transform="translate(116.25 360.5)"><tspan x="0" y="0">30</tspan></text>
              <text class="cls-19" transform="translate(116.25 330.5)"><tspan x="0" y="0">35</tspan></text>
              <text class="cls-19" transform="translate(116.25 300.5)"><tspan x="0" y="0">40</tspan></text>
              <text class="cls-19" transform="translate(116.25 270.5)"><tspan x="0" y="0">45</tspan></text>
              <text class="cls-19" transform="translate(116.25 240.5)"><tspan x="0" y="0">50</tspan></text>
              <text class="cls-19" transform="translate(116.25 210.5)"><tspan x="0" y="0">55</tspan></text>
              <text class="cls-19" transform="translate(116.25 180.5)"><tspan x="0" y="0">60</tspan></text>
              <text class="cls-19" transform="translate(116.25 150.5)"><tspan x="0" y="0">65</tspan></text>
              <text class="cls-19" transform="translate(116.25 120.5)"><tspan x="0" y="0">70</tspan></text>
              <text class="cls-19" transform="translate(116.25 90.5)"><tspan x="0" y="0">75</tspan></text>
              <text class="cls-19" transform="translate(116.25 60.5)"><tspan x="0" y="0">80</tspan></text>
            </g>
            <g pointer-events="none">
              <line class="cls-5" x1="145.5" y1="534.5" x2="145.5" y2="54.5"/>
            </g>
          </g>
          <g>
            <path class="cls-15" d="m148.68,97.62h40v436.38h-40V97.62Z"/>
            <path class="cls-12" d="m196.05,106.14h40v427.86h-40V106.14Z"/>
            <path class="cls-12" d="m243.42,125.4h40v408.6h-40V125.4Z"/>
            <path class="cls-12" d="m290.79,131.58h40v402.42h-40V131.58Z"/>
            <path class="cls-15" d="m338.16,133.26h40v400.74h-40V133.26Z"/>
            <path class="cls-15" d="m385.53,145.8h40v388.2h-40V145.8Z"/>
            <path class="cls-15" d="m432.89,146.04h40v387.96h-40V146.04Z"/>
            <path class="cls-15" d="m480.26,147.96h40v386.04h-40V147.96Z"/>
            <path class="cls-15" d="m527.63,153.6h40v380.4h-40V153.6Z"/>
            <path class="cls-12" d="m575,153.72h40v380.28h-40V153.72Z"/>
            <path class="cls-12" d="m622.37,153.78h40v380.22h-40V153.78Z"/>
            <path class="cls-15" d="m669.74,157.68h40v376.32h-40V157.68Z"/>
            <path class="cls-15" d="m717.11,159.06h40v374.94h-40V159.06Z"/>
            <path class="cls-12" d="m764.47,159.84h40v374.16h-40V159.84Z"/>
            <path class="cls-15" d="m811.84,160.56h40v373.44h-40V160.56Z"/>
            <path class="cls-12" d="m859.21,162.6h40v371.4h-40V162.6Z"/>
            <path class="cls-12" d="m906.58,165.96h40v368.04h-40V165.96Z"/>
            <path class="cls-12" d="m953.95,169.86h40v364.14h-40V169.86Z"/>
            <path class="cls-12" d="m1001.32,170.1h40v363.9h-40V170.1Z"/>
            <path class="cls-12" d="m1048.68,171.66h40v362.34h-40V171.66Z"/>
            <path class="cls-15" d="m1096.05,172.32h40v361.68h-40V172.32Z"/>
            <path class="cls-12" d="m1143.42,172.56h40v361.44h-40V172.56Z"/>
            <path class="cls-15" d="m1190.79,173.28h40v360.72h-40V173.28Z"/>
            <path class="cls-12" d="m1238.16,178.44h40v355.56h-40V178.44Z"/>
            <path class="cls-12" d="m1285.53,183.3h40v350.7h-40V183.3Z"/>
            <path class="cls-12" d="m1332.89,193.8h40v340.2h-40V193.8Z"/>
            <path class="cls-12" d="m1380.26,193.92h40v340.08h-40V193.92Z"/>
            <path class="cls-12" d="m1427.63,195.42h40v338.58h-40V195.42Z"/>
            <path class="cls-12" d="m1475,201.84h40v332.16h-40V201.84Z"/>
            <path class="cls-12" d="m1522.37,208.44h40v325.56h-40V208.44Z"/>
            <path class="cls-12" d="m1569.74,210.42h40v323.58h-40V210.42Z"/>
            <path class="cls-15" d="m1617.11,211.14h40v322.86h-40V211.14Z"/>
            <path class="cls-15" d="m1664.47,212.4h40v321.6h-40V212.4Z"/>
            <path class="cls-12" d="m1711.84,220.62h40v313.38h-40V220.62Z"/>
            <path class="cls-15" d="m1759.21,225.72h40v308.28h-40V225.72Z"/>
            <path class="cls-15" d="m1806.58,226.02h40v307.98h-40V226.02Z"/>
            <path class="cls-12" d="m1853.95,228.66h40v305.34h-40V228.66Z"/>
            <path class="cls-15" d="m1901.32,229.26h40v304.74h-40V229.26Z"/>
            <path class="cls-12" d="m1948.68,237.18h40v296.82h-40V237.18Z"/>
            <path class="cls-15" d="m1996.05,240.18h40v293.82h-40V240.18Z"/>
            <path class="cls-12" d="m2043.42,256.14h40v277.86h-40v-277.86Z"/>
            <path class="cls-15" d="m2090.79,261.06h40v272.94h-40v-272.94Z"/>
            <path class="cls-12" d="m2138.16,262.86h40v271.14h-40v-271.14Z"/>
            <path class="cls-15" d="m2185.53,262.86h40v271.14h-40v-271.14Z"/>
            <path class="cls-15" d="m2232.89,265.5h40v268.5h-40v-268.5Z"/>
            <path class="cls-12" d="m2280.26,280.8h40v253.2h-40v-253.2Z"/>
            <path class="cls-15" d="m2327.63,281.34h40v252.66h-40v-252.66Z"/>
            <path class="cls-15" d="m2375,283.32h40v250.68h-40v-250.68Z"/>
            <path class="cls-15" d="m2422.37,300.06h40v233.94h-40v-233.94Z"/>
            <path class="cls-15" d="m2469.74,300.72h40v233.28h-40v-233.28Z"/>
            <path class="cls-12" d="m2517.11,301.8h40v232.2h-40v-232.2Z"/>
            <path class="cls-15" d="m2564.47,302.94h40v231.06h-40v-231.06Z"/>
            <path class="cls-12" d="m2611.84,304.2h40v229.8h-40v-229.8Z"/>
            <path class="cls-12" d="m2659.21,327.42h40v206.58h-40v-206.58Z"/>
            <path class="cls-12" d="m2706.58,330.42h40v203.58h-40v-203.58Z"/>
            <path class="cls-12" d="m2753.95,336.06h40v197.94h-40v-197.94Z"/>
            <path class="cls-15" d="m2801.32,363.72h40v170.28h-40v-170.28Z"/>
          </g>
          <g>
            <text class="cls-17" transform="translate(157.56 93.62)"><tspan x="0" y="0">73</tspan></text>
            <text class="cls-14" transform="translate(204.93 102.14)"><tspan x="0" y="0">71</tspan></text>
            <text class="cls-14" transform="translate(252.3 121.4)"><tspan x="0" y="0">68</tspan></text>
            <text class="cls-14" transform="translate(299.67 127.58)"><tspan x="0" y="0">67</tspan></text>
            <text class="cls-17" transform="translate(347.03 129.26)"><tspan x="0" y="0">67</tspan></text>
            <text class="cls-17" transform="translate(394.4 141.8)"><tspan x="0" y="0">65</tspan></text>
            <text class="cls-17" transform="translate(441.77 142.04)"><tspan x="0" y="0">65</tspan></text>
            <text class="cls-17" transform="translate(489.14 143.96)"><tspan x="0" y="0">64</tspan></text>
            <text class="cls-17" transform="translate(536.51 149.6)"><tspan x="0" y="0">63</tspan></text>
            <text class="cls-14" transform="translate(583.88 149.72)"><tspan x="0" y="0">63</tspan></text>
            <text class="cls-14" transform="translate(631.25 149.78)"><tspan x="0" y="0">63</tspan></text>
            <text class="cls-17" transform="translate(678.61 153.68)"><tspan x="0" y="0">63</tspan></text>
            <text class="cls-17" transform="translate(725.98 155.06)"><tspan x="0" y="0">62</tspan></text>
            <text class="cls-14" transform="translate(773.35 155.84)"><tspan x="0" y="0">62</tspan></text>
            <text class="cls-17" transform="translate(820.72 156.56)"><tspan x="0" y="0">62</tspan></text>
            <text class="cls-14" transform="translate(868.09 158.6)"><tspan x="0" y="0">62</tspan></text>
            <text class="cls-14" transform="translate(915.46 161.96)"><tspan x="0" y="0">61</tspan></text>
            <text class="cls-14" transform="translate(962.82 165.86)"><tspan x="0" y="0">61</tspan></text>
            <text class="cls-14" transform="translate(1010.19 166.1)"><tspan x="0" y="0">61</tspan></text>
            <text class="cls-14" transform="translate(1057.56 167.66)"><tspan x="0" y="0">60</tspan></text>
            <text class="cls-17" transform="translate(1104.93 168.32)"><tspan x="0" y="0">60</tspan></text>
            <text class="cls-14" transform="translate(1152.3 168.56)"><tspan x="0" y="0">60</tspan></text>
            <text class="cls-17" transform="translate(1199.67 169.28)"><tspan x="0" y="0">60</tspan></text>
            <text class="cls-14" transform="translate(1247.03 174.44)"><tspan x="0" y="0">59</tspan></text>
            <text class="cls-14" transform="translate(1294.4 179.3)"><tspan x="0" y="0">58</tspan></text>
            <text class="cls-14" transform="translate(1341.77 189.8)"><tspan x="0" y="0">57</tspan></text>
            <text class="cls-14" transform="translate(1389.14 189.92)"><tspan x="0" y="0">57</tspan></text>
            <text class="cls-14" transform="translate(1436.51 191.42)"><tspan x="0" y="0">56</tspan></text>
            <text class="cls-14" transform="translate(1483.88 197.84)"><tspan x="0" y="0">55</tspan></text>
            <text class="cls-14" transform="translate(1531.25 204.44)"><tspan x="0" y="0">54</tspan></text>
            <text class="cls-14" transform="translate(1578.61 206.42)"><tspan x="0" y="0">54</tspan></text>
            <text class="cls-17" transform="translate(1625.98 207.14)"><tspan x="0" y="0">54</tspan></text>
            <text class="cls-17" transform="translate(1673.35 208.4)"><tspan x="0" y="0">54</tspan></text>
            <text class="cls-14" transform="translate(1720.72 216.62)"><tspan x="0" y="0">52</tspan></text>
            <text class="cls-17" transform="translate(1768.09 221.72)"><tspan x="0" y="0">51</tspan></text>
            <text class="cls-17" transform="translate(1815.46 222.02)"><tspan x="0" y="0">51</tspan></text>
            <text class="cls-14" transform="translate(1862.82 224.66)"><tspan x="0" y="0">51</tspan></text>
            <text class="cls-17" transform="translate(1910.19 225.26)"><tspan x="0" y="0">51</tspan></text>
            <text class="cls-14" transform="translate(1957.56 233.18)"><tspan x="0" y="0">49</tspan></text>
            <text class="cls-17" transform="translate(2004.93 236.18)"><tspan x="0" y="0">49</tspan></text>
            <text class="cls-14" transform="translate(2052.3 252.14)"><tspan x="0" y="0">46</tspan></text>
            <text class="cls-17" transform="translate(2099.67 257.06)"><tspan x="0" y="0">45</tspan></text>
            <text class="cls-14" transform="translate(2147.03 258.86)"><tspan x="0" y="0">45</tspan></text>
            <text class="cls-17" transform="translate(2194.4 258.86)"><tspan x="0" y="0">45</tspan></text>
            <text class="cls-17" transform="translate(2241.77 261.5)"><tspan x="0" y="0">45</tspan></text>
            <text class="cls-14" transform="translate(2289.14 276.8)"><tspan x="0" y="0">42</tspan></text>
            <text class="cls-17" transform="translate(2336.51 277.34)"><tspan x="0" y="0">42</tspan></text>
            <text class="cls-17" transform="translate(2383.88 279.32)"><tspan x="0" y="0">42</tspan></text>
            <text class="cls-17" transform="translate(2431.25 296.06)"><tspan x="0" y="0">39</tspan></text>
            <text class="cls-17" transform="translate(2478.61 296.72)"><tspan x="0" y="0">39</tspan></text>
            <text class="cls-14" transform="translate(2525.98 297.8)"><tspan x="0" y="0">39</tspan></text>
            <text class="cls-17" transform="translate(2573.35 298.94)"><tspan x="0" y="0">39</tspan></text>
            <text class="cls-14" transform="translate(2620.72 300.2)"><tspan x="0" y="0">38</tspan></text>
            <text class="cls-14" transform="translate(2668.09 323.42)"><tspan x="0" y="0">34</tspan></text>
            <text class="cls-14" transform="translate(2715.46 326.42)"><tspan x="0" y="0">34</tspan></text>
            <text class="cls-14" transform="translate(2762.82 332.06)"><tspan x="0" y="0">33</tspan></text>
            <text class="cls-17" transform="translate(2810.19 359.72)"><tspan x="0" y="0">28</tspan></text>
          </g>
          <path class="cls-3" d="m2821.32,217.92l-47.37-23.82-47.37,28.98-47.37-19.02-47.37-14.82-47.37,28.5-47.37-21.42-47.37-30.06-47.37,37.14-47.37,7.02-47.37-4.8-47.37,19.44-47.37-27.6-94.74-33.78,47.37,55.08-94.74-14.7-47.37,16.2-47.37-19.5-47.37-25.02-47.37,30.78-47.37,11.52-47.37-14.94-47.37,1.74-47.37,9.84-47.37-3.72-47.37-16.68-47.37-41.94-47.37,1.74-47.37,3.18-47.37-8.1-47.37,5.52h-47.37l-47.37,29.22-47.37-15.96-47.37,19.56-47.37-2.64-47.37,21.9-47.37-57.24-47.37,2.46-47.37-.54-47.37,60.72-47.37-5.1-47.37-26.64-47.37,3.72-47.37,26.4-47.37-30.12-47.37,9.18-47.37,1.56-47.37,12.66-47.37-21.78-47.37-3.9-47.37-27.3-47.37,33-47.37-25.02-47.37-2.4-47.37,23.7-47.37,2.7"/>
          <g pointer-events="none">
            <text class="cls-22" transform="translate(1397.79 33)"><tspan x="0" y="0">GC Content</tspan></text>
          </g>
        </g>
      </g>
      <g>
        <path class="cls-1" d="m2865,54h20v60h-20v-60Z"/>
        <g>
          <g>
            <g pointer-events="none">
              <line class="cls-5" x1="2885.5" y1="69.5" x2="2890.5" y2="69.5"/>
              <line class="cls-5" x1="2885.5" y1="99.5" x2="2890.5" y2="99.5"/>
            </g>
            <g pointer-events="none">
              <text class="cls-21" transform="translate(2892.5 77.5)"><tspan x="0" y="0">Hot Springs</tspan></text>
              <text class="cls-21" transform="translate(2892.5 107.5)"><tspan x="0" y="0">MBARC</tspan></text>
            </g>
            <g pointer-events="none">
              <line class="cls-5" x1="2885.5" y1="54.5" x2="2885.5" y2="114.5"/>
            </g>
          </g>
          <g pointer-events="none">
            <path class="cls-16" d="m2865,89h20v20h-20v-20Z"/>
          </g>
          <g pointer-events="none">
            <path class="cls-13" d="m2865,59h20v20h-20v-20Z"/>
          </g>
        </g>
      </g>
    </g>
    <g>
      <path class="cls-1" d="m145,564h2700v128H145v-128Z"/>
      <g>
        <g>
          <g pointer-events="none">
            <text class="cls-19" transform="translate(17.28 868.53) rotate(-45)"><tspan x="0" y="0">Nocardiopsis_dassonvillei</tspan></text>
            <text class="cls-19" transform="translate(29.25 903.93) rotate(-45)"><tspan x="0" y="0">Elioraea tepidiphila DSM 17972</tspan></text>
            <text class="cls-19" transform="translate(87.9 892.64) rotate(-45)"><tspan x="0" y="0">Thermus aquaticus</tspan><tspan class="cls-8" x="170.08" y="0"> </tspan><tspan x="175.28" y="0">Y51MC23</tspan></text>
            <text class="cls-19" transform="translate(118.54 909.38) rotate(-45)"><tspan x="0" y="0">Thermus brockianus strain GE-1</tspan></text>
            <text class="cls-19" transform="translate(228.74 846.54) rotate(-45)"><tspan x="0" y="0">Segniliparus_rotundus</tspan></text>
            <text class="cls-19" transform="translate(335.87 786.79) rotate(-45)"><tspan x="0" y="0">Olsenella_uli</tspan></text>
            <text class="cls-19" transform="translate(310.14 859.89) rotate(-45)"><tspan x="0" y="0">Natronococcus_occultus</tspan></text>
            <text class="cls-19" transform="translate(409.39 808) rotate(-45)"><tspan x="0" y="0">Halovivax_ruber</tspan></text>
            <text class="cls-19" transform="translate(443.38 821.37) rotate(-45)"><tspan x="0" y="0">Frateuria_aurantia</tspan></text>
            <text class="cls-19" transform="translate(416.89 895.24) rotate(-45)"><tspan x="0" y="0">Meiothermus ruber DSM 1279</tspan></text>
            <text class="cls-19" transform="translate(438.33 921.17) rotate(-45)"><tspan x="0" y="0">Meiothermus taiwanensis WR-220</tspan></text>
            <text class="cls-19" transform="translate(560.35 846.51) rotate(-45)"><tspan x="0" y="0">Meiothermus_silvanus</tspan></text>
            <text class="cls-19" transform="translate(604.56 849.67) rotate(-45)"><tspan x="0" y="0">Pseudomonas_stutzeri</tspan></text>
            <text class="cls-19" transform="translate(588.28 913.32) rotate(-45)"><tspan x="0" y="0">Meiothermus silvanus DSM 9946</tspan></text>
            <text class="cls-19" transform="translate(671.79 877.18) rotate(-45)"><tspan x="0" y="0">Natronobacterium_gregoryi</tspan></text>
            <text class="cls-19" transform="translate(637.38 958.96) rotate(-45)"><tspan x="0" y="0">Candidatus Solibacter usitatus Ellin6076</tspan></text>
            <text class="cls-19" transform="translate(705.23 938.48) rotate(-45)"><tspan x="0" y="0">Chloracidobacterium thermophilum B</tspan></text>
            <text class="cls-19" transform="translate(755.73 935.35) rotate(-45)"><tspan x="0" y="0">Roseiflexus castenholzii DSM 13941</tspan></text>
            <text class="cls-19" transform="translate(819.63 918.82) rotate(-45)"><tspan x="0" y="0">Chloroflexus islandicus strain isl-2</tspan></text>
            <text class="cls-19" transform="translate(947.95 837.86) rotate(-45)"><tspan x="0" y="0">Roseiflexus sp. RS-1</tspan></text>
            <text class="cls-19" transform="translate(1007.88 825.3) rotate(-45)"><tspan class="cls-30" x="0" y="0">T</tspan><tspan x="10" y="0">erriglobus_roseus</tspan></text>
            <text class="cls-19" transform="translate(990.01 890.54) rotate(-45)"><tspan x="0" y="0">Synechococcus sp. JA-3-3Ab</tspan></text>
            <text class="cls-19" transform="translate(1061.76 866.16) rotate(-45)"><tspan x="0" y="0">Thermobacillus_composti</tspan></text>
            <text class="cls-19" transform="translate(1084 891.28) rotate(-45)"><tspan x="0" y="0">Oscillochloris trichoides DG-6</tspan></text>
            <text class="cls-19" transform="translate(1091.69 930.96) rotate(-45)"><tspan x="0" y="0">Synechococcus sp. JA-2-3B&apos;a(2-13)</tspan></text>
            <text class="cls-19" transform="translate(1165.34 904.68) rotate(-45)"><tspan x="0" y="0">Chloroflexus aurantiacus J-10-fl</tspan></text>
            <text class="cls-19" transform="translate(1204.03 913.36) rotate(-45)"><tspan x="0" y="0">Chloroflexus aurantiacus</tspan><tspan class="cls-8" x="220.12" y="0"> </tspan><tspan class="cls-6" x="225.32" y="0">Y</tspan><tspan x="236.83" y="0">-400-fl</tspan></text>
            <text class="cls-19" transform="translate(1238.83 925.93) rotate(-45)"><tspan x="0" y="0">Chloroflexus aggregans DSM 9485</tspan></text>
            <text class="cls-19" transform="translate(1151.01 1061.12) rotate(-45)"><tspan x="0" y="0">Candidatus Caldatribacterium saccharof. isolate SpSt-82</tspan></text>
            <text class="cls-19" transform="translate(1411.43 848.06) rotate(-45)"><tspan x="0" y="0">Chloroflexus sp. MS-G</tspan></text>
            <text class="cls-19" transform="translate(1446.96 859.91) rotate(-45)"><tspan x="0" y="0">Chloroflexus sp.</tspan><tspan class="cls-8" x="143.4" y="0"> </tspan><tspan class="cls-6" x="148.6" y="0">Y</tspan><tspan x="160.11" y="0">-396-1</tspan></text>
            <text class="cls-19" transform="translate(1460.57 893.67) rotate(-45)"><tspan x="0" y="0">Corynebacterium_glutamicum</tspan></text>
            <text class="cls-19" transform="translate(1509.51 892.09) rotate(-45)"><tspan x="0" y="0">Coraliomargarita_akajimensis</tspan></text>
            <text class="cls-19" transform="translate(1482.17 966.8) rotate(-45)"><tspan x="0" y="0">Gloeomargarita lithophora</tspan><tspan class="cls-26" x="231.24" y="0"> </tspan><tspan x="235.7" y="0">Alchichica-D10</tspan></text>
            <text class="cls-19" transform="translate(1662.38 833.96) rotate(-45)"><tspan x="0" y="0">Salmonella_enterica</tspan></text>
            <text class="cls-19" transform="translate(1712.89 830.82) rotate(-45)"><tspan x="0" y="0">Salmonella_bongori</tspan></text>
            <text class="cls-19" transform="translate(1586.8 1004.28) rotate(-45)"><tspan x="0" y="0">Candidatus</tspan><tspan class="cls-8" x="101.18" y="0"> </tspan><tspan x="106.39" y="0">Thermochlorobacteriaceae GBChlB</tspan></text>
            <text class="cls-19" transform="translate(1898.05 740.4) rotate(-45)"><tspan x="0" y="0">E.coli</tspan></text>
            <text class="cls-19" transform="translate(1725.78 960.03) rotate(-45)"><tspan x="0" y="0">Pseudothermotoga hypogea DSM </tspan><tspan class="cls-25" x="306.86" y="0">11</tspan><tspan x="326.15" y="0">164</tspan></text>
            <text class="cls-19" transform="translate(1862.27 870.91) rotate(-45)"><tspan x="0" y="0">Spirochaeta_smaragdinae</tspan></text>
            <text class="cls-19" transform="translate(1879.74 900.81) rotate(-45)"><tspan x="0" y="0">Pseudanabaena sp. PCC 7367</tspan></text>
            <text class="cls-19" transform="translate(1936.58 891.34) rotate(-45)"><tspan x="0" y="0">Desulfotomaculum_gibsoniae</tspan></text>
            <text class="cls-19" transform="translate(1933.68 941.6) rotate(-45)"><tspan x="0" y="0">Thermocrinis ruber strain DSM 23557</tspan></text>
            <text class="cls-19" transform="translate(2117.02 805.64) rotate(-45)"><tspan x="0" y="0">Hirschia_baltica</tspan></text>
            <text class="cls-19" transform="translate(2109.35 860.67) rotate(-45)"><tspan x="0" y="0">Echinicola_vietnamensis</tspan></text>
            <text class="cls-19" transform="translate(2122.09 895.3) rotate(-45)"><tspan x="0" y="0">Pseudanabaena sp.</tspan><tspan class="cls-26" x="177.93" y="0"> </tspan><tspan x="182.39" y="0">ABRG5-3</tspan></text>
            <text class="cls-19" transform="translate(2168.7 896.06) rotate(-45)"><tspan x="0" y="0">Desulfosporosinus_acidiphilus</tspan></text>
            <text class="cls-19" transform="translate(2232.6 879.53) rotate(-45)"><tspan x="0" y="0">Desulfosporosinus_meridiei</tspan></text>
            <text class="cls-19" transform="translate(2290.21 869.28) rotate(-45)"><tspan x="0" y="0">Clostridium_thermocellum</tspan></text>
            <text class="cls-19" transform="translate(2306.89 899.98) rotate(-45)"><tspan x="0" y="0">Fervidobacterium_pennivorans</tspan></text>
            <text class="cls-19" transform="translate(2336.42 917.81) rotate(-45)"><tspan x="0" y="0">Pseudothermotoga lettingae</tspan><tspan class="cls-8" x="250.18" y="0"> </tspan><tspan x="255.38" y="0">TMO</tspan></text>
            <text class="cls-19" transform="translate(2436.98 864.62) rotate(-45)"><tspan x="0" y="0">Streptococcus_pyogenes</tspan></text>
            <text class="cls-19" transform="translate(2387.19 961.78) rotate(-45)"><tspan x="0" y="0">Caldimicrobium thiodismutans strain</tspan><tspan class="cls-8" x="321.23" y="0"> </tspan><tspan x="326.44" y="0">TF1</tspan></text>
            <text class="cls-19" transform="translate(2420.11 976.23) rotate(-45)"><tspan x="0" y="0">Thermodesulfovibrio thiophilus DSM 17215</tspan></text>
            <text class="cls-19" transform="translate(2520.41 923.3) rotate(-45)"><tspan x="0" y="0">Ignavibacterium album JCM 165</tspan><tspan class="cls-25" x="286.8" y="0">1</tspan><tspan x="296.45" y="0">1</tspan></text>
            <text class="cls-19" transform="translate(2612.34 878.74) rotate(-45)"><tspan x="0" y="0">Thermodesulfovibrio sp. N1</tspan></text>
            <text class="cls-19" transform="translate(2683.29 855.16) rotate(-45)"><tspan x="0" y="0">Clostridium_perfringens</tspan></text>
          </g>
          <g pointer-events="none">
            <text class="cls-20" transform="translate(1452.03 1010.5)"><tspan x="0" y="0">Species</tspan></text>
          </g>
        </g>
        <g pointer-events="none">
          <text class="cls-23" transform="translate(2847.5 602)"><tspan x="0" y="0">phyloFlash hit</tspan></text>
          <text class="cls-23" transform="translate(2847.5 666)"><tspan x="0" y="0">DeLUCS hit</tspan></text>
        </g>
        <g>
          <path class="cls-15" d="m178.68,596c0,5.52-4.48,10-10,10s-10-4.48-10-10,4.48-10,10-10,10,4.48,10,10"/>
          <path class="cls-15" d="m178.68,660c0,5.52-4.48,10-10,10s-10-4.48-10-10,4.48-10,10-10,10,4.48,10,10"/>
          <path class="cls-15" d="m226.05,596c0,5.52-4.48,10-10,10s-10-4.48-10-10,4.48-10,10-10,10,4.48,10,10"/>
          <path class="cls-15" d="m226.05,660c0,5.52-4.48,10-10,10s-10-4.48-10-10,4.48-10,10-10,10,4.48,10,10"/>
          <path class="cls-15" d="m273.42,596c0,5.52-4.48,10-10,10s-10-4.48-10-10,4.48-10,10-10,10,4.48,10,10"/>
          <path class="cls-15" d="m273.42,660c0,5.52-4.48,10-10,10s-10-4.48-10-10,4.48-10,10-10,10,4.48,10,10"/>
          <path class="cls-15" d="m320.79,596c0,5.52-4.48,10-10,10s-10-4.48-10-10,4.48-10,10-10,10,4.48,10,10"/>
          <path class="cls-15" d="m320.79,660c0,5.52-4.48,10-10,10s-10-4.48-10-10,4.48-10,10-10,10,4.48,10,10"/>
          <path class="cls-15" d="m368.16,596c0,5.52-4.48,10-10,10s-10-4.48-10-10,4.48-10,10-10,10,4.48,10,10"/>
          <path class="cls-15" d="m368.16,660c0,5.52-4.48,10-10,10s-10-4.48-10-10,4.48-10,10-10,10,4.48,10,10"/>
          <path class="cls-15" d="m415.53,596c0,5.52-4.48,10-10,10s-10-4.48-10-10,4.48-10,10-10,10,4.48,10,10"/>
          <path class="cls-15" d="m415.53,660c0,5.52-4.48,10-10,10s-10-4.48-10-10,4.48-10,10-10,10,4.48,10,10"/>
          <path class="cls-15" d="m462.89,596c0,5.52-4.48,10-10,10s-10-4.48-10-10,4.48-10,10-10,10,4.48,10,10"/>
          <path class="cls-15" d="m462.89,660c0,5.52-4.48,10-10,10s-10-4.48-10-10,4.48-10,10-10,10,4.48,10,10"/>
          <path class="cls-15" d="m510.26,596c0,5.52-4.48,10-10,10s-10-4.48-10-10,4.48-10,10-10,10,4.48,10,10"/>
          <path class="cls-15" d="m510.26,660c0,5.52-4.48,10-10,10s-10-4.48-10-10,4.48-10,10-10,10,4.48,10,10"/>
          <path class="cls-15" d="m557.63,596c0,5.52-4.48,10-10,10s-10-4.48-10-10,4.48-10,10-10,10,4.48,10,10"/>
          <path class="cls-15" d="m557.63,660c0,5.52-4.48,10-10,10s-10-4.48-10-10,4.48-10,10-10,10,4.48,10,10"/>
          <path class="cls-15" d="m605,596c0,5.52-4.48,10-10,10s-10-4.48-10-10,4.48-10,10-10,10,4.48,10,10"/>
          <path class="cls-15" d="m605,660c0,5.52-4.48,10-10,10s-10-4.48-10-10,4.48-10,10-10,10,4.48,10,10"/>
          <path class="cls-15" d="m652.37,596c0,5.52-4.48,10-10,10s-10-4.48-10-10,4.48-10,10-10,10,4.48,10,10"/>
          <path class="cls-15" d="m652.37,660c0,5.52-4.48,10-10,10s-10-4.48-10-10,4.48-10,10-10,10,4.48,10,10"/>
          <path class="cls-15" d="m699.74,596c0,5.52-4.48,10-10,10s-10-4.48-10-10,4.48-10,10-10,10,4.48,10,10"/>
          <path class="cls-15" d="m699.74,660c0,5.52-4.48,10-10,10s-10-4.48-10-10,4.48-10,10-10,10,4.48,10,10"/>
          <path class="cls-15" d="m747.11,596c0,5.52-4.48,10-10,10s-10-4.48-10-10,4.48-10,10-10,10,4.48,10,10"/>
          <path class="cls-15" d="m747.11,660c0,5.52-4.48,10-10,10s-10-4.48-10-10,4.48-10,10-10,10,4.48,10,10"/>
          <path class="cls-15" d="m794.47,596c0,5.52-4.48,10-10,10s-10-4.48-10-10,4.48-10,10-10,10,4.48,10,10"/>
          <path class="cls-15" d="m794.47,660c0,5.52-4.48,10-10,10s-10-4.48-10-10,4.48-10,10-10,10,4.48,10,10"/>
          <path class="cls-15" d="m841.84,596c0,5.52-4.48,10-10,10s-10-4.48-10-10,4.48-10,10-10,10,4.48,10,10"/>
          <path class="cls-15" d="m841.84,660c0,5.52-4.48,10-10,10s-10-4.48-10-10,4.48-10,10-10,10,4.48,10,10"/>
          <path class="cls-15" d="m889.21,596c0,5.52-4.48,10-10,10s-10-4.48-10-10,4.48-10,10-10,10,4.48,10,10"/>
          <path class="cls-15" d="m889.21,660c0,5.52-4.48,10-10,10s-10-4.48-10-10,4.48-10,10-10,10,4.48,10,10"/>
          <path class="cls-15" d="m936.58,596c0,5.52-4.48,10-10,10s-10-4.48-10-10,4.48-10,10-10,10,4.48,10,10"/>
          <path class="cls-15" d="m936.58,660c0,5.52-4.48,10-10,10s-10-4.48-10-10,4.48-10,10-10,10,4.48,10,10"/>
          <path class="cls-15" d="m983.95,596c0,5.52-4.48,10-10,10s-10-4.48-10-10,4.48-10,10-10,10,4.48,10,10"/>
          <path class="cls-15" d="m983.95,660c0,5.52-4.48,10-10,10s-10-4.48-10-10,4.48-10,10-10,10,4.48,10,10"/>
          <path class="cls-15" d="m1031.32,596c0,5.52-4.48,10-10,10s-10-4.48-10-10,4.48-10,10-10,10,4.48,10,10"/>
          <path class="cls-15" d="m1031.32,660c0,5.52-4.48,10-10,10s-10-4.48-10-10,4.48-10,10-10,10,4.48,10,10"/>
          <path class="cls-15" d="m1078.68,596c0,5.52-4.48,10-10,10s-10-4.48-10-10,4.48-10,10-10,10,4.48,10,10"/>
          <path class="cls-15" d="m1078.68,660c0,5.52-4.48,10-10,10s-10-4.48-10-10,4.48-10,10-10,10,4.48,10,10"/>
          <path class="cls-15" d="m1126.05,596c0,5.52-4.48,10-10,10s-10-4.48-10-10,4.48-10,10-10,10,4.48,10,10"/>
          <path class="cls-15" d="m1126.05,660c0,5.52-4.48,10-10,10s-10-4.48-10-10,4.48-10,10-10,10,4.48,10,10"/>
          <path class="cls-15" d="m1173.42,596c0,5.52-4.48,10-10,10s-10-4.48-10-10,4.48-10,10-10,10,4.48,10,10"/>
          <path class="cls-15" d="m1173.42,660c0,5.52-4.48,10-10,10s-10-4.48-10-10,4.48-10,10-10,10,4.48,10,10"/>
          <path class="cls-15" d="m1220.79,596c0,5.52-4.48,10-10,10s-10-4.48-10-10,4.48-10,10-10,10,4.48,10,10"/>
          <path class="cls-15" d="m1220.79,660c0,5.52-4.48,10-10,10s-10-4.48-10-10,4.48-10,10-10,10,4.48,10,10"/>
          <path class="cls-15" d="m1268.16,596c0,5.52-4.48,10-10,10s-10-4.48-10-10,4.48-10,10-10,10,4.48,10,10"/>
          <path class="cls-15" d="m1268.16,660c0,5.52-4.48,10-10,10s-10-4.48-10-10,4.48-10,10-10,10,4.48,10,10"/>
          <path class="cls-15" d="m1315.53,596c0,5.52-4.48,10-10,10s-10-4.48-10-10,4.48-10,10-10,10,4.48,10,10"/>
          <path class="cls-15" d="m1315.53,660c0,5.52-4.48,10-10,10s-10-4.48-10-10,4.48-10,10-10,10,4.48,10,10"/>
          <path class="cls-15" d="m1362.89,596c0,5.52-4.48,10-10,10s-10-4.48-10-10,4.48-10,10-10,10,4.48,10,10"/>
          <path class="cls-15" d="m1362.89,660c0,5.52-4.48,10-10,10s-10-4.48-10-10,4.48-10,10-10,10,4.48,10,10"/>
          <path class="cls-15" d="m1410.26,596c0,5.52-4.48,10-10,10s-10-4.48-10-10,4.48-10,10-10,10,4.48,10,10"/>
          <path class="cls-15" d="m1410.26,660c0,5.52-4.48,10-10,10s-10-4.48-10-10,4.48-10,10-10,10,4.48,10,10"/>
          <path class="cls-15" d="m1457.63,596c0,5.52-4.48,10-10,10s-10-4.48-10-10,4.48-10,10-10,10,4.48,10,10"/>
          <path class="cls-15" d="m1457.63,660c0,5.52-4.48,10-10,10s-10-4.48-10-10,4.48-10,10-10,10,4.48,10,10"/>
          <path class="cls-15" d="m1505,596c0,5.52-4.48,10-10,10s-10-4.48-10-10,4.48-10,10-10,10,4.48,10,10"/>
          <path class="cls-15" d="m1505,660c0,5.52-4.48,10-10,10s-10-4.48-10-10,4.48-10,10-10,10,4.48,10,10"/>
          <path class="cls-15" d="m1552.37,596c0,5.52-4.48,10-10,10s-10-4.48-10-10,4.48-10,10-10,10,4.48,10,10"/>
          <path class="cls-15" d="m1552.37,660c0,5.52-4.48,10-10,10s-10-4.48-10-10,4.48-10,10-10,10,4.48,10,10"/>
          <path class="cls-15" d="m1599.74,596c0,5.52-4.48,10-10,10s-10-4.48-10-10,4.48-10,10-10,10,4.48,10,10"/>
          <path class="cls-15" d="m1599.74,660c0,5.52-4.48,10-10,10s-10-4.48-10-10,4.48-10,10-10,10,4.48,10,10"/>
          <path class="cls-15" d="m1647.11,596c0,5.52-4.48,10-10,10s-10-4.48-10-10,4.48-10,10-10,10,4.48,10,10"/>
          <path class="cls-15" d="m1647.11,660c0,5.52-4.48,10-10,10s-10-4.48-10-10,4.48-10,10-10,10,4.48,10,10"/>
          <path class="cls-15" d="m1694.47,596c0,5.52-4.48,10-10,10s-10-4.48-10-10,4.48-10,10-10,10,4.48,10,10"/>
          <path class="cls-15" d="m1694.47,660c0,5.52-4.48,10-10,10s-10-4.48-10-10,4.48-10,10-10,10,4.48,10,10"/>
          <path class="cls-15" d="m1741.84,596c0,5.52-4.48,10-10,10s-10-4.48-10-10,4.48-10,10-10,10,4.48,10,10"/>
          <path class="cls-15" d="m1741.84,660c0,5.52-4.48,10-10,10s-10-4.48-10-10,4.48-10,10-10,10,4.48,10,10"/>
          <path class="cls-15" d="m1789.21,596c0,5.52-4.48,10-10,10s-10-4.48-10-10,4.48-10,10-10,10,4.48,10,10"/>
          <path class="cls-15" d="m1789.21,660c0,5.52-4.48,10-10,10s-10-4.48-10-10,4.48-10,10-10,10,4.48,10,10"/>
          <path class="cls-15" d="m1836.58,596c0,5.52-4.48,10-10,10s-10-4.48-10-10,4.48-10,10-10,10,4.48,10,10"/>
          <path class="cls-15" d="m1836.58,660c0,5.52-4.48,10-10,10s-10-4.48-10-10,4.48-10,10-10,10,4.48,10,10"/>
          <path class="cls-15" d="m1883.95,596c0,5.52-4.48,10-10,10s-10-4.48-10-10,4.48-10,10-10,10,4.48,10,10"/>
          <path class="cls-15" d="m1883.95,660c0,5.52-4.48,10-10,10s-10-4.48-10-10,4.48-10,10-10,10,4.48,10,10"/>
          <path class="cls-15" d="m1931.32,596c0,5.52-4.48,10-10,10s-10-4.48-10-10,4.48-10,10-10,10,4.48,10,10"/>
          <path class="cls-15" d="m1931.32,660c0,5.52-4.48,10-10,10s-10-4.48-10-10,4.48-10,10-10,10,4.48,10,10"/>
          <path class="cls-15" d="m1978.68,596c0,5.52-4.48,10-10,10s-10-4.48-10-10,4.48-10,10-10,10,4.48,10,10"/>
          <path class="cls-15" d="m1978.68,660c0,5.52-4.48,10-10,10s-10-4.48-10-10,4.48-10,10-10,10,4.48,10,10"/>
          <path class="cls-15" d="m2026.05,596c0,5.52-4.48,10-10,10s-10-4.48-10-10,4.48-10,10-10,10,4.48,10,10"/>
          <path class="cls-15" d="m2026.05,660c0,5.52-4.48,10-10,10s-10-4.48-10-10,4.48-10,10-10,10,4.48,10,10"/>
          <path class="cls-15" d="m2073.42,596c0,5.52-4.48,10-10,10s-10-4.48-10-10,4.48-10,10-10,10,4.48,10,10"/>
          <path class="cls-15" d="m2073.42,660c0,5.52-4.48,10-10,10s-10-4.48-10-10,4.48-10,10-10,10,4.48,10,10"/>
          <path class="cls-15" d="m2120.79,596c0,5.52-4.48,10-10,10s-10-4.48-10-10,4.48-10,10-10,10,4.48,10,10"/>
          <path class="cls-15" d="m2120.79,660c0,5.52-4.48,10-10,10s-10-4.48-10-10,4.48-10,10-10,10,4.48,10,10"/>
          <path class="cls-15" d="m2168.16,596c0,5.52-4.48,10-10,10s-10-4.48-10-10,4.48-10,10-10,10,4.48,10,10"/>
          <path class="cls-15" d="m2168.16,660c0,5.52-4.48,10-10,10s-10-4.48-10-10,4.48-10,10-10,10,4.48,10,10"/>
          <path class="cls-15" d="m2215.53,596c0,5.52-4.48,10-10,10s-10-4.48-10-10,4.48-10,10-10,10,4.48,10,10"/>
          <path class="cls-15" d="m2215.53,660c0,5.52-4.48,10-10,10s-10-4.48-10-10,4.48-10,10-10,10,4.48,10,10"/>
          <path class="cls-15" d="m2262.89,596c0,5.52-4.48,10-10,10s-10-4.48-10-10,4.48-10,10-10,10,4.48,10,10"/>
          <path class="cls-15" d="m2262.89,660c0,5.52-4.48,10-10,10s-10-4.48-10-10,4.48-10,10-10,10,4.48,10,10"/>
          <path class="cls-15" d="m2310.26,596c0,5.52-4.48,10-10,10s-10-4.48-10-10,4.48-10,10-10,10,4.48,10,10"/>
          <path class="cls-15" d="m2310.26,660c0,5.52-4.48,10-10,10s-10-4.48-10-10,4.48-10,10-10,10,4.48,10,10"/>
          <path class="cls-15" d="m2357.63,596c0,5.52-4.48,10-10,10s-10-4.48-10-10,4.48-10,10-10,10,4.48,10,10"/>
          <path class="cls-15" d="m2357.63,660c0,5.52-4.48,10-10,10s-10-4.48-10-10,4.48-10,10-10,10,4.48,10,10"/>
          <path class="cls-15" d="m2405,596c0,5.52-4.48,10-10,10s-10-4.48-10-10,4.48-10,10-10,10,4.48,10,10"/>
          <path class="cls-15" d="m2405,660c0,5.52-4.48,10-10,10s-10-4.48-10-10,4.48-10,10-10,10,4.48,10,10"/>
          <path class="cls-15" d="m2452.37,596c0,5.52-4.48,10-10,10s-10-4.48-10-10,4.48-10,10-10,10,4.48,10,10"/>
          <path class="cls-15" d="m2452.37,660c0,5.52-4.48,10-10,10s-10-4.48-10-10,4.48-10,10-10,10,4.48,10,10"/>
          <path class="cls-15" d="m2499.74,596c0,5.52-4.48,10-10,10s-10-4.48-10-10,4.48-10,10-10,10,4.48,10,10"/>
          <path class="cls-15" d="m2499.74,660c0,5.52-4.48,10-10,10s-10-4.48-10-10,4.48-10,10-10,10,4.48,10,10"/>
          <path class="cls-15" d="m2547.11,596c0,5.52-4.48,10-10,10s-10-4.48-10-10,4.48-10,10-10,10,4.48,10,10"/>
          <path class="cls-15" d="m2547.11,660c0,5.52-4.48,10-10,10s-10-4.48-10-10,4.48-10,10-10,10,4.48,10,10"/>
          <path class="cls-15" d="m2594.47,596c0,5.52-4.48,10-10,10s-10-4.48-10-10,4.48-10,10-10,10,4.48,10,10"/>
          <path class="cls-15" d="m2594.47,660c0,5.52-4.48,10-10,10s-10-4.48-10-10,4.48-10,10-10,10,4.48,10,10"/>
          <path class="cls-15" d="m2641.84,596c0,5.52-4.48,10-10,10s-10-4.48-10-10,4.48-10,10-10,10,4.48,10,10"/>
          <path class="cls-15" d="m2641.84,660c0,5.52-4.48,10-10,10s-10-4.48-10-10,4.48-10,10-10,10,4.48,10,10"/>
          <path class="cls-15" d="m2689.21,596c0,5.52-4.48,10-10,10s-10-4.48-10-10,4.48-10,10-10,10,4.48,10,10"/>
          <path class="cls-15" d="m2689.21,660c0,5.52-4.48,10-10,10s-10-4.48-10-10,4.48-10,10-10,10,4.48,10,10"/>
          <path class="cls-15" d="m2736.58,596c0,5.52-4.48,10-10,10s-10-4.48-10-10,4.48-10,10-10,10,4.48,10,10"/>
          <path class="cls-15" d="m2736.58,660c0,5.52-4.48,10-10,10s-10-4.48-10-10,4.48-10,10-10,10,4.48,10,10"/>
          <path class="cls-15" d="m2783.95,596c0,5.52-4.48,10-10,10s-10-4.48-10-10,4.48-10,10-10,10,4.48,10,10"/>
          <path class="cls-15" d="m2783.95,660c0,5.52-4.48,10-10,10s-10-4.48-10-10,4.48-10,10-10,10,4.48,10,10"/>
          <path class="cls-15" d="m2831.32,596c0,5.52-4.48,10-10,10s-10-4.48-10-10,4.48-10,10-10,10,4.48,10,10"/>
          <path class="cls-15" d="m2831.32,660c0,5.52-4.48,10-10,10s-10-4.48-10-10,4.48-10,10-10,10,4.48,10,10"/>
        </g>
        <g pointer-events="none">
          <path class="cls-9" d="m145,628h47.37v64h-47.37v-64Z"/>
          <path class="cls-9" d="m192.37,628h47.37v64h-47.37v-64Z"/>
          <path class="cls-9" d="m239.74,628h47.37v64h-47.37v-64Z"/>
          <path class="cls-9" d="m287.11,628h47.37v64h-47.37v-64Z"/>
          <path class="cls-9" d="m334.47,628h47.37v64h-47.37v-64Z"/>
          <path class="cls-9" d="m381.84,628h47.37v64h-47.37v-64Z"/>
          <path class="cls-9" d="m429.21,628h47.37v64h-47.37v-64Z"/>
          <path class="cls-9" d="m476.58,628h47.37v64h-47.37v-64Z"/>
          <path class="cls-9" d="m523.95,628h47.37v64h-47.37v-64Z"/>
          <path class="cls-9" d="m571.32,628h47.37v64h-47.37v-64Z"/>
          <path class="cls-9" d="m618.68,628h47.37v64h-47.37v-64Z"/>
          <path class="cls-9" d="m666.05,628h47.37v64h-47.37v-64Z"/>
          <path class="cls-9" d="m713.42,628h47.37v64h-47.37v-64Z"/>
          <path class="cls-9" d="m760.79,628h47.37v64h-47.37v-64Z"/>
          <path class="cls-9" d="m808.16,628h47.37v64h-47.37v-64Z"/>
          <path class="cls-9" d="m855.53,628h47.37v64h-47.37v-64Z"/>
          <path class="cls-9" d="m902.89,628h47.37v64h-47.37v-64Z"/>
          <path class="cls-9" d="m950.26,628h47.37v64h-47.37v-64Z"/>
          <path class="cls-9" d="m997.63,628h47.37v64h-47.37v-64Z"/>
          <path class="cls-9" d="m1045,628h47.37v64h-47.37v-64Z"/>
          <path class="cls-9" d="m1092.37,628h47.37v64h-47.37v-64Z"/>
          <path class="cls-9" d="m1139.74,628h47.37v64h-47.37v-64Z"/>
          <path class="cls-9" d="m1187.11,628h47.37v64h-47.37v-64Z"/>
          <path class="cls-9" d="m1234.47,628h47.37v64h-47.37v-64Z"/>
          <path class="cls-9" d="m1281.84,628h47.37v64h-47.37v-64Z"/>
          <path class="cls-9" d="m1329.21,628h47.37v64h-47.37v-64Z"/>
          <path class="cls-9" d="m1376.58,628h47.37v64h-47.37v-64Z"/>
          <path class="cls-9" d="m1423.95,628h47.37v64h-47.37v-64Z"/>
          <path class="cls-9" d="m1471.32,628h47.37v64h-47.37v-64Z"/>
          <path class="cls-9" d="m1518.68,628h47.37v64h-47.37v-64Z"/>
          <path class="cls-9" d="m1566.05,628h47.37v64h-47.37v-64Z"/>
          <path class="cls-9" d="m1613.42,628h47.37v64h-47.37v-64Z"/>
          <path class="cls-9" d="m1660.79,628h47.37v64h-47.37v-64Z"/>
          <path class="cls-9" d="m1708.16,628h47.37v64h-47.37v-64Z"/>
          <path class="cls-9" d="m1755.53,628h47.37v64h-47.37v-64Z"/>
          <path class="cls-9" d="m1802.89,628h47.37v64h-47.37v-64Z"/>
          <path class="cls-9" d="m1850.26,628h47.37v64h-47.37v-64Z"/>
          <path class="cls-9" d="m1897.63,628h47.37v64h-47.37v-64Z"/>
          <path class="cls-9" d="m1945,628h47.37v64h-47.37v-64Z"/>
          <path class="cls-9" d="m1992.37,628h47.37v64h-47.37v-64Z"/>
          <path class="cls-9" d="m2039.74,628h47.37v64h-47.37v-64Z"/>
          <path class="cls-9" d="m2087.11,628h47.37v64h-47.37v-64Z"/>
          <path class="cls-9" d="m2134.47,628h47.37v64h-47.37v-64Z"/>
          <path class="cls-9" d="m2181.84,628h47.37v64h-47.37v-64Z"/>
          <path class="cls-9" d="m2229.21,628h47.37v64h-47.37v-64Z"/>
          <path class="cls-9" d="m2276.58,628h47.37v64h-47.37v-64Z"/>
          <path class="cls-9" d="m2323.95,628h47.37v64h-47.37v-64Z"/>
          <path class="cls-9" d="m2371.32,628h47.37v64h-47.37v-64Z"/>
          <path class="cls-9" d="m2418.68,628h47.37v64h-47.37v-64Z"/>
          <path class="cls-9" d="m2466.05,628h47.37v64h-47.37v-64Z"/>
          <path class="cls-9" d="m2513.42,628h47.37v64h-47.37v-64Z"/>
          <path class="cls-9" d="m2560.79,628h47.37v64h-47.37v-64Z"/>
          <path class="cls-9" d="m2608.16,628h47.37v64h-47.37v-64Z"/>
          <path class="cls-9" d="m2655.53,628h47.37v64h-47.37v-64Z"/>
          <path class="cls-9" d="m2702.89,628h47.37v64h-47.37v-64Z"/>
          <path class="cls-9" d="m2750.26,628h47.37v64h-47.37v-64Z"/>
          <path class="cls-9" d="m2797.63,628h47.37v64h-47.37v-64Z"/>
        </g>
        <g pointer-events="none">
          <path class="cls-15" d="m178.68,596c0,5.52-4.48,10-10,10s-10-4.48-10-10,4.48-10,10-10,10,4.48,10,10"/>
          <path class="cls-15" d="m178.68,660c0,5.52-4.48,10-10,10s-10-4.48-10-10,4.48-10,10-10,10,4.48,10,10"/>
          <path class="cls-12" d="m226.05,596c0,5.52-4.48,10-10,10s-10-4.48-10-10,4.48-10,10-10,10,4.48,10,10"/>
          <path class="cls-12" d="m226.05,660c0,5.52-4.48,10-10,10s-10-4.48-10-10,4.48-10,10-10,10,4.48,10,10"/>
          <path class="cls-15" d="m273.42,596c0,5.52-4.48,10-10,10s-10-4.48-10-10,4.48-10,10-10,10,4.48,10,10"/>
          <path class="cls-15" d="m273.42,660c0,5.52-4.48,10-10,10s-10-4.48-10-10,4.48-10,10-10,10,4.48,10,10"/>
          <path class="cls-12" d="m320.79,596c0,5.52-4.48,10-10,10s-10-4.48-10-10,4.48-10,10-10,10,4.48,10,10"/>
          <path class="cls-15" d="m320.79,660c0,5.52-4.48,10-10,10s-10-4.48-10-10,4.48-10,10-10,10,4.48,10,10"/>
          <path class="cls-15" d="m368.16,596c0,5.52-4.48,10-10,10s-10-4.48-10-10,4.48-10,10-10,10,4.48,10,10"/>
          <path class="cls-15" d="m368.16,660c0,5.52-4.48,10-10,10s-10-4.48-10-10,4.48-10,10-10,10,4.48,10,10"/>
          <path class="cls-15" d="m415.53,596c0,5.52-4.48,10-10,10s-10-4.48-10-10,4.48-10,10-10,10,4.48,10,10"/>
          <path class="cls-15" d="m415.53,660c0,5.52-4.48,10-10,10s-10-4.48-10-10,4.48-10,10-10,10,4.48,10,10"/>
          <path class="cls-15" d="m462.89,596c0,5.52-4.48,10-10,10s-10-4.48-10-10,4.48-10,10-10,10,4.48,10,10"/>
          <path class="cls-15" d="m462.89,660c0,5.52-4.48,10-10,10s-10-4.48-10-10,4.48-10,10-10,10,4.48,10,10"/>
          <path class="cls-15" d="m510.26,596c0,5.52-4.48,10-10,10s-10-4.48-10-10,4.48-10,10-10,10,4.48,10,10"/>
          <path class="cls-15" d="m510.26,660c0,5.52-4.48,10-10,10s-10-4.48-10-10,4.48-10,10-10,10,4.48,10,10"/>
          <path class="cls-15" d="m557.63,596c0,5.52-4.48,10-10,10s-10-4.48-10-10,4.48-10,10-10,10,4.48,10,10"/>
          <path class="cls-15" d="m557.63,660c0,5.52-4.48,10-10,10s-10-4.48-10-10,4.48-10,10-10,10,4.48,10,10"/>
          <path class="cls-12" d="m605,596c0,5.52-4.48,10-10,10s-10-4.48-10-10,4.48-10,10-10,10,4.48,10,10"/>
          <path class="cls-15" d="m605,660c0,5.52-4.48,10-10,10s-10-4.48-10-10,4.48-10,10-10,10,4.48,10,10"/>
          <path class="cls-15" d="m652.37,596c0,5.52-4.48,10-10,10s-10-4.48-10-10,4.48-10,10-10,10,4.48,10,10"/>
          <path class="cls-12" d="m652.37,660c0,5.52-4.48,10-10,10s-10-4.48-10-10,4.48-10,10-10,10,4.48,10,10"/>
          <path class="cls-15" d="m699.74,596c0,5.52-4.48,10-10,10s-10-4.48-10-10,4.48-10,10-10,10,4.48,10,10"/>
          <path class="cls-15" d="m699.74,660c0,5.52-4.48,10-10,10s-10-4.48-10-10,4.48-10,10-10,10,4.48,10,10"/>
          <path class="cls-15" d="m747.11,596c0,5.52-4.48,10-10,10s-10-4.48-10-10,4.48-10,10-10,10,4.48,10,10"/>
          <path class="cls-15" d="m747.11,660c0,5.52-4.48,10-10,10s-10-4.48-10-10,4.48-10,10-10,10,4.48,10,10"/>
          <path class="cls-12" d="m794.47,596c0,5.52-4.48,10-10,10s-10-4.48-10-10,4.48-10,10-10,10,4.48,10,10"/>
          <path class="cls-15" d="m794.47,660c0,5.52-4.48,10-10,10s-10-4.48-10-10,4.48-10,10-10,10,4.48,10,10"/>
          <path class="cls-15" d="m841.84,596c0,5.52-4.48,10-10,10s-10-4.48-10-10,4.48-10,10-10,10,4.48,10,10"/>
          <path class="cls-15" d="m841.84,660c0,5.52-4.48,10-10,10s-10-4.48-10-10,4.48-10,10-10,10,4.48,10,10"/>
          <path class="cls-12" d="m889.21,596c0,5.52-4.48,10-10,10s-10-4.48-10-10,4.48-10,10-10,10,4.48,10,10"/>
          <path class="cls-15" d="m889.21,660c0,5.52-4.48,10-10,10s-10-4.48-10-10,4.48-10,10-10,10,4.48,10,10"/>
          <path class="cls-12" d="m936.58,596c0,5.52-4.48,10-10,10s-10-4.48-10-10,4.48-10,10-10,10,4.48,10,10"/>
          <path class="cls-12" d="m936.58,660c0,5.52-4.48,10-10,10s-10-4.48-10-10,4.48-10,10-10,10,4.48,10,10"/>
          <path class="cls-15" d="m983.95,596c0,5.52-4.48,10-10,10s-10-4.48-10-10,4.48-10,10-10,10,4.48,10,10"/>
          <path class="cls-15" d="m983.95,660c0,5.52-4.48,10-10,10s-10-4.48-10-10,4.48-10,10-10,10,4.48,10,10"/>
          <path class="cls-15" d="m1031.32,596c0,5.52-4.48,10-10,10s-10-4.48-10-10,4.48-10,10-10,10,4.48,10,10"/>
          <path class="cls-12" d="m1031.32,660c0,5.52-4.48,10-10,10s-10-4.48-10-10,4.48-10,10-10,10,4.48,10,10"/>
          <path class="cls-12" d="m1078.68,596c0,5.52-4.48,10-10,10s-10-4.48-10-10,4.48-10,10-10,10,4.48,10,10"/>
          <path class="cls-12" d="m1078.68,660c0,5.52-4.48,10-10,10s-10-4.48-10-10,4.48-10,10-10,10,4.48,10,10"/>
          <path class="cls-15" d="m1126.05,596c0,5.52-4.48,10-10,10s-10-4.48-10-10,4.48-10,10-10,10,4.48,10,10"/>
          <path class="cls-15" d="m1126.05,660c0,5.52-4.48,10-10,10s-10-4.48-10-10,4.48-10,10-10,10,4.48,10,10"/>
          <path class="cls-15" d="m1173.42,596c0,5.52-4.48,10-10,10s-10-4.48-10-10,4.48-10,10-10,10,4.48,10,10"/>
          <path class="cls-15" d="m1173.42,660c0,5.52-4.48,10-10,10s-10-4.48-10-10,4.48-10,10-10,10,4.48,10,10"/>
          <path class="cls-15" d="m1220.79,596c0,5.52-4.48,10-10,10s-10-4.48-10-10,4.48-10,10-10,10,4.48,10,10"/>
          <path class="cls-15" d="m1220.79,660c0,5.52-4.48,10-10,10s-10-4.48-10-10,4.48-10,10-10,10,4.48,10,10"/>
          <path class="cls-15" d="m1268.16,596c0,5.52-4.48,10-10,10s-10-4.48-10-10,4.48-10,10-10,10,4.48,10,10"/>
          <path class="cls-15" d="m1268.16,660c0,5.52-4.48,10-10,10s-10-4.48-10-10,4.48-10,10-10,10,4.48,10,10"/>
          <path class="cls-12" d="m1315.53,596c0,5.52-4.48,10-10,10s-10-4.48-10-10,4.48-10,10-10,10,4.48,10,10"/>
          <path class="cls-15" d="m1315.53,660c0,5.52-4.48,10-10,10s-10-4.48-10-10,4.48-10,10-10,10,4.48,10,10"/>
          <path class="cls-12" d="m1362.89,596c0,5.52-4.48,10-10,10s-10-4.48-10-10,4.48-10,10-10,10,4.48,10,10"/>
          <path class="cls-15" d="m1362.89,660c0,5.52-4.48,10-10,10s-10-4.48-10-10,4.48-10,10-10,10,4.48,10,10"/>
          <path class="cls-15" d="m1410.26,596c0,5.52-4.48,10-10,10s-10-4.48-10-10,4.48-10,10-10,10,4.48,10,10"/>
          <path class="cls-15" d="m1410.26,660c0,5.52-4.48,10-10,10s-10-4.48-10-10,4.48-10,10-10,10,4.48,10,10"/>
          <path class="cls-12" d="m1457.63,596c0,5.52-4.48,10-10,10s-10-4.48-10-10,4.48-10,10-10,10,4.48,10,10"/>
          <path class="cls-15" d="m1457.63,660c0,5.52-4.48,10-10,10s-10-4.48-10-10,4.48-10,10-10,10,4.48,10,10"/>
          <path class="cls-15" d="m1505,596c0,5.52-4.48,10-10,10s-10-4.48-10-10,4.48-10,10-10,10,4.48,10,10"/>
          <path class="cls-12" d="m1505,660c0,5.52-4.48,10-10,10s-10-4.48-10-10,4.48-10,10-10,10,4.48,10,10"/>
          <path class="cls-15" d="m1552.37,596c0,5.52-4.48,10-10,10s-10-4.48-10-10,4.48-10,10-10,10,4.48,10,10"/>
          <path class="cls-12" d="m1552.37,660c0,5.52-4.48,10-10,10s-10-4.48-10-10,4.48-10,10-10,10,4.48,10,10"/>
          <path class="cls-15" d="m1599.74,596c0,5.52-4.48,10-10,10s-10-4.48-10-10,4.48-10,10-10,10,4.48,10,10"/>
          <path class="cls-15" d="m1599.74,660c0,5.52-4.48,10-10,10s-10-4.48-10-10,4.48-10,10-10,10,4.48,10,10"/>
          <path class="cls-15" d="m1647.11,596c0,5.52-4.48,10-10,10s-10-4.48-10-10,4.48-10,10-10,10,4.48,10,10"/>
          <path class="cls-15" d="m1647.11,660c0,5.52-4.48,10-10,10s-10-4.48-10-10,4.48-10,10-10,10,4.48,10,10"/>
          <path class="cls-15" d="m1694.47,596c0,5.52-4.48,10-10,10s-10-4.48-10-10,4.48-10,10-10,10,4.48,10,10"/>
          <path class="cls-15" d="m1694.47,660c0,5.52-4.48,10-10,10s-10-4.48-10-10,4.48-10,10-10,10,4.48,10,10"/>
          <path class="cls-12" d="m1741.84,596c0,5.52-4.48,10-10,10s-10-4.48-10-10,4.48-10,10-10,10,4.48,10,10"/>
          <path class="cls-12" d="m1741.84,660c0,5.52-4.48,10-10,10s-10-4.48-10-10,4.48-10,10-10,10,4.48,10,10"/>
          <path class="cls-15" d="m1789.21,596c0,5.52-4.48,10-10,10s-10-4.48-10-10,4.48-10,10-10,10,4.48,10,10"/>
          <path class="cls-15" d="m1789.21,660c0,5.52-4.48,10-10,10s-10-4.48-10-10,4.48-10,10-10,10,4.48,10,10"/>
          <path class="cls-15" d="m1836.58,596c0,5.52-4.48,10-10,10s-10-4.48-10-10,4.48-10,10-10,10,4.48,10,10"/>
          <path class="cls-15" d="m1836.58,660c0,5.52-4.48,10-10,10s-10-4.48-10-10,4.48-10,10-10,10,4.48,10,10"/>
          <path class="cls-15" d="m1883.95,596c0,5.52-4.48,10-10,10s-10-4.48-10-10,4.48-10,10-10,10,4.48,10,10"/>
          <path class="cls-12" d="m1883.95,660c0,5.52-4.48,10-10,10s-10-4.48-10-10,4.48-10,10-10,10,4.48,10,10"/>
          <path class="cls-15" d="m1931.32,596c0,5.52-4.48,10-10,10s-10-4.48-10-10,4.48-10,10-10,10,4.48,10,10"/>
          <path class="cls-15" d="m1931.32,660c0,5.52-4.48,10-10,10s-10-4.48-10-10,4.48-10,10-10,10,4.48,10,10"/>
          <path class="cls-12" d="m1978.68,596c0,5.52-4.48,10-10,10s-10-4.48-10-10,4.48-10,10-10,10,4.48,10,10"/>
          <path class="cls-12" d="m1978.68,660c0,5.52-4.48,10-10,10s-10-4.48-10-10,4.48-10,10-10,10,4.48,10,10"/>
          <path class="cls-15" d="m2026.05,596c0,5.52-4.48,10-10,10s-10-4.48-10-10,4.48-10,10-10,10,4.48,10,10"/>
          <path class="cls-15" d="m2026.05,660c0,5.52-4.48,10-10,10s-10-4.48-10-10,4.48-10,10-10,10,4.48,10,10"/>
          <path class="cls-12" d="m2073.42,596c0,5.52-4.48,10-10,10s-10-4.48-10-10,4.48-10,10-10,10,4.48,10,10"/>
          <path class="cls-15" d="m2073.42,660c0,5.52-4.48,10-10,10s-10-4.48-10-10,4.48-10,10-10,10,4.48,10,10"/>
          <path class="cls-15" d="m2120.79,596c0,5.52-4.48,10-10,10s-10-4.48-10-10,4.48-10,10-10,10,4.48,10,10"/>
          <path class="cls-15" d="m2120.79,660c0,5.52-4.48,10-10,10s-10-4.48-10-10,4.48-10,10-10,10,4.48,10,10"/>
          <path class="cls-15" d="m2168.16,596c0,5.52-4.48,10-10,10s-10-4.48-10-10,4.48-10,10-10,10,4.48,10,10"/>
          <path class="cls-12" d="m2168.16,660c0,5.52-4.48,10-10,10s-10-4.48-10-10,4.48-10,10-10,10,4.48,10,10"/>
          <path class="cls-15" d="m2215.53,596c0,5.52-4.48,10-10,10s-10-4.48-10-10,4.48-10,10-10,10,4.48,10,10"/>
          <path class="cls-15" d="m2215.53,660c0,5.52-4.48,10-10,10s-10-4.48-10-10,4.48-10,10-10,10,4.48,10,10"/>
          <path class="cls-15" d="m2262.89,596c0,5.52-4.48,10-10,10s-10-4.48-10-10,4.48-10,10-10,10,4.48,10,10"/>
          <path class="cls-15" d="m2262.89,660c0,5.52-4.48,10-10,10s-10-4.48-10-10,4.48-10,10-10,10,4.48,10,10"/>
          <path class="cls-12" d="m2310.26,596c0,5.52-4.48,10-10,10s-10-4.48-10-10,4.48-10,10-10,10,4.48,10,10"/>
          <path class="cls-15" d="m2310.26,660c0,5.52-4.48,10-10,10s-10-4.48-10-10,4.48-10,10-10,10,4.48,10,10"/>
          <path class="cls-15" d="m2357.63,596c0,5.52-4.48,10-10,10s-10-4.48-10-10,4.48-10,10-10,10,4.48,10,10"/>
          <path class="cls-15" d="m2357.63,660c0,5.52-4.48,10-10,10s-10-4.48-10-10,4.48-10,10-10,10,4.48,10,10"/>
          <path class="cls-15" d="m2405,596c0,5.52-4.48,10-10,10s-10-4.48-10-10,4.48-10,10-10,10,4.48,10,10"/>
          <path class="cls-15" d="m2405,660c0,5.52-4.48,10-10,10s-10-4.48-10-10,4.48-10,10-10,10,4.48,10,10"/>
          <path class="cls-15" d="m2452.37,596c0,5.52-4.48,10-10,10s-10-4.48-10-10,4.48-10,10-10,10,4.48,10,10"/>
          <path class="cls-15" d="m2452.37,660c0,5.52-4.48,10-10,10s-10-4.48-10-10,4.48-10,10-10,10,4.48,10,10"/>
          <path class="cls-15" d="m2499.74,596c0,5.52-4.48,10-10,10s-10-4.48-10-10,4.48-10,10-10,10,4.48,10,10"/>
          <path class="cls-15" d="m2499.74,660c0,5.52-4.48,10-10,10s-10-4.48-10-10,4.48-10,10-10,10,4.48,10,10"/>
          <path class="cls-12" d="m2547.11,596c0,5.52-4.48,10-10,10s-10-4.48-10-10,4.48-10,10-10,10,4.48,10,10"/>
          <path class="cls-15" d="m2547.11,660c0,5.52-4.48,10-10,10s-10-4.48-10-10,4.48-10,10-10,10,4.48,10,10"/>
          <path class="cls-15" d="m2594.47,596c0,5.52-4.48,10-10,10s-10-4.48-10-10,4.48-10,10-10,10,4.48,10,10"/>
          <path class="cls-15" d="m2594.47,660c0,5.52-4.48,10-10,10s-10-4.48-10-10,4.48-10,10-10,10,4.48,10,10"/>
          <path class="cls-12" d="m2641.84,596c0,5.52-4.48,10-10,10s-10-4.48-10-10,4.48-10,10-10,10,4.48,10,10"/>
          <path class="cls-12" d="m2641.84,660c0,5.52-4.48,10-10,10s-10-4.48-10-10,4.48-10,10-10,10,4.48,10,10"/>
          <path class="cls-15" d="m2689.21,596c0,5.52-4.48,10-10,10s-10-4.48-10-10,4.48-10,10-10,10,4.48,10,10"/>
          <path class="cls-15" d="m2689.21,660c0,5.52-4.48,10-10,10s-10-4.48-10-10,4.48-10,10-10,10,4.48,10,10"/>
          <path class="cls-12" d="m2736.58,596c0,5.52-4.48,10-10,10s-10-4.48-10-10,4.48-10,10-10,10,4.48,10,10"/>
          <path class="cls-15" d="m2736.58,660c0,5.52-4.48,10-10,10s-10-4.48-10-10,4.48-10,10-10,10,4.48,10,10"/>
          <path class="cls-12" d="m2783.95,596c0,5.52-4.48,10-10,10s-10-4.48-10-10,4.48-10,10-10,10,4.48,10,10"/>
          <path class="cls-12" d="m2783.95,660c0,5.52-4.48,10-10,10s-10-4.48-10-10,4.48-10,10-10,10,4.48,10,10"/>
          <path class="cls-15" d="m2831.32,596c0,5.52-4.48,10-10,10s-10-4.48-10-10,4.48-10,10-10,10,4.48,10,10"/>
          <path class="cls-15" d="m2831.32,660c0,5.52-4.48,10-10,10s-10-4.48-10-10,4.48-10,10-10,10,4.48,10,10"/>
        </g>
        <g pointer-events="none">
          <path class="cls-10" d="m179.05,596c0,5.73-4.64,10.37-10.37,10.37s-10.37-4.64-10.37-10.37,4.64-10.37,10.37-10.37,10.37,4.64,10.37,10.37"/>
          <path class="cls-10" d="m273.79,596c0,5.73-4.64,10.37-10.37,10.37s-10.37-4.64-10.37-10.37,4.64-10.37,10.37-10.37,10.37,4.64,10.37,10.37"/>
          <path class="cls-10" d="m273.79,660c0,5.73-4.64,10.37-10.37,10.37s-10.37-4.64-10.37-10.37,4.64-10.37,10.37-10.37,10.37,4.64,10.37,10.37"/>
          <path class="cls-10" d="m321.16,660c0,5.73-4.64,10.37-10.37,10.37s-10.37-4.64-10.37-10.37,4.64-10.37,10.37-10.37,10.37,4.64,10.37,10.37"/>
          <path class="cls-10" d="m368.53,660c0,5.73-4.64,10.37-10.37,10.37s-10.37-4.64-10.37-10.37,4.64-10.37,10.37-10.37,10.37,4.64,10.37,10.37"/>
          <path class="cls-10" d="m415.89,660c0,5.73-4.64,10.37-10.37,10.37s-10.37-4.64-10.37-10.37,4.64-10.37,10.37-10.37,10.37,4.64,10.37,10.37"/>
          <path class="cls-10" d="m605.37,660c0,5.73-4.64,10.37-10.37,10.37s-10.37-4.64-10.37-10.37,4.64-10.37,10.37-10.37,10.37,4.64,10.37,10.37"/>
          <path class="cls-10" d="m652.74,596c0,5.73-4.64,10.37-10.37,10.37s-10.37-4.64-10.37-10.37,4.64-10.37,10.37-10.37,10.37,4.64,10.37,10.37"/>
          <path class="cls-10" d="m794.84,660c0,5.73-4.64,10.37-10.37,10.37s-10.37-4.64-10.37-10.37,4.64-10.37,10.37-10.37,10.37,4.64,10.37,10.37"/>
          <path class="cls-10" d="m889.58,660c0,5.73-4.64,10.37-10.37,10.37s-10.37-4.64-10.37-10.37,4.64-10.37,10.37-10.37,10.37,4.64,10.37,10.37"/>
          <path class="cls-10" d="m984.32,596c0,5.73-4.64,10.37-10.37,10.37s-10.37-4.64-10.37-10.37,4.64-10.37,10.37-10.37,10.37,4.64,10.37,10.37"/>
          <path class="cls-10" d="m984.32,660c0,5.73-4.64,10.37-10.37,10.37s-10.37-4.64-10.37-10.37,4.64-10.37,10.37-10.37,10.37,4.64,10.37,10.37"/>
          <path class="cls-10" d="m1031.68,596c0,5.73-4.64,10.37-10.37,10.37s-10.37-4.64-10.37-10.37,4.64-10.37,10.37-10.37,10.37,4.64,10.37,10.37"/>
          <path class="cls-10" d="m1173.79,596c0,5.73-4.64,10.37-10.37,10.37s-10.37-4.64-10.37-10.37,4.64-10.37,10.37-10.37,10.37,4.64,10.37,10.37"/>
          <path class="cls-10" d="m1173.79,660c0,5.73-4.64,10.37-10.37,10.37s-10.37-4.64-10.37-10.37,4.64-10.37,10.37-10.37,10.37,4.64,10.37,10.37"/>
          <path class="cls-10" d="m1268.53,596c0,5.73-4.64,10.37-10.37,10.37s-10.37-4.64-10.37-10.37,4.64-10.37,10.37-10.37,10.37,4.64,10.37,10.37"/>
          <path class="cls-10" d="m1268.53,660c0,5.73-4.64,10.37-10.37,10.37s-10.37-4.64-10.37-10.37,4.64-10.37,10.37-10.37,10.37,4.64,10.37,10.37"/>
          <path class="cls-10" d="m1315.89,660c0,5.73-4.64,10.37-10.37,10.37s-10.37-4.64-10.37-10.37,4.64-10.37,10.37-10.37,10.37,4.64,10.37,10.37"/>
          <path class="cls-10" d="m1363.26,660c0,5.73-4.64,10.37-10.37,10.37s-10.37-4.64-10.37-10.37,4.64-10.37,10.37-10.37,10.37,4.64,10.37,10.37"/>
          <path class="cls-10" d="m1410.63,596c0,5.73-4.64,10.37-10.37,10.37s-10.37-4.64-10.37-10.37,4.64-10.37,10.37-10.37,10.37,4.64,10.37,10.37"/>
          <path class="cls-10" d="m1410.63,660c0,5.73-4.64,10.37-10.37,10.37s-10.37-4.64-10.37-10.37,4.64-10.37,10.37-10.37,10.37,4.64,10.37,10.37"/>
          <path class="cls-10" d="m1458,660c0,5.73-4.64,10.37-10.37,10.37s-10.37-4.64-10.37-10.37,4.64-10.37,10.37-10.37,10.37,4.64,10.37,10.37"/>
          <path class="cls-10" d="m1505.37,596c0,5.73-4.64,10.37-10.37,10.37s-10.37-4.64-10.37-10.37,4.64-10.37,10.37-10.37,10.37,4.64,10.37,10.37"/>
          <path class="cls-10" d="m1552.74,596c0,5.73-4.64,10.37-10.37,10.37s-10.37-4.64-10.37-10.37,4.64-10.37,10.37-10.37,10.37,4.64,10.37,10.37"/>
          <path class="cls-10" d="m1600.1,596c0,5.73-4.64,10.37-10.37,10.37s-10.37-4.64-10.37-10.37,4.64-10.37,10.37-10.37,10.37,4.64,10.37,10.37"/>
          <path class="cls-10" d="m1600.1,660c0,5.73-4.64,10.37-10.37,10.37s-10.37-4.64-10.37-10.37,4.64-10.37,10.37-10.37,10.37,4.64,10.37,10.37"/>
          <path class="cls-10" d="m1836.95,596c0,5.73-4.64,10.37-10.37,10.37s-10.37-4.64-10.37-10.37,4.64-10.37,10.37-10.37,10.37,4.64,10.37,10.37"/>
          <path class="cls-10" d="m1836.95,660c0,5.73-4.64,10.37-10.37,10.37s-10.37-4.64-10.37-10.37,4.64-10.37,10.37-10.37,10.37,4.64,10.37,10.37"/>
          <path class="cls-10" d="m1884.32,596c0,5.73-4.64,10.37-10.37,10.37s-10.37-4.64-10.37-10.37,4.64-10.37,10.37-10.37,10.37,4.64,10.37,10.37"/>
          <path class="cls-10" d="m1931.68,596c0,5.73-4.64,10.37-10.37,10.37s-10.37-4.64-10.37-10.37,4.64-10.37,10.37-10.37,10.37,4.64,10.37,10.37"/>
          <path class="cls-10" d="m2073.79,660c0,5.73-4.64,10.37-10.37,10.37s-10.37-4.64-10.37-10.37,4.64-10.37,10.37-10.37,10.37,4.64,10.37,10.37"/>
          <path class="cls-10" d="m2168.53,596c0,5.73-4.64,10.37-10.37,10.37s-10.37-4.64-10.37-10.37,4.64-10.37,10.37-10.37,10.37,4.64,10.37,10.37"/>
          <path class="cls-10" d="m2310.63,660c0,5.73-4.64,10.37-10.37,10.37s-10.37-4.64-10.37-10.37,4.64-10.37,10.37-10.37,10.37,4.64,10.37,10.37"/>
          <path class="cls-10" d="m2500.1,596c0,5.73-4.64,10.37-10.37,10.37s-10.37-4.64-10.37-10.37,4.64-10.37,10.37-10.37,10.37,4.64,10.37,10.37"/>
          <path class="cls-10" d="m2547.47,660c0,5.73-4.64,10.37-10.37,10.37s-10.37-4.64-10.37-10.37,4.64-10.37,10.37-10.37,10.37,4.64,10.37,10.37"/>
          <path class="cls-10" d="m2594.84,660c0,5.73-4.64,10.37-10.37,10.37s-10.37-4.64-10.37-10.37,4.64-10.37,10.37-10.37,10.37,4.64,10.37,10.37"/>
          <path class="cls-10" d="m2689.58,596c0,5.73-4.64,10.37-10.37,10.37s-10.37-4.64-10.37-10.37,4.64-10.37,10.37-10.37,10.37,4.64,10.37,10.37"/>
          <path class="cls-10" d="m2689.58,660c0,5.73-4.64,10.37-10.37,10.37s-10.37-4.64-10.37-10.37,4.64-10.37,10.37-10.37,10.37,4.64,10.37,10.37"/>
          <path class="cls-10" d="m2736.95,660c0,5.73-4.64,10.37-10.37,10.37s-10.37-4.64-10.37-10.37,4.64-10.37,10.37-10.37,10.37,4.64,10.37,10.37"/>
        </g>
      </g>
    </g>
  </g>
  <g>
    <line x1="1469.26" y1="53.31" x2="1473.05" y2="691.31"/>
    <g>
      <line class="cls-4" x1="1469.26" y1="53.31" x2="1469.3" y2="60.81"/>
      <line class="cls-2" x1="1469.39" y1="76.01" x2="1472.96" y2="676.21"/>
      <line class="cls-4" x1="1473.01" y1="683.81" x2="1473.05" y2="691.31"/>
    </g>
  </g>
  <g>
    <line x1="2416.69" y1="52.22" x2="2420.49" y2="690.22"/>
    <g>
      <line class="cls-4" x1="2416.69" y1="52.22" x2="2416.74" y2="59.72"/>
      <line class="cls-2" x1="2416.83" y1="74.91" x2="2420.4" y2="675.12"/>
      <line class="cls-4" x1="2420.44" y1="682.72" x2="2420.49" y2="690.22"/>
    </g>
  </g>
  <text class="cls-29" transform="translate(1389.67 125.4)"><tspan class="cls-18" x="0" y="0">H</tspan><tspan class="cls-7" x="19.86" y="0">igh</tspan></text>
  <text class="cls-29" transform="translate(2039.74 125.4)"><tspan class="cls-24" x="0" y="0">M</tspan><tspan x="24.3" y="0">edium</tspan></text>
  <text class="cls-29" transform="translate(2447.09 125.4)"><tspan class="cls-27" x="0" y="0">L</tspan><tspan class="cls-28" x="13.74" y="0">o</tspan><tspan x="30" y="0">w</tspan></text>
</svg>