<?xml version="1.0" encoding="utf-8"?>
<!-- Generator: Adobe Illustrator 27.4.1, SVG Export Plug-In . SVG Version: 6.00 Build 0)  -->
<svg version="1.1" id="Layer_1" xmlns="http://www.w3.org/2000/svg" xmlns:xlink="http://www.w3.org/1999/xlink" x="0px" y="0px"
	 viewBox="0 0 1979 924" style="enable-background:new 0 0 1979 924;" xml:space="preserve">
<style type="text/css">
	.st0{fill:#FFFFFF;}
	.st1{fill:none;}
	.st2{fill:none;stroke:#888888;stroke-miterlimit:10;}
	.st3{display:none;fill:none;stroke:#888888;stroke-miterlimit:10;}
	.st4{font-family:'Helvetica';}
	.st5{font-size:20px;}
	.st6{fill:#3B528B;}
	.st7{font-family:'Helvetica-Bold';}
	.st8{font-size:15px;}
	.st9{font-size:35px;}
	.st10{display:none;}
	.st11{font-size:23px;}
	.st12{fill:#F7F7F7;}
	.st13{fill:#E6E6E6;}
	.st14{display:none;fill:#E6E6E6;}
	.st15{fill:none;stroke:#000000;stroke-width:4;stroke-miterlimit:10;}
	.st16{fill:none;stroke:#000000;stroke-width:4;stroke-miterlimit:10;stroke-dasharray:15.1954,15.1954;}
	.st17{font-family:'MyriadPro-Regular';}
	.st18{font-size:30px;}
</style>
<rect class="st0" width="1979" height="924"/>
<g transform="translate(136,54)">
	<g>
		<g transform="translate(0,0)">
			<path class="st1" d="M0,0L0,0L0,0L0,0z"/>
			<g>
				<g>
					<g transform="translate(0,0)">
						<path class="st1" d="M0,0L0,0L0,0L0,0z"/>
						<g>
							<g>
								<g transform="translate(0,0)">
									<path class="st1" d="M0,0h1700v480H0V0z"/>
									<g>
										<g>
											<g transform="translate(0.5,480.5)">
												<path pointer-events="none" class="st1" d="M0,0L0,0L0,0L0,0z"/>
												<g>
													<g pointer-events="none">
														<line class="st2" x1="0" y1="0" x2="1700" y2="0"/>
													</g>
												</g>
												<path pointer-events="none" class="st3" d="M0,0"/>
											</g>
										</g>
										<g>
											<g transform="translate(0.5,0.5)">
												<path pointer-events="none" class="st1" d="M0,0L0,0L0,0L0,0z"/>
												<g>
													<g pointer-events="none">
														<line class="st2" x1="0" y1="480" x2="-5" y2="480"/>
														<line class="st2" x1="0" y1="446" x2="-5" y2="446"/>
														<line class="st2" x1="0" y1="411" x2="-5" y2="411"/>
														<line class="st2" x1="0" y1="377" x2="-5" y2="377"/>
														<line class="st2" x1="0" y1="343" x2="-5" y2="343"/>
														<line class="st2" x1="0" y1="309" x2="-5" y2="309"/>
														<line class="st2" x1="0" y1="274" x2="-5" y2="274"/>
														<line class="st2" x1="0" y1="240" x2="-5" y2="240"/>
														<line class="st2" x1="0" y1="206" x2="-5" y2="206"/>
														<line class="st2" x1="0" y1="171" x2="-5" y2="171"/>
														<line class="st2" x1="0" y1="137" x2="-5" y2="137"/>
														<line class="st2" x1="0" y1="103" x2="-5" y2="103"/>
														<line class="st2" x1="0" y1="69" x2="-5" y2="69"/>
														<line class="st2" x1="0" y1="34" x2="-5" y2="34"/>
														<line class="st2" x1="0" y1="0" x2="-5" y2="0"/>
													</g>
													<g pointer-events="none">
														<text transform="matrix(1 0 0 1 -18.123 486)" class="st4 st5">0</text>
														<text transform="matrix(1 0 0 1 -79.2949 451.7143)" class="st4 st5">500,000</text>
														<text transform="matrix(1 0 0 1 -95.9746 417.4286)" class="st4 st5">1,000,000</text>
														<text transform="matrix(1 0 0 1 -95.9746 383.1428)" class="st4 st5">1,500,000</text>
														<text transform="matrix(1 0 0 1 -95.9746 348.8572)" class="st4 st5">2,000,000</text>
														<text transform="matrix(1 0 0 1 -95.9746 314.5714)" class="st4 st5">2,500,000</text>
														<text transform="matrix(1 0 0 1 -95.9746 280.2857)" class="st4 st5">3,000,000</text>
														<text transform="matrix(1 0 0 1 -95.9746 246)" class="st4 st5">3,500,000</text>
														<text transform="matrix(1 0 0 1 -95.9746 211.7143)" class="st4 st5">4,000,000</text>
														<text transform="matrix(1 0 0 1 -95.9746 177.4286)" class="st4 st5">4,500,000</text>
														<text transform="matrix(1 0 0 1 -95.9746 143.1428)" class="st4 st5">5,000,000</text>
														<text transform="matrix(1 0 0 1 -95.9746 108.8571)" class="st4 st5">5,500,000</text>
														<text transform="matrix(1 0 0 1 -95.9746 74.5714)" class="st4 st5">6,000,000</text>
														<text transform="matrix(1 0 0 1 -95.9746 40.2857)" class="st4 st5">6,500,000</text>
														<text transform="matrix(1 0 0 1 -95.9746 6)" class="st4 st5">7,000,000</text>
													</g>
													<g pointer-events="none">
														<line class="st2" x1="0" y1="480" x2="0" y2="0"/>
													</g>
												</g>
												<path pointer-events="none" class="st3" d="M0,0"/>
											</g>
										</g>
										<g>
											<path class="st6" d="M12.7,31.3h40V480h-40L12.7,31.3z"/>
											<path class="st6" d="M78.1,95.4h40V480h-40V95.4z"/>
											<path class="st6" d="M143.5,121.5h40V480h-40V121.5z"/>
											<path class="st6" d="M208.8,137.7h40V480h-40V137.7z"/>
											<path class="st6" d="M274.2,145.8h40V480h-40V145.8z"/>
											<path class="st6" d="M339.6,147h40v333h-40V147z"/>
											<path class="st6" d="M405,160.9h40V480h-40V160.9z"/>
											<path class="st6" d="M470.4,161.9h40V480h-40V161.9z"/>
											<path class="st6" d="M535.8,164.5h40V480h-40V164.5z"/>
											<path class="st6" d="M601.2,164.5h40V480h-40V164.5z"/>
											<path class="st6" d="M666.5,174.2h40V480h-40V174.2z"/>
											<path class="st6" d="M731.9,181.3h40V480h-40V181.3z"/>
											<path class="st6" d="M797.3,184.2h40V480h-40V184.2z"/>
											<path class="st6" d="M862.7,216.5h40V480h-40V216.5z"/>
											<path class="st6" d="M928.1,220.2h40V480h-40V220.2z"/>
											<path class="st6" d="M993.5,222.8h40V480h-40V222.8z"/>
											<path class="st6" d="M1058.8,224.8h40V480h-40V224.8z"/>
											<path class="st6" d="M1124.2,232.9h40V480h-40V232.9z"/>
											<path class="st6" d="M1189.6,237.2h40V480h-40V237.2z"/>
											<path class="st6" d="M1255,253.1h40V480h-40V253.1z"/>
											<path class="st6" d="M1320.4,256.7h40V480h-40V256.7z"/>
											<path class="st6" d="M1385.8,258.9h40V480h-40V258.9z"/>
											<path class="st6" d="M1451.2,263.5h40V480h-40V263.5z"/>
											<path class="st6" d="M1516.5,331.4h40V480h-40V331.4z"/>
											<path class="st6" d="M1581.9,339.3h40V480h-40V339.3z"/>
											<path class="st6" d="M1647.3,353h40v127h-40V353z"/>
										</g>
										<g>
											<text transform="matrix(1 0 0 1 -0.6732 26.3157)" class="st6 st7 st8">6,543,312</text>
											<text transform="matrix(1 0 0 1 64.7114 90.4487)" class="st6 st7 st8">5,608,040</text>
											<text transform="matrix(1 0 0 1 130.0961 116.5183)" class="st6 st7 st8">5,227,858</text>
											<text transform="matrix(1 0 0 1 195.4807 132.7476)" class="st6 st7 st8">4,991,181</text>
											<text transform="matrix(1 0 0 1 260.8653 140.8126)" class="st6 st7 st8">4,873,567</text>
											<text transform="matrix(1 0 0 1 326.2499 142.0494)" class="st6 st7 st8">4,855,529</text>
											<text transform="matrix(1 0 0 1 391.6345 155.8706)" class="st6 st7 st8">4,653,970</text>
											<text transform="matrix(1 0 0 1 457.0192 156.8508)" class="st6 st7 st8">4,639,675</text>
											<text transform="matrix(1 0 0 1 522.4037 159.5166)" class="st6 st7 st8">4,600,800</text>
											<text transform="matrix(1 0 0 1 587.7884 159.5379)" class="st6 st7 st8">4,600,489</text>
											<text transform="matrix(1 0 0 1 653.173 169.1642)" class="st6 st7 st8">4,460,105</text>
											<text transform="matrix(1 0 0 1 718.5576 176.3354)" class="st6 st7 st8">4,355,525</text>
											<text transform="matrix(1 0 0 1 784.3524 179.1747)" class="st6 st7 st8">4,314,118</text>
											<text transform="matrix(1 0 0 1 849.3268 211.4594)" class="st6 st7 st8">3,843,301</text>
											<text transform="matrix(1 0 0 1 914.7114 215.2271)" class="st6 st7 st8">3,788,356</text>
											<text transform="matrix(1 0 0 1 980.0961 217.8043)" class="st6 st7 st8">3,750,771</text>
											<text transform="matrix(1 0 0 1 1045.4807 219.7998)" class="st6 st7 st8">3,721,669</text>
											<text transform="matrix(1 0 0 1 1110.8652 227.9058)" class="st6 st7 st8">3,603,458</text>
											<text transform="matrix(1 0 0 1 1176.66 232.2493)" class="st6 st7 st8">3,540,114</text>
											<text transform="matrix(1 0 0 1 1241.6345 248.0696)" class="st6 st7 st8">3,309,401</text>
											<text transform="matrix(1 0 0 1 1307.0192 251.6846)" class="st6 st7 st8">3,256,683</text>
											<text transform="matrix(1 0 0 1 1372.4038 253.9342)" class="st6 st7 st8">3,223,876</text>
											<text transform="matrix(1 0 0 1 1437.7883 258.4839)" class="st6 st7 st8">3,157,527</text>
											<text transform="matrix(1 0 0 1 1503.173 326.4481)" class="st6 st7 st8">2,166,381</text>
											<text transform="matrix(1 0 0 1 1568.5576 334.2986)" class="st6 st7 st8">2,051,896</text>
											<text transform="matrix(1 0 0 1 1633.9423 347.9755)" class="st6 st7 st8">1,852,441</text>
										</g>
										<g>
											<g transform="translate(850,-49)">
												<path pointer-events="none" class="st1" d="M0,0L0,0L0,0L0,0z"/>
												<g>
													<g pointer-events="none">
														<text transform="matrix(1 0 0 1 -281.051 28)" class="st7 st9">MBARC-26 Genome Sizes (bases)</text>
													</g>
												</g>
												<path pointer-events="none" class="st10" d="M0,0"/>
											</g>
										</g>
									</g>
									<path class="st10" d="M0,0"/>
								</g>
							</g>
						</g>
						<path class="st10" d="M0,0"/>
					</g>
				</g>
				<g>
					<g transform="translate(0,510)">
						<path class="st1" d="M0,0h1700v128H0V0z"/>
						<g>
							<g>
								<g transform="translate(0.5,128.5)">
									<path pointer-events="none" class="st1" d="M0,0L0,0L0,0L0,0z"/>
									<g>
										<g pointer-events="none">
											<text transform="matrix(0.7071 -0.7071 0.7071 0.7071 -119.2114 176.0312)" class="st4 st5">Nocardiopsis_dassonvillei</text>
											<text transform="matrix(0.7071 -0.7071 0.7071 0.7071 -45.9685 168.1729)" class="st4 st5">Echinicola_vietnamensis</text>
											<text transform="matrix(0.7071 -0.7071 0.7071 0.7071 54.7923 132.7969)" class="st4 st5">Terriglobus_roseus</text>
											<text transform="matrix(0.7071 -0.7071 0.7071 0.7071 49.4177 203.5557)" class="st4 st5">Desulfosporosinus_acidiphilus</text>
											<text transform="matrix(0.7071 -0.7071 0.7071 0.7071 131.3269 187.0312)" class="st4 st5">Desulfosporosinus_meridiei</text>
											<text transform="matrix(0.7071 -0.7071 0.7071 0.7071 184.9033 198.8394)" class="st4 st5">Desulfotomaculum_gibsoniae</text>
											<text transform="matrix(0.7071 -0.7071 0.7071 0.7071 270.7139 178.4136)" class="st4 st5">Spirochaeta_smaragdinae</text>
											<text transform="matrix(0.7071 -0.7071 0.7071 0.7071 466.6165 47.8955)" class="st4 st5">E.coli</text>
											<text transform="matrix(0.7071 -0.7071 0.7071 0.7071 438.4405 141.4561)" class="st4 st5">Salmonella_enterica</text>
											<text transform="matrix(0.7071 -0.7071 0.7071 0.7071 488.1087 157.1729)" class="st4 st5">Pseudomonas_stutzeri</text>
											<text transform="matrix(0.7071 -0.7071 0.7071 0.7071 572.3447 138.3213)" class="st4 st5">Salmonella_bongori</text>
											<text transform="matrix(0.7071 -0.7071 0.7071 0.7071 602.3948 173.6558)" class="st4 st5">Thermobacillus_composti</text>
											<text transform="matrix(0.7071 -0.7071 0.7071 0.7071 674.0493 167.3857)" class="st4 st5">Natronococcus_occultus</text>
											<text transform="matrix(0.7071 -0.7071 0.7071 0.7071 730.0359 176.7837)" class="st4 st5">Clostridium_thermocellum</text>
											<text transform="matrix(0.7071 -0.7071 0.7071 0.7071 787.5276 184.6768)" class="st4 st5">Natronobacterium_gregoryi</text>
											<text transform="matrix(0.7071 -0.7071 0.7071 0.7071 837.9968 199.5923)" class="st4 st5">Coraliomargarita_akajimensis</text>
											<text transform="matrix(0.7071 -0.7071 0.7071 0.7071 948.9636 154.0103)" class="st4 st5">Meiothermus_silvanus</text>
											<text transform="matrix(0.7071 -0.7071 0.7071 0.7071 1039.4836 128.8745)" class="st4 st5">Frateuria_aurantia</text>
											<text transform="matrix(0.7071 -0.7071 0.7071 0.7071 1120.6055 113.1372)" class="st4 st5">Hirschia_baltica</text>
											<text transform="matrix(0.7071 -0.7071 0.7071 0.7071 1097.9609 201.1665)" class="st4 st5">Corynebacterium_glutamicum</text>
											<text transform="matrix(0.7071 -0.7071 0.7071 0.7071 1201.8564 162.6553)" class="st4 st5">Clostridium_perfringens</text>
											<text transform="matrix(0.7071 -0.7071 0.7071 0.7071 1314.3977 115.499)" class="st4 st5">Halovivax_ruber</text>
											<text transform="matrix(0.7071 -0.7071 0.7071 0.7071 1341.2366 154.0444)" class="st4 st5">Segniliparus_rotundus</text>
											<text transform="matrix(0.7071 -0.7071 0.7071 0.7071 1353.1877 207.478)" class="st4 st5">Fervidobacterium_pennivorans</text>
											<text transform="matrix(0.7071 -0.7071 0.7071 0.7071 1531.7649 94.2856)" class="st4 st5">Olsenella_uli</text>
											<text transform="matrix(0.7071 -0.7071 0.7071 0.7071 1519.3125 172.1226)" class="st4 st5">Streptococcus_pyogenes</text>
										</g>
										<g pointer-events="none">
											<text transform="matrix(1 0 0 1 806.5269 222)" class="st7 st11">Species</text>
										</g>
									</g>
									<path pointer-events="none" class="st10" d="M0,0"/>
								</g>
							</g>
							<g>
								<g transform="translate(1700.5,0.5)">
									<path pointer-events="none" class="st1" d="M0,0L0,0L0,0L0,0z"/>
									<g>
										<g pointer-events="none">
											<text transform="matrix(1 0 0 1 2 37.5)" class="st7 st5">phyloFlash hit</text>
											<text transform="matrix(1 0 0 1 2 101.5)" class="st7 st5">DeLUCS hit</text>
										</g>
									</g>
									<path pointer-events="none" class="st10" d="M0,0"/>
								</g>
							</g>
							<g>
								<path class="st6" d="M42.7,32c0,5.5-4.5,10-10,10s-10-4.5-10-10s4.5-10,10-10S42.7,26.5,42.7,32"/>
								<path class="st6" d="M42.7,96c0,5.5-4.5,10-10,10s-10-4.5-10-10s4.5-10,10-10S42.7,90.5,42.7,96"/>
								<path class="st6" d="M108.1,32c0,5.5-4.5,10-10,10s-10-4.5-10-10s4.5-10,10-10S108.1,26.5,108.1,32"/>
								<path class="st6" d="M108.1,96c0,5.5-4.5,10-10,10s-10-4.5-10-10s4.5-10,10-10S108.1,90.5,108.1,96"/>
								<path class="st6" d="M173.5,32c0,5.5-4.5,10-10,10s-10-4.5-10-10s4.5-10,10-10S173.5,26.5,173.5,32"/>
								<path class="st6" d="M173.5,96c0,5.5-4.5,10-10,10s-10-4.5-10-10s4.5-10,10-10S173.5,90.5,173.5,96"/>
								<path class="st6" d="M238.8,32c0,5.5-4.5,10-10,10s-10-4.5-10-10s4.5-10,10-10S238.8,26.5,238.8,32"/>
								<path class="st6" d="M238.8,96c0,5.5-4.5,10-10,10s-10-4.5-10-10s4.5-10,10-10S238.8,90.5,238.8,96"/>
								<path class="st6" d="M304.2,32c0,5.5-4.5,10-10,10s-10-4.5-10-10s4.5-10,10-10S304.2,26.5,304.2,32"/>
								<path class="st6" d="M304.2,96c0,5.5-4.5,10-10,10s-10-4.5-10-10s4.5-10,10-10S304.2,90.5,304.2,96"/>
								<path class="st6" d="M369.6,32c0,5.5-4.5,10-10,10s-10-4.5-10-10s4.5-10,10-10S369.6,26.5,369.6,32"/>
								<path class="st6" d="M369.6,96c0,5.5-4.5,10-10,10s-10-4.5-10-10s4.5-10,10-10S369.6,90.5,369.6,96"/>
								<path class="st6" d="M435,32c0,5.5-4.5,10-10,10s-10-4.5-10-10s4.5-10,10-10S435,26.5,435,32"/>
								<path class="st6" d="M435,96c0,5.5-4.5,10-10,10s-10-4.5-10-10s4.5-10,10-10S435,90.5,435,96"/>
								<path class="st6" d="M500.4,32c0,5.5-4.5,10-10,10s-10-4.5-10-10s4.5-10,10-10S500.4,26.5,500.4,32"/>
								<path class="st6" d="M500.4,96c0,5.5-4.5,10-10,10s-10-4.5-10-10s4.5-10,10-10S500.4,90.5,500.4,96"/>
								<path class="st6" d="M565.8,32c0,5.5-4.5,10-10,10s-10-4.5-10-10s4.5-10,10-10S565.8,26.5,565.8,32"/>
								<path class="st6" d="M565.8,96c0,5.5-4.5,10-10,10s-10-4.5-10-10s4.5-10,10-10S565.8,90.5,565.8,96"/>
								<path class="st6" d="M631.2,32c0,5.5-4.5,10-10,10s-10-4.5-10-10s4.5-10,10-10S631.2,26.5,631.2,32"/>
								<path class="st6" d="M631.2,96c0,5.5-4.5,10-10,10s-10-4.5-10-10s4.5-10,10-10S631.2,90.5,631.2,96"/>
								<path class="st6" d="M696.5,32c0,5.5-4.5,10-10,10s-10-4.5-10-10s4.5-10,10-10S696.5,26.5,696.5,32"/>
								<path class="st6" d="M696.5,96c0,5.5-4.5,10-10,10s-10-4.5-10-10s4.5-10,10-10S696.5,90.5,696.5,96"/>
								<path class="st6" d="M761.9,32c0,5.5-4.5,10-10,10s-10-4.5-10-10s4.5-10,10-10S761.9,26.5,761.9,32"/>
								<path class="st6" d="M761.9,96c0,5.5-4.5,10-10,10s-10-4.5-10-10s4.5-10,10-10S761.9,90.5,761.9,96"/>
								<path class="st6" d="M827.3,32c0,5.5-4.5,10-10,10s-10-4.5-10-10s4.5-10,10-10S827.3,26.5,827.3,32"/>
								<path class="st6" d="M827.3,96c0,5.5-4.5,10-10,10s-10-4.5-10-10s4.5-10,10-10S827.3,90.5,827.3,96"/>
								<path class="st6" d="M892.7,32c0,5.5-4.5,10-10,10s-10-4.5-10-10s4.5-10,10-10S892.7,26.5,892.7,32"/>
								<path class="st6" d="M892.7,96c0,5.5-4.5,10-10,10s-10-4.5-10-10s4.5-10,10-10S892.7,90.5,892.7,96"/>
								<path class="st6" d="M958.1,32c0,5.5-4.5,10-10,10s-10-4.5-10-10s4.5-10,10-10S958.1,26.5,958.1,32"/>
								<path class="st6" d="M958.1,96c0,5.5-4.5,10-10,10s-10-4.5-10-10s4.5-10,10-10S958.1,90.5,958.1,96"/>
								<path class="st6" d="M1023.5,32c0,5.5-4.5,10-10,10s-10-4.5-10-10s4.5-10,10-10S1023.5,26.5,1023.5,32"/>
								<path class="st6" d="M1023.5,96c0,5.5-4.5,10-10,10s-10-4.5-10-10s4.5-10,10-10S1023.5,90.5,1023.5,96"/>
								<path class="st6" d="M1088.8,32c0,5.5-4.5,10-10,10s-10-4.5-10-10s4.5-10,10-10S1088.8,26.5,1088.8,32"/>
								<path class="st6" d="M1088.8,96c0,5.5-4.5,10-10,10s-10-4.5-10-10s4.5-10,10-10S1088.8,90.5,1088.8,96"/>
								<path class="st6" d="M1154.2,32c0,5.5-4.5,10-10,10s-10-4.5-10-10s4.5-10,10-10S1154.2,26.5,1154.2,32"/>
								<path class="st6" d="M1154.2,96c0,5.5-4.5,10-10,10s-10-4.5-10-10s4.5-10,10-10S1154.2,90.5,1154.2,96"/>
								<path class="st6" d="M1219.6,32c0,5.5-4.5,10-10,10s-10-4.5-10-10s4.5-10,10-10S1219.6,26.5,1219.6,32"/>
								<path class="st6" d="M1219.6,96c0,5.5-4.5,10-10,10s-10-4.5-10-10s4.5-10,10-10S1219.6,90.5,1219.6,96"/>
								<path class="st6" d="M1285,32c0,5.5-4.5,10-10,10s-10-4.5-10-10s4.5-10,10-10S1285,26.5,1285,32"/>
								<path class="st6" d="M1285,96c0,5.5-4.5,10-10,10s-10-4.5-10-10s4.5-10,10-10S1285,90.5,1285,96"/>
								<path class="st6" d="M1350.4,32c0,5.5-4.5,10-10,10s-10-4.5-10-10s4.5-10,10-10S1350.4,26.5,1350.4,32"/>
								<path class="st6" d="M1350.4,96c0,5.5-4.5,10-10,10s-10-4.5-10-10s4.5-10,10-10S1350.4,90.5,1350.4,96"/>
								<path class="st6" d="M1415.8,32c0,5.5-4.5,10-10,10s-10-4.5-10-10s4.5-10,10-10S1415.8,26.5,1415.8,32"/>
								<path class="st6" d="M1415.8,96c0,5.5-4.5,10-10,10s-10-4.5-10-10s4.5-10,10-10S1415.8,90.5,1415.8,96"/>
								<path class="st6" d="M1481.2,32c0,5.5-4.5,10-10,10s-10-4.5-10-10s4.5-10,10-10S1481.2,26.5,1481.2,32"/>
								<path class="st6" d="M1481.2,96c0,5.5-4.5,10-10,10s-10-4.5-10-10s4.5-10,10-10S1481.2,90.5,1481.2,96"/>
								<path class="st6" d="M1546.5,32c0,5.5-4.5,10-10,10s-10-4.5-10-10s4.5-10,10-10S1546.5,26.5,1546.5,32"/>
								<path class="st6" d="M1546.5,96c0,5.5-4.5,10-10,10s-10-4.5-10-10s4.5-10,10-10S1546.5,90.5,1546.5,96"/>
								<path class="st6" d="M1611.9,32c0,5.5-4.5,10-10,10s-10-4.5-10-10s4.5-10,10-10S1611.9,26.5,1611.9,32"/>
								<path class="st6" d="M1611.9,96c0,5.5-4.5,10-10,10s-10-4.5-10-10s4.5-10,10-10S1611.9,90.5,1611.9,96"/>
								<path class="st6" d="M1677.3,32c0,5.5-4.5,10-10,10s-10-4.5-10-10s4.5-10,10-10S1677.3,26.5,1677.3,32"/>
								<path class="st6" d="M1677.3,96c0,5.5-4.5,10-10,10s-10-4.5-10-10s4.5-10,10-10S1677.3,90.5,1677.3,96"/>
							</g>
							<g pointer-events="none">
								<path class="st12" d="M0,64h65.4v64H0V64z"/>
								<path class="st12" d="M65.4,64h65.4v64H65.4V64z"/>
								<path class="st12" d="M130.8,64h65.4v64h-65.4V64z"/>
								<path class="st12" d="M196.2,64h65.4v64h-65.4V64z"/>
								<path class="st12" d="M261.5,64h65.4v64h-65.4V64z"/>
								<path class="st12" d="M326.9,64h65.4v64h-65.4V64z"/>
								<path class="st12" d="M392.3,64h65.4v64h-65.4V64z"/>
								<path class="st12" d="M457.7,64h65.4v64h-65.4L457.7,64z"/>
								<path class="st12" d="M523.1,64h65.4v64h-65.4V64z"/>
								<path class="st12" d="M588.5,64h65.4v64h-65.4V64z"/>
								<path class="st12" d="M653.8,64h65.4v64h-65.4L653.8,64z"/>
								<path class="st12" d="M719.2,64h65.4v64h-65.4L719.2,64z"/>
								<path class="st12" d="M784.6,64H850v64h-65.4V64z"/>
								<path class="st12" d="M850,64h65.4v64H850V64z"/>
								<path class="st12" d="M915.4,64h65.4v64h-65.4V64z"/>
								<path class="st12" d="M980.8,64h65.4v64h-65.4L980.8,64z"/>
								<path class="st12" d="M1046.2,64h65.4v64h-65.4V64z"/>
								<path class="st12" d="M1111.5,64h65.4v64h-65.4V64z"/>
								<path class="st12" d="M1176.9,64h65.4v64h-65.4V64z"/>
								<path class="st12" d="M1242.3,64h65.4v64h-65.4V64z"/>
								<path class="st12" d="M1307.7,64h65.4v64h-65.4V64z"/>
								<path class="st12" d="M1373.1,64h65.4v64h-65.4V64z"/>
								<path class="st12" d="M1438.5,64h65.4v64h-65.4V64z"/>
								<path class="st12" d="M1503.8,64h65.4v64h-65.4V64z"/>
								<path class="st12" d="M1569.2,64h65.4v64h-65.4V64z"/>
								<path class="st12" d="M1634.6,64h65.4v64h-65.4V64z"/>
							</g>
							<g pointer-events="none">
								<path class="st6" d="M42.7,32c0,5.5-4.5,10-10,10s-10-4.5-10-10s4.5-10,10-10S42.7,26.5,42.7,32"/>
								<path class="st6" d="M42.7,96c0,5.5-4.5,10-10,10s-10-4.5-10-10s4.5-10,10-10S42.7,90.5,42.7,96"/>
								<path class="st6" d="M108.1,32c0,5.5-4.5,10-10,10s-10-4.5-10-10s4.5-10,10-10S108.1,26.5,108.1,32"/>
								<path class="st6" d="M108.1,96c0,5.5-4.5,10-10,10s-10-4.5-10-10s4.5-10,10-10S108.1,90.5,108.1,96"/>
								<path class="st6" d="M173.5,32c0,5.5-4.5,10-10,10s-10-4.5-10-10s4.5-10,10-10S173.5,26.5,173.5,32"/>
								<path class="st6" d="M173.5,96c0,5.5-4.5,10-10,10s-10-4.5-10-10s4.5-10,10-10S173.5,90.5,173.5,96"/>
								<path class="st6" d="M238.8,32c0,5.5-4.5,10-10,10s-10-4.5-10-10s4.5-10,10-10S238.8,26.5,238.8,32"/>
								<path class="st6" d="M238.8,96c0,5.5-4.5,10-10,10s-10-4.5-10-10s4.5-10,10-10S238.8,90.5,238.8,96"/>
								<path class="st6" d="M304.2,32c0,5.5-4.5,10-10,10s-10-4.5-10-10s4.5-10,10-10S304.2,26.5,304.2,32"/>
								<path class="st6" d="M304.2,96c0,5.5-4.5,10-10,10s-10-4.5-10-10s4.5-10,10-10S304.2,90.5,304.2,96"/>
								<path class="st6" d="M369.6,32c0,5.5-4.5,10-10,10s-10-4.5-10-10s4.5-10,10-10S369.6,26.5,369.6,32"/>
								<path class="st6" d="M369.6,96c0,5.5-4.5,10-10,10s-10-4.5-10-10s4.5-10,10-10S369.6,90.5,369.6,96"/>
								<path class="st6" d="M435,32c0,5.5-4.5,10-10,10s-10-4.5-10-10s4.5-10,10-10S435,26.5,435,32"/>
								<path class="st6" d="M435,96c0,5.5-4.5,10-10,10s-10-4.5-10-10s4.5-10,10-10S435,90.5,435,96"/>
								<path class="st6" d="M500.4,32c0,5.5-4.5,10-10,10s-10-4.5-10-10s4.5-10,10-10S500.4,26.5,500.4,32"/>
								<path class="st6" d="M500.4,96c0,5.5-4.5,10-10,10s-10-4.5-10-10s4.5-10,10-10S500.4,90.5,500.4,96"/>
								<path class="st6" d="M565.8,32c0,5.5-4.5,10-10,10s-10-4.5-10-10s4.5-10,10-10S565.8,26.5,565.8,32"/>
								<path class="st6" d="M565.8,96c0,5.5-4.5,10-10,10s-10-4.5-10-10s4.5-10,10-10S565.8,90.5,565.8,96"/>
								<path class="st6" d="M631.2,32c0,5.5-4.5,10-10,10s-10-4.5-10-10s4.5-10,10-10S631.2,26.5,631.2,32"/>
								<path class="st6" d="M631.2,96c0,5.5-4.5,10-10,10s-10-4.5-10-10s4.5-10,10-10S631.2,90.5,631.2,96"/>
								<path class="st6" d="M696.5,32c0,5.5-4.5,10-10,10s-10-4.5-10-10s4.5-10,10-10S696.5,26.5,696.5,32"/>
								<path class="st6" d="M696.5,96c0,5.5-4.5,10-10,10s-10-4.5-10-10s4.5-10,10-10S696.5,90.5,696.5,96"/>
								<path class="st6" d="M761.9,32c0,5.5-4.5,10-10,10s-10-4.5-10-10s4.5-10,10-10S761.9,26.5,761.9,32"/>
								<path class="st6" d="M761.9,96c0,5.5-4.5,10-10,10s-10-4.5-10-10s4.5-10,10-10S761.9,90.5,761.9,96"/>
								<path class="st6" d="M827.3,32c0,5.5-4.5,10-10,10s-10-4.5-10-10s4.5-10,10-10S827.3,26.5,827.3,32"/>
								<path class="st6" d="M827.3,96c0,5.5-4.5,10-10,10s-10-4.5-10-10s4.5-10,10-10S827.3,90.5,827.3,96"/>
								<path class="st6" d="M892.7,32c0,5.5-4.5,10-10,10s-10-4.5-10-10s4.5-10,10-10S892.7,26.5,892.7,32"/>
								<path class="st6" d="M892.7,96c0,5.5-4.5,10-10,10s-10-4.5-10-10s4.5-10,10-10S892.7,90.5,892.7,96"/>
								<path class="st6" d="M958.1,32c0,5.5-4.5,10-10,10s-10-4.5-10-10s4.5-10,10-10S958.1,26.5,958.1,32"/>
								<path class="st6" d="M958.1,96c0,5.5-4.5,10-10,10s-10-4.5-10-10s4.5-10,10-10S958.1,90.5,958.1,96"/>
								<path class="st6" d="M1023.5,32c0,5.5-4.5,10-10,10s-10-4.5-10-10s4.5-10,10-10S1023.5,26.5,1023.5,32"/>
								<path class="st6" d="M1023.5,96c0,5.5-4.5,10-10,10s-10-4.5-10-10s4.5-10,10-10S1023.5,90.5,1023.5,96"/>
								<path class="st6" d="M1088.8,32c0,5.5-4.5,10-10,10s-10-4.5-10-10s4.5-10,10-10S1088.8,26.5,1088.8,32"/>
								<path class="st6" d="M1088.8,96c0,5.5-4.5,10-10,10s-10-4.5-10-10s4.5-10,10-10S1088.8,90.5,1088.8,96"/>
								<path class="st6" d="M1154.2,32c0,5.5-4.5,10-10,10s-10-4.5-10-10s4.5-10,10-10S1154.2,26.5,1154.2,32"/>
								<path class="st6" d="M1154.2,96c0,5.5-4.5,10-10,10s-10-4.5-10-10s4.5-10,10-10S1154.2,90.5,1154.2,96"/>
								<path class="st6" d="M1219.6,32c0,5.5-4.5,10-10,10s-10-4.5-10-10s4.5-10,10-10S1219.6,26.5,1219.6,32"/>
								<path class="st6" d="M1219.6,96c0,5.5-4.5,10-10,10s-10-4.5-10-10s4.5-10,10-10S1219.6,90.5,1219.6,96"/>
								<path class="st6" d="M1285,32c0,5.5-4.5,10-10,10s-10-4.5-10-10s4.5-10,10-10S1285,26.5,1285,32"/>
								<path class="st6" d="M1285,96c0,5.5-4.5,10-10,10s-10-4.5-10-10s4.5-10,10-10S1285,90.5,1285,96"/>
								<path class="st6" d="M1350.4,32c0,5.5-4.5,10-10,10s-10-4.5-10-10s4.5-10,10-10S1350.4,26.5,1350.4,32"/>
								<path class="st6" d="M1350.4,96c0,5.5-4.5,10-10,10s-10-4.5-10-10s4.5-10,10-10S1350.4,90.5,1350.4,96"/>
								<path class="st6" d="M1415.8,32c0,5.5-4.5,10-10,10s-10-4.5-10-10s4.5-10,10-10S1415.8,26.5,1415.8,32"/>
								<path class="st6" d="M1415.8,96c0,5.5-4.5,10-10,10s-10-4.5-10-10s4.5-10,10-10S1415.8,90.5,1415.8,96"/>
								<path class="st6" d="M1481.2,32c0,5.5-4.5,10-10,10s-10-4.5-10-10s4.5-10,10-10S1481.2,26.5,1481.2,32"/>
								<path class="st6" d="M1481.2,96c0,5.5-4.5,10-10,10s-10-4.5-10-10s4.5-10,10-10S1481.2,90.5,1481.2,96"/>
								<path class="st6" d="M1546.5,32c0,5.5-4.5,10-10,10s-10-4.5-10-10s4.5-10,10-10S1546.5,26.5,1546.5,32"/>
								<path class="st6" d="M1546.5,96c0,5.5-4.5,10-10,10s-10-4.5-10-10s4.5-10,10-10S1546.5,90.5,1546.5,96"/>
								<path class="st6" d="M1611.9,32c0,5.5-4.5,10-10,10s-10-4.5-10-10s4.5-10,10-10S1611.9,26.5,1611.9,32"/>
								<path class="st6" d="M1611.9,96c0,5.5-4.5,10-10,10s-10-4.5-10-10s4.5-10,10-10S1611.9,90.5,1611.9,96"/>
								<path class="st6" d="M1677.3,32c0,5.5-4.5,10-10,10s-10-4.5-10-10s4.5-10,10-10S1677.3,26.5,1677.3,32"/>
								<path class="st6" d="M1677.3,96c0,5.5-4.5,10-10,10s-10-4.5-10-10s4.5-10,10-10S1677.3,90.5,1677.3,96"/>
							</g>
							<g pointer-events="none">
								<path class="st13" d="M43.1,32c0,5.7-4.6,10.4-10.4,10.4S22.3,37.7,22.3,32S27,21.6,32.7,21.6S43.1,26.3,43.1,32"/>
								<path class="st13" d="M500.8,32c0,5.7-4.6,10.4-10.4,10.4S480,37.7,480,32s4.6-10.4,10.4-10.4S500.8,26.3,500.8,32"/>
								<path class="st13" d="M696.9,32c0,5.7-4.6,10.4-10.4,10.4s-10.4-4.6-10.4-10.4s4.6-10.4,10.4-10.4S696.9,26.3,696.9,32"/>
								<path class="st13" d="M696.9,96c0,5.7-4.6,10.4-10.4,10.4s-10.4-4.6-10.4-10.4s4.6-10.4,10.4-10.4S696.9,90.3,696.9,96"/>
								<path class="st13" d="M1481.5,96c0,5.7-4.6,10.4-10.4,10.4s-10.4-4.6-10.4-10.4s4.6-10.4,10.4-10.4S1481.5,90.3,1481.5,96"
									/>
								<path class="st13" d="M1546.9,32c0,5.7-4.6,10.4-10.4,10.4s-10.4-4.6-10.4-10.4s4.6-10.4,10.4-10.4S1546.9,26.3,1546.9,32"
									/>
								<path class="st13" d="M1612.3,96c0,5.7-4.6,10.4-10.4,10.4s-10.4-4.6-10.4-10.4s4.6-10.4,10.4-10.4S1612.3,90.3,1612.3,96"
									/>
								<path class="st13" d="M1677.7,96c0,5.7-4.6,10.4-10.4,10.4s-10.4-4.6-10.4-10.4s4.6-10.4,10.4-10.4S1677.7,90.3,1677.7,96"
									/>
							</g>
						</g>
						<path class="st14" d="M0,0"/>
					</g>
				</g>
			</g>
			<path class="st14" d="M0,0"/>
		</g>
	</g>
</g>
<g>
	<line x1="330" y1="51" x2="333.8" y2="689"/>
	<g>
		<line class="st15" x1="330" y1="51" x2="330.1" y2="58.5"/>
		<line class="st16" x1="330.2" y1="73.7" x2="333.7" y2="673.9"/>
		<line class="st15" x1="333.8" y1="681.5" x2="333.8" y2="689"/>
	</g>
</g>
<g>
	<line x1="1637.3" y1="53" x2="1641.1" y2="691"/>
	<g>
		<line class="st15" x1="1637.3" y1="53" x2="1637.4" y2="60.5"/>
		<line class="st16" x1="1637.5" y1="75.7" x2="1641" y2="675.9"/>
		<line class="st15" x1="1641.1" y1="683.5" x2="1641.1" y2="691"/>
	</g>
</g>
<text transform="matrix(1 0 0 1 250.4405 123.0701)" class="st17 st18">High</text>
<text transform="matrix(1 0 0 1 900.5121 123.0703)" class="st17 st18">Medium</text>
<text transform="matrix(1 0 0 1 1667.7383 126.2112)" class="st17 st18">Low</text>
</svg>
