<?xml version="1.0" encoding="utf-8"?>
<!-- Generator: Adobe Illustrator 27.4.1, SVG Export Plug-In . SVG Version: 6.00 Build 0)  -->
<svg version="1.1" id="Layer_1" xmlns="http://www.w3.org/2000/svg" xmlns:xlink="http://www.w3.org/1999/xlink" x="0px" y="0px"
	 viewBox="0 0 2027 924" style="enable-background:new 0 0 2027 924;" xml:space="preserve">
<style type="text/css">
	.st0{fill:#FFFFFF;}
	.st1{fill:none;}
	.st2{fill:none;stroke:#888888;stroke-miterlimit:10;}
	.st3{display:none;fill:none;stroke:#888888;stroke-miterlimit:10;}
	.st4{font-family:'Helvetica';}
	.st5{font-size:20px;}
	.st6{fill:#3B528B;}
	.st7{font-family:'Helvetica-Bold';}
	.st8{fill:none;stroke:#5EC962;stroke-width:2;stroke-miterlimit:10;}
	.st9{font-size:35px;}
	.st10{display:none;}
	.st11{font-size:12px;}
	.st12{fill:#5EC962;}
	.st13{opacity:0.7;fill:#303030;enable-background:new    ;}
	.st14{display:none;fill:#303030;}
	.st15{font-size:23px;}
	.st16{fill:#F7F7F7;}
	.st17{fill:#E6E6E6;}
	.st18{display:none;fill:#E6E6E6;}
	.st19{fill:none;stroke:#000000;stroke-width:4;stroke-miterlimit:10;}
	.st20{fill:none;stroke:#000000;stroke-width:4;stroke-miterlimit:10;stroke-dasharray:15.1954,15.1954;}
	.st21{font-family:'MyriadPro-Regular';}
	.st22{font-size:30px;}
</style>
<rect class="st0" width="2027" height="924"/>
<g transform="translate(136,54)">
	<g>
		<g transform="translate(0,0)">
			<path class="st1" d="M0,0L0,0L0,0L0,0z"/>
			<g>
				<g>
					<g transform="translate(0,0)">
						<path class="st1" d="M0,0L0,0L0,0L0,0z"/>
						<g>
							<g>
								<g transform="translate(0,0)">
									<path class="st1" d="M0,0h1700v480H0V0z"/>
									<g>
										<g>
											<g transform="translate(0.5,480.5)">
												<path pointer-events="none" class="st1" d="M0,0L0,0L0,0L0,0z"/>
												<g>
													<g pointer-events="none">
														<line class="st2" x1="0" y1="0" x2="1700" y2="0"/>
													</g>
												</g>
												<path pointer-events="none" class="st3" d="M0,0"/>
											</g>
										</g>
										<g>
											<g transform="translate(0.5,0.5)">
												<path pointer-events="none" class="st1" d="M0,0L0,0L0,0L0,0z"/>
												<g>
													<g pointer-events="none">
														<line class="st2" x1="0" y1="480" x2="-5" y2="480"/>
														<line class="st2" x1="0" y1="450" x2="-5" y2="450"/>
														<line class="st2" x1="0" y1="420" x2="-5" y2="420"/>
														<line class="st2" x1="0" y1="390" x2="-5" y2="390"/>
														<line class="st2" x1="0" y1="360" x2="-5" y2="360"/>
														<line class="st2" x1="0" y1="330" x2="-5" y2="330"/>
														<line class="st2" x1="0" y1="300" x2="-5" y2="300"/>
														<line class="st2" x1="0" y1="270" x2="-5" y2="270"/>
														<line class="st2" x1="0" y1="240" x2="-5" y2="240"/>
														<line class="st2" x1="0" y1="210" x2="-5" y2="210"/>
														<line class="st2" x1="0" y1="180" x2="-5" y2="180"/>
														<line class="st2" x1="0" y1="150" x2="-5" y2="150"/>
														<line class="st2" x1="0" y1="120" x2="-5" y2="120"/>
														<line class="st2" x1="0" y1="90" x2="-5" y2="90"/>
														<line class="st2" x1="0" y1="60" x2="-5" y2="60"/>
														<line class="st2" x1="0" y1="30" x2="-5" y2="30"/>
														<line class="st2" x1="0" y1="0" x2="-5" y2="0"/>
													</g>
													<g pointer-events="none">
														<text transform="matrix(1 0 0 1 -18.123 486)" class="st4 st5">0</text>
														<text transform="matrix(1 0 0 1 -18.123 456)" class="st4 st5">5</text>
														<text transform="matrix(1 0 0 1 -29.2461 426)" class="st4 st5">10</text>
														<text transform="matrix(1 0 0 1 -29.2461 396)" class="st4 st5">15</text>
														<text transform="matrix(1 0 0 1 -29.2461 366)" class="st4 st5">20</text>
														<text transform="matrix(1 0 0 1 -29.2461 336)" class="st4 st5">25</text>
														<text transform="matrix(1 0 0 1 -29.2461 306)" class="st4 st5">30</text>
														<text transform="matrix(1 0 0 1 -29.2461 276)" class="st4 st5">35</text>
														<text transform="matrix(1 0 0 1 -29.2461 246)" class="st4 st5">40</text>
														<text transform="matrix(1 0 0 1 -29.2461 216)" class="st4 st5">45</text>
														<text transform="matrix(1 0 0 1 -29.2461 186)" class="st4 st5">50</text>
														<text transform="matrix(1 0 0 1 -29.2461 156)" class="st4 st5">55</text>
														<text transform="matrix(1 0 0 1 -29.2461 126)" class="st4 st5">60</text>
														<text transform="matrix(1 0 0 1 -29.2461 96)" class="st4 st5">65</text>
														<text transform="matrix(1 0 0 1 -29.2461 66)" class="st4 st5">70</text>
														<text transform="matrix(1 0 0 1 -29.2461 36)" class="st4 st5">75</text>
														<text transform="matrix(1 0 0 1 -29.2461 6)" class="st4 st5">80</text>
													</g>
													<g pointer-events="none">
														<line class="st2" x1="0" y1="480" x2="0" y2="0"/>
													</g>
												</g>
												<path pointer-events="none" class="st3" d="M0,0"/>
											</g>
										</g>
										<g>
											<path class="st6" d="M12.7,43.6h40V480h-40L12.7,43.6z"/>
											<path class="st6" d="M78.1,79.3h40V480h-40V79.3z"/>
											<path class="st6" d="M143.5,91.8h40V480h-40V91.8z"/>
											<path class="st6" d="M208.8,92h40v388h-40V92z"/>
											<path class="st6" d="M274.2,94h40v386h-40V94z"/>
											<path class="st6" d="M339.6,99.6h40V480h-40V99.6z"/>
											<path class="st6" d="M405,103.7h40V480h-40V103.7z"/>
											<path class="st6" d="M470.4,105.1h40V480h-40V105.1z"/>
											<path class="st6" d="M535.8,106.6h40V480h-40V106.6z"/>
											<path class="st6" d="M601.2,118.3h40V480h-40V118.3z"/>
											<path class="st6" d="M666.5,119.3h40V480h-40V119.3z"/>
											<path class="st6" d="M731.9,157.1h40V480h-40V157.1z"/>
											<path class="st6" d="M797.3,158.4h40V480h-40V158.4z"/>
											<path class="st6" d="M862.7,171.7h40V480h-40V171.7z"/>
											<path class="st6" d="M928.1,172h40v308h-40V172z"/>
											<path class="st6" d="M993.5,175.3h40V480h-40V175.3z"/>
											<path class="st6" d="M1058.8,186.2h40V480h-40V186.2z"/>
											<path class="st6" d="M1124.2,207.1h40V480h-40V207.1z"/>
											<path class="st6" d="M1189.6,208.9h40V480h-40V208.9z"/>
											<path class="st6" d="M1255,211.5h40V480h-40V211.5z"/>
											<path class="st6" d="M1320.4,227.3h40V480h-40V227.3z"/>
											<path class="st6" d="M1385.8,229.3h40V480h-40V229.3z"/>
											<path class="st6" d="M1451.2,246.1h40V480h-40V246.1z"/>
											<path class="st6" d="M1516.5,246.7h40V480h-40V246.7z"/>
											<path class="st6" d="M1581.9,248.9h40V480h-40V248.9z"/>
											<path class="st6" d="M1647.3,309.7h40V480h-40V309.7z"/>
										</g>
										<g>
											<text transform="matrix(1 0 0 1 21.5693 39.62)" class="st6 st7 st5">73</text>
											<text transform="matrix(1 0 0 1 86.9539 75.26)" class="st6 st7 st5">67</text>
											<text transform="matrix(1 0 0 1 152.3385 87.8)" class="st6 st7 st5">65</text>
											<text transform="matrix(1 0 0 1 217.7231 88.04)" class="st6 st7 st5">65</text>
											<text transform="matrix(1 0 0 1 283.1077 89.96)" class="st6 st7 st5">64</text>
											<text transform="matrix(1 0 0 1 348.4923 95.6)" class="st6 st7 st5">63</text>
											<text transform="matrix(1 0 0 1 413.877 99.68)" class="st6 st7 st5">63</text>
											<text transform="matrix(1 0 0 1 479.2615 101.06)" class="st6 st7 st5">62</text>
											<text transform="matrix(1 0 0 1 544.6462 102.56)" class="st6 st7 st5">62</text>
											<text transform="matrix(1 0 0 1 610.0308 114.32)" class="st6 st7 st5">60</text>
											<text transform="matrix(1 0 0 1 675.4154 115.28)" class="st6 st7 st5">60</text>
											<text transform="matrix(1 0 0 1 740.8 153.14)" class="st6 st7 st5">54</text>
											<text transform="matrix(1 0 0 1 806.1846 154.4)" class="st6 st7 st5">54</text>
											<text transform="matrix(1 0 0 1 871.5693 167.72)" class="st6 st7 st5">51</text>
											<text transform="matrix(1 0 0 1 936.9539 168.02)" class="st6 st7 st5">51</text>
											<text transform="matrix(1 0 0 1 1002.3385 171.26)" class="st6 st7 st5">51</text>
											<text transform="matrix(1 0 0 1 1067.7231 182.18)" class="st6 st7 st5">49</text>
											<text transform="matrix(1 0 0 1 1133.1077 203.06)" class="st6 st7 st5">45</text>
											<text transform="matrix(1 0 0 1 1198.4923 204.86)" class="st6 st7 st5">45</text>
											<text transform="matrix(1 0 0 1 1263.877 207.5)" class="st6 st7 st5">45</text>
											<text transform="matrix(1 0 0 1 1329.2616 223.34)" class="st6 st7 st5">42</text>
											<text transform="matrix(1 0 0 1 1394.6462 225.32)" class="st6 st7 st5">42</text>
											<text transform="matrix(1 0 0 1 1460.0308 242.06)" class="st6 st7 st5">39</text>
											<text transform="matrix(1 0 0 1 1525.4154 242.72)" class="st6 st7 st5">39</text>
											<text transform="matrix(1 0 0 1 1590.8 244.94)" class="st6 st7 st5">39</text>
											<text transform="matrix(1 0 0 1 1656.1847 305.72)" class="st6 st7 st5">28</text>
										</g>
										<g>
											<path class="st8" d="M1667.3,163.9l-65.4-0.2l-65.4-51.5l-65.4,37.1l-65.4,7l-65.4-4.8l-65.4-8.2l-65.4,21.3l-65.4-14.7
												l-65.4-3.3l-65.4,5.8l-65.4-3.4l-65.4,1.7l-65.4,6.1l-65.4-16.7l-65.4-6.8l-65.4,19.3l-65.4-26.3l-65.4,30.1L425,126.4
												l-65.4,23.4L294.2,128l-65.4-3.9l-65.4-27.3l-65.4,33l-65.4-1"/>
										</g>
										<g>
											<g transform="translate(850,-49)">
												<path pointer-events="none" class="st1" d="M0,0L0,0L0,0L0,0z"/>
												<g>
													<g pointer-events="none">
														<text transform="matrix(1 0 0 1 -192.4915 28)" class="st7 st9">MBARC-26 GC Content</text>
													</g>
												</g>
												<path pointer-events="none" class="st10" d="M0,0"/>
											</g>
										</g>
									</g>
									<path class="st10" d="M0,0"/>
								</g>
							</g>
							<g>
								<g transform="translate(1720,0)">
									<path class="st1" d="M0,0h20v40H0V0z"/>
									<g>
										<g>
											<g transform="translate(20.5,0.5)">
												<path pointer-events="none" class="st1" d="M0,0L0,0L0,0L0,0z"/>
												<g>
													<g pointer-events="none">
														<line class="st2" x1="0" y1="10" x2="5" y2="10"/>
														<line class="st2" x1="0" y1="30" x2="5" y2="30"/>
													</g>
													<g pointer-events="none">
														<text transform="matrix(1 0 0 1 7 16)" class="st4 st5">16S</text>
														<text transform="matrix(1 0 0 1 7 36)" class="st4 st5">Whole Genome</text>
													</g>
													<g pointer-events="none">
														<line class="st2" x1="0" y1="0" x2="0" y2="40"/>
													</g>
													<g pointer-events="none">
														<text transform="matrix(1 0 0 1 70.4346 -5)" class="st7 st11">y, x</text>
													</g>
												</g>
												<path pointer-events="none" class="st10" d="M0,0"/>
											</g>
										</g>
										<g pointer-events="none">
											<path class="st12" d="M2.5,8.5h15v3h-15V8.5z"/>
										</g>
										<g pointer-events="none">
											<path class="st13" d="M2.9,22.9h14.1v14.1H2.9V22.9z"/>
										</g>
									</g>
									<path class="st14" d="M0,0"/>
								</g>
							</g>
						</g>
						<path class="st14" d="M0,0"/>
					</g>
				</g>
				<g>
					<g transform="translate(0,510)">
						<path class="st1" d="M0,0h1700v128H0V0z"/>
						<g>
							<g>
								<g transform="translate(0.5,128.5)">
									<path pointer-events="none" class="st1" d="M0,0L0,0L0,0L0,0z"/>
									<g>
										<g pointer-events="none">
											<text transform="matrix(0.7071 -0.7071 0.7071 0.7071 -119.2114 176.0312)" class="st4 st5">Nocardiopsis_dassonvillei</text>
											<text transform="matrix(0.7071 -0.7071 0.7071 0.7071 -31.8403 154.0444)" class="st4 st5">Segniliparus_rotundus</text>
											<text transform="matrix(0.7071 -0.7071 0.7071 0.7071 93.3032 94.2856)" class="st4 st5">Olsenella_uli</text>
											<text transform="matrix(0.7071 -0.7071 0.7071 0.7071 85.5879 167.3857)" class="st4 st5">Natronococcus_occultus</text>
											<text transform="matrix(0.7071 -0.7071 0.7071 0.7071 202.8591 115.499)" class="st4 st5">Halovivax_ruber</text>
											<text transform="matrix(0.7071 -0.7071 0.7071 0.7071 254.8682 128.8745)" class="st4 st5">Frateuria_aurantia</text>
											<text transform="matrix(0.7071 -0.7071 0.7071 0.7071 295.1175 154.0103)" class="st4 st5">Meiothermus_silvanus</text>
											<text transform="matrix(0.7071 -0.7071 0.7071 0.7071 357.3394 157.1729)" class="st4 st5">Pseudomonas_stutzeri</text>
											<text transform="matrix(0.7071 -0.7071 0.7071 0.7071 395.22 184.6768)" class="st4 st5">Natronobacterium_gregoryi</text>
											<text transform="matrix(0.7071 -0.7071 0.7071 0.7071 512.4844 132.7969)" class="st4 st5">Terriglobus_roseus</text>
											<text transform="matrix(0.7071 -0.7071 0.7071 0.7071 537.0103 173.6558)" class="st4 st5">Thermobacillus_composti</text>
											<text transform="matrix(0.7071 -0.7071 0.7071 0.7071 574.884 201.1665)" class="st4 st5">Corynebacterium_glutamicum</text>
											<text transform="matrix(0.7071 -0.7071 0.7071 0.7071 641.843 199.5923)" class="st4 st5">Coraliomargarita_akajimensis</text>
											<text transform="matrix(0.7071 -0.7071 0.7071 0.7071 765.3635 141.4561)" class="st4 st5">Salmonella_enterica</text>
											<text transform="matrix(0.7071 -0.7071 0.7071 0.7071 833.8833 138.3213)" class="st4 st5">Salmonella_bongori</text>
											<text transform="matrix(0.7071 -0.7071 0.7071 0.7071 989.6934 47.8955)" class="st4 st5">E.coli</text>
											<text transform="matrix(0.7071 -0.7071 0.7071 0.7071 924.5601 178.4136)" class="st4 st5">Spirochaeta_smaragdinae</text>
											<text transform="matrix(0.7071 -0.7071 0.7071 0.7071 969.5186 198.8394)" class="st4 st5">Desulfotomaculum_gibsoniae</text>
											<text transform="matrix(0.7071 -0.7071 0.7071 0.7071 1120.6055 113.1372)" class="st4 st5">Hirschia_baltica</text>
											<text transform="matrix(0.7071 -0.7071 0.7071 0.7071 1130.9546 168.1729)" class="st4 st5">Echinicola_vietnamensis</text>
											<text transform="matrix(0.7071 -0.7071 0.7071 0.7071 1160.9563 203.5557)" class="st4 st5">Desulfosporosinus_acidiphilus</text>
											<text transform="matrix(0.7071 -0.7071 0.7071 0.7071 1242.8652 187.0312)" class="st4 st5">Desulfosporosinus_meridiei</text>
											<text transform="matrix(0.7071 -0.7071 0.7071 0.7071 1318.4973 176.7837)" class="st4 st5">Clostridium_thermocellum</text>
											<text transform="matrix(0.7071 -0.7071 0.7071 0.7071 1353.1877 207.478)" class="st4 st5">Fervidobacterium_pennivorans</text>
											<text transform="matrix(0.7071 -0.7071 0.7071 0.7071 1453.9277 172.1226)" class="st4 st5">Streptococcus_pyogenes</text>
											<text transform="matrix(0.7071 -0.7071 0.7071 0.7071 1528.7795 162.6553)" class="st4 st5">Clostridium_perfringens</text>
										</g>
										<g pointer-events="none">
											<text transform="matrix(1 0 0 1 806.5269 222)" class="st7 st15">Species</text>
										</g>
									</g>
									<path pointer-events="none" class="st10" d="M0,0"/>
								</g>
							</g>
							<g>
								<g transform="translate(1700.5,0.5)">
									<path pointer-events="none" class="st1" d="M0,0L0,0L0,0L0,0z"/>
									<g>
										<g pointer-events="none">
											<text transform="matrix(1 0 0 1 2 37.5)" class="st7 st5">phyloFlash hit</text>
											<text transform="matrix(1 0 0 1 2 101.5)" class="st7 st5">DeLUCS hit</text>
										</g>
									</g>
									<path pointer-events="none" class="st10" d="M0,0"/>
								</g>
							</g>
							<g>
								<path class="st6" d="M42.7,32c0,5.5-4.5,10-10,10s-10-4.5-10-10s4.5-10,10-10S42.7,26.5,42.7,32"/>
								<path class="st6" d="M42.7,96c0,5.5-4.5,10-10,10s-10-4.5-10-10s4.5-10,10-10S42.7,90.5,42.7,96"/>
								<path class="st6" d="M108.1,32c0,5.5-4.5,10-10,10s-10-4.5-10-10s4.5-10,10-10S108.1,26.5,108.1,32"/>
								<path class="st6" d="M108.1,96c0,5.5-4.5,10-10,10s-10-4.5-10-10s4.5-10,10-10S108.1,90.5,108.1,96"/>
								<path class="st6" d="M173.5,32c0,5.5-4.5,10-10,10s-10-4.5-10-10s4.5-10,10-10S173.5,26.5,173.5,32"/>
								<path class="st6" d="M173.5,96c0,5.5-4.5,10-10,10s-10-4.5-10-10s4.5-10,10-10S173.5,90.5,173.5,96"/>
								<path class="st6" d="M238.8,32c0,5.5-4.5,10-10,10s-10-4.5-10-10s4.5-10,10-10S238.8,26.5,238.8,32"/>
								<path class="st6" d="M238.8,96c0,5.5-4.5,10-10,10s-10-4.5-10-10s4.5-10,10-10S238.8,90.5,238.8,96"/>
								<path class="st6" d="M304.2,32c0,5.5-4.5,10-10,10s-10-4.5-10-10s4.5-10,10-10S304.2,26.5,304.2,32"/>
								<path class="st6" d="M304.2,96c0,5.5-4.5,10-10,10s-10-4.5-10-10s4.5-10,10-10S304.2,90.5,304.2,96"/>
								<path class="st6" d="M369.6,32c0,5.5-4.5,10-10,10s-10-4.5-10-10s4.5-10,10-10S369.6,26.5,369.6,32"/>
								<path class="st6" d="M369.6,96c0,5.5-4.5,10-10,10s-10-4.5-10-10s4.5-10,10-10S369.6,90.5,369.6,96"/>
								<path class="st6" d="M435,32c0,5.5-4.5,10-10,10s-10-4.5-10-10s4.5-10,10-10S435,26.5,435,32"/>
								<path class="st6" d="M435,96c0,5.5-4.5,10-10,10s-10-4.5-10-10s4.5-10,10-10S435,90.5,435,96"/>
								<path class="st6" d="M500.4,32c0,5.5-4.5,10-10,10s-10-4.5-10-10s4.5-10,10-10S500.4,26.5,500.4,32"/>
								<path class="st6" d="M500.4,96c0,5.5-4.5,10-10,10s-10-4.5-10-10s4.5-10,10-10S500.4,90.5,500.4,96"/>
								<path class="st6" d="M565.8,32c0,5.5-4.5,10-10,10s-10-4.5-10-10s4.5-10,10-10S565.8,26.5,565.8,32"/>
								<path class="st6" d="M565.8,96c0,5.5-4.5,10-10,10s-10-4.5-10-10s4.5-10,10-10S565.8,90.5,565.8,96"/>
								<path class="st6" d="M631.2,32c0,5.5-4.5,10-10,10s-10-4.5-10-10s4.5-10,10-10S631.2,26.5,631.2,32"/>
								<path class="st6" d="M631.2,96c0,5.5-4.5,10-10,10s-10-4.5-10-10s4.5-10,10-10S631.2,90.5,631.2,96"/>
								<path class="st6" d="M696.5,32c0,5.5-4.5,10-10,10s-10-4.5-10-10s4.5-10,10-10S696.5,26.5,696.5,32"/>
								<path class="st6" d="M696.5,96c0,5.5-4.5,10-10,10s-10-4.5-10-10s4.5-10,10-10S696.5,90.5,696.5,96"/>
								<path class="st6" d="M761.9,32c0,5.5-4.5,10-10,10s-10-4.5-10-10s4.5-10,10-10S761.9,26.5,761.9,32"/>
								<path class="st6" d="M761.9,96c0,5.5-4.5,10-10,10s-10-4.5-10-10s4.5-10,10-10S761.9,90.5,761.9,96"/>
								<path class="st6" d="M827.3,32c0,5.5-4.5,10-10,10s-10-4.5-10-10s4.5-10,10-10S827.3,26.5,827.3,32"/>
								<path class="st6" d="M827.3,96c0,5.5-4.5,10-10,10s-10-4.5-10-10s4.5-10,10-10S827.3,90.5,827.3,96"/>
								<path class="st6" d="M892.7,32c0,5.5-4.5,10-10,10s-10-4.5-10-10s4.5-10,10-10S892.7,26.5,892.7,32"/>
								<path class="st6" d="M892.7,96c0,5.5-4.5,10-10,10s-10-4.5-10-10s4.5-10,10-10S892.7,90.5,892.7,96"/>
								<path class="st6" d="M958.1,32c0,5.5-4.5,10-10,10s-10-4.5-10-10s4.5-10,10-10S958.1,26.5,958.1,32"/>
								<path class="st6" d="M958.1,96c0,5.5-4.5,10-10,10s-10-4.5-10-10s4.5-10,10-10S958.1,90.5,958.1,96"/>
								<path class="st6" d="M1023.5,32c0,5.5-4.5,10-10,10s-10-4.5-10-10s4.5-10,10-10S1023.5,26.5,1023.5,32"/>
								<path class="st6" d="M1023.5,96c0,5.5-4.5,10-10,10s-10-4.5-10-10s4.5-10,10-10S1023.5,90.5,1023.5,96"/>
								<path class="st6" d="M1088.8,32c0,5.5-4.5,10-10,10s-10-4.5-10-10s4.5-10,10-10S1088.8,26.5,1088.8,32"/>
								<path class="st6" d="M1088.8,96c0,5.5-4.5,10-10,10s-10-4.5-10-10s4.5-10,10-10S1088.8,90.5,1088.8,96"/>
								<path class="st6" d="M1154.2,32c0,5.5-4.5,10-10,10s-10-4.5-10-10s4.5-10,10-10S1154.2,26.5,1154.2,32"/>
								<path class="st6" d="M1154.2,96c0,5.5-4.5,10-10,10s-10-4.5-10-10s4.5-10,10-10S1154.2,90.5,1154.2,96"/>
								<path class="st6" d="M1219.6,32c0,5.5-4.5,10-10,10s-10-4.5-10-10s4.5-10,10-10S1219.6,26.5,1219.6,32"/>
								<path class="st6" d="M1219.6,96c0,5.5-4.5,10-10,10s-10-4.5-10-10s4.5-10,10-10S1219.6,90.5,1219.6,96"/>
								<path class="st6" d="M1285,32c0,5.5-4.5,10-10,10s-10-4.5-10-10s4.5-10,10-10S1285,26.5,1285,32"/>
								<path class="st6" d="M1285,96c0,5.5-4.5,10-10,10s-10-4.5-10-10s4.5-10,10-10S1285,90.5,1285,96"/>
								<path class="st6" d="M1350.4,32c0,5.5-4.5,10-10,10s-10-4.5-10-10s4.5-10,10-10S1350.4,26.5,1350.4,32"/>
								<path class="st6" d="M1350.4,96c0,5.5-4.5,10-10,10s-10-4.5-10-10s4.5-10,10-10S1350.4,90.5,1350.4,96"/>
								<path class="st6" d="M1415.8,32c0,5.5-4.5,10-10,10s-10-4.5-10-10s4.5-10,10-10S1415.8,26.5,1415.8,32"/>
								<path class="st6" d="M1415.8,96c0,5.5-4.5,10-10,10s-10-4.5-10-10s4.5-10,10-10S1415.8,90.5,1415.8,96"/>
								<path class="st6" d="M1481.2,32c0,5.5-4.5,10-10,10s-10-4.5-10-10s4.5-10,10-10S1481.2,26.5,1481.2,32"/>
								<path class="st6" d="M1481.2,96c0,5.5-4.5,10-10,10s-10-4.5-10-10s4.5-10,10-10S1481.2,90.5,1481.2,96"/>
								<path class="st6" d="M1546.5,32c0,5.5-4.5,10-10,10s-10-4.5-10-10s4.5-10,10-10S1546.5,26.5,1546.5,32"/>
								<path class="st6" d="M1546.5,96c0,5.5-4.5,10-10,10s-10-4.5-10-10s4.5-10,10-10S1546.5,90.5,1546.5,96"/>
								<path class="st6" d="M1611.9,32c0,5.5-4.5,10-10,10s-10-4.5-10-10s4.5-10,10-10S1611.9,26.5,1611.9,32"/>
								<path class="st6" d="M1611.9,96c0,5.5-4.5,10-10,10s-10-4.5-10-10s4.5-10,10-10S1611.9,90.5,1611.9,96"/>
								<path class="st6" d="M1677.3,32c0,5.5-4.5,10-10,10s-10-4.5-10-10s4.5-10,10-10S1677.3,26.5,1677.3,32"/>
								<path class="st6" d="M1677.3,96c0,5.5-4.5,10-10,10s-10-4.5-10-10s4.5-10,10-10S1677.3,90.5,1677.3,96"/>
							</g>
							<g pointer-events="none">
								<path class="st16" d="M0,64h65.4v64H0V64z"/>
								<path class="st16" d="M65.4,64h65.4v64H65.4V64z"/>
								<path class="st16" d="M130.8,64h65.4v64h-65.4V64z"/>
								<path class="st16" d="M196.2,64h65.4v64h-65.4V64z"/>
								<path class="st16" d="M261.5,64h65.4v64h-65.4V64z"/>
								<path class="st16" d="M326.9,64h65.4v64h-65.4V64z"/>
								<path class="st16" d="M392.3,64h65.4v64h-65.4V64z"/>
								<path class="st16" d="M457.7,64h65.4v64h-65.4L457.7,64z"/>
								<path class="st16" d="M523.1,64h65.4v64h-65.4V64z"/>
								<path class="st16" d="M588.5,64h65.4v64h-65.4V64z"/>
								<path class="st16" d="M653.8,64h65.4v64h-65.4L653.8,64z"/>
								<path class="st16" d="M719.2,64h65.4v64h-65.4L719.2,64z"/>
								<path class="st16" d="M784.6,64H850v64h-65.4V64z"/>
								<path class="st16" d="M850,64h65.4v64H850V64z"/>
								<path class="st16" d="M915.4,64h65.4v64h-65.4V64z"/>
								<path class="st16" d="M980.8,64h65.4v64h-65.4L980.8,64z"/>
								<path class="st16" d="M1046.2,64h65.4v64h-65.4V64z"/>
								<path class="st16" d="M1111.5,64h65.4v64h-65.4V64z"/>
								<path class="st16" d="M1176.9,64h65.4v64h-65.4V64z"/>
								<path class="st16" d="M1242.3,64h65.4v64h-65.4V64z"/>
								<path class="st16" d="M1307.7,64h65.4v64h-65.4V64z"/>
								<path class="st16" d="M1373.1,64h65.4v64h-65.4V64z"/>
								<path class="st16" d="M1438.5,64h65.4v64h-65.4V64z"/>
								<path class="st16" d="M1503.8,64h65.4v64h-65.4V64z"/>
								<path class="st16" d="M1569.2,64h65.4v64h-65.4V64z"/>
								<path class="st16" d="M1634.6,64h65.4v64h-65.4V64z"/>
							</g>
							<g pointer-events="none">
								<path class="st6" d="M42.7,32c0,5.5-4.5,10-10,10s-10-4.5-10-10s4.5-10,10-10S42.7,26.5,42.7,32"/>
								<path class="st6" d="M42.7,96c0,5.5-4.5,10-10,10s-10-4.5-10-10s4.5-10,10-10S42.7,90.5,42.7,96"/>
								<path class="st6" d="M108.1,32c0,5.5-4.5,10-10,10s-10-4.5-10-10s4.5-10,10-10S108.1,26.5,108.1,32"/>
								<path class="st6" d="M108.1,96c0,5.5-4.5,10-10,10s-10-4.5-10-10s4.5-10,10-10S108.1,90.5,108.1,96"/>
								<path class="st6" d="M173.5,32c0,5.5-4.5,10-10,10s-10-4.5-10-10s4.5-10,10-10S173.5,26.5,173.5,32"/>
								<path class="st6" d="M173.5,96c0,5.5-4.5,10-10,10s-10-4.5-10-10s4.5-10,10-10S173.5,90.5,173.5,96"/>
								<path class="st6" d="M238.8,32c0,5.5-4.5,10-10,10s-10-4.5-10-10s4.5-10,10-10S238.8,26.5,238.8,32"/>
								<path class="st6" d="M238.8,96c0,5.5-4.5,10-10,10s-10-4.5-10-10s4.5-10,10-10S238.8,90.5,238.8,96"/>
								<path class="st6" d="M304.2,32c0,5.5-4.5,10-10,10s-10-4.5-10-10s4.5-10,10-10S304.2,26.5,304.2,32"/>
								<path class="st6" d="M304.2,96c0,5.5-4.5,10-10,10s-10-4.5-10-10s4.5-10,10-10S304.2,90.5,304.2,96"/>
								<path class="st6" d="M369.6,32c0,5.5-4.5,10-10,10s-10-4.5-10-10s4.5-10,10-10S369.6,26.5,369.6,32"/>
								<path class="st6" d="M369.6,96c0,5.5-4.5,10-10,10s-10-4.5-10-10s4.5-10,10-10S369.6,90.5,369.6,96"/>
								<path class="st6" d="M435,32c0,5.5-4.5,10-10,10s-10-4.5-10-10s4.5-10,10-10S435,26.5,435,32"/>
								<path class="st6" d="M435,96c0,5.5-4.5,10-10,10s-10-4.5-10-10s4.5-10,10-10S435,90.5,435,96"/>
								<path class="st6" d="M500.4,32c0,5.5-4.5,10-10,10s-10-4.5-10-10s4.5-10,10-10S500.4,26.5,500.4,32"/>
								<path class="st6" d="M500.4,96c0,5.5-4.5,10-10,10s-10-4.5-10-10s4.5-10,10-10S500.4,90.5,500.4,96"/>
								<path class="st6" d="M565.8,32c0,5.5-4.5,10-10,10s-10-4.5-10-10s4.5-10,10-10S565.8,26.5,565.8,32"/>
								<path class="st6" d="M565.8,96c0,5.5-4.5,10-10,10s-10-4.5-10-10s4.5-10,10-10S565.8,90.5,565.8,96"/>
								<path class="st6" d="M631.2,32c0,5.5-4.5,10-10,10s-10-4.5-10-10s4.5-10,10-10S631.2,26.5,631.2,32"/>
								<path class="st6" d="M631.2,96c0,5.5-4.5,10-10,10s-10-4.5-10-10s4.5-10,10-10S631.2,90.5,631.2,96"/>
								<path class="st6" d="M696.5,32c0,5.5-4.5,10-10,10s-10-4.5-10-10s4.5-10,10-10S696.5,26.5,696.5,32"/>
								<path class="st6" d="M696.5,96c0,5.5-4.5,10-10,10s-10-4.5-10-10s4.5-10,10-10S696.5,90.5,696.5,96"/>
								<path class="st6" d="M761.9,32c0,5.5-4.5,10-10,10s-10-4.5-10-10s4.5-10,10-10S761.9,26.5,761.9,32"/>
								<path class="st6" d="M761.9,96c0,5.5-4.5,10-10,10s-10-4.5-10-10s4.5-10,10-10S761.9,90.5,761.9,96"/>
								<path class="st6" d="M827.3,32c0,5.5-4.5,10-10,10s-10-4.5-10-10s4.5-10,10-10S827.3,26.5,827.3,32"/>
								<path class="st6" d="M827.3,96c0,5.5-4.5,10-10,10s-10-4.5-10-10s4.5-10,10-10S827.3,90.5,827.3,96"/>
								<path class="st6" d="M892.7,32c0,5.5-4.5,10-10,10s-10-4.5-10-10s4.5-10,10-10S892.7,26.5,892.7,32"/>
								<path class="st6" d="M892.7,96c0,5.5-4.5,10-10,10s-10-4.5-10-10s4.5-10,10-10S892.7,90.5,892.7,96"/>
								<path class="st6" d="M958.1,32c0,5.5-4.5,10-10,10s-10-4.5-10-10s4.5-10,10-10S958.1,26.5,958.1,32"/>
								<path class="st6" d="M958.1,96c0,5.5-4.5,10-10,10s-10-4.5-10-10s4.5-10,10-10S958.1,90.5,958.1,96"/>
								<path class="st6" d="M1023.5,32c0,5.5-4.5,10-10,10s-10-4.5-10-10s4.5-10,10-10S1023.5,26.5,1023.5,32"/>
								<path class="st6" d="M1023.5,96c0,5.5-4.5,10-10,10s-10-4.5-10-10s4.5-10,10-10S1023.5,90.5,1023.5,96"/>
								<path class="st6" d="M1088.8,32c0,5.5-4.5,10-10,10s-10-4.5-10-10s4.5-10,10-10S1088.8,26.5,1088.8,32"/>
								<path class="st6" d="M1088.8,96c0,5.5-4.5,10-10,10s-10-4.5-10-10s4.5-10,10-10S1088.8,90.5,1088.8,96"/>
								<path class="st6" d="M1154.2,32c0,5.5-4.5,10-10,10s-10-4.5-10-10s4.5-10,10-10S1154.2,26.5,1154.2,32"/>
								<path class="st6" d="M1154.2,96c0,5.5-4.5,10-10,10s-10-4.5-10-10s4.5-10,10-10S1154.2,90.5,1154.2,96"/>
								<path class="st6" d="M1219.6,32c0,5.5-4.5,10-10,10s-10-4.5-10-10s4.5-10,10-10S1219.6,26.5,1219.6,32"/>
								<path class="st6" d="M1219.6,96c0,5.5-4.5,10-10,10s-10-4.5-10-10s4.5-10,10-10S1219.6,90.5,1219.6,96"/>
								<path class="st6" d="M1285,32c0,5.5-4.5,10-10,10s-10-4.5-10-10s4.5-10,10-10S1285,26.5,1285,32"/>
								<path class="st6" d="M1285,96c0,5.5-4.5,10-10,10s-10-4.5-10-10s4.5-10,10-10S1285,90.5,1285,96"/>
								<path class="st6" d="M1350.4,32c0,5.5-4.5,10-10,10s-10-4.5-10-10s4.5-10,10-10S1350.4,26.5,1350.4,32"/>
								<path class="st6" d="M1350.4,96c0,5.5-4.5,10-10,10s-10-4.5-10-10s4.5-10,10-10S1350.4,90.5,1350.4,96"/>
								<path class="st6" d="M1415.8,32c0,5.5-4.5,10-10,10s-10-4.5-10-10s4.5-10,10-10S1415.8,26.5,1415.8,32"/>
								<path class="st6" d="M1415.8,96c0,5.5-4.5,10-10,10s-10-4.5-10-10s4.5-10,10-10S1415.8,90.5,1415.8,96"/>
								<path class="st6" d="M1481.2,32c0,5.5-4.5,10-10,10s-10-4.5-10-10s4.5-10,10-10S1481.2,26.5,1481.2,32"/>
								<path class="st6" d="M1481.2,96c0,5.5-4.5,10-10,10s-10-4.5-10-10s4.5-10,10-10S1481.2,90.5,1481.2,96"/>
								<path class="st6" d="M1546.5,32c0,5.5-4.5,10-10,10s-10-4.5-10-10s4.5-10,10-10S1546.5,26.5,1546.5,32"/>
								<path class="st6" d="M1546.5,96c0,5.5-4.5,10-10,10s-10-4.5-10-10s4.5-10,10-10S1546.5,90.5,1546.5,96"/>
								<path class="st6" d="M1611.9,32c0,5.5-4.5,10-10,10s-10-4.5-10-10s4.5-10,10-10S1611.9,26.5,1611.9,32"/>
								<path class="st6" d="M1611.9,96c0,5.5-4.5,10-10,10s-10-4.5-10-10s4.5-10,10-10S1611.9,90.5,1611.9,96"/>
								<path class="st6" d="M1677.3,32c0,5.5-4.5,10-10,10s-10-4.5-10-10s4.5-10,10-10S1677.3,26.5,1677.3,32"/>
								<path class="st6" d="M1677.3,96c0,5.5-4.5,10-10,10s-10-4.5-10-10s4.5-10,10-10S1677.3,90.5,1677.3,96"/>
							</g>
							<g pointer-events="none">
								<path class="st17" d="M43.1,32c0,5.7-4.6,10.4-10.4,10.4S22.3,37.7,22.3,32S27,21.6,32.7,21.6S43.1,26.3,43.1,32"/>
								<path class="st17" d="M108.4,96c0,5.7-4.6,10.4-10.4,10.4S87.7,101.7,87.7,96s4.6-10.4,10.4-10.4S108.4,90.3,108.4,96"/>
								<path class="st17" d="M173.8,96c0,5.7-4.6,10.4-10.4,10.4s-10.4-4.6-10.4-10.4s4.6-10.4,10.4-10.4S173.8,90.3,173.8,96"/>
								<path class="st17" d="M958.4,32c0,5.7-4.6,10.4-10.4,10.4s-10.4-4.6-10.4-10.4s4.6-10.4,10.4-10.4S958.4,26.3,958.4,32"/>
								<path class="st17" d="M958.4,96c0,5.7-4.6,10.4-10.4,10.4s-10.4-4.6-10.4-10.4s4.6-10.4,10.4-10.4S958.4,90.3,958.4,96"/>
								<path class="st17" d="M1023.8,32c0,5.7-4.6,10.4-10.4,10.4s-10.4-4.6-10.4-10.4s4.6-10.4,10.4-10.4S1023.8,26.3,1023.8,32"
									/>
								<path class="st17" d="M1546.9,32c0,5.7-4.6,10.4-10.4,10.4s-10.4-4.6-10.4-10.4s4.6-10.4,10.4-10.4S1546.9,26.3,1546.9,32"
									/>
								<path class="st17" d="M1612.3,96c0,5.7-4.6,10.4-10.4,10.4s-10.4-4.6-10.4-10.4s4.6-10.4,10.4-10.4S1612.3,90.3,1612.3,96"
									/>
							</g>
						</g>
						<path class="st18" d="M0,0"/>
					</g>
				</g>
			</g>
			<path class="st18" d="M0,0"/>
		</g>
	</g>
</g>
<g>
	<line x1="854.1" y1="46.3" x2="857.9" y2="684.3"/>
	<g>
		<line class="st19" x1="854.1" y1="46.3" x2="854.2" y2="53.8"/>
		<line class="st20" x1="854.2" y1="69" x2="857.8" y2="669.2"/>
		<line class="st19" x1="857.9" y1="676.8" x2="857.9" y2="684.3"/>
	</g>
</g>
<g>
	<line x1="1572" y1="53.6" x2="1575.7" y2="691.6"/>
	<g>
		<line class="st19" x1="1572" y1="53.6" x2="1572" y2="61.1"/>
		<line class="st20" x1="1572.1" y1="76.3" x2="1575.7" y2="676.5"/>
		<line class="st19" x1="1575.7" y1="684.1" x2="1575.7" y2="691.6"/>
	</g>
</g>
<text transform="matrix(1 0 0 1 774.5175 118.3548)" class="st21 st22">High</text>
<text transform="matrix(1 0 0 1 1214.8464 120.5)" class="st21 st22">Medium</text>
<text transform="matrix(1 0 0 1 1602.3535 126.7498)" class="st21 st22">Low</text>
</svg>
